<?xml version="1.0" encoding="utf-8"?>
<!-- Generator: Adobe Illustrator 19.1.0, SVG Export Plug-In . SVG Version: 6.00 Build 0)  -->
<svg version="1.1" id="Layer_1" xmlns="http://www.w3.org/2000/svg" xmlns:xlink="http://www.w3.org/1999/xlink" x="0px" y="0px"
	 viewBox="-49 141 512 512" style="enable-background:new -49 141 512 512;" xml:space="preserve">
<style type="text/css">
	.st0{fill:none;}
	.st1{fill:#4E7AC7;}
	.st2{fill:#35478C;}
	.st3{fill:#B0AFB0;}
	.st4{fill:#8E8E8E;}
</style>
<polygon class="st0" points="-331.7,1052.2 -335.7,1068.7 -323.2,1081.2 -306.7,1077.2 -302.7,1060.7 -315.2,1048.2 "/>
<polygon class="st0" points="89.8,1108.5 106.3,1104.5 110.3,1088 104.2,1081.8 83.6,1102.3 "/>
<polygon class="st0" points="97.8,1075.5 81.3,1079.5 77.3,1096 83.4,1102 103.5,1081.2 "/>
<g>
	<ellipse class="st1" cx="206.6" cy="396.9" rx="244.6" ry="244.9"/>
	<path class="st0" d="M97.1,535.3l0.6-0.6c-6.7-1.3-13.3-4.5-18.6-9.9c-13.4-13.4-13.9-34.7-1.2-47.4c7.1-7.2,16.9-10.1,26.5-9
		L258.8,314c-4.6-15-1.4-31.6,10.1-43.1c12.9-12.9,32.3-15.4,48.7-7.9l-23.8,8.3l-10.3,29.6l19.3,19.5l6.8-2.4l31-31.6l110.9,101.6
		C447,256.9,339.4,152.2,207.5,152.2c-135.1,0-244.6,109.7-244.6,244.9S72.3,642,207.5,642c0.6,0,1.2,0,1.8,0L97.1,535.3z"/>
	<path class="st2" d="M332.9,334.9c-11.5,11.5-28.1,14.7-43.1,10.1L135.5,499.5c1.1,9.6-1.9,19.4-9.1,26.6
		c-7.7,7.7-18.4,10.5-28.7,8.6l-0.6,0.6l112.1,106.6C343.5,640.9,452,531.6,452,397c0-3.1-0.1-6.1-0.2-9.3L340.7,286.1
		C348.2,302.5,345.7,322,332.9,334.9z"/>
	<path class="st3" d="M340.7,286.1l-8.3,23.8l-22.8,7.9l-6.8,2.4l-19.3-19.5l10.3-29.6l23.8-8.3c-16.4-7.6-35.8-5-48.7,7.9
		c-11.5,11.5-14.7,28.1-10.1,43.1L104.3,468.5c-9.6-1.1-19.3,1.8-26.5,9c-12.7,12.7-12.2,34,1.2,47.4c5.3,5.3,11.9,8.6,18.6,9.9
		c10.3,1.9,21-0.9,28.7-8.6c7.1-7.3,10.2-17,9.1-26.6L289.6,345c15,4.6,31.6,1.4,43.1-10.1C345.7,322,348.2,302.5,340.7,286.1z
		 M85.3,505.9l4-16.6l16.6-4l12.6,12.6l-4,16.6l-16.6,4L85.3,505.9z"/>
	<path class="st4" d="M341,286.1l-8.3,23.8l-22.8,7.9l-6.8,2.4L294,311L112.8,491.6l6.2,6.2l-4,16.6l-16.6,4l-6.2-6.2l-12.6,12.5
		c5.3,5.3,11.9,8.6,18.6,9.9c10.3,1.9,21-0.9,28.7-8.6c7.1-7.3,10.2-17,9.1-26.6L290.2,345c15,4.6,31.6,1.4,43.1-10.1
		C346,322,348.5,302.5,341,286.1z"/>
</g>
</svg>
