<?xml version="1.0" encoding="utf-8"?>
<!-- Generator: Adobe Illustrator 19.1.0, SVG Export Plug-In . SVG Version: 6.00 Build 0)  -->
<svg version="1.1" id="Layer_1" xmlns="http://www.w3.org/2000/svg" xmlns:xlink="http://www.w3.org/1999/xlink" x="0px" y="0px"
	 viewBox="-49 141 512 512" style="enable-background:new -49 141 512 512;" xml:space="preserve">
<style type="text/css">
	.st0{fill:#374140;}
	.st1{clip-path:url(#SVGID_2_);fill:#2A2C2B;}
	.st2{fill:#DDDDDD;}
	.st3{fill:#AAAAAA;}
	.st4{fill:#EF4951;}
	.st5{fill:#67BD56;}
	.st6{fill:#525DAA;}
	.st7{opacity:0.7;fill:none;stroke:#000000;stroke-width:3;stroke-linejoin:round;stroke-miterlimit:10;enable-background:new    ;}
</style>
<g>
	<circle class="st0" cx="207" cy="397" r="245"/>
	<g>
		<g>
			<g>
				<g>
					<g>
						<defs>
							<circle id="SVGID_1_" cx="207" cy="397" r="245"/>
						</defs>
						<clipPath id="SVGID_2_">
							<use xlink:href="#SVGID_1_"  style="overflow:visible;"/>
						</clipPath>
						<polyline class="st1" points="354.3,309.6 62.2,484.2 300.6,709.9 560.1,504.5 						"/>
					</g>
				</g>
			</g>
		</g>
	</g>
	<g>
		<path class="st2" d="M52.5,467.1c0,12,9.7,21.7,21.7,21.7h265.7c12,0,21.7-9.7,21.7-21.7V335.2h-309L52.5,467.1L52.5,467.1z"/>
		<path class="st3" d="M339.9,305.2H74.1c-12,0-21.7,9.7-21.7,21.7v8.4h309v-8.4C361.5,314.9,351.7,305.2,339.9,305.2z"/>
		<circle class="st4" cx="339.9" cy="320.1" r="7"/>
		<circle class="st5" cx="316.9" cy="320.1" r="7"/>
		<circle class="st6" cx="294" cy="320.1" r="7"/>
		<polyline class="st7" points="328,370.6 312.6,361.8 297.4,370.6 282.1,361.8 266.8,370.6 251.6,361.8 236.2,370.6 220.9,361.8 
			205.7,370.6 190.4,361.8 175.1,370.6 159.8,361.8 144.5,370.6 129.2,361.8 114,370.6 98.7,361.8 83.3,370.6 		"/>
		<polyline class="st7" points="328,411.2 312.6,402.4 297.4,411.2 282.1,402.4 266.8,411.2 251.6,402.4 236.2,411.2 220.9,402.4 
			205.7,411.2 190.4,402.4 175.1,411.2 159.8,402.4 144.5,411.2 129.2,402.4 114,411.2 98.7,402.4 83.3,411.2 		"/>
		<polyline class="st7" points="328,451.9 312.6,443.1 297.4,451.9 282.1,443.1 266.8,451.9 251.6,443.1 236.2,451.9 220.9,443.1 
			205.7,451.9 190.4,443.1 175.1,451.9 159.8,443.1 144.5,451.9 129.2,443.1 114,451.9 98.7,443.1 83.3,451.9 		"/>
	</g>
</g>
</svg>
