<svg id="Layer_1" data-name="Layer 1" xmlns="http://www.w3.org/2000/svg" xmlns:xlink="http://www.w3.org/1999/xlink" viewBox="0 0 1920 379.28"><defs><style>.cls-1{fill:none;}.cls-2{fill:#fff;}.cls-3{fill:#dad2c8;}.cls-4{fill:#c23c27;}.cls-5{fill:#c33c28;}.cls-6{opacity:0.2;}.cls-7{clip-path:url(#clip-path);}.cls-8{fill:#231f20;}.cls-9{fill:#ea4c36;}.cls-10{fill:#c43e29;}.cls-11{fill:#c33c27;}.cls-12{fill:#ef7565;opacity:0.45;}.cls-13{font-size:247.58px;fill:#2f3540;font-family:Montserrat;font-weight:700;}</style><clipPath id="clip-path"><rect id="SVGID" class="cls-1" x="226.35" y="185.42" width="6.34" height="19.05" transform="translate(-70.62 219.39) rotate(-45)"/></clipPath></defs><title>launchpad</title><circle class="cls-2" cx="227.87" cy="189.33" r="156.87"/><path class="cls-3" d="M228.47,32.91A156.93,156.93,0,0,0,71.53,189.84c0,40.39,15.47,69.11,28.08,89.33,10.65,11.74,56.7-25.28,82.44-48.76,0.76-.69,37.49-37.49,37.49-37.49l10.52,10.52s-36.7,36.59-37.24,37.19c-59.63,66.62-42,85-42,85l-0.18-.14c22.07,13.78,51.48,22,77.83,21.28,86.64-2.45,156.93-70.26,156.93-156.93A156.93,156.93,0,0,0,228.47,32.91Z"/><path class="cls-2" d="M316,106.37a15,15,0,1,0,0,21.19,15,15,0,0,0,0-21.19"/><path class="cls-4" d="M230.69,125.62c5.67-2.54,16.45-3.46,16.9-3.5a0.9,0.9,0,0,1,.91.48,1.11,1.11,0,0,1-.12,1.11l-18.21,42.53a1.32,1.32,0,0,1-.9.58,0.91,0.91,0,0,1-.88-0.34,10.65,10.65,0,0,0-.83-0.92c-2.38-2.38-23-10.65-32.29-5a1.06,1.06,0,0,1-1.22,0l-0.06-.06a1,1,0,0,1-.17-1.11c8.73-20.64,31.1-31.18,36.86-33.76"/><path class="cls-5" d="M237.72,199.83a0.5,0.5,0,0,0-.2-0.67,24.08,24.08,0,0,1-12.22-12.22,0.5,0.5,0,0,0-.67-0.2,2.54,2.54,0,0,0-1,.66l-6,6a1.66,1.66,0,0,0-.65,1.53,32.92,32.92,0,0,0,5.13,7.46,32.93,32.93,0,0,0,7.46,5.13,1.66,1.66,0,0,0,1.54-.65l6-6a2.53,2.53,0,0,0,.66-1"/><g class="cls-6"><g class="cls-7"><path class="cls-8" d="M238.05,199.5a0.5,0.5,0,0,0-.2-0.66,24.05,24.05,0,0,1-12.22-12.22,0.5,0.5,0,0,0-.66-0.2,2.54,2.54,0,0,0-1,.66l-3.33,3.33a2.52,2.52,0,0,1,1-.66,0.5,0.5,0,0,1,.67.2,24.05,24.05,0,0,0,12.22,12.22,0.5,0.5,0,0,1,.2.67,2.51,2.51,0,0,1-.66,1l3.33-3.33a2.53,2.53,0,0,0,.66-1"/></g></g><path class="cls-9" d="M356.16,63.2c-5.43-5.43-62.32,10.16-95.89,43.73-32.55,32.55-36.45,80.57-36.47,81a1.79,1.79,0,0,0,.18,1,46.73,46.73,0,0,0,5.68,6.46c3.9,3.86,5.95,4.88,6.29,5a2.3,2.3,0,0,0,.94.16c16.35,0.54,41.64-2.51,74.84-35.71C345.26,131.34,361.16,68.19,356.16,63.2Zm-40.93,63.45a13.64,13.64,0,1,1,0-19.29A13.66,13.66,0,0,1,315.23,126.64Z"/><path class="cls-9" d="M299.53,197.7c3-7.93,3.44-23.36,3.44-24s-0.5-3-1-3.25-2.22-3.59-4.58-1.83L267,190c-3.31,1.51-3.64,3-3.66,3.51a1.53,1.53,0,0,0,.59,1.32,3.78,3.78,0,0,1,1.43,1.32,36.43,36.43,0,0,1,4.53,30.35,1.85,1.85,0,0,0,.17,1.77l0.09,0.09a1.37,1.37,0,0,0,1.63.37c23.3-15.21,24.63-23,27.7-31.05"/><path class="cls-10" d="M314.6,107.71a13.08,13.08,0,1,1-18.5,0,13.08,13.08,0,0,1,18.5,0m1.35-1.35a15,15,0,1,0,0,21.19,15,15,0,0,0,0-21.19"/><path class="cls-11" d="M352.33,62.1c-5.37-.16-11.51,1.32-18.56,3.18-5.05,1.33-9.06,3-14,4.75,5.2,2.28,9,6.18,13.39,9.75a61.26,61.26,0,0,1,7.68,7.85s1.3,1.5,1.53,1.84,1,1.25,1.14,1.47c1.53,2.25,2.18,2.93,3.81,5.53a27.4,27.4,0,0,1,2.26,3.41c5.25-15.18,6.61-24.24,7-26.82,0.95-6.53.35-8.74-.07-9.37a2.44,2.44,0,0,0-.76-0.84A7.78,7.78,0,0,0,352.33,62.1Z"/><path class="cls-12" d="M356.49,63.69c-2.46,5.32-10.3,27-27,53.59-9.71,15.45-22,28-31,37.5-13.28,14.11-25.9,25.84-41.67,35.27-9.87,5.9-19.71,9.8-19.12,9.78,7.48-.25,17.14,0,27.67-4,13-4.87,34-21.29,34-20.86-0.5,5.84-1.8,15.41-3.79,20.63a60,60,0,0,1-25.29,30.14s0,0-.79,1.44a1.73,1.73,0,0,0,.39,1.84l0.09,0.09a1.41,1.41,0,0,0,1.63.37c19-11,24.64-23,27.7-31.05,2.5-6.57,3.88-19.33,3.63-24.8,0,0,5.6-5,8.58-8,15.27-15.67,27.82-39.95,33.34-53.41,15.19-37,11.6-48.54,11.6-48.54"/><text class="cls-13" transform="translate(465.51 275.17)">Launchpad</text></svg>