<?xml version="1.0" encoding="utf-8"?>
<!-- Generator: Adobe Illustrator 19.1.0, SVG Export Plug-In . SVG Version: 6.00 Build 0)  -->
<svg version="1.1" id="Layer_1" xmlns="http://www.w3.org/2000/svg" xmlns:xlink="http://www.w3.org/1999/xlink" x="0px" y="0px"
	 viewBox="-49 141 512 512" style="enable-background:new -49 141 512 512;" xml:space="preserve">
<style type="text/css">
	.st0{fill:#F15D52;}
	.st1{fill:#45BF55;}
	.st2{fill:#2F2F2F;}
	.st3{fill:#333333;}
	.st4{fill:#563D3C;}
	.st5{fill:none;}
	.st6{fill:#167F39;}
	.st7{fill:#442C2C;}
	.st8{fill:#F8991D;}
	.st9{fill:#F6EC3A;}
	.st10{fill:#FEE600;}
	.st11{fill:#FFCE06;}
	.st12{fill:#D2B48C;}
	.st13{fill:#3D3D3D;}
	.st14{fill:#ABABAB;}
	.st15{fill:#F26D6D;}
</style>
<g>
	<path class="st0" d="M228.8,614.3c0-1.1-0.3-1.9-0.3-1.9S228.7,613.1,228.8,614.3z"/>
	<path class="st0" d="M228.8,614.3c0,0.1,0,0.3,0,0.4l0,0C228.8,614.6,228.8,614.3,228.8,614.3z"/>
	<circle class="st1" cx="207.5" cy="397.5" r="244.5"/>
	<path class="st2" d="M207.5,397.4"/>
	<path class="st3" d="M65.7,523c-1.5,2.5-2.4,4.7-2.5,6.2C63.2,526.8,64.1,524.6,65.7,523z"/>
	<path d="M298.6,333.9"/>
	<path class="st4" d="M252.7,332.7L252.7,332.7L252.7,332.7z"/>
	<path class="st5" d="M64.6,533.8l243.7-234l-9.5-9c0,0-5.7-28.9,26.6-25.9c9.6,0.9,16,0.3,20-0.9l7.5-7.2c0-0.1,0-0.3,0-0.4
		c-0.1-1.3-0.3-1.9-0.3-1.9s0.3,0.8,0.3,1.9c0,0.1,0,0.3,0,0.3l0.3-0.3l89.8,78.3C415.7,229.6,320.2,152,206.5,152
		C71.5,152-38,261.5-38,396.5c0,127.4,97.4,231.9,221.8,243.4L64.6,533.8z"/>
	<path class="st6" d="M353.2,256.8c1.1,9.4,2.8,45.2-39,48.6l-5.8-5.6l-243.7,234L184,640c7.5,0.6,15,1,22.6,1
		c135,0,244.5-109.5,244.5-244.5c0-21.3-2.8-42-7.9-61.8l-89.8-78.2L353.2,256.8z"/>
	<path class="st0" d="M353.2,256.8c-0.1,2.3-1.5,5.5-7.5,7.2c-4.2,1.1-10.4,1.8-20.2,0.9c-32.4-3-26.6,25.9-26.6,25.9l9.5,9l5.8,5.6
		C356.1,302,354.3,266.3,353.2,256.8z"/>
	<g>
		<path class="st4" d="M65.5,520.8c-1.6,2.4-2.7,4.4-2.9,5.8c0,0.3,0,0.4-0.1,0.6c0,0.1,0,0.1,0,0.3c-0.3,2.4,0.5,4.7,2.2,6.2
			c1.8,1.5,4.1,2.3,6.6,2c0.1,0,0.1,0,0.3,0c0.3,0,0.5-0.1,0.8-0.1c0,0,0,0,0.1,0c1.4-0.4,3.4-1.3,5.8-2.8
			c12.2-7.6,36.5-29.1,64.7-55.3c4.9-14.3,110.8-145.9,110.9-145.9C203.6,378.6,86,490,65.5,520.8z"/>
		<path class="st7" d="M143.6,476.9c-0.5,0.5-1,1-1.6,1.5c4.8-14.1,105.8-139.7,110.6-145.7l0.1-0.3c13.8-12.9,22.6-20.9,22.6-20.9
			l18.4,17.5C293.5,329.1,208.9,415.8,143.6,476.9z"/>
	</g>
	<path class="st8" d="M295.1,332.4c-17.1-7.5-23.7-22.5-23.7-22.5l25-21.4l20.8,19.7L295.1,332.4z"/>
	<path class="st9" d="M298.1,329.5c-16.4-8-23.7-22.5-23.7-22.5l22.1-18.7l20.7,19.7L298.1,329.5z"/>
	
		<rect x="32.3" y="402.5" transform="matrix(0.7071 0.7071 -0.7071 0.7071 346.8233 -19.9607)" class="st10" width="330.4" height="12.4"/>
	
		<rect x="47.9" y="386.6" transform="matrix(0.7071 0.7071 -0.7071 0.7071 340.1643 -35.6684)" class="st10" width="330.4" height="12.4"/>
	
		<rect x="56.3" y="401.6" transform="matrix(0.7071 0.7071 -0.7071 0.7071 350.2034 -30.5079)" class="st11" width="311.2" height="11.7"/>
	<polygon class="st12" points="334.1,505 309.5,529.7 344.7,540.4 	"/>
	<polygon class="st13" points="334.4,537.2 335.1,534.4 337.9,533.5 338.8,530.9 341.6,530 344.7,540.4 	"/>
	
		<rect x="84.1" y="272.5" transform="matrix(0.7071 0.7071 -0.7071 0.7071 232.7364 18.0967)" class="st14" width="20.8" height="34.9"/>
	<path class="st15" d="M75.8,259.7L64,271.5c-3.6,3.6-3.6,9.4,0,12.9l10.7,10.7l24.6-24.6l-10.7-10.7
		C85.1,255.9,79.4,255.9,75.8,259.7z"/>
</g>
</svg>
