<?xml version="1.0" encoding="utf-8"?>
<!-- Generator: Adobe Illustrator 19.1.0, SVG Export Plug-In . SVG Version: 6.00 Build 0)  -->
<svg version="1.1" xmlns="http://www.w3.org/2000/svg" xmlns:xlink="http://www.w3.org/1999/xlink" x="0px" y="0px"
	 viewBox="0 0 612 792" style="enable-background:new 0 0 612 792;" xml:space="preserve">
<style type="text/css">
	.st0{fill:#FFFAD7;}
	.st1{fill:#374140;}
	.st2{fill:#2A2C2B;}
	.st3{fill:#FFFFFF;}
	.st4{fill:#E5E5E5;}
	.st5{fill:#3B97D3;}
	.st6{fill:#2980BA;}
	.st7{fill:#E64C3C;}
	.st8{fill:#589040;}
	.st9{fill:#FFD34D;}
	.st10{fill:none;stroke:#1E1E20;stroke-width:2;stroke-miterlimit:10;}
	.st11{fill:#1E1E20;}
</style>
<g id="background">
	<g>
		<rect x="-15.7" y="-15" class="st0" width="643.5" height="822"/>
	</g>
</g>
<g id="flyer">
	<g>
		<g>
			<path class="st1" d="M202.6,226.7c-3.4,0-14.4,0-17.8,0c0,61.2-40.4,146.9-55.2,161.7c3.8,0,11.4,0,21.1,0
				c2.3-14.4,20.7-25.7,43.1-25.7s40.8,11.2,43.1,25.7c9.7,0,17.3,0,21.1,0C243,373.6,202.6,288,202.6,226.7z M193.8,343.7h-0.2
				h-26.3l7.5-17.6h18.8h0.2h18.8l7.5,17.6H193.8z"/>
			<rect x="149.3" y="343.7" class="st1" width="88.8" height="7.7"/>
			<rect x="162.6" y="310.4" class="st1" width="62.1" height="6.1"/>
			<rect x="181.4" y="220.9" class="st1" width="24.6" height="7.3"/>
			<rect x="186" y="215" class="st1" width="15.3" height="7.3"/>
			<rect x="192.3" y="182.7" class="st1" width="2.8" height="32.3"/>
		</g>
		<path class="st2" d="M193.7,343.7h26.3l-7.5-17.6h-18.8h-0.1V182.7h1.4V215h6.2v6h4.7v7.3h-3.4c0.3,25.6,7.4,55.2,16.7,82.1h5.4
			v6.1h-3.2c3.5,9.6,7.2,18.8,11,27.3h5.6v7.7h-2.1c8.5,18.2,16.8,31.9,21.9,37c-3.8,0-11.4,0-21.1,0c-2.3-14.4-20.7-25.7-43.1-25.7
			v-19.1H193.7z"/>
	</g>
	<path class="st1" d="M489.6,346.9h-22.2v-27h6.6v-5.2h10.5v-2.5l-7.3-5.9h-9.7v-26.9h6.6v-5.2h10.5v-2.5l-7.3-5.9H451v-20.2h3.8
		v-4.2h6v-2l-4.2-4.8H451v-19.1h3.8v-4.2h6v-2l-28.9-17.1v-15c0-1.8-1.4-3.2-3.2-3.2s-3.2,1.4-3.2,3.2v15l-28.9,17.1v2h6v4.2h3.8
		v19.1h-5.6l-4.2,4.8v2h6v4.2h3.8v20.2h-26.1l-7.3,5.9v2.5h10.5v5.2h6.6v26.9h-9.7l-7.3,5.9v2.5h10.5v5.2h6.6v27h-22.2l-9.2,5.9v2.5
		h10.7v5.2h8.5v27.9h102v-27.9h8.5v-5.2h10.7v-2.5L489.6,346.9z"/>
	<path class="st2" d="M467.2,346.9v-27h6.6v-5.2h10.5v-2.5l-7.3-5.9h-9.7v-26.9h6.6v-5.2h10.5v-2.5l-7.3-5.9h-26.1v-20.2h3.8v-4.2h6
		v-2l-4.2-4.8h-5.6v-19.1h3.8v-4.2h6v-2l-28.9-17.1v-15c0-1.8-1.4-3.2-3.2-3.2v214.4h51v-27.9h8.5v-5.2h10.7v-2.5l-9.2-5.9H467.2z"
		/>
	<g>
		<path class="st1" d="M335.2,221.2h-3.5v-7.9h-5.8c-2-2-5.9-6.3-7.5-10.6h0.1v-10.6l-8.8-9.5l-8.8,9.5v10.6h0.1
			c-1.5,4.3-5.4,8.6-7.5,10.6h-5.8v7.9h-3.5v47.7h3.5v7.9h4.6v116.9h34.9V276.7h4.6v-7.9h3.5V221.2z"/>
		<path class="st2" d="M309.7,393.6V182.7l8.8,9.5v10.6h-0.1c1.5,4.3,5.4,8.6,7.5,10.6h5.8v7.9h3.5v47.7h-3.5v7.9h-4.6v116.9H309.7z
			"/>
		<g>
			<circle class="st3" cx="309.7" cy="245" r="13.9"/>
			<path class="st4" d="M323.6,245c0,7.7-6.2,13.9-13.9,13.9v-27.8C317.4,231.1,323.6,237.4,323.6,245z"/>
		</g>
	</g>
	<g>
		<polygon class="st5" points="574.8,422.9 554.1,457.2 574.8,491.4 471.8,491.4 471.8,422.9 		"/>
		<polygon class="st6" points="471.8,491.4 517.7,471.2 471.8,471.2 		"/>
		<polygon class="st5" points="39.4,422.9 60.2,457.2 39.4,491.4 142.4,491.4 142.4,422.9 		"/>
		<rect x="96.5" y="381.7" class="st5" width="420.6" height="89.5"/>
		<g>
			<path class="st3" d="M144.5,412.2l10.5,21.8c0.4,0.9,0.7,1.5,0.7,2c0,0.9-0.8,1.8-2.3,2.5c-0.9,0.4-1.6,0.7-2.1,0.7
				s-0.9-0.1-1.2-0.4c-0.3-0.2-0.6-0.5-0.7-0.7c-0.1-0.3-0.3-0.7-0.6-1.2l-2-4.2h-10.8l-2,4.2c-0.3,0.5-0.5,0.9-0.6,1.1
				c-0.1,0.2-0.4,0.5-0.7,0.7c-0.3,0.2-0.7,0.4-1.2,0.4s-1.2-0.2-2.1-0.7c-1.5-0.7-2.3-1.6-2.3-2.5c0-0.4,0.2-1.1,0.7-2l10.5-21.8
				c0.3-0.6,0.7-1.1,1.3-1.4c0.6-0.4,1.2-0.5,1.9-0.5C142.8,410.1,143.8,410.8,144.5,412.2z M141.3,421.5l-2.6,5.3h5.2L141.3,421.5z
				"/>
			<path class="st3" d="M164.7,433h10.6c0.9,0,1.5,0.1,1.9,0.3c0.4,0.2,0.6,0.5,0.8,0.9c0.1,0.4,0.2,1,0.2,1.7s-0.1,1.2-0.2,1.7
				c-0.1,0.4-0.4,0.7-0.7,0.9c-0.5,0.3-1.2,0.4-2,0.4h-14c-1.8,0-2.9-0.5-3.2-1.5c-0.2-0.4-0.2-1.1-0.2-2v-21.7c0-0.6,0-1,0.1-1.3
				s0.2-0.6,0.4-1c0.4-0.7,1.4-1.1,3-1.1c1.8,0,2.9,0.5,3.2,1.4c0.1,0.4,0.2,1.1,0.2,2V433z"/>
			<path class="st3" d="M197.3,412.2l10.5,21.8c0.4,0.9,0.7,1.5,0.7,2c0,0.9-0.8,1.8-2.3,2.5c-0.9,0.4-1.6,0.7-2.1,0.7
				s-0.9-0.1-1.2-0.4c-0.3-0.2-0.6-0.5-0.7-0.7c-0.1-0.3-0.3-0.7-0.6-1.2l-2-4.2h-10.8l-2,4.2c-0.3,0.5-0.5,0.9-0.6,1.1
				c-0.1,0.2-0.4,0.5-0.7,0.7c-0.3,0.2-0.7,0.4-1.2,0.4s-1.2-0.2-2.1-0.7c-1.5-0.7-2.3-1.6-2.3-2.5c0-0.4,0.2-1.1,0.7-2l10.5-21.8
				c0.3-0.6,0.7-1.1,1.3-1.4c0.6-0.4,1.2-0.5,1.9-0.5C195.5,410.1,196.6,410.8,197.3,412.2z M194.1,421.5l-2.6,5.3h5.2L194.1,421.5z
				"/>
			<path class="st3" d="M232.5,433.9c0.4,0.9,0.6,1.6,0.6,2c0,1-0.8,1.8-2.4,2.5c-0.8,0.4-1.5,0.5-2,0.5s-0.9-0.1-1.2-0.4
				c-0.3-0.2-0.6-0.5-0.7-0.8c-0.3-0.5-1.3-2.8-3-7.1l-1.2,0.1h-4.9v4.4c0,0.6,0,1-0.1,1.3c0,0.3-0.2,0.6-0.4,1
				c-0.4,0.7-1.4,1.1-3,1.1c-1.8,0-2.9-0.5-3.2-1.4c-0.2-0.4-0.2-1.1-0.2-2v-21.7c0-0.6,0-1,0.1-1.3s0.2-0.6,0.4-1
				c0.4-0.7,1.4-1.1,3-1.1h8.4c2.3,0,4.5,0.8,6.7,2.5c1,0.8,1.9,1.9,2.6,3.3c0.7,1.4,1,2.9,1,4.6c0,2.9-1,5.4-2.9,7.3
				C230.4,429.1,231.3,431.2,232.5,433.9z M217.5,423.9h5c0.8,0,1.5-0.3,2.3-0.9c0.8-0.6,1.1-1.4,1.1-2.6s-0.4-2-1.1-2.6
				c-0.8-0.6-1.5-0.9-2.3-0.9h-4.9V423.9z"/>
			<path class="st3" d="M257.2,410.7c1.3,0.9,1.9,1.7,1.9,2.6c0,0.5-0.3,1.2-0.9,2.1l-8.4,12.6v7.5c0,0.6,0,1-0.1,1.3
				c0,0.3-0.2,0.6-0.4,1c-0.2,0.4-0.6,0.7-1.1,0.8c-0.5,0.2-1.2,0.2-2,0.2c-0.8,0-1.5-0.1-2-0.2c-0.5-0.2-0.8-0.4-1.1-0.8
				c-0.2-0.4-0.3-0.8-0.4-1.1c0-0.3-0.1-0.8-0.1-1.4v-7.4l-8.4-12.6c-0.6-0.9-0.9-1.6-0.9-2.1c0-0.8,0.6-1.6,1.7-2.4
				c1.1-0.8,2-1.2,2.5-1.2c0.5,0,0.9,0.1,1.2,0.3c0.4,0.3,0.9,0.8,1.4,1.6l6,9.7l6-9.7c0.5-0.8,0.9-1.3,1.3-1.5
				c0.4-0.2,0.8-0.4,1.3-0.4C255.4,409.7,256.1,410,257.2,410.7z"/>
			<path class="st3" d="M278,433h10.6c0.9,0,1.5,0.1,1.9,0.3c0.4,0.2,0.6,0.5,0.8,0.9c0.1,0.4,0.2,1,0.2,1.7s-0.1,1.2-0.2,1.7
				c-0.1,0.4-0.4,0.7-0.7,0.9c-0.5,0.3-1.2,0.4-2,0.4h-14c-1.8,0-2.9-0.5-3.2-1.5c-0.2-0.4-0.2-1.1-0.2-2v-21.7c0-0.6,0-1,0.1-1.3
				s0.2-0.6,0.4-1c0.4-0.7,1.4-1.1,3-1.1c1.8,0,2.9,0.5,3.2,1.4c0.1,0.4,0.2,1.1,0.2,2V433z"/>
			<path class="st3" d="M310.5,412.2l10.5,21.8c0.4,0.9,0.7,1.5,0.7,2c0,0.9-0.8,1.8-2.3,2.5c-0.9,0.4-1.6,0.7-2.1,0.7
				c-0.5,0-0.9-0.1-1.3-0.4s-0.6-0.5-0.7-0.7c-0.1-0.3-0.3-0.7-0.6-1.2l-2-4.2H302l-2,4.2c-0.3,0.5-0.5,0.9-0.6,1.1
				c-0.1,0.2-0.4,0.5-0.7,0.7c-0.3,0.2-0.7,0.4-1.2,0.4s-1.2-0.2-2.1-0.7c-1.5-0.7-2.3-1.6-2.3-2.5c0-0.4,0.2-1.1,0.7-2l10.5-21.8
				c0.3-0.6,0.7-1.1,1.3-1.4c0.6-0.4,1.2-0.5,1.9-0.5C308.8,410.1,309.8,410.8,310.5,412.2z M307.3,421.5l-2.6,5.3h5.2L307.3,421.5z
				"/>
			<path class="st3" d="M342.3,411.3c0.2-0.5,0.6-0.8,1.1-0.9s1.1-0.2,1.9-0.2c0.7,0,1.3,0.1,1.8,0.2c0.5,0.1,0.8,0.3,1,0.5
				c0.2,0.2,0.4,0.5,0.5,0.8c0.2,0.4,0.2,1.1,0.2,2v21.7c0,0.6,0,1.1-0.1,1.4s-0.2,0.6-0.4,1c-0.4,0.7-1.4,1.1-3,1.1
				c-1,0-1.7-0.1-2.1-0.2c-0.4-0.2-0.7-0.4-1-0.7c-5.9-7.8-9.7-12.9-11.6-15.3v12.8c0,0.6,0,1.1-0.1,1.4s-0.2,0.6-0.4,1
				c-0.4,0.7-1.4,1.1-3,1.1c-1.6,0-2.6-0.4-3-1.1c-0.2-0.4-0.3-0.7-0.4-1.1s-0.1-0.8-0.1-1.4v-21.8c0-1,0.1-1.7,0.4-2.2
				s0.6-0.8,1.1-0.9s1.1-0.2,1.9-0.2s1.4,0.1,1.9,0.2s0.8,0.3,1,0.5c0.1,0.1,0.4,0.4,0.9,1c5.5,7.5,9.2,12.4,11,14.8v-13.2
				C342,412.5,342.1,411.8,342.3,411.3z"/>
			<path class="st3" d="M366.9,421.5h6.9c1.4,0.1,2.3,0.4,2.6,1.1c0.3,0.5,0.4,1.2,0.4,2.2v8.6c0,0.8-0.4,1.6-1.1,2.4
				c-2.2,2.3-5.5,3.4-9.8,3.4c-3.9,0-7.2-1.5-10.1-4.4c-2.9-2.9-4.3-6.5-4.3-10.6s1.5-7.6,4.4-10.4c2.9-2.8,6.3-4.2,10.3-4.2
				c3.1,0,6,1,8.7,3c0.7,0.5,1.1,1.1,1.1,1.7s-0.3,1.4-0.9,2.2c-1,1.4-1.9,2.1-2.8,2.1c-0.5,0-1.3-0.4-2.4-1.1s-2.4-1.1-3.9-1.1
				c-2,0-3.7,0.7-5.3,2.1s-2.3,3.2-2.3,5.5c0,2.3,0.8,4.2,2.3,5.7s3.3,2.4,5.3,2.4c1.4,0,2.7-0.2,3.9-0.7v-4.3h-3.1
				c-0.8,0-1.4-0.1-1.7-0.3c-0.3-0.2-0.6-0.5-0.7-0.9c-0.1-0.4-0.2-0.9-0.2-1.6s0.1-1.2,0.2-1.7s0.3-0.7,0.6-0.9
				C365.4,421.6,366.1,421.5,366.9,421.5z"/>
			<path class="st3" d="M398.5,411.2c0.3-0.4,0.6-0.7,1.1-0.9s1.1-0.2,1.9-0.2c0.7,0,1.3,0.1,1.8,0.2c0.4,0.1,0.8,0.3,1,0.5
				c0.2,0.2,0.4,0.5,0.5,0.8c0.2,0.4,0.2,1.1,0.2,2v11.8c0,3.4-1.1,6.6-3.2,9.4c-1,1.3-2.4,2.4-4,3.2c-1.6,0.8-3.5,1.2-5.4,1.2
				s-3.8-0.4-5.4-1.2c-1.6-0.8-2.9-1.9-4-3.3c-2.1-2.8-3.2-5.9-3.2-9.4v-11.7c0-0.6,0-1.1,0.1-1.4c0-0.3,0.2-0.6,0.4-1
				s0.6-0.7,1.1-0.8s1.2-0.2,2-0.2c0.8,0,1.5,0.1,2,0.2s0.8,0.4,1,0.8c0.3,0.6,0.5,1.4,0.5,2.5v11.7c0,1.6,0.4,3.1,1.2,4.5
				c0.4,0.7,1,1.3,1.8,1.8s1.7,0.7,2.8,0.7c1.9,0,3.3-0.7,4.3-2.1c0.9-1.4,1.4-3,1.4-4.9v-11.9C398.1,412.3,398.2,411.6,398.5,411.2
				z"/>
			<path class="st3" d="M422.7,412.2l10.5,21.8c0.4,0.9,0.7,1.5,0.7,2c0,0.9-0.8,1.8-2.3,2.5c-0.9,0.4-1.6,0.7-2.1,0.7
				c-0.5,0-0.9-0.1-1.2-0.4c-0.3-0.2-0.6-0.5-0.7-0.7c-0.1-0.3-0.3-0.7-0.6-1.2l-2-4.2h-10.8l-2,4.2c-0.3,0.5-0.5,0.9-0.6,1.1
				c-0.1,0.2-0.4,0.5-0.7,0.7s-0.7,0.4-1.2,0.4c-0.5,0-1.2-0.2-2.1-0.7c-1.5-0.7-2.3-1.6-2.3-2.5c0-0.4,0.2-1.1,0.7-2l10.5-21.8
				c0.3-0.6,0.7-1.1,1.3-1.4c0.6-0.4,1.2-0.5,1.9-0.5C421,410.1,422,410.8,422.7,412.2z M419.5,421.5l-2.6,5.3h5.2L419.5,421.5z"/>
			<path class="st3" d="M451,421.5h6.9c1.4,0.1,2.3,0.4,2.6,1.1c0.3,0.5,0.4,1.2,0.4,2.2v8.6c0,0.8-0.4,1.6-1.1,2.4
				c-2.2,2.3-5.5,3.4-9.8,3.4c-3.9,0-7.2-1.5-10.1-4.4c-2.9-2.9-4.3-6.5-4.3-10.6s1.5-7.6,4.4-10.4c2.9-2.8,6.3-4.2,10.3-4.2
				c3.1,0,6,1,8.7,3c0.7,0.5,1.1,1.1,1.1,1.7s-0.3,1.4-0.9,2.2c-1,1.4-1.9,2.1-2.8,2.1c-0.5,0-1.3-0.4-2.4-1.1s-2.4-1.1-3.9-1.1
				c-2,0-3.7,0.7-5.3,2.1s-2.3,3.2-2.3,5.5c0,2.3,0.8,4.2,2.3,5.7s3.3,2.4,5.3,2.4c1.4,0,2.7-0.2,3.9-0.7v-4.3h-3.1
				c-0.8,0-1.4-0.1-1.7-0.3c-0.3-0.2-0.6-0.5-0.7-0.9c-0.1-0.4-0.2-0.9-0.2-1.6s0.1-1.2,0.2-1.7s0.3-0.7,0.6-0.9
				C449.5,421.6,450.2,421.5,451,421.5z"/>
			<path class="st3" d="M470.8,431.8h12c0.6,0,1,0,1.3,0.1c0.3,0,0.6,0.2,1,0.4c0.7,0.4,1.1,1.4,1.1,3c0,1.8-0.5,2.9-1.4,3.2
				c-0.4,0.2-1.1,0.2-2,0.2h-15.5c-1.8,0-2.9-0.5-3.2-1.5c-0.2-0.4-0.2-1.1-0.2-2v-21.7c0-1.3,0.2-2.2,0.7-2.7
				c0.5-0.5,1.4-0.7,2.8-0.7h15.4c0.6,0,1,0,1.3,0.1c0.3,0,0.6,0.2,1,0.4c0.7,0.4,1.1,1.4,1.1,3c0,1.8-0.5,2.9-1.4,3.2
				c-0.4,0.2-1.1,0.2-2,0.2h-12v3.9h7.7c0.6,0,1,0,1.3,0.1c0.3,0,0.6,0.2,1,0.4c0.7,0.4,1.1,1.4,1.1,3c0,1.8-0.5,2.9-1.5,3.2
				c-0.4,0.2-1.1,0.2-2,0.2h-7.6V431.8z"/>
		</g>
		<polygon class="st6" points="142.4,491.4 96.5,471.2 142.4,471.2 		"/>
	</g>
	<path class="st7" d="M163.1,171.7v-33.5c0-9.9-8-17.9-17.9-17.9H55.1c-9.9,0-17.9,8-17.9,17.9V177c0,9.9,8,17.9,17.9,17.9H137
		l38.4,10.8L163.1,171.7z"/>
	<g>
		<path class="st3" d="M68.4,143.7h9.4v0.7h-1.9v24.7h1.9v0.7H67.1v-0.7H69v-23.3h-0.1l-5.3,24h-4.4l-6.2-24.2h-0.1v23.5h1.9v0.7
			h-4.8v-0.7H52v-24.7h-1.9v-0.7h9.5l4.7,19.2L68.4,143.7z"/>
		<path class="st3" d="M81.4,167.7c-1.5-1.7-2.3-4-2.3-6.9s0.8-5.2,2.5-6.8c1.7-1.6,3.9-2.4,6.5-2.4c5.3,0,7.9,2.8,7.6,8.5h-9.9v1.5
			c0,2.4,0.3,4.3,0.9,5.5c0.6,1.2,1.6,1.9,3.1,1.9c2.7,0,4.5-1.5,5.3-4.6l0.6,0.1c-0.4,1.8-1.2,3.2-2.4,4.2s-2.9,1.5-5.2,1.5
			C85.2,170.2,82.9,169.3,81.4,167.7z M86,159.4h3.6v-1.8c0-2-0.1-3.4-0.3-4.1c-0.2-0.7-0.7-1.1-1.3-1.1c-0.7,0-1.2,0.4-1.5,1.2
			c-0.3,0.8-0.5,2.1-0.5,4.1V159.4z"/>
		<path class="st3" d="M108.8,153.1c-0.9,0-1.6,0.6-2.3,1.8c-0.7,1.2-1,2.6-1,4.3v10h2.5v0.7H97.1v-0.7H99v-16.4h-1.9V152h8.5v3.6
			c0.3-1.3,0.9-2.2,1.8-2.9c0.9-0.7,1.8-1,2.9-1c1.1,0,2,0.3,2.7,1c0.7,0.7,1,1.6,1,2.8c0,1.2-0.3,2.1-0.8,2.8c-0.5,0.6-1.3,1-2.4,1
			c-1.1,0-1.8-0.4-2.3-1.1c-0.5-0.7-0.6-1.8-0.2-3.1h1.3C110.1,153.7,109.9,153.1,108.8,153.1z"/>
		<path class="st3" d="M124.1,152.3c-1,0-1.8,0.6-2.2,1.8c-0.4,1.2-0.7,3.2-0.7,5.9v1.9c0,2.5,0.3,4.2,0.8,5.3
			c0.5,1.1,1.5,1.6,2.8,1.6c1.4,0,2.5-0.5,3.3-1.5c0.8-1,1.3-2.1,1.6-3.4l0.6,0.1c-0.4,2.1-1.3,3.7-2.5,4.6c-1.2,1-2.9,1.5-5,1.5
			c-2.7,0-4.8-0.8-6.2-2.3c-1.4-1.6-2.2-3.8-2.2-6.8c0-3,0.8-5.3,2.5-6.9c1.6-1.6,3.9-2.4,6.9-2.4c2.1,0,3.7,0.4,4.8,1.3
			c1.1,0.9,1.6,1.9,1.6,3.2s-0.3,2.2-0.8,2.8c-0.5,0.6-1.3,0.9-2.2,0.9c-0.9,0-1.7-0.3-2.2-0.8c-0.6-0.5-0.8-1.3-0.8-2.3
			c0-0.4,0.1-0.9,0.2-1.3h1.2c0.2-0.5,0.2-0.9,0.2-1.3C125.8,152.9,125.2,152.3,124.1,152.3z"/>
		<path class="st3" d="M131.1,152h8.6v17.1h2v0.7h-10.4v-0.7h1.9v-16.4h-2.1V152z M136.4,149.4c-1.2,0-2.1-0.3-2.6-1
			c-0.5-0.7-0.8-1.5-0.8-2.5c0-1,0.3-1.8,0.9-2.5s1.4-1,2.6-1s2.1,0.3,2.7,0.9c0.6,0.6,0.9,1.4,0.9,2.5c0,1.1-0.3,1.9-0.9,2.6
			C138.5,149.1,137.6,149.4,136.4,149.4z"/>
		<path class="st3" d="M148.5,170.2c-0.9,0-1.5-0.3-2-0.8c-0.4-0.5-0.6-1.2-0.6-2s0.2-1.5,0.7-2c0.5-0.5,1.1-0.8,1.9-0.8
			c0.8,0,1.5,0.2,2,0.7c0.5,0.5,0.7,1.1,0.7,2c0,0.9-0.2,1.6-0.7,2.1C150,169.9,149.4,170.2,148.5,170.2z M148.2,163.1v-3.2
			c0-2.1-0.4-4.7-1.1-7.6c-0.8-3-1.1-5-1.1-6s0.3-1.8,0.8-2.3c0.5-0.5,1.2-0.7,2-0.7c1.8,0,2.7,1,2.7,3c0,1.2-0.4,3.2-1.2,6.1
			c-0.8,2.9-1.2,5.4-1.2,7.6v3.2H148.2z"/>
	</g>
	<path class="st8" d="M313.8,126.2c0-24.6-27.8-44.6-62.1-44.6c-34.3,0-62.1,20-62.1,44.6s27.8,44.6,62.1,44.6c11,0,21.2-2,30.2-5.6
		l27.6,8.9l-6.1-23.1l0,0C310,143.9,313.8,135.4,313.8,126.2z"/>
	<g>
		<path class="st3" d="M204.1,112.8h10.9v0.7h-2v11.6h7v-11.6h-2.1v-0.7h11v0.7h-2.1v24.7h2.1v0.7h-11v-0.7h2.1v-12.2h-7v12.2h2v0.7
			h-10.9v-0.7h2.1v-24.7h-2.1V112.8z"/>
		<path class="st3" d="M232.4,136.8c-1.5-1.7-2.3-4-2.3-6.9s0.8-5.2,2.5-6.8c1.7-1.6,3.9-2.4,6.5-2.4c5.3,0,7.9,2.8,7.6,8.5h-9.9
			v1.5c0,2.4,0.3,4.3,0.9,5.5c0.6,1.2,1.6,1.9,3.1,1.9c2.7,0,4.5-1.5,5.3-4.6l0.6,0.1c-0.4,1.8-1.2,3.2-2.4,4.2s-2.9,1.5-5.2,1.5
			C236.2,139.3,233.9,138.5,232.4,136.8z M237,128.6h3.6v-1.8c0-2-0.1-3.4-0.3-4.1c-0.2-0.7-0.7-1.1-1.3-1.1c-0.7,0-1.2,0.4-1.5,1.2
			c-0.3,0.8-0.5,2.1-0.5,4.1V128.6z"/>
		<path class="st3" d="M247.9,110.9h8.6v27.3h2v0.7h-10.4v-0.7h1.9v-26.7h-2.1V110.9z"/>
		<path class="st3" d="M259,110.9h8.6v27.3h2v0.7h-10.4v-0.7h1.9v-26.7H259V110.9z"/>
		<path class="st3" d="M272.8,136.9c-1.5-1.6-2.2-3.9-2.2-6.9c0-3,0.8-5.3,2.4-6.9c1.6-1.6,3.9-2.4,6.8-2.4c2.9,0,5.1,0.7,6.5,2.2
			c1.4,1.5,2.1,3.7,2.1,6.8c0,6.3-3,9.5-8.9,9.5C276.5,139.3,274.3,138.5,272.8,136.9z M281.6,131.6v-3.2c0-2.4-0.1-4.2-0.4-5.3
			c-0.2-1.1-0.8-1.7-1.7-1.7c-0.5,0-0.9,0.2-1.2,0.5c-0.3,0.3-0.5,0.8-0.7,1.5c-0.2,1.1-0.3,2.8-0.3,5.1v2.9c0,2.7,0.1,4.3,0.2,4.9
			c0.2,0.5,0.3,1,0.5,1.3c0.3,0.6,0.8,0.9,1.5,0.9c0.9,0,1.5-0.6,1.8-1.7C281.5,136.2,281.6,134.4,281.6,131.6z"/>
		<path class="st3" d="M295.4,139.3c-0.9,0-1.5-0.3-2-0.8c-0.4-0.5-0.6-1.2-0.6-2s0.2-1.5,0.7-2c0.5-0.5,1.1-0.8,1.9-0.8
			c0.8,0,1.5,0.2,2,0.7c0.5,0.5,0.7,1.1,0.7,2c0,0.9-0.2,1.6-0.7,2.1C297,139.1,296.3,139.3,295.4,139.3z M295.2,132.3v-3.2
			c0-2.1-0.4-4.7-1.1-7.6c-0.8-3-1.1-5-1.1-6s0.3-1.8,0.8-2.3c0.5-0.5,1.2-0.7,2-0.7c1.8,0,2.7,1,2.7,3c0,1.2-0.4,3.2-1.2,6.1
			c-0.8,2.9-1.2,5.4-1.2,7.6v3.2H295.2z"/>
	</g>
	<path class="st9" d="M498.9,72.7c-29.2,0-52.9,23.7-52.9,52.9c0,11.5,3.7,22.2,9.9,30.8l0,0l-2.3,26.5l24.5-8.7l0,0
		c6.4,2.8,13.5,4.3,20.9,4.3c29.2,0,52.9-23.7,52.9-52.9S528.1,72.7,498.9,72.7z"/>
	<g>
		<path class="st3" d="M474.2,110.7c-0.1,0.3-0.4,0.5-0.9,0.4c-0.9,2.6-1.9,5.2-3.1,7.6l1.3,0.3c-0.1,0.3-0.3,0.6-0.9,0.6V141h-4
			v-15.7c-0.7,1.1-1.5,2.2-2.3,3.2c-0.5-0.9-1.7-2.7-2.4-3.6c3-3.5,6-9.7,7.7-15.7L474.2,110.7z M493.9,115.4c0,0.2-0.4,4.1-1.5,8.3
			l-2.5-0.4c1.9,3.6,3.6,8.2,4.2,11.3l-3.9,1.4c-0.5-3.1-2.1-8-3.9-11.5l3.5-1.2L489,123c0.2-1,0.3-2.5,0.5-4h-4.1v17.5
			c0,3.1-0.7,4.6-6.5,4.6c-0.2-1.2-0.8-3-1.4-4.1c1.4,0,2.9,0,3.3,0c0.4,0,0.6-0.1,0.6-0.6v-17.4h-3.6c-1.1,2.4-2.3,4.5-3.6,6.2
			c-0.7-0.7-2.2-2-3.1-2.6c2.5-3,4.6-8.2,5.7-13.3l4.7,1.2c-0.1,0.3-0.4,0.5-0.9,0.4c-0.4,1.4-0.8,2.9-1.3,4.3h12.5L493.9,115.4z
			 M480.4,124.7c-0.1,0.3-0.4,0.4-0.8,0.4c-1,3.9-2.7,8.3-4.7,11c-0.8-0.6-2.3-1.5-3.2-2c1.9-2.4,3.4-6.7,4.3-10.6L480.4,124.7z"/>
		<path class="st3" d="M507.4,115.9l2.2,0.5l-0.2,0.7c-0.4,5.7-1.3,10.4-2.8,14.2c1.5,1.2,2.9,2.5,3.7,3.6l-2.4,3.3
			c-0.7-1-1.8-2.1-3.1-3.2c-1.6,2.6-3.6,4.7-6.2,6.2c-0.5-1-1.6-2.5-2.4-3.2c2.3-1.2,4.1-3.1,5.6-5.6c-0.6-0.5-1.2-0.9-1.9-1.4
			l-0.3,1.1l-3.3-1.7c0.8-2.8,1.6-6.6,2.4-10.6H496V116h3.4c0.4-2.4,0.8-4.7,1.2-6.7l4.6,0.5c0,0.3-0.3,0.5-0.9,0.5
			c-0.3,1.8-0.7,3.7-1.1,5.7h3.5L507.4,115.9z M502.4,119.7c-0.5,2.5-1.1,5.1-1.7,7.4c0.8,0.5,1.7,1.1,2.6,1.7
			c0.9-2.6,1.6-5.7,2-9.1H502.4z M527.6,124v3.8h-7.4v8.7c0,3.3-1.1,4.6-7.4,4.5c-0.2-1.1-0.9-2.9-1.4-4c1.2,0,2.6,0.1,3.4,0.1
			c1.1,0,1.4,0,1.4-0.6v-8.7h-7.2V124h7.2v-5.2l1.2,0.1c1.1-1.2,2.3-2.7,3.3-4.2h-10.5v-3.7h13.4l0.7-0.2l3.1,1.9
			c-0.1,0.2-0.5,0.4-0.8,0.5c-1.6,2.4-4,5.5-6.4,7.7v3.2H527.6z"/>
		<path class="st3" d="M530.3,135.2c0-1.8,1.2-3.1,3-3.1c1.8,0,3,1.3,3,3.1c0,1.8-1.1,3.1-3,3.1S530.3,137,530.3,135.2z
			 M535.2,129.8h-3.9l-0.7-17.7h5.3L535.2,129.8z"/>
	</g>
	<g>
		<path d="M124.8,564l-1.4,0c-0.2,0-0.4,0.1-0.6,0.2s-0.5,0.2-0.7,0.2s-0.4-0.1-0.6-0.2c-0.2-0.1-0.3-0.3-0.3-0.5l0.3-1.5l-0.4-9.6
			l-0.4-14.1c0-0.2,0.2-0.3,0.6-0.3c0.6,0,0.8,0.2,0.8,0.6c0,5.2,0.1,8.5,0.2,9.9s0.2,2.2,0.2,2.6c0,0.3,0,0.8-0.1,1.3l0.1,0.1
			c-0.1,0.6-0.1,1.2-0.1,1.8c0,0.6,0.1,1.8,0.2,3.5c0.1,1.7,0.2,2.9,0.3,3.7c-0.1,0.1-0.2,0.4-0.2,0.7c0,0.3,0.1,0.5,0.2,0.6
			c0.1,0.1,0.4,0.2,0.9,0.2c0.4,0,0.7-0.1,0.9-0.2h1.6c0.4,0.2,0.6,0.3,0.6,0.5c0,0.4-0.2,0.7-0.6,0.7c-0.1,0-0.3,0-0.7-0.1
			C125.5,564,125.2,564,124.8,564z"/>
		<path d="M131,563.7l0-0.9l-0.1-0.1c0.2-0.5,0.3-0.9,0.3-1.4l-0.2-4.4l0.3-10.2l-0.2-4c0-0.6,0.4-1,1.3-1c0.3,0,0.6,0.1,0.7,0.2
			c0.1,0,0.5,0.1,1.3,0.1c1.8,0.2,2.7,0.4,2.8,0.8c0,0.2-0.3,0.4-0.8,0.6c-1.6-0.4-2.8-0.6-3.5-0.6l-0.2,0.2c0,0.3,0,0.8,0,1.5
			l-0.2,5.2c0,0.6,0.2,0.9,0.6,0.9l1.5-0.1c1.1,0,1.7,0.2,1.7,0.6c0,0.2-0.1,0.4-0.2,0.6c-0.1,0.2-0.4,0.3-0.8,0.3s-0.7-0.1-0.9-0.3
			l-1.4-0.2h-0.2l-0.2,0.2v0.1c0.1,0.6,0.1,1.5,0.1,2.7l-0.1,4.8c0,2.2,0.2,3.5,0.6,3.7c0.3,0.2,0.7,0.2,1.4,0.2l1.6-0.1
			c0.9,0,1.3,0.1,1.3,0.4c0,0.4-0.6,0.6-1.9,0.6h-3.6C131.3,564.4,131,564.2,131,563.7z"/>
		<path d="M147,559l-1.2,0c-0.4-0.1-0.9-0.2-1.4-0.2c-0.5,0-0.8,0-0.8,0c0,0-0.1,0.1-0.1,0.1c0,0.1,0,0.1,0,0.1l-0.1,0.7
			c-0.1,0.6-0.2,1.3-0.4,2.1c-0.4,1.6-0.8,2.4-1.3,2.4c-0.2,0-0.4-0.1-0.6-0.2c-0.2-0.1-0.3-0.3-0.3-0.4c0.4-0.8,0.8-2.1,1.2-3.8
			c0.4-1.7,0.6-2.8,0.7-3.2c0.1-0.4,0.3-1.3,0.6-2.6c0.3-1.3,0.4-2.1,0.5-2.5s0.3-1.3,0.7-2.6c0.4-1.4,0.6-2.2,0.7-2.7
			c0.1-0.4,0.2-1,0.3-1.7c0.2-1.8,0.4-2.7,0.6-2.9l0.6,0c0.4,0,0.6-0.1,0.8-0.2c0.2,0,0.4,0,0.5,0.1c0.2,0.1,0.3,0.2,0.3,0.4
			c0,1.1,0.2,3.2,0.5,6.2c0.4,3.1,0.6,5.1,0.8,6c0.2,0.9,0.4,1.8,0.7,2.7c0.3,0.9,0.4,1.5,0.4,2l-0.2,0.5c0,0.5,0.1,1.3,0.4,2.2
			c0.2,1,0.4,1.7,0.4,2.1c0,0.4-0.1,0.7-0.3,0.8c-0.6,0-1-0.1-1.1-0.2c-0.1-0.1-0.2-0.3-0.2-0.6s0-0.6-0.1-1.1
			c-0.1-0.4-0.1-0.8-0.1-1c0-0.3-0.1-0.7-0.3-1.2c-0.1-0.5-0.2-0.9-0.2-1C148.4,559,147.7,559,147,559z M143.9,557.3
			c0,0.2,0.3,0.4,1,0.6c1.1,0.2,2.3,0.3,3.5,0.3h0.4c-0.2-0.4-0.3-0.9-0.3-1.5v-0.8c0-1.4-0.2-3.4-0.7-6.1c-0.4-2.7-0.7-4.7-0.7-6
			c-1.5,5.8-2.5,9.4-2.8,10.8C144.1,556,143.9,556.9,143.9,557.3z"/>
		<path d="M155.6,542.8c0-0.9,0.3-1.3,1-1.3c1.4,0,2.6,0.3,3.5,0.8c0.9,0.6,1.4,1.4,1.4,2.4v2.5c0,0.9-0.6,2.1-1.7,3.7
			c-0.4,0.5-0.6,0.8-0.6,0.9c0,0,0.6,1.8,1.7,5.3c1.1,3.5,1.7,5.3,1.7,5.4c0.1,0.1,0.2,0.3,0.4,0.7c0.2,0.4,0.3,0.7,0.3,0.9
			c0,0.3-0.2,0.4-0.5,0.4l-0.6-0.2c-0.7-0.6-1.4-2.8-2.2-6.6c-0.8-3.7-1.5-5.5-2-5.5h-0.2c-0.6,0-1,0.2-1,0.5c0,1.2,0.1,3.3,0.3,6.1
			c0.2,2.9,0.3,4.5,0.5,4.8l-0.3,0.6h-0.6l-0.3-0.3C155.8,554.3,155.6,547.2,155.6,542.8z M156.8,543.2l0.2,8.2l0.1,0.1
			c0.6,0,1.1-0.2,1.5-0.7c0.4-0.4,0.8-1,1-1.6c0.5-1.3,0.7-2.3,0.7-3c0-0.7,0-1.2-0.1-1.5c-0.1-0.3-0.2-0.7-0.4-1.1
			c-0.4-0.8-1.2-1.2-2.5-1.2c-0.2,0-0.3,0.1-0.4,0.3S156.8,543.1,156.8,543.2z"/>
		<path d="M179.7,543.5l-0.1-0.8c0-0.5,0.2-0.7,0.6-0.7c0.3,0,0.5,0.1,0.7,0.3c0.2,0.2,0.3,0.4,0.3,0.7v2.3l-0.2,0.3
			c0,1.8-0.2,5.2-0.5,10.2s-0.6,7.8-0.9,8.3c-0.1,0-0.3,0.1-0.6,0.1c-0.3,0.1-0.6,0.1-0.7,0.1s-0.3-0.1-0.4-0.2
			c-0.1-0.1-0.2-0.3-0.3-0.6c-0.1-0.2-0.1-0.4-0.2-0.5l0-0.1c-0.2-0.9-0.6-2-1.1-3.2c-0.6-1.2-1-2-1.1-2.4c-0.1-0.1-0.5-0.9-1.2-2.5
			c-2.6-6.3-4.3-9.7-5-10.2c-0.2,0.7-0.3,1.5-0.3,2.4l0.1,2.7l-0.1,1.6c0,0.3,0.1,1,0.2,2.4h-0.1c0,3.7,0.1,5.8,0.3,6.2v3
			c0.1,0.2,0.2,0.4,0.2,0.6c0,0.5-0.3,0.8-0.8,0.8c-0.6,0-0.9-0.6-0.9-1.8l0.2-2.2l-0.3-9.7l0.3-6v-0.6c0-0.3,0-0.5,0-0.6
			s0-0.2,0.1-0.4c0-0.1,0.1-0.2,0.1-0.3c0-0.1,0.1-0.2,0.1-0.3c0.1-0.2,0.3-0.4,0.4-0.5l0.1,0.1l0.4-0.1c0.3,0.1,0.5,0.3,0.6,0.5
			c0,0,0,0.1,0.1,0.2c0,0.1,0.1,0.2,0.1,0.2c0.5,1.6,1.5,3.8,3.1,6.7c1.6,2.9,2.6,4.7,2.9,5.5s0.6,1.7,0.9,2.6c0.6,2,1.3,3.5,2,4.4
			l0.1-0.1C179.4,556.9,179.7,550.8,179.7,543.5z M178.8,564C178.8,564,178.9,564,178.8,564L178.8,564z"/>
		<path d="M197.6,559l-1.2,0c-0.4-0.1-0.9-0.2-1.4-0.2c-0.5,0-0.8,0-0.8,0c0,0-0.1,0.1-0.1,0.1c0,0.1,0,0.1,0,0.1l-0.1,0.7
			c-0.1,0.6-0.2,1.3-0.4,2.1c-0.4,1.6-0.8,2.4-1.3,2.4c-0.2,0-0.4-0.1-0.6-0.2c-0.2-0.1-0.3-0.3-0.3-0.4c0.4-0.8,0.8-2.1,1.2-3.8
			c0.4-1.7,0.6-2.8,0.7-3.2c0.1-0.4,0.3-1.3,0.6-2.6c0.3-1.3,0.4-2.1,0.5-2.5s0.3-1.3,0.7-2.6c0.4-1.4,0.6-2.2,0.7-2.7
			c0.1-0.4,0.2-1,0.3-1.7c0.2-1.8,0.4-2.7,0.6-2.9l0.6,0c0.4,0,0.6-0.1,0.8-0.2c0.2,0,0.4,0,0.5,0.1c0.2,0.1,0.3,0.2,0.3,0.4
			c0,1.1,0.2,3.2,0.5,6.2c0.4,3.1,0.6,5.1,0.8,6c0.2,0.9,0.4,1.8,0.7,2.7c0.3,0.9,0.4,1.5,0.4,2l-0.2,0.5c0,0.5,0.1,1.3,0.4,2.2
			c0.2,1,0.4,1.7,0.4,2.1c0,0.4-0.1,0.7-0.3,0.8c-0.6,0-1-0.1-1.1-0.2c-0.1-0.1-0.2-0.3-0.2-0.6s0-0.6-0.1-1.1
			c-0.1-0.4-0.1-0.8-0.1-1c0-0.3-0.1-0.7-0.3-1.2c-0.1-0.5-0.2-0.9-0.2-1C199,559,198.4,559,197.6,559z M194.5,557.3
			c0,0.2,0.3,0.4,1,0.6c1.1,0.2,2.3,0.3,3.5,0.3h0.4c-0.2-0.4-0.3-0.9-0.3-1.5v-0.8c0-1.4-0.2-3.4-0.7-6.1c-0.4-2.7-0.7-4.7-0.7-6
			c-1.5,5.8-2.5,9.4-2.8,10.8C194.7,556,194.5,556.9,194.5,557.3z"/>
		<path d="M214.2,563.2l4.1,0.1h0.1c0.2,0,0.3,0.1,0.4,0.2c0.1,0.1,0.2,0.3,0.2,0.4c0,0.3-0.2,0.4-0.7,0.4c-0.8,0-2,0-3.6,0l0.1,0
			l-1.6,0.1c-0.4,0-0.7-0.3-0.7-0.8c0.1-0.2,0.1-0.6,0.1-1.1l0.3-18l0.2-2.2c0-0.2,0.1-0.2,0.3-0.2l0.7,0.1l0,2.7l0,7.3
			c-0.1,1.8-0.1,2.8-0.1,2.8l0.1,2.9l-0.1,0.3l0,0l0,0.3c0,0.2,0,0.3,0.1,0.5l-0.1,3.2v0.2c0,0.4,0,0.6,0,0.7
			C214.1,563.2,214.1,563.2,214.2,563.2z"/>
		<path d="M228.7,559l-1.2,0c-0.4-0.1-0.9-0.2-1.4-0.2c-0.5,0-0.8,0-0.8,0c0,0-0.1,0.1-0.1,0.1c0,0.1,0,0.1,0,0.1l-0.1,0.7
			c-0.1,0.6-0.2,1.3-0.4,2.1c-0.4,1.6-0.8,2.4-1.3,2.4c-0.2,0-0.4-0.1-0.6-0.2c-0.2-0.1-0.3-0.3-0.3-0.4c0.4-0.8,0.8-2.1,1.2-3.8
			c0.4-1.7,0.6-2.8,0.7-3.2c0.1-0.4,0.3-1.3,0.6-2.6c0.3-1.3,0.4-2.1,0.5-2.5s0.3-1.3,0.7-2.6c0.4-1.4,0.6-2.2,0.7-2.7
			c0.1-0.4,0.2-1,0.3-1.7c0.2-1.8,0.4-2.7,0.6-2.9l0.6,0c0.4,0,0.6-0.1,0.8-0.2c0.2,0,0.4,0,0.5,0.1c0.2,0.1,0.3,0.2,0.3,0.4
			c0,1.1,0.2,3.2,0.5,6.2c0.4,3.1,0.6,5.1,0.8,6c0.2,0.9,0.4,1.8,0.7,2.7c0.3,0.9,0.4,1.5,0.4,2l-0.2,0.5c0,0.5,0.1,1.3,0.4,2.2
			c0.2,1,0.4,1.7,0.4,2.1c0,0.4-0.1,0.7-0.3,0.8c-0.6,0-1-0.1-1.1-0.2c-0.1-0.1-0.2-0.3-0.2-0.6s0-0.6-0.1-1.1
			c-0.1-0.4-0.1-0.8-0.1-1c0-0.3-0.1-0.7-0.3-1.2c-0.1-0.5-0.2-0.9-0.2-1C230.1,559,229.4,559,228.7,559z M225.6,557.3
			c0,0.2,0.3,0.4,1,0.6c1.1,0.2,2.3,0.3,3.5,0.3h0.4c-0.2-0.4-0.3-0.9-0.3-1.5v-0.8c0-1.4-0.2-3.4-0.7-6.1c-0.4-2.7-0.7-4.7-0.7-6
			c-1.5,5.8-2.5,9.4-2.8,10.8C225.8,556,225.6,556.9,225.6,557.3z"/>
		<path d="M249.7,543.5l-0.1-0.8c0-0.5,0.2-0.7,0.6-0.7c0.3,0,0.5,0.1,0.7,0.3c0.2,0.2,0.3,0.4,0.3,0.7v2.3l-0.2,0.3
			c0,1.8-0.2,5.2-0.5,10.2s-0.6,7.8-0.9,8.3c-0.1,0-0.3,0.1-0.6,0.1c-0.3,0.1-0.6,0.1-0.7,0.1s-0.3-0.1-0.4-0.2
			c-0.1-0.1-0.2-0.3-0.3-0.6c-0.1-0.2-0.1-0.4-0.2-0.5l0-0.1c-0.2-0.9-0.6-2-1.1-3.2c-0.6-1.2-1-2-1.1-2.4c-0.1-0.1-0.5-0.9-1.2-2.5
			c-2.6-6.3-4.3-9.7-5-10.2c-0.2,0.7-0.3,1.5-0.3,2.4l0.1,2.7l-0.1,1.6c0,0.3,0.1,1,0.2,2.4h-0.1c0,3.7,0.1,5.8,0.3,6.2v3
			c0.1,0.2,0.2,0.4,0.2,0.6c0,0.5-0.3,0.8-0.8,0.8c-0.6,0-0.9-0.6-0.9-1.8l0.2-2.2l-0.3-9.7l0.3-6v-0.6c0-0.3,0-0.5,0-0.6
			s0-0.2,0.1-0.4c0-0.1,0.1-0.2,0.1-0.3c0-0.1,0.1-0.2,0.1-0.3c0.1-0.2,0.3-0.4,0.4-0.5l0.1,0.1l0.4-0.1c0.3,0.1,0.5,0.3,0.6,0.5
			c0,0,0,0.1,0.1,0.2c0,0.1,0.1,0.2,0.1,0.2c0.5,1.6,1.5,3.8,3.1,6.7c1.6,2.9,2.6,4.7,2.9,5.5s0.6,1.7,0.9,2.6c0.6,2,1.3,3.5,2,4.4
			l0.1-0.1C249.3,556.9,249.7,550.8,249.7,543.5z M248.8,564C248.8,564,248.8,564,248.8,564L248.8,564z"/>
		<path d="M265.6,557.3l0.2,5.2c-1.5,1.2-3,1.7-4.5,1.7c-1.9,0-3.2-0.3-3.8-0.9c-0.6-0.6-1.1-2-1.4-4.3c-0.3-2.2-0.5-3.8-0.5-4.8
			s0.1-2,0.2-3.1c0.1-1.1,0.3-2.2,0.3-3.3s0.2-1.9,0.4-2.6c0.7-2.4,2.4-3.6,5-3.6c0.9,0,1.3,0.2,1.3,0.5c0,0.2-0.1,0.3-0.3,0.4
			c-0.2,0.1-0.4,0.1-0.6,0.1l-0.8-0.1c-1,0-1.8,0.5-2.3,1.4c-0.6,1.1-1,2.1-1.1,3c-0.1,0.9-0.3,1.6-0.3,2.2s-0.1,1.2-0.1,1.8
			c0,1-0.1,2-0.1,2.9s0,1.6,0.1,2.2c0.2,0.3,0.4,0.7,0.4,1.3c0.1,0.6,0.1,1.2,0.2,1.9c0,0.6,0.2,1.2,0.3,1.9
			c0.2,0.6,0.6,1.1,1.1,1.5c0.6,0.4,1.4,0.6,2.4,0.6c1.8,0,2.6-1.8,2.6-5.4v-2.5c-0.3-0.2-0.8-0.3-1.5-0.3l-0.8,0
			c-0.7,0-1-0.1-1-0.4c0-0.4,0.3-0.6,1-0.6c2.7,0,4,0.2,4,0.7L265.6,557.3z"/>
		<path d="M279.3,548.8l0,0.7c-0.1,0.6-0.1,1.3-0.1,2.3c0,1,0,1.9-0.1,2.8c0,0.9-0.1,1.8-0.1,2.8c-0.1,1-0.2,1.9-0.3,2.7
			c-0.4,1.9-1,3.2-1.9,3.8c-1,0.7-2.1,0.8-3.4,0.2c-0.6-0.2-1-0.5-1.4-0.9c-0.4-0.4-0.7-1.5-0.9-3.5s-0.4-4.1-0.4-6.2
			c-0.1-6.6-0.3-10.3-0.4-11.2l0.3-0.5c0.7,0.1,1,0.7,1,1.9l0.1,8.9l0.5,7.2c0,2.6,1.1,3.8,3.3,3.8c1.4,0,2.2-2.4,2.6-7.1
			c0-0.3,0.1-1.8,0.2-4.6c0.1-2.7,0.2-6,0.2-9.9l-0.1-0.6c0-0.3,0.2-0.4,0.6-0.4c0.4,0,0.7,0.1,0.7,0.2c0.1,0.1,0.1,0.8,0.1,2
			s-0.1,2.1-0.3,2.6c0,0,0,0.1,0,0.2L279.3,548.8z"/>
		<path d="M290,559l-1.2,0c-0.4-0.1-0.9-0.2-1.4-0.2c-0.5,0-0.8,0-0.8,0c0,0-0.1,0.1-0.1,0.1c0,0.1,0,0.1,0,0.1l-0.1,0.7
			c-0.1,0.6-0.2,1.3-0.4,2.1c-0.4,1.6-0.8,2.4-1.3,2.4c-0.2,0-0.4-0.1-0.6-0.2c-0.2-0.1-0.3-0.3-0.3-0.4c0.4-0.8,0.8-2.1,1.2-3.8
			c0.4-1.7,0.6-2.8,0.7-3.2c0.1-0.4,0.3-1.3,0.6-2.6c0.3-1.3,0.4-2.1,0.5-2.5s0.3-1.3,0.7-2.6c0.4-1.4,0.6-2.2,0.7-2.7
			c0.1-0.4,0.2-1,0.3-1.7c0.2-1.8,0.4-2.7,0.6-2.9l0.6,0c0.4,0,0.6-0.1,0.8-0.2c0.2,0,0.4,0,0.5,0.1c0.2,0.1,0.3,0.2,0.3,0.4
			c0,1.1,0.2,3.2,0.5,6.2c0.4,3.1,0.6,5.1,0.8,6c0.2,0.9,0.4,1.8,0.7,2.7c0.3,0.9,0.4,1.5,0.4,2l-0.2,0.5c0,0.5,0.1,1.3,0.4,2.2
			c0.2,1,0.4,1.7,0.4,2.1c0,0.4-0.1,0.7-0.3,0.8c-0.6,0-1-0.1-1.1-0.2c-0.1-0.1-0.2-0.3-0.2-0.6s0-0.6-0.1-1.1
			c-0.1-0.4-0.1-0.8-0.1-1c0-0.3-0.1-0.7-0.3-1.2c-0.1-0.5-0.2-0.9-0.2-1C291.4,559,290.7,559,290,559z M286.9,557.3
			c0,0.2,0.3,0.4,1,0.6c1.1,0.2,2.3,0.3,3.5,0.3h0.4c-0.2-0.4-0.3-0.9-0.3-1.5v-0.8c0-1.4-0.2-3.4-0.7-6.1c-0.4-2.7-0.7-4.7-0.7-6
			c-1.5,5.8-2.5,9.4-2.8,10.8C287.1,556,286.9,556.9,286.9,557.3z"/>
		<path d="M308.4,557.3l0.2,5.2c-1.5,1.2-3,1.7-4.5,1.7c-1.9,0-3.2-0.3-3.8-0.9c-0.6-0.6-1.1-2-1.4-4.3c-0.3-2.2-0.5-3.8-0.5-4.8
			s0.1-2,0.2-3.1s0.3-2.2,0.3-3.3c0.1-1,0.2-1.9,0.4-2.6c0.7-2.4,2.4-3.6,5-3.6c0.9,0,1.3,0.2,1.3,0.5c0,0.2-0.1,0.3-0.3,0.4
			c-0.2,0.1-0.4,0.1-0.6,0.1l-0.8-0.1c-1,0-1.8,0.5-2.3,1.4c-0.6,1.1-1,2.1-1.1,3s-0.3,1.6-0.3,2.2s-0.1,1.2-0.2,1.8
			c0,1-0.1,2-0.1,2.9s0,1.6,0.1,2.2c0.2,0.3,0.4,0.7,0.4,1.3c0.1,0.6,0.1,1.2,0.2,1.9c0,0.6,0.2,1.2,0.3,1.9
			c0.2,0.6,0.6,1.1,1.1,1.5c0.6,0.4,1.4,0.6,2.4,0.6c1.8,0,2.6-1.8,2.6-5.4v-2.5c-0.3-0.2-0.8-0.3-1.5-0.3l-0.8,0
			c-0.7,0-1-0.1-1-0.4c0-0.4,0.3-0.6,1-0.6c2.7,0,4,0.2,4,0.7L308.4,557.3z"/>
		<path d="M313.4,563.7l0-0.9l-0.1-0.1c0.2-0.5,0.3-0.9,0.3-1.4l-0.2-4.4l0.3-10.2l-0.2-4c0-0.6,0.4-1,1.3-1c0.3,0,0.6,0.1,0.7,0.2
			c0.1,0,0.5,0.1,1.3,0.1c1.8,0.2,2.7,0.4,2.8,0.8c0,0.2-0.3,0.4-0.8,0.6c-1.6-0.4-2.8-0.6-3.5-0.6l-0.2,0.2c0,0.3,0,0.8,0,1.5
			l-0.2,5.2c0,0.6,0.2,0.9,0.6,0.9l1.5-0.1c1.1,0,1.7,0.2,1.7,0.6c0,0.2-0.1,0.4-0.2,0.6c-0.1,0.2-0.4,0.3-0.8,0.3s-0.7-0.1-0.9-0.3
			l-1.4-0.2h-0.2l-0.2,0.2v0.1c0.1,0.6,0.1,1.5,0.1,2.7l-0.1,4.8c0,2.2,0.2,3.5,0.6,3.7c0.3,0.2,0.7,0.2,1.4,0.2l1.6-0.1
			c0.9,0,1.3,0.1,1.3,0.4c0,0.4-0.6,0.6-1.9,0.6h-3.6C313.8,564.4,313.5,564.2,313.4,563.7z"/>
		<path d="M340.5,565.1c-0.5,0-0.7-0.5-0.7-1.5c-0.1-0.6-0.2-1.4-0.5-2.5s-0.4-1.8-0.5-2.2c-0.1-0.3-0.2-1.6-0.4-3.7
			c-0.6-5.3-1.1-8.2-1.6-8.6c-0.3,2.5-0.4,4.1-0.4,4.7c0,0.6-0.1,1.3-0.2,2.3c-0.1,0.9-0.3,2.2-0.6,3.7c-0.3,1.5-0.5,2.4-0.5,2.6
			c0,0.2-0.1,0.5-0.1,1c-0.1,0.4-0.1,0.8-0.2,1.2c-0.1,0.4-0.2,0.8-0.3,1.3c-0.2,1-0.5,1.5-0.9,1.5c-0.4,0-0.8-0.5-1-1.5
			c-0.2-1-0.4-2.4-0.6-4.3s-0.2-3-0.3-3.4c-0.1-0.4-0.2-1.2-0.5-2.6c-0.3-1.3-0.4-2.3-0.5-2.8s-0.1-1.2-0.1-2.1
			c-0.1-0.8-0.1-1.5-0.1-2c-0.1-1.5-0.4-2.7-0.9-3.6c0.1-0.2,0.3-0.3,0.6-0.3s0.5,0.1,0.6,0.2s0.2,0.3,0.3,0.6s0.1,0.5,0.1,0.7
			c0,0.4,0.1,0.9,0.1,1.4c0,0.5,0.4,2.6,1,6.5s0.9,6.8,1,8.8c0.1,0.2,0.2,0.5,0.2,0.9c0.1,0.4,0.1,0.7,0.2,0.9h0
			c0.3-1.6,0.5-2.7,0.6-3.2s0.2-1.2,0.3-1.9s0.2-1.4,0.3-1.8c0.1-0.4,0.1-1,0.2-1.7c0.1-1,0.2-2.3,0.3-3.7c0.1-1.4,0.2-2.6,0.3-3.5
			c0.2-0.9,0.2-1.4,0.2-1.7l0.8-0.3c0.2,0,0.4,0,0.5,0.1c0.2,0.1,0.2,0.2,0.2,0.3c0,0.1,0,0.2-0.1,0.3c1.3,3.5,2.2,7.5,2.4,12.1
			c0.1,1.8,0.4,3.1,0.8,3.9c0.4-0.8,0.7-2.8,0.9-5.9c0.2-3.1,0.3-5.3,0.3-6.5c0-1.2,0.1-2.4,0.3-3.6s0.3-2,0.3-2.4s-0.1-0.7-0.2-0.8
			c0-0.4,0.3-0.5,0.9-0.5c0.2,0,0.4,0,0.5,0.1c0.1,0,0.1,0.3,0.1,0.6c0,0.4-0.1,0.8-0.2,1.2l0.1,0.2c-0.3,0.9-0.4,1.7-0.4,2.4
			s0,1.1,0.1,1.2l-0.3,0.7l0.1,0.2c-0.1,0.1-0.1,0.2-0.1,0.3s0,0.3,0.1,0.7L343,549c0,0.8-0.1,2.6-0.4,5.3s-0.4,4.3-0.5,4.7
			c-0.1,0.4-0.2,0.9-0.3,1.3c-0.1,0.5-0.2,0.8-0.2,1.1C341.6,563.9,341.2,565.1,340.5,565.1z M340.5,561.1L340.5,561.1L340.5,561.1
			C340.6,561.1,340.6,561.1,340.5,561.1z"/>
		<path d="M355,563.7l-1.5-0.1c-0.2,0-0.5,0.1-0.8,0.2c-0.3,0.1-0.7,0.2-1.1,0.2c-0.4,0-0.7-0.1-0.8-0.3l-0.7,0
			c-0.6,0-1-0.1-1.2-0.3c0-0.1,0.1-0.3,0.2-0.4c0.2-0.1,0.3-0.2,0.3-0.2h1.3l0.2-0.1l0.1-0.7l-0.3-7.4l0.2-7.9
			c0-1.5-0.1-2.8-0.2-3.9c-0.3-0.1-0.7-0.1-1.3-0.1l-1,0.1c-0.6,0-0.8-0.2-0.8-0.6c0-0.1,0.1-0.2,0.4-0.3s0.5-0.1,0.7-0.1
			c4.1,0,6.1,0.3,6.1,1c0,0.1,0,0.2-0.1,0.3l-1,0.1c-0.2-0.1-0.6-0.2-1.3-0.2L352,543c0.1,0.2,0.1,0.8,0.1,1.8l-0.1,8l0.3,7.4l0,1
			c0,0.5,0,0.8,0.1,0.9l0,0.1c0,0.2,0.3,0.3,1,0.3l1.3,0c0.9,0,1.3,0.2,1.3,0.5c0,0.2-0.1,0.4-0.3,0.5
			C355.5,563.7,355.2,563.7,355,563.7z"/>
		<path d="M366.6,542.8l-2.4-0.2l-0.2,0.2l0.1,0.1c-0.1,0.1-0.1,0.7-0.1,1.9s0.2,4,0.7,8.4c0.5,4.4,0.7,7.7,0.7,9.9
			c0,0.2-0.1,0.3-0.3,0.4s-0.4,0.2-0.6,0.2l-0.5-0.3l-0.1-2.5l0.1-1.2c0-0.3-0.1-0.6-0.2-0.8c0-1.9-0.2-4.7-0.5-8.4
			s-0.5-6.4-0.6-8.1c-2.3,0-3.5-0.2-3.7-0.6c0.1-0.3,0.4-0.4,0.8-0.4l5.9,0.3l0.8,0c0.5,0,0.8,0.1,0.8,0.4c0,0.2-0.1,0.3-0.3,0.4
			S366.8,542.8,366.6,542.8z"/>
		<path d="M377.5,541.7c0,0,0.1,0,0.2-0.1c0.2-0.1,0.3-0.1,0.4-0.1s0.4,0.1,0.9,0.2c0,1.8,0.1,4.4,0.3,7.9c0.2,3.5,0.3,6.3,0.3,8.5
			c0,2.1,0.1,4.2,0.3,6.1l-0.3,0.4c0-0.2-0.5-0.3-1.3-0.3c-0.1-5-0.2-8-0.2-9l-0.1-0.1l0.1-0.3c0-0.4,0-0.8-0.1-1.3l-0.7-0.1
			c-0.3,0.1-0.5,0.1-0.9,0.1l-2.8-0.3l-0.4,0.1l-0.1,4.3l0.1,0.1l0.3,5.6c0,0.6-0.2,0.9-0.7,0.9c-0.6,0-1-0.7-1-2l0.1-6.2
			c0-2,0-3.1-0.1-3.3c0.1-0.2,0.2-1,0.2-2.2l-0.3-7.9c0-0.2,0.1-0.3,0.2-0.4c0.1-0.1,0.3-0.2,0.5-0.2c0.6,0,0.9,0.7,0.9,2l-0.2,8.2
			c0,0.3,1.2,0.4,3.5,0.4c0.6,0,1-0.1,1.2-0.2s0.4-0.6,0.4-1.3s-0.1-2.1-0.3-4.2s-0.3-3.6-0.3-4.7
			C377.5,541.7,377.5,541.7,377.5,541.7z M376.8,551.8L376.8,551.8L376.8,551.8L376.8,551.8z"/>
		<path d="M396.3,559l-1.2,0c-0.4-0.1-0.9-0.2-1.4-0.2c-0.5,0-0.8,0-0.8,0c0,0-0.1,0.1-0.1,0.1c0,0.1,0,0.1,0,0.1l-0.1,0.7
			c-0.1,0.6-0.2,1.3-0.4,2.1c-0.4,1.6-0.8,2.4-1.3,2.4c-0.2,0-0.4-0.1-0.6-0.2s-0.3-0.3-0.3-0.4c0.4-0.8,0.8-2.1,1.2-3.8
			c0.4-1.7,0.6-2.8,0.7-3.2s0.3-1.3,0.6-2.6c0.3-1.3,0.4-2.1,0.5-2.5c0.1-0.4,0.3-1.3,0.7-2.6c0.4-1.4,0.6-2.2,0.7-2.7
			c0.1-0.4,0.2-1,0.3-1.7c0.2-1.8,0.4-2.7,0.6-2.9l0.6,0c0.4,0,0.6-0.1,0.8-0.2c0.2,0,0.4,0,0.5,0.1c0.2,0.1,0.3,0.2,0.3,0.4
			c0,1.1,0.2,3.2,0.5,6.2c0.4,3.1,0.6,5.1,0.8,6c0.2,0.9,0.4,1.8,0.7,2.7s0.4,1.5,0.4,2l-0.2,0.5c0,0.5,0.1,1.3,0.4,2.2
			c0.2,1,0.4,1.7,0.4,2.1c0,0.4-0.1,0.7-0.3,0.8c-0.6,0-1-0.1-1.1-0.2c-0.1-0.1-0.2-0.3-0.2-0.6s0-0.6-0.1-1.1s-0.1-0.8-0.1-1
			c0-0.3-0.1-0.7-0.3-1.2c-0.1-0.5-0.2-0.9-0.2-1C397.7,559,397,559,396.3,559z M393.2,557.3c0,0.2,0.3,0.4,1,0.6
			c1.1,0.2,2.3,0.3,3.5,0.3h0.4c-0.2-0.4-0.3-0.9-0.3-1.5v-0.8c0-1.4-0.2-3.4-0.7-6.1c-0.4-2.7-0.7-4.7-0.7-6
			c-1.5,5.8-2.5,9.4-2.8,10.8C393.4,556,393.2,556.9,393.2,557.3z"/>
		<path d="M412.7,558.3l0.3,4.8c0,0.9-0.3,1.4-1,1.4L411,564c0.3-2.2,0.4-4.4,0.4-6.9s0.1-5.1,0.3-8.1c0.2-3,0.3-5.3,0.3-6.8
			c0-0.2,0.1-0.4,0.4-0.5c0.3-0.1,0.7-0.2,1.2-0.2s1.5,0.1,2.8,0.2c1.3,0.2,2,0.4,2,0.7c0,0.4-0.5,0.6-1.6,0.6
			c-0.5-0.2-1.1-0.3-1.8-0.3s-1.1,0-1.2,0c-0.1,0-0.2,0-0.2,0.1c0,0-0.1,0.1-0.1,0.2s-0.1,0.2-0.2,0.4l-0.4,7.1v1.2
			c0,0.1,0.2,0.1,0.7,0.1c1.5,0,2.2,0.1,2.2,0.5c0,0.2-0.1,0.3-0.3,0.5c-0.2,0.1-0.5,0.2-0.7,0.2l-1.5-0.2c-0.5,0-0.8,0.5-0.8,1.6
			V558.3z M411.3,547.3L411.3,547.3C411.3,547.4,411.2,547.4,411.3,547.3c-0.1,0.1-0.1,0.1-0.1,0
			C411.2,547.3,411.2,547.3,411.3,547.3L411.3,547.3z"/>
		<path d="M422.3,542.8c0-0.9,0.3-1.3,1-1.3c1.4,0,2.6,0.3,3.5,0.8c0.9,0.6,1.4,1.4,1.4,2.4v2.5c0,0.9-0.6,2.1-1.7,3.7
			c-0.4,0.5-0.6,0.8-0.6,0.9c0,0,0.6,1.8,1.7,5.3c1.1,3.5,1.7,5.3,1.7,5.4c0.1,0.1,0.2,0.3,0.4,0.7c0.2,0.4,0.3,0.7,0.3,0.9
			c0,0.3-0.2,0.4-0.5,0.4l-0.6-0.2c-0.7-0.6-1.4-2.8-2.2-6.6c-0.8-3.7-1.5-5.5-2-5.5h-0.2c-0.6,0-1,0.2-1,0.5c0,1.2,0.1,3.3,0.3,6.1
			s0.3,4.5,0.5,4.8l-0.3,0.6h-0.6L423,564C422.5,554.3,422.3,547.2,422.3,542.8z M423.6,543.2l0.2,8.2l0.1,0.1
			c0.6,0,1.1-0.2,1.5-0.7c0.4-0.4,0.8-1,1-1.6c0.5-1.3,0.7-2.3,0.7-3c0-0.7,0-1.2-0.1-1.5c-0.1-0.3-0.2-0.7-0.4-1.1
			c-0.4-0.8-1.2-1.2-2.5-1.2c-0.2,0-0.3,0.1-0.4,0.3C423.6,542.9,423.6,543.1,423.6,543.2z"/>
		<path d="M440.9,563.7l-1.5-0.1c-0.2,0-0.5,0.1-0.8,0.2c-0.3,0.1-0.7,0.2-1.1,0.2c-0.4,0-0.7-0.1-0.8-0.3l-0.7,0
			c-0.6,0-1-0.1-1.2-0.3c0-0.1,0.1-0.3,0.2-0.4c0.2-0.1,0.3-0.2,0.3-0.2h1.3l0.2-0.1l0.1-0.7l-0.3-7.4l0.2-7.9
			c0-1.5-0.1-2.8-0.2-3.9c-0.3-0.1-0.7-0.1-1.3-0.1l-1,0.1c-0.6,0-0.8-0.2-0.8-0.6c0-0.1,0.1-0.2,0.4-0.3s0.5-0.1,0.7-0.1
			c4.1,0,6.1,0.3,6.1,1c0,0.1,0,0.2-0.1,0.3l-1,0.1c-0.2-0.1-0.6-0.2-1.3-0.2L438,543c0.1,0.2,0.1,0.8,0.1,1.8l-0.1,8l0.3,7.4l0,1
			c0,0.5,0,0.8,0.1,0.9l0,0.1c0,0.2,0.3,0.3,1,0.3l1.3,0c0.9,0,1.3,0.2,1.3,0.5c0,0.2-0.1,0.4-0.3,0.5
			C441.4,563.7,441.2,563.7,440.9,563.7z"/>
		<path d="M446,563.7l0-0.9l-0.1-0.1c0.2-0.5,0.3-0.9,0.3-1.4l-0.2-4.4l0.3-10.2l-0.2-4c0-0.6,0.4-1,1.3-1c0.3,0,0.6,0.1,0.7,0.2
			c0.1,0,0.5,0.1,1.3,0.1c1.8,0.2,2.7,0.4,2.8,0.8c0,0.2-0.3,0.4-0.8,0.6c-1.6-0.4-2.8-0.6-3.5-0.6l-0.2,0.2c0,0.3,0,0.8,0,1.5
			l-0.2,5.2c0,0.6,0.2,0.9,0.6,0.9l1.5-0.1c1.1,0,1.7,0.2,1.7,0.6c0,0.2-0.1,0.4-0.2,0.6c-0.1,0.2-0.4,0.3-0.8,0.3s-0.7-0.1-0.9-0.3
			l-1.4-0.2h-0.2l-0.2,0.2v0.1c0.1,0.6,0.1,1.5,0.1,2.7l-0.1,4.8c0,2.2,0.2,3.5,0.6,3.7c0.3,0.2,0.7,0.2,1.4,0.2l1.6-0.1
			c0.9,0,1.3,0.1,1.3,0.4c0,0.4-0.6,0.6-1.9,0.6h-3.6C446.3,564.4,446,564.2,446,563.7z"/>
		<path d="M468.7,543.5l-0.1-0.8c0-0.5,0.2-0.7,0.6-0.7c0.3,0,0.5,0.1,0.7,0.3c0.2,0.2,0.3,0.4,0.3,0.7v2.3l-0.2,0.3
			c0,1.8-0.2,5.2-0.5,10.2s-0.6,7.8-0.9,8.3c-0.1,0-0.3,0.1-0.6,0.1c-0.3,0.1-0.6,0.1-0.7,0.1s-0.3-0.1-0.4-0.2s-0.2-0.3-0.3-0.6
			c-0.1-0.2-0.1-0.4-0.2-0.5l0-0.1c-0.2-0.9-0.6-2-1.1-3.2c-0.6-1.2-1-2-1.1-2.4c-0.1-0.1-0.5-0.9-1.2-2.5c-2.6-6.3-4.3-9.7-5-10.2
			c-0.2,0.7-0.3,1.5-0.3,2.4l0.1,2.7l-0.1,1.6c0,0.3,0.1,1,0.2,2.4h-0.1c0,3.7,0.1,5.8,0.3,6.2v3c0.1,0.2,0.2,0.4,0.2,0.6
			c0,0.5-0.3,0.8-0.8,0.8c-0.6,0-0.9-0.6-0.9-1.8l0.2-2.2l-0.3-9.7l0.3-6v-0.6c0-0.3,0-0.5,0-0.6c0-0.1,0-0.2,0.1-0.4
			c0-0.1,0.1-0.2,0.1-0.3c0-0.1,0.1-0.2,0.1-0.3c0.1-0.2,0.3-0.4,0.4-0.5l0.1,0.1l0.4-0.1c0.3,0.1,0.5,0.3,0.6,0.5
			c0,0,0,0.1,0.1,0.2c0,0.1,0.1,0.2,0.1,0.2c0.5,1.6,1.5,3.8,3.1,6.7c1.6,2.9,2.6,4.7,2.9,5.5c0.3,0.8,0.6,1.7,0.9,2.6
			c0.6,2,1.3,3.5,2,4.4l0.1-0.1C468.4,556.9,468.7,550.8,468.7,543.5z M467.8,564C467.8,564,467.8,564,467.8,564L467.8,564z"/>
		<path d="M484,552.2c0,0.9,0.1,1.4,0.2,1.6c-0.2,0.7-0.4,1.7-0.5,3c-0.1,1.3-0.3,2.2-0.5,2.9c-0.2,0.7-0.5,1.2-0.8,1.7
			c-0.8,1.1-2,2.1-3.8,2.8h-3c-0.3,0-0.4-0.3-0.4-0.9c-0.1-1.7-0.2-3.7-0.2-5.9l0.1-8c0-2.3-0.1-4.5-0.2-6.3
			c-0.2-0.2-0.4-0.3-0.4-0.6s0.1-0.4,0.4-0.6s0.5-0.2,0.7-0.2c0.2,0,0.4,0.1,0.7,0.3c0.2,0.2,0.4,0.3,0.6,0.3c0.1,0,0.4,0.1,0.9,0.2
			s0.9,0.2,1.2,0.3c0.3,0.1,0.8,0.4,1.6,1c0.7,0.5,1.2,0.9,1.5,1l0,0.1c0,0.1,0.2,0.4,0.7,0.9c0.4,0.4,0.7,0.8,0.8,0.9
			c0.5,1,0.7,2.3,0.7,4L484,552.2z M482.8,554.3l0-1.2l-0.2-3.4c-0.1-1.3-0.6-2.6-1.5-4.1c-0.4-0.7-1-1.2-1.8-1.7
			c-0.7-0.5-1.5-0.7-2.4-0.7c-0.3,0-0.5,2.2-0.5,6.7c0,4.5,0.2,8.5,0.5,12.1l0,0.6l0.2,0.1l0.1,0.4h1.3c0.2-0.2,0.4-0.4,0.7-0.5
			c0.3-0.2,0.4-0.3,0.5-0.3C481.7,560.9,482.8,558.2,482.8,554.3z"/>
		<path d="M489.2,563.9c-0.2-0.2-0.3-0.4-0.3-0.6c0-0.2,0.1-0.4,0.4-0.6s0.5-0.3,0.8-0.3s0.5,0.1,0.7,0.3s0.3,0.4,0.3,0.6
			c0,0.6-0.4,0.8-1.2,0.8C489.6,564.1,489.4,564.1,489.2,563.9z"/>
	</g>
	<g>
		<path d="M117.3,593.2l0,0.1c0,0,0.3,0.9,1,2.6c0.4,1.3,0.7,2.4,0.7,3.1c0,0.7-0.1,1.4-0.3,2.1c-0.2,0.7-0.5,1.4-1,2
			c-0.4,0.6-1,1.2-1.7,1.6c-0.7,0.4-1.4,0.6-2.1,0.6s-1.2,0-1.4,0c-0.8-0.1-1.4-0.3-1.8-0.8c0-0.3,0.2-0.4,0.5-0.4
			c0.3,0,0.7,0.1,1.2,0.3c0.5,0.2,1,0.3,1.5,0.3s1-0.2,1.5-0.6c0.5-0.4,0.9-0.9,1.2-1.5c0.6-1.3,0.9-2.4,0.9-3.5s-0.2-2.2-0.6-3.3
			c-0.4-1.1-1-2.2-1.6-3.1s-1.2-1.9-1.8-2.8c-1.5-2.2-2.2-4.3-2.2-6.3c0-1.6,0.6-2.9,1.9-3.9c0.7-0.5,1.5-0.8,2.5-0.8
			c0.3,0,0.7,0.1,1.2,0.3c0.5,0.2,0.8,0.4,0.9,0.6l-0.3,0.4c-0.7,0-1.1-0.1-1.4-0.3c-0.7,0-1.3,0.2-1.8,0.6
			c-0.9,0.7-1.4,1.7-1.4,2.9c0,0.9,0.1,1.6,0.3,2.2c0.2,0.6,0.3,1,0.4,1.3c0.1,0.3,0.3,0.7,0.5,1.2c0.3,0.5,0.4,0.8,0.6,1.1
			s0.4,0.6,0.7,1.1c0.3,0.5,0.6,0.9,0.7,1c0.1,0.2,0.4,0.5,0.8,1.1C116.9,592.7,117.2,593,117.3,593.2z"/>
		<path d="M130,604.3l-1.5-0.1c-0.2,0-0.5,0.1-0.8,0.2s-0.7,0.2-1.1,0.2s-0.7-0.1-0.8-0.3l-0.7,0c-0.6,0-1-0.1-1.2-0.3
			c0-0.1,0.1-0.3,0.2-0.4c0.2-0.1,0.3-0.2,0.3-0.2h1.3l0.2-0.1l0.1-0.7l-0.3-7.4l0.2-7.9c0-1.5-0.1-2.8-0.2-3.9
			c-0.3-0.1-0.7-0.1-1.3-0.1l-1,0.1c-0.6,0-0.8-0.2-0.8-0.6c0-0.1,0.1-0.2,0.4-0.3s0.5-0.1,0.7-0.1c4.1,0,6.1,0.3,6.1,1
			c0,0.1,0,0.2-0.1,0.3l-1,0.1c-0.2-0.1-0.6-0.2-1.3-0.2l-0.2,0.1c0.1,0.2,0.1,0.8,0.1,1.8l-0.1,8l0.3,7.4l0,1c0,0.5,0,0.8,0.1,0.9
			l0,0.1c0,0.2,0.3,0.3,1,0.3l1.3,0c0.9,0,1.3,0.2,1.3,0.5c0,0.2-0.1,0.4-0.3,0.5C130.5,604.2,130.3,604.3,130,604.3z"/>
		<path d="M144.8,597.9l0.2,5.2c-1.5,1.2-3,1.7-4.5,1.7c-1.9,0-3.2-0.3-3.8-0.9c-0.6-0.6-1.1-2-1.4-4.3c-0.3-2.2-0.5-3.8-0.5-4.8
			s0.1-2,0.2-3.1c0.1-1.1,0.3-2.2,0.3-3.3s0.2-1.9,0.4-2.6c0.7-2.4,2.4-3.6,5-3.6c0.9,0,1.3,0.2,1.3,0.5c0,0.2-0.1,0.3-0.3,0.4
			c-0.2,0.1-0.4,0.1-0.6,0.1l-0.8-0.1c-1,0-1.8,0.5-2.3,1.4c-0.6,1.1-1,2.1-1.1,3c-0.1,0.9-0.3,1.6-0.3,2.2s-0.1,1.2-0.1,1.8
			c0,1-0.1,2-0.1,2.9s0,1.6,0.1,2.2c0.2,0.3,0.4,0.7,0.4,1.3c0.1,0.6,0.1,1.2,0.2,1.9c0,0.6,0.2,1.2,0.3,1.9
			c0.2,0.6,0.6,1.1,1.1,1.5c0.6,0.4,1.4,0.6,2.4,0.6c1.8,0,2.6-1.8,2.6-5.4V596c-0.3-0.2-0.8-0.3-1.5-0.3l-0.8,0c-0.7,0-1-0.1-1-0.4
			c0-0.4,0.3-0.6,1-0.6c2.7,0,4,0.2,4,0.7L144.8,597.9z"/>
		<path d="M162,584l-0.1-0.8c0-0.5,0.2-0.7,0.6-0.7c0.3,0,0.5,0.1,0.7,0.3c0.2,0.2,0.3,0.4,0.3,0.7v2.3l-0.2,0.3
			c0,1.8-0.2,5.2-0.5,10.2s-0.6,7.8-0.9,8.3c-0.1,0-0.3,0.1-0.6,0.1c-0.3,0.1-0.6,0.1-0.7,0.1s-0.3-0.1-0.4-0.2
			c-0.1-0.1-0.2-0.3-0.3-0.6c-0.1-0.2-0.1-0.4-0.2-0.5l0-0.1c-0.2-0.9-0.6-2-1.1-3.2c-0.6-1.2-1-2-1.1-2.4c-0.1-0.1-0.5-0.9-1.2-2.5
			c-2.6-6.3-4.3-9.7-5-10.2c-0.2,0.7-0.3,1.5-0.3,2.4l0.1,2.7l-0.1,1.6c0,0.3,0.1,1,0.2,2.4H151c0,3.7,0.1,5.8,0.3,6.2v3
			c0.1,0.2,0.2,0.4,0.2,0.6c0,0.5-0.3,0.8-0.8,0.8c-0.6,0-0.9-0.6-0.9-1.8l0.2-2.2l-0.3-9.7l0.3-6v-0.6c0-0.3,0-0.5,0-0.6
			s0-0.2,0.1-0.4c0-0.1,0.1-0.2,0.1-0.3c0-0.1,0.1-0.2,0.1-0.3c0.1-0.2,0.3-0.4,0.4-0.5l0.1,0.1l0.4-0.1c0.3,0.1,0.5,0.3,0.6,0.5
			c0,0,0,0.1,0.1,0.2c0,0.1,0.1,0.2,0.1,0.2c0.5,1.6,1.5,3.8,3.1,6.7c1.6,2.9,2.6,4.7,2.9,5.5s0.6,1.7,0.9,2.6c0.6,2,1.3,3.5,2,4.4
			l0.1-0.1C161.7,597.5,162,591.4,162,584z M161.1,604.6C161.1,604.6,161.1,604.6,161.1,604.6L161.1,604.6z"/>
		<path d="M183.2,589.4l0,0.7c-0.1,0.6-0.1,1.3-0.1,2.3c0,1,0,1.9-0.1,2.8c0,0.9-0.1,1.8-0.1,2.8c-0.1,1-0.2,1.9-0.3,2.7
			c-0.4,1.9-1,3.2-1.9,3.8c-1,0.7-2.1,0.8-3.4,0.2c-0.6-0.2-1-0.5-1.4-0.9c-0.4-0.4-0.7-1.5-0.9-3.5s-0.4-4.1-0.4-6.2
			c-0.1-6.6-0.3-10.3-0.4-11.2l0.3-0.5c0.7,0.1,1,0.7,1,1.9l0.1,8.9l0.5,7.2c0,2.6,1.1,3.8,3.3,3.8c1.4,0,2.2-2.4,2.6-7.1
			c0-0.3,0.1-1.8,0.2-4.6c0.1-2.7,0.2-6,0.2-9.9l-0.1-0.6c0-0.3,0.2-0.4,0.6-0.4c0.4,0,0.7,0.1,0.7,0.2c0.1,0.1,0.1,0.8,0.1,2
			s-0.1,2.1-0.3,2.6c0,0,0,0.1,0,0.2L183.2,589.4z"/>
		<path d="M189.8,598l0.4,6.6c0,0.4-0.3,0.6-0.8,0.6l-0.6-0.3c-0.3-1.4-0.5-3-0.5-4.9l0.2-6.3c-0.2-0.3-0.3-0.6-0.3-0.8
			c0.3-0.4,0.4-1.4,0.4-3.1c0-4-0.1-6.2-0.3-6.5c0.3-0.6,0.5-0.8,0.6-0.8h1.9c0.4,0,0.8,0.1,1.4,0.4s1.1,0.5,1.4,0.7
			c0.7,0.5,1.1,1.8,1.1,4c0,1.9-0.1,3.1-0.3,3.5c-0.2,0.4-0.4,0.8-0.7,1.1c-0.2,0.3-0.5,0.6-0.9,0.7c-0.8,0.5-1.9,0.8-3.1,1.1V598z
			 M189.8,584.5l0.2,4.9l-0.2,3.2l0.3,0.3c2.1,0,3.3-1.7,3.4-5.2c0-0.2,0-0.5,0-0.9s0-0.7,0-0.9c0-0.3-0.1-0.5-0.2-0.8
			s-0.3-0.6-0.4-0.7c-0.4-0.5-1.1-0.7-2-0.7c-0.4,0-0.6,0.1-0.8,0.2C189.8,584,189.8,584.2,189.8,584.5z"/>
		<path d="M212.3,583.4l-2.4-0.2l-0.2,0.2l0.1,0.1c-0.1,0.1-0.1,0.7-0.1,1.9s0.2,4,0.7,8.4c0.5,4.4,0.7,7.7,0.7,9.9
			c0,0.2-0.1,0.3-0.3,0.4c-0.2,0.1-0.4,0.2-0.6,0.2l-0.5-0.3l-0.1-2.5l0.1-1.2c0-0.3-0.1-0.6-0.2-0.8c0-1.9-0.2-4.7-0.5-8.4
			s-0.5-6.4-0.6-8.1c-2.3,0-3.5-0.2-3.7-0.6c0.1-0.3,0.4-0.4,0.8-0.4l5.9,0.3l0.8,0c0.5,0,0.8,0.1,0.8,0.4c0,0.2-0.1,0.3-0.3,0.4
			S212.5,583.4,212.3,583.4z"/>
		<path d="M226.9,591.5l0.1,4c0,5.1-1.1,8.1-3.2,9.2c-0.5,0.3-1.1,0.4-1.7,0.4c-3.4,0-5.1-4.1-5.1-12.4c0-3.2,0.3-6,0.9-8.3
			c0.4-1.7,1.1-2.6,1.9-2.6c0.2,0,0.4,0.1,0.6,0.2c0.2,0.1,0.4,0.2,0.7,0.3c0.3,0.1,0.7,0.2,1.3,0.2c0.5,0.1,0.9,0.1,1.1,0.2
			c0.6,0.1,1.1,0.5,1.7,1.3c1.2,1.6,1.8,4,1.8,7.3L226.9,591.5z M218.3,592.7l0.1,2.7c0,2.1,0.3,4.2,0.9,6.1c0.2,0.7,0.6,1.4,1,1.9
			s1,0.8,1.5,0.8s1.1-0.2,1.5-0.5c0.4-0.3,0.8-0.8,1-1.4c0.3-0.6,0.5-1.2,0.6-1.8c0.2-0.6,0.3-1.3,0.4-2.1c0.1-1.2,0.2-2.3,0.2-3.2
			l-0.5-8L225,587l0.1-0.2c0-1-0.4-1.8-1.1-2.6c-0.7-0.7-1.6-1.1-2.6-1.1h-1.8c-0.2,0-0.5,1-0.6,3c-0.2,2-0.3,3.1-0.4,3.3
			L218.3,592.7z"/>
		<path d="M238.1,582.7c0-0.6,0.3-0.9,0.9-0.9c0.4,0,1.2,0.1,2.3,0.4c1.1,0.3,1.7,0.5,1.7,0.7c0,0,0,0.1,0,0.1
			c0.5,0.7,0.9,1.3,1.1,2c0.2,0.7,0.3,1.7,0.3,3c0,1.3-0.2,2.5-0.7,3.5h0c-0.1,0.2-0.3,0.5-0.7,0.9c-0.3,0.4-0.5,0.6-0.6,0.7
			c0.6,0.3,1,0.8,1.4,1.5c0.3,0.6,0.5,1.2,0.6,1.7c0.1,0.5,0.1,1.1,0.2,1.8l0,0.9v0.5c0,2.2-0.9,3.7-2.6,4.8c-0.9,0.5-2,0.8-3.4,0.8
			c-0.3,0-0.5-0.1-0.6-0.2c-0.1-0.1-0.2-0.3-0.2-0.5c0-0.2,0-0.6,0-1l0.4-7.1l-0.1-3l0.3-8.1c0-0.9,0-1.5,0-2l-0.2-0.2V582.7z
			 M239.2,602.1l0,1.5c1.1,0,2-0.4,2.8-1.2c0.8-0.8,1.2-1.6,1.2-2.5v0c0-0.2,0-0.4,0-0.6s0-0.5,0-1c0-0.5-0.1-0.9-0.1-1.3
			s-0.2-0.8-0.4-1.3c-0.2-0.5-0.4-0.9-0.6-1.2c-0.6-0.8-1.4-1.1-2.5-1.1c-0.1,1.7-0.2,3.2-0.2,4.5c0,1.3,0,2.1,0.1,2.5
			C239.3,600.7,239.2,601.2,239.2,602.1z M239.5,589.2l0,2.4v0.4l0.2,0.4h0.3c1.9,0,2.9-1.5,2.9-4.5c0-0.4,0-1.1-0.1-2.1l-0.1-0.1
			c-0.2-1.9-0.9-2.8-2.2-2.8c-0.6,0-1,1.5-1,4.4L239.5,589.2z"/>
		<path d="M249.2,604.3l0-0.9l-0.1-0.1c0.2-0.5,0.3-0.9,0.3-1.4l-0.2-4.4l0.3-10.2l-0.2-4c0-0.6,0.4-1,1.3-1c0.3,0,0.6,0.1,0.7,0.2
			c0.1,0,0.5,0.1,1.3,0.1c1.8,0.2,2.7,0.4,2.8,0.8c0,0.2-0.3,0.4-0.8,0.6c-1.6-0.4-2.8-0.6-3.5-0.6l-0.2,0.2c0,0.3,0,0.8,0,1.5
			l-0.2,5.2c0,0.6,0.2,0.9,0.6,0.9l1.5-0.1c1.1,0,1.7,0.2,1.7,0.6c0,0.2-0.1,0.4-0.2,0.6c-0.1,0.2-0.4,0.3-0.8,0.3s-0.7-0.1-0.9-0.3
			l-1.4-0.2h-0.2l-0.2,0.2v0.1c0.1,0.6,0.1,1.5,0.1,2.7l-0.1,4.8c0,2.2,0.2,3.5,0.6,3.7c0.3,0.2,0.7,0.2,1.4,0.2l1.6-0.1
			c0.9,0,1.3,0.1,1.3,0.4c0,0.4-0.6,0.6-1.9,0.6h-3.6C249.5,605,249.2,604.8,249.2,604.3z"/>
		<path d="M271.4,599.5l-1.2,0c-0.4-0.1-0.9-0.2-1.4-0.2c-0.5,0-0.8,0-0.8,0c0,0-0.1,0.1-0.1,0.1c0,0.1,0,0.1,0,0.1l-0.1,0.7
			c-0.1,0.6-0.2,1.3-0.4,2.1c-0.4,1.6-0.8,2.4-1.3,2.4c-0.2,0-0.4-0.1-0.6-0.2c-0.2-0.1-0.3-0.3-0.3-0.4c0.4-0.8,0.8-2.1,1.2-3.8
			c0.4-1.7,0.6-2.8,0.7-3.2c0.1-0.4,0.3-1.3,0.6-2.6c0.3-1.3,0.4-2.1,0.5-2.5s0.3-1.3,0.7-2.6c0.4-1.4,0.6-2.2,0.7-2.7
			c0.1-0.4,0.2-1,0.3-1.7c0.2-1.8,0.4-2.7,0.6-2.9l0.6,0c0.4,0,0.6-0.1,0.8-0.2c0.2,0,0.4,0,0.5,0.1c0.2,0.1,0.3,0.2,0.3,0.4
			c0,1.1,0.2,3.2,0.5,6.2c0.4,3.1,0.6,5.1,0.8,6c0.2,0.9,0.4,1.8,0.7,2.7c0.3,0.9,0.4,1.5,0.4,2l-0.2,0.5c0,0.5,0.1,1.3,0.4,2.2
			c0.2,1,0.4,1.7,0.4,2.1c0,0.4-0.1,0.7-0.3,0.8c-0.6,0-1-0.1-1.1-0.2c-0.1-0.1-0.2-0.3-0.2-0.6s0-0.6-0.1-1.1
			c-0.1-0.4-0.1-0.8-0.1-1c0-0.3-0.1-0.7-0.3-1.2c-0.1-0.5-0.2-0.9-0.2-1C272.8,599.6,272.2,599.5,271.4,599.5z M268.3,597.9
			c0,0.2,0.3,0.4,1,0.6c1.1,0.2,2.3,0.3,3.5,0.3h0.4c-0.2-0.4-0.3-0.9-0.3-1.5v-0.8c0-1.4-0.2-3.4-0.7-6.1c-0.4-2.7-0.7-4.7-0.7-6
			c-1.5,5.8-2.5,9.4-2.8,10.8C268.5,596.6,268.3,597.5,268.3,597.9z"/>
		<path d="M303.9,597.8l-0.1,3.5c0,1.6,0.1,2.7,0.4,3.5c0.1,0.1,0.1,0.3,0.1,0.4c0,0.2-0.1,0.4-0.3,0.6c-0.2,0.3-0.4,0.4-0.7,0.4
			c-0.6,0-0.9-0.7-0.9-2.2c0-4.7,0-7.5-0.1-8.6s-0.2-1.9-0.3-2.5c-0.1-0.6-0.2-1.1-0.2-1.5l0.2-4.2c0-0.8-0.1-1.3-0.2-1.6
			c-0.6,0.4-2.3,5.1-5.3,14.2c0,0.1-0.1,0.2-0.1,0.5c0,0.3-0.1,0.5-0.1,0.7c0,0.2-0.1,0.4-0.2,0.7c-0.2,0.5-0.5,0.8-0.9,0.8
			c-0.5,0-0.8-0.1-1-0.3c-0.2-0.2-0.3-0.5-0.3-0.8c0-0.9-0.8-3.7-2.3-8.4c-1.5-4.7-2.5-7.2-3-7.6c-0.1,1.2-0.2,3.1-0.4,5.6
			c-0.4,5.2-0.6,8.7-0.6,10.5s0,2.8,0,3.1c-0.1,0.3-0.4,0.4-0.9,0.4c-0.1,0-0.2-0.1-0.4-0.2s-0.3-0.2-0.3-0.3
			c0-2.4,0.2-5.9,0.7-10.6s0.7-8.3,0.7-10.6l-0.3-0.6c0-0.3,0.4-0.5,1.2-0.5c0.4,0,0.7,0.2,0.9,0.5c0.1,0.3,0.2,0.6,0.2,0.8
			s0.1,0.6,0.2,1c0.1,0.4,0.5,1.1,1.1,2.3c0.7,1.1,1.1,1.9,1.2,2.3c0.1,0.4,0.3,0.9,0.6,1.5c0.5,1.3,0.8,2.3,0.9,2.9l0.6,0.9
			c0.1,0.4,0.2,0.9,0.5,1.6c0.5,1.5,0.7,2.7,0.8,3.6c0.3-0.4,1.3-2.7,2.8-7c1.5-4.3,2.3-6.7,2.4-7.2c0.1-0.6,0.2-1,0.3-1.3
			c0.1-0.3,0.1-0.5,0.2-0.7c0.1-0.2,0.1-0.4,0.2-0.6c0.2-0.5,0.6-0.7,1.1-0.7c0.2,0,0.4,0.1,0.7,0.2s0.4,0.3,0.4,0.4
			C303.3,592.4,303.5,597.3,303.9,597.8z M301.9,585.6L301.9,585.6l-0.1,0L301.9,585.6L301.9,585.6z"/>
		<path d="M308.9,604.3l0-0.9l-0.1-0.1c0.2-0.5,0.3-0.9,0.3-1.4l-0.2-4.4l0.3-10.2l-0.2-4c0-0.6,0.4-1,1.3-1c0.3,0,0.6,0.1,0.7,0.2
			c0.1,0,0.5,0.1,1.3,0.1c1.8,0.2,2.7,0.4,2.8,0.8c0,0.2-0.3,0.4-0.8,0.6c-1.6-0.4-2.8-0.6-3.5-0.6l-0.2,0.2c0,0.3,0,0.8,0,1.5
			l-0.2,5.2c0,0.6,0.2,0.9,0.6,0.9l1.5-0.1c1.1,0,1.7,0.2,1.7,0.6c0,0.2-0.1,0.4-0.2,0.6c-0.1,0.2-0.4,0.3-0.8,0.3s-0.7-0.1-0.9-0.3
			l-1.4-0.2h-0.2l-0.2,0.2v0.1c0.1,0.6,0.1,1.5,0.1,2.7l-0.1,4.8c0,2.2,0.2,3.5,0.6,3.7c0.3,0.2,0.7,0.2,1.4,0.2l1.6-0.1
			c0.9,0,1.3,0.1,1.3,0.4c0,0.4-0.6,0.6-1.9,0.6h-3.6C309.2,605,308.9,604.8,308.9,604.3z"/>
		<path d="M331.6,584l-0.1-0.8c0-0.5,0.2-0.7,0.6-0.7c0.3,0,0.5,0.1,0.7,0.3c0.2,0.2,0.3,0.4,0.3,0.7v2.3l-0.2,0.3
			c0,1.8-0.2,5.2-0.5,10.2s-0.6,7.8-0.9,8.3c-0.1,0-0.3,0.1-0.6,0.1c-0.3,0.1-0.6,0.1-0.7,0.1s-0.3-0.1-0.4-0.2s-0.2-0.3-0.3-0.6
			c-0.1-0.2-0.1-0.4-0.2-0.5l0-0.1c-0.2-0.9-0.6-2-1.1-3.2c-0.6-1.2-1-2-1.1-2.4c-0.1-0.1-0.5-0.9-1.2-2.5c-2.6-6.3-4.3-9.7-5-10.2
			c-0.2,0.7-0.3,1.5-0.3,2.4l0.1,2.7l-0.1,1.6c0,0.3,0.1,1,0.2,2.4h-0.1c0,3.7,0.1,5.8,0.3,6.2v3c0.1,0.2,0.2,0.4,0.2,0.6
			c0,0.5-0.3,0.8-0.8,0.8c-0.6,0-0.9-0.6-0.9-1.8l0.2-2.2l-0.3-9.7l0.3-6v-0.6c0-0.3,0-0.5,0-0.6c0-0.1,0-0.2,0.1-0.4
			c0-0.1,0.1-0.2,0.1-0.3c0-0.1,0.1-0.2,0.1-0.3c0.1-0.2,0.3-0.4,0.4-0.5l0.1,0.1l0.4-0.1c0.3,0.1,0.5,0.3,0.6,0.5
			c0,0,0,0.1,0.1,0.2c0,0.1,0.1,0.2,0.1,0.2c0.5,1.6,1.5,3.8,3.1,6.7c1.6,2.9,2.6,4.7,2.9,5.5c0.3,0.8,0.6,1.7,0.9,2.6
			c0.6,2,1.3,3.5,2,4.4l0.1-0.1C331.3,597.5,331.6,591.4,331.6,584z M330.7,604.6C330.7,604.6,330.7,604.6,330.7,604.6L330.7,604.6z
			"/>
		<path d="M344.4,583.4l-2.4-0.2l-0.2,0.2l0.1,0.1c-0.1,0.1-0.1,0.7-0.1,1.9s0.2,4,0.7,8.4c0.5,4.4,0.7,7.7,0.7,9.9
			c0,0.2-0.1,0.3-0.3,0.4s-0.4,0.2-0.6,0.2l-0.5-0.3l-0.1-2.5l0.1-1.2c0-0.3-0.1-0.6-0.2-0.8c0-1.9-0.2-4.7-0.5-8.4
			s-0.5-6.4-0.6-8.1c-2.3,0-3.5-0.2-3.7-0.6c0.1-0.3,0.4-0.4,0.8-0.4l5.9,0.3l0.8,0c0.5,0,0.8,0.1,0.8,0.4c0,0.2-0.1,0.3-0.3,0.4
			S344.6,583.4,344.4,583.4z"/>
		<path d="M359,591.5l0.1,4c0,5.1-1.1,8.1-3.2,9.2c-0.5,0.3-1.1,0.4-1.7,0.4c-3.4,0-5.1-4.1-5.1-12.4c0-3.2,0.3-6,0.9-8.3
			c0.4-1.7,1.1-2.6,1.9-2.6c0.2,0,0.4,0.1,0.6,0.2c0.2,0.1,0.4,0.2,0.7,0.3c0.3,0.1,0.7,0.2,1.3,0.2s0.9,0.1,1.1,0.2
			c0.6,0.1,1.1,0.5,1.7,1.3c1.2,1.6,1.8,4,1.8,7.3L359,591.5z M350.5,592.7l0.1,2.7c0,2.1,0.3,4.2,0.9,6.1c0.2,0.7,0.6,1.4,1,1.9
			s1,0.8,1.5,0.8s1.1-0.2,1.5-0.5c0.4-0.3,0.8-0.8,1-1.4c0.3-0.6,0.5-1.2,0.6-1.8s0.3-1.3,0.4-2.1c0.1-1.2,0.2-2.3,0.2-3.2l-0.5-8
			l-0.2-0.3l0.1-0.2c0-1-0.4-1.8-1.1-2.6c-0.7-0.7-1.6-1.1-2.6-1.1h-1.8c-0.2,0-0.5,1-0.6,3c-0.2,2-0.3,3.1-0.4,3.3L350.5,592.7z"/>
		<path d="M363.7,583.3c0-0.9,0.3-1.3,1-1.3c1.4,0,2.6,0.3,3.5,0.8c0.9,0.6,1.4,1.4,1.4,2.4v2.5c0,0.9-0.6,2.1-1.7,3.7
			c-0.4,0.5-0.6,0.8-0.6,0.9c0,0,0.6,1.8,1.7,5.3c1.1,3.5,1.7,5.3,1.7,5.4c0.1,0.1,0.2,0.3,0.4,0.7c0.2,0.4,0.3,0.7,0.3,0.9
			c0,0.3-0.2,0.4-0.5,0.4l-0.6-0.2c-0.7-0.6-1.4-2.8-2.2-6.6c-0.8-3.7-1.5-5.5-2-5.5h-0.2c-0.6,0-1,0.2-1,0.5c0,1.2,0.1,3.3,0.3,6.1
			s0.3,4.5,0.5,4.8l-0.3,0.6h-0.6l-0.3-0.3C363.9,594.8,363.7,587.8,363.7,583.3z M364.9,583.8l0.2,8.2l0.1,0.1
			c0.6,0,1.1-0.2,1.5-0.7c0.4-0.4,0.8-1,1-1.6c0.5-1.3,0.7-2.3,0.7-3c0-0.7,0-1.2-0.1-1.5c-0.1-0.3-0.2-0.7-0.4-1.1
			c-0.4-0.8-1.2-1.2-2.5-1.2c-0.2,0-0.3,0.1-0.4,0.3C364.9,583.4,364.9,583.6,364.9,583.8z"/>
		<path d="M391.4,591.5l0.1,4c0,5.1-1.1,8.1-3.2,9.2c-0.5,0.3-1.1,0.4-1.7,0.4c-3.4,0-5.1-4.1-5.1-12.4c0-3.2,0.3-6,0.9-8.3
			c0.4-1.7,1.1-2.6,1.9-2.6c0.2,0,0.4,0.1,0.6,0.2c0.2,0.1,0.4,0.2,0.7,0.3c0.3,0.1,0.7,0.2,1.3,0.2s0.9,0.1,1.1,0.2
			c0.6,0.1,1.1,0.5,1.7,1.3c1.2,1.6,1.8,4,1.8,7.3L391.4,591.5z M382.8,592.7l0.1,2.7c0,2.1,0.3,4.2,0.9,6.1c0.2,0.7,0.6,1.4,1,1.9
			s1,0.8,1.5,0.8s1.1-0.2,1.5-0.5c0.4-0.3,0.8-0.8,1-1.4c0.3-0.6,0.5-1.2,0.6-1.8s0.3-1.3,0.4-2.1c0.1-1.2,0.2-2.3,0.2-3.2l-0.5-8
			l-0.2-0.3l0.1-0.2c0-1-0.4-1.8-1.1-2.6c-0.7-0.7-1.6-1.1-2.6-1.1H384c-0.2,0-0.5,1-0.6,3c-0.2,2-0.3,3.1-0.4,3.3L382.8,592.7z"/>
		<path d="M396,583.3c0-0.9,0.3-1.3,1-1.3c1.4,0,2.6,0.3,3.5,0.8c0.9,0.6,1.4,1.4,1.4,2.4v2.5c0,0.9-0.6,2.1-1.7,3.7
			c-0.4,0.5-0.6,0.8-0.6,0.9c0,0,0.6,1.8,1.7,5.3c1.1,3.5,1.7,5.3,1.7,5.4c0.1,0.1,0.2,0.3,0.4,0.7c0.2,0.4,0.3,0.7,0.3,0.9
			c0,0.3-0.2,0.4-0.5,0.4l-0.6-0.2c-0.7-0.6-1.4-2.8-2.2-6.6c-0.8-3.7-1.5-5.5-2-5.5h-0.2c-0.6,0-1,0.2-1,0.5c0,1.2,0.1,3.3,0.3,6.1
			s0.3,4.5,0.5,4.8l-0.3,0.6H397l-0.3-0.3C396.2,594.8,396,587.8,396,583.3z M397.2,583.8l0.2,8.2l0.1,0.1c0.6,0,1.1-0.2,1.5-0.7
			c0.4-0.4,0.8-1,1-1.6c0.5-1.3,0.7-2.3,0.7-3c0-0.7,0-1.2-0.1-1.5c-0.1-0.3-0.2-0.7-0.4-1.1c-0.4-0.8-1.2-1.2-2.5-1.2
			c-0.2,0-0.3,0.1-0.4,0.3C397.3,583.4,397.2,583.6,397.2,583.8z"/>
		<path d="M431.6,597.8l-0.1,3.5c0,1.6,0.1,2.7,0.4,3.5c0.1,0.1,0.1,0.3,0.1,0.4c0,0.2-0.1,0.4-0.3,0.6c-0.2,0.3-0.4,0.4-0.7,0.4
			c-0.6,0-0.9-0.7-0.9-2.2c0-4.7,0-7.5-0.1-8.6s-0.2-1.9-0.3-2.5c-0.1-0.6-0.2-1.1-0.2-1.5l0.2-4.2c0-0.8-0.1-1.3-0.2-1.6
			c-0.6,0.4-2.3,5.1-5.3,14.2c0,0.1-0.1,0.2-0.1,0.5c0,0.3-0.1,0.5-0.1,0.7c0,0.2-0.1,0.4-0.2,0.7c-0.2,0.5-0.5,0.8-0.9,0.8
			c-0.5,0-0.8-0.1-1-0.3c-0.2-0.2-0.3-0.5-0.3-0.8c0-0.9-0.8-3.7-2.3-8.4c-1.5-4.7-2.5-7.2-3-7.6c-0.1,1.2-0.2,3.1-0.4,5.6
			c-0.4,5.2-0.6,8.7-0.6,10.5s0,2.8,0,3.1c-0.1,0.3-0.4,0.4-0.9,0.4c-0.1,0-0.3-0.1-0.4-0.2s-0.3-0.2-0.3-0.3
			c0-2.4,0.2-5.9,0.7-10.6s0.7-8.3,0.7-10.6l-0.3-0.6c0-0.3,0.4-0.5,1.2-0.5c0.4,0,0.7,0.2,0.9,0.5c0.1,0.3,0.2,0.6,0.2,0.8
			s0.1,0.6,0.2,1c0.1,0.4,0.5,1.1,1.1,2.3c0.7,1.1,1.1,1.9,1.2,2.3c0.1,0.4,0.3,0.9,0.6,1.5c0.5,1.3,0.8,2.3,0.9,2.9l0.6,0.9
			c0.1,0.4,0.2,0.9,0.5,1.6c0.5,1.5,0.7,2.7,0.8,3.6c0.3-0.4,1.3-2.7,2.8-7c1.5-4.3,2.3-6.7,2.4-7.2c0.1-0.6,0.2-1,0.3-1.3
			c0.1-0.3,0.1-0.5,0.2-0.7c0.1-0.2,0.1-0.4,0.2-0.6c0.2-0.5,0.6-0.7,1.1-0.7c0.2,0,0.4,0.1,0.7,0.2s0.4,0.3,0.4,0.4
			C431.1,592.4,431.3,597.3,431.6,597.8z M429.6,585.6L429.6,585.6l-0.1,0L429.6,585.6L429.6,585.6z"/>
		<path d="M436.6,604.3l0-0.9l-0.1-0.1c0.2-0.5,0.3-0.9,0.3-1.4l-0.2-4.4l0.3-10.2l-0.2-4c0-0.6,0.4-1,1.3-1c0.3,0,0.6,0.1,0.7,0.2
			c0.1,0,0.5,0.1,1.3,0.1c1.8,0.2,2.7,0.4,2.8,0.8c0,0.2-0.3,0.4-0.8,0.6c-1.6-0.4-2.8-0.6-3.5-0.6l-0.2,0.2c0,0.3,0,0.8,0,1.5
			l-0.2,5.2c0,0.6,0.2,0.9,0.6,0.9l1.5-0.1c1.1,0,1.7,0.2,1.7,0.6c0,0.2-0.1,0.4-0.2,0.6c-0.1,0.2-0.4,0.3-0.8,0.3s-0.7-0.1-0.9-0.3
			l-1.4-0.2h-0.2l-0.2,0.2v0.1c0.1,0.6,0.1,1.5,0.1,2.7l-0.1,4.8c0,2.2,0.2,3.5,0.6,3.7c0.3,0.2,0.7,0.2,1.4,0.2l1.6-0.1
			c0.9,0,1.3,0.1,1.3,0.4c0,0.4-0.6,0.6-1.9,0.6h-3.6C437,605,436.7,604.8,436.6,604.3z"/>
		<path d="M459.4,584l-0.1-0.8c0-0.5,0.2-0.7,0.6-0.7c0.3,0,0.5,0.1,0.7,0.3c0.2,0.2,0.3,0.4,0.3,0.7v2.3l-0.2,0.3
			c0,1.8-0.2,5.2-0.5,10.2s-0.6,7.8-0.9,8.3c-0.1,0-0.3,0.1-0.6,0.1c-0.3,0.1-0.6,0.1-0.7,0.1s-0.3-0.1-0.4-0.2s-0.2-0.3-0.3-0.6
			c-0.1-0.2-0.1-0.4-0.2-0.5l0-0.1c-0.2-0.9-0.6-2-1.1-3.2c-0.6-1.2-1-2-1.1-2.4c-0.1-0.1-0.5-0.9-1.2-2.5c-2.6-6.3-4.3-9.7-5-10.2
			c-0.2,0.7-0.3,1.5-0.3,2.4l0.1,2.7l-0.1,1.6c0,0.3,0.1,1,0.2,2.4h-0.1c0,3.7,0.1,5.8,0.3,6.2v3c0.1,0.2,0.2,0.4,0.2,0.6
			c0,0.5-0.3,0.8-0.8,0.8c-0.6,0-0.9-0.6-0.9-1.8l0.2-2.2l-0.3-9.7l0.3-6v-0.6c0-0.3,0-0.5,0-0.6c0-0.1,0-0.2,0.1-0.4
			c0-0.1,0.1-0.2,0.1-0.3c0-0.1,0.1-0.2,0.1-0.3c0.1-0.2,0.3-0.4,0.4-0.5l0.1,0.1l0.4-0.1c0.3,0.1,0.5,0.3,0.6,0.5
			c0,0,0,0.1,0.1,0.2c0,0.1,0.1,0.2,0.1,0.2c0.5,1.6,1.5,3.8,3.1,6.7c1.6,2.9,2.6,4.7,2.9,5.5c0.3,0.8,0.6,1.7,0.9,2.6
			c0.6,2,1.3,3.5,2,4.4l0.1-0.1C459,597.5,459.4,591.4,459.4,584z M458.4,604.6C458.5,604.6,458.5,604.6,458.4,604.6L458.4,604.6z"
			/>
		<path d="M472.1,583.4l-2.4-0.2l-0.2,0.2l0.1,0.1c-0.1,0.1-0.1,0.7-0.1,1.9s0.2,4,0.7,8.4c0.5,4.4,0.7,7.7,0.7,9.9
			c0,0.2-0.1,0.3-0.3,0.4s-0.4,0.2-0.6,0.2l-0.5-0.3l-0.1-2.5l0.1-1.2c0-0.3-0.1-0.6-0.2-0.8c0-1.9-0.2-4.7-0.5-8.4
			s-0.5-6.4-0.6-8.1c-2.3,0-3.5-0.2-3.7-0.6c0.1-0.3,0.4-0.4,0.8-0.4l5.9,0.3l0.8,0c0.5,0,0.8,0.1,0.8,0.4c0,0.2-0.1,0.3-0.3,0.4
			S472.4,583.4,472.1,583.4z"/>
		<path d="M477.2,604.3l0-0.9l-0.1-0.1c0.2-0.5,0.3-0.9,0.3-1.4l-0.2-4.4l0.3-10.2l-0.2-4c0-0.6,0.4-1,1.3-1c0.3,0,0.6,0.1,0.7,0.2
			c0.1,0,0.5,0.1,1.3,0.1c1.8,0.2,2.7,0.4,2.8,0.8c0,0.2-0.3,0.4-0.8,0.6c-1.6-0.4-2.8-0.6-3.5-0.6l-0.2,0.2c0,0.3,0,0.8,0,1.5
			l-0.2,5.2c0,0.6,0.2,0.9,0.6,0.9l1.5-0.1c1.1,0,1.7,0.2,1.7,0.6c0,0.2-0.1,0.4-0.2,0.6c-0.1,0.2-0.4,0.3-0.8,0.3s-0.7-0.1-0.9-0.3
			l-1.4-0.2h-0.2l-0.2,0.2v0.1c0.1,0.6,0.1,1.5,0.1,2.7l-0.1,4.8c0,2.2,0.2,3.5,0.6,3.7c0.3,0.2,0.7,0.2,1.4,0.2l1.6-0.1
			c0.9,0,1.3,0.1,1.3,0.4c0,0.4-0.6,0.6-1.9,0.6H478C477.5,605,477.2,604.8,477.2,604.3z"/>
		<path d="M487.7,604.3l0-0.9l-0.1-0.1c0.2-0.5,0.3-0.9,0.3-1.4l-0.2-4.4l0.3-10.2l-0.2-4c0-0.6,0.4-1,1.3-1c0.3,0,0.6,0.1,0.7,0.2
			c0.1,0,0.5,0.1,1.3,0.1c1.8,0.2,2.7,0.4,2.8,0.8c0,0.2-0.3,0.4-0.8,0.6c-1.6-0.4-2.8-0.6-3.5-0.6l-0.2,0.2c0,0.3,0,0.8,0,1.5
			l-0.2,5.2c0,0.6,0.2,0.9,0.6,0.9l1.5-0.1c1.1,0,1.7,0.2,1.7,0.6c0,0.2-0.1,0.4-0.2,0.6c-0.1,0.2-0.4,0.3-0.8,0.3s-0.7-0.1-0.9-0.3
			l-1.4-0.2h-0.2l-0.2,0.2v0.1c0.1,0.6,0.1,1.5,0.1,2.7l-0.1,4.8c0,2.2,0.2,3.5,0.6,3.7c0.3,0.2,0.7,0.2,1.4,0.2l1.6-0.1
			c0.9,0,1.3,0.1,1.3,0.4c0,0.4-0.6,0.6-1.9,0.6h-3.6C488,605,487.7,604.8,487.7,604.3z"/>
		<path d="M498.5,601c-0.2-0.2-0.3-0.4-0.3-0.6c0-0.2,0.1-0.4,0.4-0.6c0.2-0.2,0.5-0.3,0.8-0.3s0.5,0.1,0.7,0.3
			c0.2,0.2,0.3,0.4,0.3,0.6c0,0.6-0.4,0.8-1.2,0.8C498.9,601.2,498.7,601.2,498.5,601z M499,588.2c-0.2-0.2-0.3-0.4-0.3-0.6
			c0-0.2,0.1-0.4,0.4-0.6c0.2-0.2,0.5-0.3,0.8-0.3s0.5,0.1,0.7,0.3c0.2,0.2,0.3,0.4,0.3,0.6c0,0.6-0.4,0.8-1.2,0.8
			C499.4,588.5,499.1,588.4,499,588.2z"/>
	</g>
	<g>
		<path d="M91.9,664l1,0c1.8,0,2.7,0.4,2.7,1.3c0,0.4-0.2,0.8-0.6,1c-0.4,0.3-0.9,0.4-1.6,0.4c-0.6,0-1.3-0.1-2-0.3v13.5
			c0,1.6-0.6,2.4-1.9,2.4l-1.6-1c0.3-2.7,0.5-6.7,0.6-11.7c0.1-5.1,0.2-9.1,0.4-11.9c0.2-2.9,0.3-5,0.3-6.4c0-0.5,0.2-0.8,0.7-1
			s0.9-0.4,1.5-0.4c0.6,0,1.2,0,1.8,0c3.7,0.2,5.5,0.9,5.5,1.9c0,0.9-0.9,1.4-2.8,1.4c-0.7-0.3-1.9-0.5-3.6-0.5v0.6l-0.5,9.6V664z"
			/>
		<path d="M116.2,673.8l-0.3,1c0,0.4,0.2,1.3,0.5,2.8c0.3,1.5,0.5,2.5,0.5,3v0c0,0.7-0.3,1.2-0.8,1.4c-0.8,0-1.4-0.1-1.8-0.3
			c-0.4-0.2-0.7-0.8-0.7-1.6s-0.3-2.7-0.8-5.4l-1.7-0.1h-1.9c-0.4-0.2-1.2-0.2-2.2-0.2c0,0,0,0.2-0.1,0.6c0,0.4-0.1,0.7-0.1,0.9
			c0,0.2-0.1,0.6-0.1,1c-0.1,0.5-0.1,0.8-0.2,1.2c-0.1,0.3-0.2,0.7-0.3,1.1c-0.1,0.4-0.2,0.8-0.4,1.1c-0.1,0.3-0.3,0.6-0.5,0.8
			c-0.3,0.5-0.7,0.8-1.2,0.8s-0.9-0.1-1.3-0.4c-0.4-0.2-0.6-0.5-0.6-0.9c1-3.2,1.8-6.6,2.5-10.1c0.7-3.5,1.1-5.6,1.3-6.3
			c0.1-0.7,0.5-1.9,1-3.8c0.5-1.9,0.8-3.1,0.9-3.8c0.1-0.6,0.2-1.5,0.3-2.5c0.2-2.2,0.5-3.6,1-4.3h1.9c1.3,0,1.9,0.3,1.9,1
			c0,6.1,0.7,12.2,2.1,18.3c0.1,0.4,0.2,0.9,0.4,1.5C116,671.9,116.2,673,116.2,673.8z M112.4,672.8c-0.1-0.5-0.2-1.2-0.2-2.3
			c0-1-0.1-2.3-0.2-3.8c-0.2-1.5-0.4-3.2-0.7-5.2c-0.3-2-0.5-3.4-0.6-4.2c-0.2,0.9-0.6,2.4-1.3,4.5c-1.3,4.4-2,7.8-2,10.2
			C108,672.4,109.7,672.6,112.4,672.8z"/>
		<path d="M131,679.3c1.1,0,1.7,0.3,1.7,1c0,1.3-1,1.9-3.1,1.9c-0.9,0-1.7-0.1-2.6-0.3c-0.9-0.2-1.6-0.4-2-0.7
			c-2.5-1.4-3.7-5.1-3.7-11.2l0-2.8c0-9.1,1.3-14.5,3.9-16.2c1.4-0.8,3.2-1.3,5.6-1.3c0.4,0,0.8,0.1,1.1,0.4
			c0.3,0.2,0.5,0.5,0.5,0.9v0.2c-0.3,0.7-1.3,1.1-2.7,1.1l-1,0c-0.6,0-1.2,0.3-1.7,0.9c-0.5,0.6-0.9,1.3-1.1,2.1
			c-0.3,0.8-0.5,1.7-0.6,2.7c-0.3,1.6-0.4,3-0.4,4.4v0.2l-0.4,9.2c0,1.9,0.1,3.3,0.4,4s0.5,1.3,0.8,1.8c0.3,0.5,0.6,0.8,0.9,1.1
			c0.8,0.7,1.9,1,3.2,1C130.2,679.7,130.6,679.6,131,679.3z"/>
		<path d="M142.5,679.7l2.2-0.1c1.4,0,2.1,0.4,2.1,1.2c0,0.5-0.2,0.8-0.7,1c-0.5,0.2-1.1,0.3-1.7,0.3h-5.3c-0.5,0-0.9-0.1-1.2-0.4
			c-0.3-0.3-0.5-0.6-0.5-1.1c0-0.4,0-1,0.1-1.6c0.1-0.7,0.2-1.2,0.2-1.6l-0.3-6.1l0.4-13.9l-0.3-4c0-2.3,0.8-3.4,2.4-3.4
			c0.4,0,0.8,0.1,1.2,0.3c0.1,0,0.5,0,1.1,0.1c0.6,0,1,0.1,1.5,0.2c0.4,0.1,0.9,0.1,1.4,0.3c1.1,0.2,1.6,0.7,1.6,1.3
			c0,0.7-0.5,1.1-1.6,1.5c-1.7-0.5-3.1-0.8-4.2-0.9c0.1,0.7,0.1,1.4,0.1,2l-0.2,6.8c0,0,0.1,0.3,0.2,0.7l2-0.1
			c1.8,0,2.7,0.4,2.7,1.3c0,0.5-0.2,0.9-0.5,1.2c-0.3,0.4-0.8,0.5-1.4,0.5s-1.1-0.1-1.5-0.4h-1.4c0.1,1.2,0.2,2.4,0.2,3.4l-0.2,8.6
			C140.5,678.8,141.1,679.7,142.5,679.7z"/>
		<path d="M151.7,669.3l0.2-15.1c0-1.1,0-1.9-0.1-2.5v-0.4c0-1.3,0.5-2,1.6-2c0.8,0,2,0.2,3.4,0.6c1.4,0.4,2.1,0.9,2.1,1.4
			c0,0.7,0.3,1.8,0.8,3.1s0.8,2.4,0.8,3.1c0,2.2-0.2,3.7-0.5,4.7c-0.4,1-0.9,1.9-1.7,2.9c1.1,0.9,1.8,2,2.1,3.3
			c0.3,1.3,0.5,2.7,0.5,4.1c0,1.4-0.1,2.5-0.3,3.3c-0.2,0.8-0.5,1.6-0.9,2.4s-0.9,1.4-1.5,2c-1.3,1.2-3.1,1.8-5.4,1.8
			c-0.8,0-1.3-0.3-1.5-0.9c-0.2-0.4-0.2-1-0.2-1.6L151.7,669.3z M154.7,675.8c-0.2,0.3-0.4,0.9-0.4,1.6v2.1c1.2-0.2,2.1-0.9,2.7-1.9
			c0.6-1,0.9-2,0.9-2.8c0-0.9,0-1.6,0-2.1s-0.1-1.2-0.2-1.9c-0.1-0.7-0.3-1.4-0.5-2c-0.5-1.4-1.4-2.1-2.5-2.4
			c-0.1,1.8-0.2,3.7-0.2,5.7S154.6,675.5,154.7,675.8z M154.7,651.5v12.2c1.9,0,2.8-2,2.8-5.8c0-1-0.1-2.1-0.4-3.1
			C156.6,652.7,155.8,651.6,154.7,651.5z"/>
		<path d="M179.2,668.7c0,9.1-2.2,13.7-6.6,13.7c-4.1,0-6.3-4.3-6.8-13c0-0.8-0.1-1.6-0.1-2.5l0-2.9v-0.9c0-6.7,1.2-10.9,3.5-12.5
			c0.6-0.4,1.2-0.6,1.9-0.6c0.5,0.2,1.2,0.3,1.9,0.4s1.3,0.3,1.7,0.4c0.7,0.3,1.4,1,2.2,2.1c0.8,1.1,1.4,2.6,1.7,4.4
			c0.4,1.9,0.6,3.7,0.6,5.6V668.7z M168.8,657.5l0.1,2.8l0,4.6c0,0.4,0,0.8,0,1.4c0,0.5,0,1.2,0.1,2.1c0,0.9,0.1,1.7,0.2,2.6
			c0.1,0.8,0.2,1.7,0.3,2.7c0.1,0.9,0.3,1.8,0.4,2.6s0.4,1.5,0.6,2.2c0.5,1.4,1.1,2.1,1.9,2.1c1.1,0,1.9-0.9,2.5-2.6
			c0.8-2.6,1.3-5.7,1.3-9.5l0.1-4.9c0-3.4-0.2-5.8-0.5-7s-0.7-2.1-1-2.7c-0.6-1.2-1.6-1.8-2.8-1.8c0,0-0.1,0-0.1,0
			C169.7,652,168.8,653.8,168.8,657.5z"/>
		<path d="M197.5,668.7c0,9.1-2.2,13.7-6.6,13.7c-4.1,0-6.3-4.3-6.8-13c0-0.8-0.1-1.6-0.1-2.5l0-2.9v-0.9c0-6.7,1.2-10.9,3.5-12.5
			c0.6-0.4,1.2-0.6,1.9-0.6c0.5,0.2,1.2,0.3,1.9,0.4s1.3,0.3,1.7,0.4c0.7,0.3,1.4,1,2.2,2.1c0.8,1.1,1.4,2.6,1.7,4.4
			c0.4,1.9,0.6,3.7,0.6,5.6V668.7z M187.1,657.5l0.1,2.8l0,4.6c0,0.4,0,0.8,0,1.4c0,0.5,0,1.2,0.1,2.1c0,0.9,0.1,1.7,0.2,2.6
			c0.1,0.8,0.2,1.7,0.3,2.7c0.1,0.9,0.3,1.8,0.4,2.6s0.4,1.5,0.6,2.2c0.5,1.4,1.1,2.1,1.9,2.1c1.1,0,1.9-0.9,2.5-2.6
			c0.8-2.6,1.3-5.7,1.3-9.5l0.1-4.9c0-3.4-0.2-5.8-0.5-7s-0.7-2.1-1-2.7c-0.6-1.2-1.6-1.8-2.8-1.8c0,0-0.1,0-0.1,0
			C188.1,652,187.1,653.8,187.1,657.5z"/>
		<path d="M207.1,651.5l-0.5,8.7v2.5c0.1-0.2,0.8-1.4,2.1-3.8c3.2-5.8,5.1-8.7,5.9-8.7c0.5,0,1,0.1,1.5,0.3c0.4,0.2,0.7,0.5,0.7,1
			c0,0-0.9,1.4-2.8,4c-1.9,2.7-3,4.2-3.2,4.6l-0.1,2.8c0,1.4,0.6,3.9,1.9,7.7s2.4,6.2,3.2,7.4c0.1,0.1,0.4,0.4,0.7,0.9
			c0.4,0.4,0.6,0.8,0.8,1.1c0.2,0.3,0.3,0.7,0.3,1s-0.2,0.7-0.5,0.9c-0.3,0.2-0.7,0.4-1.1,0.4c-0.9,0-1.8-0.8-2.7-2.4
			c-1-1.6-1.8-3.5-2.5-5.8c-1.3-3.9-2.2-7.3-2.8-10.2c-0.6,0.5-1.1,1.3-1.4,2.2s-0.5,1.5-0.5,1.9v13.1c0,0.7-0.4,1.1-1.2,1.1
			c-0.6,0-1-0.1-1.4-0.4c-0.3-0.3-0.5-0.6-0.5-1.1v-14.5c0-1.7,0.2-4.3,0.5-7.7c0.4-3.4,0.5-6,0.5-7.7c0.3-0.6,0.8-0.9,1.4-0.9
			C206.5,649.9,207.1,650.5,207.1,651.5z"/>
		<path d="M224.1,682.3c-0.6,0-1.1-0.2-1.4-0.5c-0.4-0.3-0.6-0.8-0.6-1.2s0.2-0.9,0.6-1.2c0.4-0.4,0.9-0.6,1.5-0.6
			c0.5,0,1,0.2,1.4,0.6c0.4,0.4,0.6,0.8,0.6,1.3s-0.2,0.9-0.6,1.2C225.2,682.1,224.7,682.3,224.1,682.3z"/>
		<path d="M241,679.3c1.1,0,1.7,0.3,1.7,1c0,1.3-1,1.9-3.1,1.9c-0.9,0-1.7-0.1-2.6-0.3c-0.9-0.2-1.6-0.4-2-0.7
			c-2.5-1.4-3.7-5.1-3.7-11.2l0-2.8c0-9.1,1.3-14.5,3.9-16.2c1.4-0.8,3.2-1.3,5.6-1.3c0.4,0,0.8,0.1,1.1,0.4s0.5,0.5,0.5,0.9v0.2
			c-0.3,0.7-1.3,1.1-2.7,1.1l-1,0c-0.6,0-1.2,0.3-1.7,0.9c-0.5,0.6-0.9,1.3-1.1,2.1s-0.5,1.7-0.6,2.7c-0.3,1.6-0.4,3-0.4,4.4v0.2
			l-0.4,9.2c0,1.9,0.1,3.3,0.4,4c0.2,0.7,0.5,1.3,0.8,1.8c0.3,0.5,0.6,0.8,0.9,1.1c0.8,0.7,1.9,1,3.2,1
			C240.2,679.7,240.6,679.6,241,679.3z"/>
		<path d="M260.2,668.7c0,9.1-2.2,13.7-6.6,13.7c-4.1,0-6.3-4.3-6.8-13c0-0.8-0.1-1.6-0.1-2.5l0-2.9v-0.9c0-6.7,1.2-10.9,3.5-12.5
			c0.6-0.4,1.2-0.6,1.9-0.6c0.5,0.2,1.2,0.3,1.9,0.4c0.8,0.1,1.3,0.3,1.7,0.4c0.7,0.3,1.4,1,2.2,2.1c0.8,1.1,1.4,2.6,1.7,4.4
			c0.4,1.9,0.6,3.7,0.6,5.6V668.7z M249.8,657.5l0.1,2.8l0,4.6c0,0.4,0,0.8,0,1.4c0,0.5,0,1.2,0.1,2.1c0,0.9,0.1,1.7,0.2,2.6
			c0.1,0.8,0.2,1.7,0.3,2.7s0.3,1.8,0.4,2.6c0.2,0.8,0.4,1.5,0.6,2.2c0.5,1.4,1.1,2.1,1.9,2.1c1.1,0,1.9-0.9,2.5-2.6
			c0.8-2.6,1.3-5.7,1.3-9.5l0.1-4.9c0-3.4-0.2-5.8-0.5-7c-0.4-1.2-0.7-2.1-1-2.7c-0.6-1.2-1.6-1.8-2.8-1.8c0,0-0.1,0-0.1,0
			C250.8,652,249.8,653.8,249.8,657.5z"/>
		<path d="M268.6,679.5l0.1,1.4c0,0.5-0.1,0.9-0.4,1.2c-0.2,0.3-0.6,0.4-1.2,0.4c-0.5,0-1-0.1-1.3-0.3c-0.3-0.2-0.5-0.6-0.5-1
			c0-0.4,0.2-4.4,0.6-11.9c0.4-7.5,0.6-13.2,0.6-17c0.1-0.8,0.2-1.3,0.4-1.6c0.2-0.3,0.6-0.4,1-0.5c0.4,0,0.7,0,0.9,0
			c0.1,0.1,0.3,0.2,0.4,0.3c0.1,0.1,0.2,0.3,0.3,0.4c0.1,0.1,0.2,0.3,0.2,0.6c0.1,0.3,0.1,0.5,0.2,0.6c0,0.1,0.1,0.3,0.1,0.6
			c0.1,0.3,0.1,0.6,0.2,0.8s0.3,1.4,0.8,3.3s1,4.4,1.6,7.5c0.6,3.1,1.3,6.9,2.1,11.6c1.2-5.2,2.1-10.2,3-14.9
			c0.8-4.7,1.3-7.2,1.3-7.5c0-0.3,0.1-0.5,0.1-0.7s0.1-0.3,0.2-0.6s0.1-0.5,0.2-0.7c0.1-0.2,0.2-0.3,0.3-0.5s0.3-0.4,0.4-0.5
			c0.3-0.3,0.8-0.4,1.2-0.4c0.5,0,0.9,0.1,1.4,0.3c0.4,0.2,0.7,0.6,0.7,1c0,7.3,0.1,12.4,0.2,15.2c0.2,2.8,0.2,4.5,0.2,5.1l-0.1,7.7
			c0.2,0.3,0.2,0.7,0.2,1.1c0,0.4-0.1,0.8-0.4,1.2s-0.7,0.7-1.2,0.7c-1.2,0-1.8-1-1.8-3l0.1-4.4c0-3.1,0-5.9-0.1-8.3
			c0.1-1.4,0.1-5.2,0.1-11.3c-0.6,3-1.4,7-2.4,12c-1,5-1.5,7.7-1.6,8c-0.1,0.3-0.1,0.6-0.2,0.9c0,0.3-0.1,0.5-0.1,0.7
			c0,0.2-0.1,0.4-0.2,0.7c-0.1,0.3-0.2,0.5-0.3,0.7c-0.3,0.4-0.7,0.6-1.3,0.6c-1.1,0-1.8-0.7-2-2c-0.3-1.9-0.9-5.4-1.8-10.2
			c-0.9-4.9-1.6-8.2-2-9.9C268.7,667.6,268.6,675.2,268.6,679.5z"/>
		<path d="M288.7,680.8c0-2.1,0.6-5.3,1.8-9.5s2.6-8.7,4.2-13.5c1.6-4.8,2.5-7.7,2.7-8.7c0.2-1,0.4-1.6,0.4-1.9
			c0.1-0.2,0.1-0.4,0.1-0.5c0-0.1,0.1-0.3,0.2-0.5c0.1-0.2,0.2-0.4,0.3-0.5c0.3-0.3,0.6-0.4,1-0.4s0.7,0.1,1,0.3
			c0.3,0.2,0.5,0.5,0.5,0.9c0,0.4-0.1,0.8-0.2,1.3c-0.1,0.5-0.3,1-0.5,1.7c-0.9,2.5-3.2,10.8-6.8,25.1c0,0.1-0.1,0.5-0.3,1.3
			c-0.2,0.7-0.3,1.4-0.5,2s-0.4,1.2-0.6,1.9c-0.5,1.5-1.2,2.3-2,2.3C289.1,681.8,288.7,681.3,288.7,680.8z"/>
		<path d="M318.2,673.8l-0.3,1c0,0.4,0.2,1.3,0.5,2.8c0.3,1.5,0.5,2.5,0.5,3v0c0,0.7-0.3,1.2-0.8,1.4c-0.8,0-1.4-0.1-1.8-0.3
			c-0.4-0.2-0.7-0.8-0.7-1.6s-0.3-2.7-0.8-5.4l-1.7-0.1h-1.9c-0.4-0.2-1.2-0.2-2.2-0.2c0,0,0,0.2-0.1,0.6c0,0.4-0.1,0.7-0.1,0.9
			c0,0.2-0.1,0.6-0.1,1c-0.1,0.5-0.1,0.8-0.2,1.2c-0.1,0.3-0.2,0.7-0.3,1.1c-0.1,0.4-0.2,0.8-0.4,1.1c-0.1,0.3-0.3,0.6-0.5,0.8
			c-0.3,0.5-0.7,0.8-1.2,0.8s-0.9-0.1-1.3-0.4c-0.4-0.2-0.6-0.5-0.6-0.9c1-3.2,1.8-6.6,2.5-10.1c0.7-3.5,1.1-5.6,1.3-6.3
			s0.5-1.9,1-3.8c0.5-1.9,0.8-3.1,0.9-3.8s0.2-1.5,0.3-2.5c0.2-2.2,0.5-3.6,1-4.3h1.9c1.3,0,1.9,0.3,1.9,1c0,6.1,0.7,12.2,2.1,18.3
			c0.1,0.4,0.2,0.9,0.4,1.5C317.9,671.9,318.2,673,318.2,673.8z M314.3,672.8c-0.1-0.5-0.2-1.2-0.2-2.3c0-1-0.1-2.3-0.2-3.8
			c-0.2-1.5-0.4-3.2-0.7-5.2c-0.3-2-0.5-3.4-0.6-4.2c-0.2,0.9-0.6,2.4-1.3,4.5c-1.3,4.4-2,7.8-2,10.2
			C310,672.4,311.7,672.6,314.3,672.8z"/>
		<path d="M327,654.8l0.2,11.5c-0.2,0.5-0.3,1.3-0.3,2.6l-0.2,7.6c0,2.2,0.6,3.3,1.9,3.3l2.3-0.1c2,0,3,0.5,3,1.4
			c0,0.3-0.2,0.6-0.5,0.9c-0.3,0.2-0.7,0.4-1.2,0.4c-1.4-0.4-3-0.6-5-0.6c-0.6,0.3-1.2,0.4-1.7,0.4c-0.6,0-1-0.2-1.3-0.5
			s-0.5-0.7-0.5-1.1l0.5-21.3V659c-0.1-1-0.2-2.5-0.2-4.5c0-3,0.6-4.5,1.9-4.5c0.4,0,0.7,0.1,1,0.3c0.3,0.2,0.4,0.5,0.4,0.8
			L327,654.8z"/>
		<path d="M350.9,673.8l-0.3,1c0,0.4,0.2,1.3,0.5,2.8c0.3,1.5,0.5,2.5,0.5,3v0c0,0.7-0.3,1.2-0.8,1.4c-0.8,0-1.4-0.1-1.8-0.3
			c-0.4-0.2-0.7-0.8-0.7-1.6s-0.3-2.7-0.8-5.4l-1.7-0.1h-1.9c-0.4-0.2-1.2-0.2-2.2-0.2c0,0,0,0.2-0.1,0.6c0,0.4-0.1,0.7-0.1,0.9
			c0,0.2-0.1,0.6-0.1,1c-0.1,0.5-0.1,0.8-0.2,1.2c-0.1,0.3-0.2,0.7-0.3,1.1c-0.1,0.4-0.2,0.8-0.4,1.1c-0.1,0.3-0.3,0.6-0.5,0.8
			c-0.3,0.5-0.7,0.8-1.2,0.8s-0.9-0.1-1.3-0.4c-0.4-0.2-0.6-0.5-0.6-0.9c1-3.2,1.8-6.6,2.5-10.1c0.7-3.5,1.1-5.6,1.3-6.3
			s0.5-1.9,1-3.8c0.5-1.9,0.8-3.1,0.9-3.8s0.2-1.5,0.3-2.5c0.2-2.2,0.5-3.6,1-4.3h1.9c1.3,0,1.9,0.3,1.9,1c0,6.1,0.7,12.2,2.1,18.3
			c0.1,0.4,0.2,0.9,0.4,1.5C350.7,671.9,350.9,673,350.9,673.8z M347.1,672.8c-0.1-0.5-0.2-1.2-0.2-2.3c0-1-0.1-2.3-0.2-3.8
			c-0.2-1.5-0.4-3.2-0.7-5.2c-0.3-2-0.5-3.4-0.6-4.2c-0.2,0.9-0.6,2.4-1.3,4.5c-1.3,4.4-2,7.8-2,10.2
			C342.8,672.4,344.4,672.6,347.1,672.8z"/>
		<path d="M359.2,667.4c-0.3,0.9-0.4,1.7-0.4,2.5s0.1,2.4,0.3,4.8c0.2,2.5,0.3,4,0.3,4.8s-0.2,1.3-0.5,1.6c-0.3,0.4-0.6,0.6-1,0.6
			c-0.5,0-0.9-0.3-1-1c0-1.2,0.1-2.6,0.1-4.3c0-1.7-0.2-5.5-0.5-11.3c-0.3-5.8-0.5-10.2-0.5-13c0-1.5,0.6-2.3,1.9-2.3
			c2,0,3.6,0.4,4.9,1.3c1.3,0.9,2,2.1,2,3.7c0,2.2-0.2,3.9-0.6,5.1c-0.4,1.2-1.2,2.7-2.3,4.5c0.2,0.8,0.6,2.3,1.1,4.6
			c1.1,4.9,2.3,8.5,3.6,10.7c0.4,0.6,0.6,1.1,0.6,1.5s-0.1,0.6-0.3,0.9c-0.2,0.2-0.5,0.4-0.9,0.4c-1.2,0-2.3-1.7-3.4-5.2
			c-0.4-1.5-0.8-3-1.2-4.6c-1-4.2-1.6-6.6-1.9-7.1C359.6,665.9,359.5,666.5,359.2,667.4z M359.2,651.5l-0.2,0.7c0,1.3,0,3.2,0.1,5.6
			c0.1,2.5,0.1,4.3,0.1,5.4c0.9-0.4,1.6-1.4,2.1-3s0.8-2.9,0.8-3.8c0-0.9,0-1.5-0.1-1.9c-0.1-0.4-0.2-0.9-0.4-1.4
			C361.3,652.1,360.5,651.5,359.2,651.5z"/>
		<path d="M379.4,679c0,1.6-0.2,2.5-0.7,2.9c-0.3,0.2-0.7,0.3-1.2,0.3s-1-0.3-1.4-1c0.4-0.7,0.6-3.4,0.6-8.1c0-0.9-0.1-2.1-0.2-3.7
			c-0.1-1.6-0.2-2.7-0.2-3.2c-0.7-1.1-1.9-3.5-3.4-7.4c-1.5-3.9-2.3-6.2-2.3-7.1v-0.3l1.3-0.8c1.2,0,2.5,2.5,4.1,7.4
			c0.7,2.1,1,3.2,1,3.2c0.1-0.3,0.4-1.5,0.9-3.6c1.1-5.2,2.3-7.7,3.5-7.7c0.3,0,0.7,0.1,0.9,0.3s0.4,0.4,0.4,0.7
			c0,2-0.6,4.2-1.7,6.9c-1.1,2.6-1.7,4.9-1.7,7V679z"/>
		<path d="M390.9,654.8l0.2,11.5c-0.2,0.5-0.3,1.3-0.3,2.6l-0.2,7.6c0,2.2,0.6,3.3,1.9,3.3l2.3-0.1c2,0,3,0.5,3,1.4
			c0,0.3-0.2,0.6-0.5,0.9c-0.3,0.2-0.7,0.4-1.2,0.4c-1.4-0.4-3-0.6-5-0.6c-0.6,0.3-1.2,0.4-1.7,0.4c-0.6,0-1-0.2-1.3-0.5
			s-0.5-0.7-0.5-1.1l0.5-21.3V659c-0.1-1-0.2-2.5-0.2-4.5c0-3,0.6-4.5,1.9-4.5c0.4,0,0.7,0.1,1,0.3c0.3,0.2,0.4,0.5,0.4,0.8
			L390.9,654.8z"/>
		<path d="M414.9,673.8l-0.3,1c0,0.4,0.2,1.3,0.5,2.8c0.3,1.5,0.5,2.5,0.5,3v0c0,0.7-0.3,1.2-0.8,1.4c-0.8,0-1.4-0.1-1.8-0.3
			c-0.4-0.2-0.7-0.8-0.7-1.6s-0.3-2.7-0.8-5.4l-1.7-0.1h-1.9c-0.4-0.2-1.2-0.2-2.2-0.2c0,0,0,0.2-0.1,0.6c0,0.4-0.1,0.7-0.1,0.9
			c0,0.2-0.1,0.6-0.1,1c-0.1,0.5-0.1,0.8-0.2,1.2c-0.1,0.3-0.2,0.7-0.3,1.1c-0.1,0.4-0.2,0.8-0.4,1.1c-0.1,0.3-0.3,0.6-0.5,0.8
			c-0.3,0.5-0.7,0.8-1.2,0.8s-0.9-0.1-1.3-0.4c-0.4-0.2-0.6-0.5-0.6-0.9c1-3.2,1.8-6.6,2.5-10.1c0.7-3.5,1.1-5.6,1.3-6.3
			s0.5-1.9,1-3.8c0.5-1.9,0.8-3.1,0.9-3.8s0.2-1.5,0.3-2.5c0.2-2.2,0.5-3.6,1-4.3h1.9c1.3,0,1.9,0.3,1.9,1c0,6.1,0.7,12.2,2.1,18.3
			c0.1,0.4,0.2,0.9,0.4,1.5C414.6,671.9,414.9,673,414.9,673.8z M411,672.8c-0.1-0.5-0.2-1.2-0.2-2.3c0-1-0.1-2.3-0.2-3.8
			c-0.2-1.5-0.4-3.2-0.7-5.2c-0.3-2-0.5-3.4-0.6-4.2c-0.2,0.9-0.6,2.4-1.3,4.5c-1.3,4.4-2,7.8-2,10.2
			C406.7,672.4,408.4,672.6,411,672.8z"/>
		<path d="M423.4,662.7l0.3,12.3v5.4c0,0.4-0.1,0.8-0.4,1.1c-0.3,0.3-0.6,0.4-1.1,0.4c-1.2,0-1.8-1-1.8-2.9l-0.1-16.8l0.3-8.9
			c0-2.1,0.7-3.2,2.1-3.2c0.8,0,1.4,0.5,1.8,1.6c0.5,2,1.4,5,2.7,8.8c1.3,3.8,2.1,6.8,2.6,8.8c0.3,1,0.8,2.4,1.3,4.3
			c0.5,1.9,1,3.4,1.3,4.3c0.1-6.9,0.2-15.2,0.2-25.1l-0.1-1.3c0-0.4,0.1-0.8,0.3-1c0.2-0.3,0.5-0.4,1-0.4c0.5,0,0.8,0.1,1.1,0.3
			c0.6,0.4,0.9,0.9,0.9,1.6c0,4.4-0.1,10-0.4,16.8s-0.7,11.1-1.3,12.8c-0.1,0-0.2,0.1-0.5,0.1c-0.2,0.1-0.4,0.1-0.5,0.1
			c-1,0.2-1.7,0.2-2-0.1c-0.3-0.3-0.5-0.7-0.6-1.1s-0.3-0.9-0.4-1.4s-0.7-2.6-1.7-6.3c-2.7-10-4.3-15.8-5-17.5V662.7z"/>
		<path d="M449.8,669.4l-1,0c-0.5,0-1-0.1-1.3-0.2s-0.5-0.4-0.5-0.9s0.2-0.8,0.5-1c0.3-0.2,0.8-0.3,1.2-0.3v0c3.7,0,5.5,0.5,5.5,1.5
			l-0.6,3.5l0.3,5.1c0,0.9-0.1,1.7-0.2,2.4c-2.2,1.7-4.1,2.5-5.8,2.5c-0.9,0-1.7-0.2-2.5-0.6s-1.5-1.1-2.2-2.1
			c-0.7-1-1.3-2.9-1.9-5.7c-0.5-2.8-0.8-4.7-0.8-5.8c0-1.1,0-2,0.1-2.7s0.1-1.5,0.2-2.4c0.1-0.9,0.2-1.5,0.2-1.8
			c0-0.3,0-0.7,0.1-1.2c0-0.5,0.1-1,0.1-1.4c0-0.5,0.1-1.1,0.3-1.9c0.2-0.8,0.3-1.5,0.5-2s0.4-1,0.8-1.6c0.3-0.6,0.7-1.1,1.2-1.4
			c1.1-0.8,2.4-1.2,3.9-1.2c1.5,0,2.2,0.4,2.2,1.2c0,0.4-0.2,0.7-0.5,0.9c-0.3,0.2-0.7,0.4-1.1,0.4l-1-0.1c-1.1,0-1.9,1.1-2.5,3.3
			c-0.5,2.1-0.9,4-1,5.7c-0.2,2.6-0.2,4.3-0.2,5.2s0,1.5,0,2c0,0.5,0,1.1,0.1,1.8c0,0.7,0.1,1.3,0.1,1.9c0.1,0.5,0.2,1.1,0.3,1.8
			s0.2,1.2,0.4,1.7c0.2,0.5,0.3,1,0.6,1.5c0.2,0.5,0.5,0.9,0.8,1.2c0.7,0.7,1.4,1,2.4,1c1.6,0,2.4-2.7,2.4-8v-1.7
			C450.8,669.5,450.4,669.4,449.8,669.4z"/>
		<path d="M472.6,660.3l0.1,0.8c-0.3,1.1-0.5,3-0.5,5.8c-0.1,2.7-0.2,4.9-0.5,6.6c-0.2,1.7-0.6,3.1-1,4.4c-0.4,1.3-1,2.3-1.9,3.2
			c-0.9,0.8-1.9,1.3-3,1.3c-1.1,0-2-0.2-2.7-0.5c-0.7-0.3-1.3-0.8-1.7-1.4s-0.8-1.3-1.1-2c-0.3-0.7-0.5-1.6-0.7-2.5
			c-0.3-1.7-0.4-3.4-0.4-5.3l0.3-12.6c0-2.7-0.2-5-0.7-6.8V650c0.9,0,1.6,0.3,2.1,0.9s0.8,1.3,0.8,2v23.1c0,1.2,0.4,2.3,1.1,3.4
			c0.7,1,1.8,1.5,3.2,1.5c1.6,0,2.6-3.9,3.2-11.8v-0.2l0-0.3c0.5-7.2,0.7-13,0.7-17.4l0-0.8c0-0.4,0.1-0.7,0.3-0.8
			c0.2-0.2,0.6-0.3,1.2-0.3c0.6,0,1,0.1,1.3,0.4c0.3,0.3,0.4,0.5,0.5,0.8c0,0.3,0.1,0.6,0.1,1.1l-0.4,4.8L472.6,660.3z"/>
		<path d="M491.4,673.8l-0.3,1c0,0.4,0.2,1.3,0.5,2.8c0.3,1.5,0.5,2.5,0.5,3v0c0,0.7-0.3,1.2-0.8,1.4c-0.8,0-1.4-0.1-1.8-0.3
			c-0.4-0.2-0.7-0.8-0.7-1.6s-0.3-2.7-0.8-5.4l-1.7-0.1h-1.9c-0.4-0.2-1.2-0.2-2.2-0.2c0,0,0,0.2-0.1,0.6c0,0.4-0.1,0.7-0.1,0.9
			c0,0.2-0.1,0.6-0.1,1c-0.1,0.5-0.1,0.8-0.2,1.2c-0.1,0.3-0.2,0.7-0.3,1.1c-0.1,0.4-0.2,0.8-0.4,1.1c-0.1,0.3-0.3,0.6-0.5,0.8
			c-0.3,0.5-0.7,0.8-1.2,0.8s-0.9-0.1-1.3-0.4c-0.4-0.2-0.6-0.5-0.6-0.9c1-3.2,1.8-6.6,2.5-10.1c0.7-3.5,1.1-5.6,1.3-6.3
			s0.5-1.9,1-3.8c0.5-1.9,0.8-3.1,0.9-3.8s0.2-1.5,0.3-2.5c0.2-2.2,0.5-3.6,1-4.3h1.9c1.3,0,1.9,0.3,1.9,1c0,6.1,0.7,12.2,2.1,18.3
			c0.1,0.4,0.2,0.9,0.4,1.5C491.2,671.9,491.4,673,491.4,673.8z M487.6,672.8c-0.1-0.5-0.2-1.2-0.2-2.3c0-1-0.1-2.3-0.2-3.8
			c-0.2-1.5-0.4-3.2-0.7-5.2c-0.3-2-0.5-3.4-0.6-4.2c-0.2,0.9-0.6,2.4-1.3,4.5c-1.3,4.4-2,7.8-2,10.2
			C483.3,672.4,484.9,672.6,487.6,672.8z"/>
		<path d="M505.3,669.4l-1,0c-0.5,0-1-0.1-1.3-0.2s-0.5-0.4-0.5-0.9s0.2-0.8,0.5-1c0.3-0.2,0.8-0.3,1.2-0.3v0c3.7,0,5.5,0.5,5.5,1.5
			l-0.6,3.5l0.3,5.1c0,0.9-0.1,1.7-0.2,2.4c-2.2,1.7-4.1,2.5-5.8,2.5c-0.9,0-1.7-0.2-2.5-0.6s-1.5-1.1-2.2-2.1
			c-0.7-1-1.3-2.9-1.9-5.7c-0.5-2.8-0.8-4.7-0.8-5.8c0-1.1,0-2,0.1-2.7s0.1-1.5,0.2-2.4c0.1-0.9,0.2-1.5,0.2-1.8
			c0-0.3,0-0.7,0.1-1.2c0-0.5,0.1-1,0.1-1.4c0-0.5,0.1-1.1,0.3-1.9c0.2-0.8,0.3-1.5,0.5-2s0.4-1,0.8-1.6c0.3-0.6,0.7-1.1,1.2-1.4
			c1.1-0.8,2.4-1.2,3.9-1.2c1.5,0,2.2,0.4,2.2,1.2c0,0.4-0.2,0.7-0.5,0.9c-0.3,0.2-0.7,0.4-1.1,0.4l-1-0.1c-1.1,0-1.9,1.1-2.5,3.3
			c-0.5,2.1-0.9,4-1,5.7c-0.2,2.6-0.2,4.3-0.2,5.2s0,1.5,0,2c0,0.5,0,1.1,0.1,1.8c0,0.7,0.1,1.3,0.1,1.9c0.1,0.5,0.2,1.1,0.3,1.8
			s0.2,1.2,0.4,1.7c0.2,0.5,0.3,1,0.6,1.5c0.2,0.5,0.5,0.9,0.8,1.2c0.7,0.7,1.4,1,2.4,1c1.6,0,2.4-2.7,2.4-8v-1.7
			C506.3,669.5,505.9,669.4,505.3,669.4z"/>
		<path d="M520.1,679.7l2.2-0.1c1.4,0,2.1,0.4,2.1,1.2c0,0.5-0.2,0.8-0.7,1c-0.5,0.2-1,0.3-1.7,0.3h-5.3c-0.5,0-0.9-0.1-1.2-0.4
			c-0.3-0.3-0.5-0.6-0.5-1.1s0-1,0.1-1.6c0.1-0.7,0.2-1.2,0.2-1.6l-0.3-6.1l0.4-13.9l-0.3-4c0-2.3,0.8-3.4,2.4-3.4
			c0.4,0,0.8,0.1,1.2,0.3c0.1,0,0.5,0,1.1,0.1c0.6,0,1,0.1,1.5,0.2c0.4,0.1,0.9,0.1,1.4,0.3c1.1,0.2,1.6,0.7,1.6,1.3
			c0,0.7-0.5,1.1-1.6,1.5c-1.7-0.5-3.1-0.8-4.2-0.9c0.1,0.7,0.1,1.4,0.1,2l-0.2,6.8c0,0,0.1,0.3,0.2,0.7l2-0.1
			c1.8,0,2.7,0.4,2.7,1.3c0,0.5-0.2,0.9-0.5,1.2c-0.3,0.4-0.8,0.5-1.4,0.5s-1.1-0.1-1.5-0.4h-1.4c0.1,1.2,0.2,2.4,0.2,3.4l-0.2,8.6
			C518.1,678.8,518.7,679.7,520.1,679.7z"/>
	</g>
	<g>
		<path class="st10" d="M271.1,750.7c0,0-48.3-13-85-13s-82.3,13-82.3,13S66,764.1,51,764.1s-10-14-2.3-13.2s5,3.2,4,5.5"/>
		<path class="st11" d="M311,740.3c-2,0-3.8,0.9-5,2.2c-1.2-1.4-3-2.2-5-2.2c-3.7,0-6.8,3-6.8,6.8c0,3.7,11.8,14.3,11.8,14.3
			s11.8-10.6,11.8-14.3C317.8,743.4,314.8,740.3,311,740.3z"/>
		<path class="st10" d="M340.9,750.7c0,0,48.3-13,85-13s82.3,13,82.3,13s37.7,13.3,52.7,13.3s10-14,2.3-13.2c-7.7,0.8-5,3.2-4,5.5"
			/>
	</g>
	<g>
		<circle class="st11" cx="36.6" cy="37.9" r="5.9"/>
		<circle class="st11" cx="96.5" cy="37.9" r="5.9"/>
		<circle class="st11" cx="156.3" cy="37.9" r="5.9"/>
		<circle class="st11" cx="216.2" cy="37.9" r="5.9"/>
		<circle class="st11" cx="276.1" cy="37.9" r="5.9"/>
		<circle class="st11" cx="335.9" cy="37.9" r="5.9"/>
		<circle class="st11" cx="395.8" cy="37.9" r="5.9"/>
		<circle class="st11" cx="455.7" cy="37.9" r="5.9"/>
		<circle class="st11" cx="515.5" cy="37.9" r="5.9"/>
		<circle class="st11" cx="575.4" cy="37.9" r="5.9"/>
	</g>
	<g>
	</g>
	<g>
	</g>
	<g>
	</g>
	<g>
	</g>
	<g>
	</g>
	<g>
	</g>
</g>
</svg>
