<?xml version="1.0" encoding="utf-8"?>
<!-- Generator: Adobe Illustrator 19.1.0, SVG Export Plug-In . SVG Version: 6.00 Build 0)  -->
<svg version="1.1" id="Layer_1" xmlns="http://www.w3.org/2000/svg" xmlns:xlink="http://www.w3.org/1999/xlink" x="0px" y="0px"
	 viewBox="90 91 792 612" style="enable-background:new 90 91 792 612;" xml:space="preserve">
<style type="text/css">
	.st0{fill:#90A99C;}
	.st1{fill:#FFFFFF;}
	.st2{fill:#D1DBBE;}
	.st3{fill:#282828;}
	.st4{fill:#374140;}
	.st5{fill:#2A2C2B;}
	.st6{fill:#AEAFAE;}
	.st7{fill:#494949;}
	.st8{fill:#333333;}
	.st9{opacity:0.5;fill:#494949;enable-background:new    ;}
	.st10{fill:#BD8D46;}
	.st11{fill:#0F0F0F;}
	.st12{fill:#FEFFFD;}
	.st13{fill:#DDDDDD;}
	.st14{fill:#B9121B;}
	.st15{fill:#E74C3C;}
	.st16{fill:#CC4335;}
	.st17{fill:#45BF55;}
	.st18{fill:#167F39;}
	.st19{fill:#35478C;}
	.st20{fill:#FFD34E;}
</style>
<g id="background">
	<rect x="-1.7" y="-18.5" class="st0" width="975.5" height="753.8"/>
</g>
<g>
	<g id="desk">
		<rect x="231.4" y="511.6" class="st1" width="538.9" height="25.6"/>
		<rect x="260.6" y="537.1" class="st1" width="24.8" height="175.9"/>
		<rect x="285.4" y="537" class="st2" width="100" height="143.2"/>
		<rect x="714.4" y="537.1" class="st1" width="24.8" height="175.9"/>
		<rect x="614.4" y="537.1" class="st2" width="100" height="143.2"/>
		<rect x="385.4" y="540.6" class="st1" width="229" height="36.1"/>
		<circle class="st3" cx="499.9" cy="558.7" r="5.9"/>
		<rect x="385.4" y="537.1" class="st2" width="229" height="3.4"/>
		<g>
			<path class="st3" d="M362.5,561.1h-54.3c-1.1,0-2-0.9-2-2l0,0c0-1.1,0.9-2,2-2h54.3c1.1,0,2,0.9,2,2l0,0
				C364.6,560.1,363.7,561.1,362.5,561.1z"/>
			<path class="st3" d="M362.5,594.2h-54.3c-1.1,0-2-0.9-2-2l0,0c0-1.1,0.9-2,2-2h54.3c1.1,0,2,0.9,2,2l0,0
				C364.6,593.3,363.7,594.2,362.5,594.2z"/>
			<path class="st3" d="M362.5,627.4h-54.3c-1.1,0-2-0.9-2-2l0,0c0-1.1,0.9-2,2-2h54.3c1.1,0,2,0.9,2,2l0,0
				C364.6,626.4,363.7,627.4,362.5,627.4z"/>
			<path class="st3" d="M362.5,660.6h-54.3c-1.1,0-2-0.9-2-2l0,0c0-1.1,0.9-2,2-2h54.3c1.1,0,2,0.9,2,2l0,0
				C364.6,659.6,363.7,660.6,362.5,660.6z"/>
		</g>
		<g>
			<path class="st3" d="M691.6,561.1h-54.3c-1.1,0-2-0.9-2-2l0,0c0-1.1,0.9-2,2-2h54.3c1.1,0,2,0.9,2,2l0,0
				C693.5,560.1,692.7,561.1,691.6,561.1z"/>
			<path class="st3" d="M691.6,594.2h-54.3c-1.1,0-2-0.9-2-2l0,0c0-1.1,0.9-2,2-2h54.3c1.1,0,2,0.9,2,2l0,0
				C693.5,593.3,692.7,594.2,691.6,594.2z"/>
			<path class="st3" d="M691.6,627.4h-54.3c-1.1,0-2-0.9-2-2l0,0c0-1.1,0.9-2,2-2h54.3c1.1,0,2,0.9,2,2l0,0
				C693.5,626.4,692.7,627.4,691.6,627.4z"/>
			<path class="st3" d="M691.6,660.6h-54.3c-1.1,0-2-0.9-2-2l0,0c0-1.1,0.9-2,2-2h54.3c1.1,0,2,0.9,2,2l0,0
				C693.5,659.6,692.7,660.6,691.6,660.6z"/>
		</g>
	</g>
	<g id="lamp">
		
			<rect x="337.4" y="414" transform="matrix(0.8166 0.5772 -0.5772 0.8166 316.5436 -115.195)" class="st4" width="4.3" height="53.1"/>
		<rect x="323.2" y="458.1" class="st4" width="4.3" height="53.1"/>
		<circle class="st5" cx="325.3" cy="460.2" r="6"/>
		<circle class="st1" cx="375.1" cy="429.2" r="8.1"/>
		<rect x="306.5" y="502.5" class="st5" width="37.6" height="9.5"/>
		<path class="st5" d="M387.2,413.7c-8.4-6.4-18.7-4.5-18.7-4.5l-11.8-8.5c-1.5-1.1-3.6-0.8-4.7,0.8c0,0-9.4,13-9.4,13.3
			c-0.9,1.5-0.6,3.4,0.9,4.5l11.8,8.5c0,0,1.5,10.4,10.2,16.3c0.4,0.6,1.5,0.3,2.1-0.4c0,0,19.9-27.8,20-28l0,0
			C387.9,415,387.9,413.9,387.2,413.7z"/>
	</g>
	<g>
		<polygon class="st1" points="526.8,512.2 474.2,512.2 484.8,488 516.1,488 		"/>
		<polygon class="st6" points="479.2,500.6 521.7,500.6 517.6,491.2 483.3,491.2 		"/>
		<path class="st5" d="M576.6,496.5H425.2c-3.7,0-6.7-3-6.7-6.7v-99.3c0-3.7,3-6.7,6.7-6.7h151.4c3.7,0,6.7,3,6.7,6.7v99.2
			C583.3,493.5,580.3,496.5,576.6,496.5z"/>
		<rect x="426.8" y="390.4" class="st4" width="148.2" height="92.2"/>
		<path class="st1" d="M418.5,488.2v1.5c0,3.7,3,6.7,6.7,6.7h151.4c3.7,0,6.7-3,6.7-6.7v-1.5H418.5z"/>
		<circle class="st5" cx="500.4" cy="492.3" r="1.6"/>
	</g>
	<circle class="st5" cx="608.3" cy="500.2" r="2.2"/>
	<path class="st1" d="M621,496.4c-8.8,0-20.8,6.3-20.8,11c0,4.8,4.3,4.3,4.3,4.3H618h13c0,0,4.3,0.6,4.3-4.3
		C635.3,502.6,629.8,496.4,621,496.4z"/>
	<g>
		<rect x="670.5" y="440.2" class="st7" width="5.9" height="64.9"/>
		<rect x="674.7" y="440.2" class="st8" width="2" height="64.9"/>
		<polygon class="st9" points="657.1,461.2 666.4,511.6 691.8,511.6 701.2,461.2 		"/>
		<polygon class="st10" points="662.2,476.5 668.4,509.8 689.8,509.8 696,476.5 		"/>
		<g>
			<g>
				<g>
					<circle class="st11" cx="669.8" cy="503.1" r="1.6"/>
					<circle class="st11" cx="673.5" cy="503.1" r="1.6"/>
					<circle class="st11" cx="677.2" cy="503.1" r="1.6"/>
					<circle class="st11" cx="681" cy="503.1" r="1.6"/>
					<circle class="st11" cx="684.7" cy="503.1" r="1.6"/>
					<circle class="st11" cx="688.5" cy="503.1" r="1.6"/>
				</g>
			</g>
			<circle class="st11" cx="671.7" cy="506.7" r="1.6"/>
			<circle class="st11" cx="675.4" cy="506.7" r="1.6"/>
			<circle class="st11" cx="679.1" cy="506.7" r="1.6"/>
			<circle class="st11" cx="682.9" cy="506.7" r="1.6"/>
			<circle class="st11" cx="686.6" cy="506.7" r="1.6"/>
		</g>
		<polygon class="st12" points="701.7,458.7 685.1,458.7 673.1,458.7 656.6,458.7 655,463.2 662.7,463.2 695.7,463.2 703.2,463.2 		
			"/>
	</g>
	<rect x="346.7" y="290.9" class="st12" width="185.3" height="14.6"/>
	<rect x="577.9" y="334.2" class="st12" width="185.3" height="14.6"/>
	<g>
		<path class="st5" d="M385.5,263.9h-1.7c-1.2,0-2.1-0.9-2.1-2.1l0,0c0-1.2,0.9-2.1,2.1-2.1h1.7c1.2,0,2.1,0.9,2.1,2.1l0,0
			C387.8,263,386.7,263.9,385.5,263.9z"/>
		<path class="st13" d="M423,290.9h-43.3c-1.6,0-3-1.4-3-3v-22.6c0-1.6,1.4-3,3-3H423c1.6,0,3,1.4,3,3v22.6
			C425.9,289.5,424.7,290.9,423,290.9z"/>
		<rect x="376.7" y="269.6" class="st5" width="49.2" height="13.9"/>
		<circle class="st1" cx="401.3" cy="276.6" r="11.1"/>
		<circle class="st11" cx="401.3" cy="276.6" r="8.8"/>
		<circle class="st1" cx="397.6" cy="272.8" r="1.6"/>
		<circle class="st14" cx="384.7" cy="266.3" r="1.2"/>
		<circle class="st1" cx="399.2" cy="273.8" r="1"/>
		<path class="st5" d="M420.6,267.8H416c-0.9,0-1.6-0.7-1.6-1.6l0,0c0-0.9,0.7-1.6,1.6-1.6h4.6c0.9,0,1.6,0.7,1.6,1.6l0,0
			C422.3,267.1,421.6,267.8,420.6,267.8z"/>
	</g>
	<g>
		<path class="st15" d="M739,334.2H610.5c-3.4,0-6.2-2.7-6.2-6.2v-13.7c0-3.4,2.7-6.2,6.2-6.2h128.6c3.4,0,6.2,2.7,6.2,6.2V328
			C745.3,331.5,742.4,334.2,739,334.2z"/>
		<path class="st16" d="M604.2,321.1v6.9c0,3.4,2.7,6.2,6.2,6.2H739c3.4,0,6.2-2.7,6.2-6.2v-6.9H604.2z"/>
		<rect x="679.2" y="312.3" class="st1" width="54.8" height="17.6"/>
		<rect x="632.6" y="308" class="st1" width="5.5" height="26.2"/>
		<rect x="622" y="308" class="st1" width="5.5" height="26.2"/>
	</g>
	<g>
		<path class="st17" d="M723.1,308h-96.8c-2.6,0-4.6-2.1-4.6-4.6v-10.5c0-2.6,2.1-4.6,4.6-4.6h96.7c2.6,0,4.6,2.1,4.6,4.6v10.5
			C727.8,306,725.6,308,723.1,308z"/>
		<path class="st18" d="M621.8,298.2v5.1c0,2.6,2.1,4.6,4.6,4.6h96.6c2.6,0,4.6-2.1,4.6-4.6v-5.1H621.8z"/>
		<rect x="648.6" y="291.6" class="st1" width="52.3" height="13.2"/>
		<g>
			<rect x="710.4" y="288.4" class="st1" width="4.1" height="19.6"/>
			<rect x="634.9" y="288.4" class="st1" width="4.1" height="19.6"/>
		</g>
	</g>
	<g>
		<circle class="st12" cx="247.1" cy="259.6" r="45.5"/>
		<circle class="st2" cx="247.1" cy="259.6" r="38.2"/>
		<polygon class="st5" points="261,250.4 259.3,248.8 248.3,259.4 248.3,224.8 246,224.8 246,262.1 247.7,263.3 		"/>
	</g>
	<g>
		<path class="st5" d="M493.2,290.7h-25.1c-2.1,0-3.9-1.7-3.9-3.9v-25.1c0-2.1,1.7-3.9,3.9-3.9h25.1c2.1,0,3.9,1.7,3.9,3.9v25.1
			C497.1,289,495.4,290.7,493.2,290.7z"/>
		<g>
			<path class="st15" d="M473.6,268.7H467c-0.6,0-1.1-0.5-1.1-1.1v-6.6c0-0.6,0.5-1.1,1.1-1.1h6.6c0.6,0,1.1,0.5,1.1,1.1v6.6
				C474.8,268.2,474.3,268.7,473.6,268.7z"/>
			<path class="st19" d="M484.3,268.7h-6.9c-0.5,0-1-0.4-1-1v-6.9c0-0.5,0.4-1,1-1h6.9c0.5,0,1,0.4,1,1v6.9
				C485.3,268.2,484.9,268.7,484.3,268.7z"/>
			<path class="st20" d="M494.3,268.7h-6.6c-0.6,0-1.1-0.5-1.1-1.1v-6.6c0-0.6,0.5-1.1,1.1-1.1h6.6c0.6,0,1.1,0.5,1.1,1.1v6.6
				C495.4,268.2,494.9,268.7,494.3,268.7z"/>
			<path class="st19" d="M473.8,278.8H467c-0.5,0-1-0.4-1-1v-6.9c0-0.5,0.4-1,1-1h6.9c0.5,0,1,0.4,1,1v6.9
				C474.8,278.4,474.3,278.8,473.8,278.8z"/>
			<path class="st18" d="M484.3,278.8h-6.9c-0.5,0-1-0.4-1-1v-6.9c0-0.5,0.4-1,1-1h6.9c0.5,0,1,0.4,1,1v6.9
				C485.3,278.4,484.9,278.8,484.3,278.8z"/>
			<path class="st18" d="M494.4,278.8h-6.9c-0.5,0-1-0.4-1-1v-6.9c0-0.5,0.4-1,1-1h6.9c0.5,0,1,0.4,1,1v6.9
				C495.4,278.4,495,278.8,494.4,278.8z"/>
			<path class="st19" d="M473.6,288.8H467c-0.6,0-1.1-0.5-1.1-1.1v-6.6c0-0.6,0.5-1.1,1.1-1.1h6.6c0.6,0,1.1,0.5,1.1,1.1v6.6
				C474.8,288.3,474.3,288.8,473.6,288.8z"/>
			<path class="st15" d="M484.3,288.8h-6.9c-0.5,0-1-0.4-1-1v-6.9c0-0.5,0.4-1,1-1h6.9c0.5,0,1,0.4,1,1v6.9
				C485.3,288.4,484.9,288.8,484.3,288.8z"/>
			<path class="st20" d="M494.3,288.8h-6.6c-0.6,0-1.1-0.5-1.1-1.1v-6.6c0-0.6,0.5-1.1,1.1-1.1h6.6c0.6,0,1.1,0.5,1.1,1.1v6.6
				C495.4,288.3,494.9,288.8,494.3,288.8z"/>
		</g>
	</g>
</g>
<g>
	<path class="st1" d="M324.1,185.3h-9.8v-22.8h-24.5v22.8H280v-52.2h9.8v22.4h24.5v-22.4h9.8V185.3z"/>
	<path class="st1" d="M344.9,137.5c0,0.8-0.2,1.5-0.5,2.2c-0.3,0.7-0.7,1.3-1.2,1.8c-0.5,0.5-1.1,0.9-1.8,1.2
		c-0.7,0.3-1.4,0.5-2.2,0.5c-0.8,0-1.5-0.1-2.2-0.5c-0.7-0.3-1.3-0.7-1.8-1.2c-0.5-0.5-0.9-1.1-1.2-1.8c-0.3-0.7-0.5-1.4-0.5-2.2
		c0-0.8,0.1-1.5,0.5-2.2c0.3-0.7,0.7-1.3,1.2-1.8c0.5-0.5,1.1-0.9,1.8-1.2s1.4-0.5,2.2-0.5c0.8,0,1.5,0.2,2.2,0.5
		c0.7,0.3,1.3,0.7,1.8,1.2c0.5,0.5,0.9,1.1,1.2,1.8C344.8,135.9,344.9,136.7,344.9,137.5z M343.6,148.3v37h-8.9v-37H343.6z"/>
	<path class="st1" d="M351.8,179.8c0-0.7,0.1-1.3,0.4-1.9c0.3-0.6,0.6-1.1,1.1-1.6c0.5-0.4,1-0.8,1.7-1c0.6-0.3,1.4-0.4,2.1-0.4
		c0.9,0,1.7,0.2,2.4,0.5c0.7,0.3,1.2,0.8,1.7,1.3c0.5,0.6,0.8,1.2,1,1.9c0.2,0.7,0.3,1.5,0.3,2.3c0,1.2-0.2,2.4-0.5,3.6
		c-0.3,1.3-0.9,2.5-1.5,3.8c-0.7,1.3-1.5,2.5-2.5,3.7c-1,1.2-2.1,2.3-3.4,3.3l-1.6-1.4c-0.4-0.4-0.6-0.8-0.6-1.3
		c0-0.2,0.1-0.4,0.2-0.6c0.1-0.2,0.3-0.5,0.5-0.6c0.3-0.3,0.6-0.6,1-1.1c0.4-0.4,0.8-0.9,1.2-1.4c0.4-0.5,0.7-1.1,1.1-1.8
		s0.6-1.3,0.7-2c-0.7,0-1.4-0.1-2.1-0.4c-0.6-0.3-1.2-0.7-1.6-1.1c-0.4-0.5-0.8-1-1-1.7C351.9,181.3,351.8,180.6,351.8,179.8z"/>
	<path class="st1" d="M395.3,185.3h-9.7v-52.2h9.7V185.3z"/>
	<path class="st1" d="M412.9,130c0.8,1.3,1.5,2.7,1.9,4s0.6,2.7,0.6,4c0,2.4-0.6,4.7-1.8,6.9c-1.2,2.2-3,4.2-5.3,6.1l-2.8-1.7
		c-0.2-0.1-0.4-0.3-0.5-0.5c-0.1-0.2-0.1-0.4-0.1-0.6c0-0.5,0.2-0.8,0.5-1.2c0.3-0.4,0.6-0.8,1-1.2c0.3-0.5,0.7-1,1-1.6
		c0.3-0.6,0.5-1.2,0.7-1.9c0.2-0.7,0.3-1.4,0.3-2.2c0-0.8-0.1-1.7-0.4-2.6c-0.3-0.9-0.7-1.9-1.3-2.9c-0.2-0.3-0.3-0.6-0.3-1
		c0-0.8,0.4-1.3,1.3-1.6L412.9,130z"/>
	<path class="st1" d="M422.7,185.3v-37h5.4c1.2,0,1.9,0.5,2.3,1.6l0.6,2.7c0.6-0.7,1.3-1.4,2-2c0.7-0.6,1.5-1.1,2.3-1.6
		c0.8-0.4,1.7-0.8,2.6-1c0.9-0.3,1.9-0.4,3-0.4c2.3,0,4.3,0.6,5.8,1.9c1.5,1.3,2.6,2.9,3.4,5c0.6-1.2,1.3-2.3,2.2-3.2
		c0.9-0.9,1.8-1.6,2.9-2.1c1-0.6,2.1-1,3.3-1.2c1.2-0.3,2.3-0.4,3.5-0.4c2,0,3.9,0.3,5.4,0.9c1.6,0.6,2.9,1.5,4,2.7
		c1.1,1.2,1.9,2.7,2.5,4.4c0.6,1.7,0.8,3.7,0.8,6v23.6h-8.9v-23.6c0-2.4-0.5-4.1-1.6-5.3c-1-1.2-2.5-1.8-4.5-1.8
		c-0.9,0-1.8,0.2-2.5,0.5c-0.8,0.3-1.5,0.8-2.1,1.4s-1.1,1.3-1.4,2.2c-0.3,0.9-0.5,1.9-0.5,3.1v23.6h-8.9v-23.6
		c0-2.5-0.5-4.3-1.5-5.4c-1-1.1-2.5-1.7-4.4-1.7c-1.3,0-2.5,0.3-3.6,1c-1.1,0.6-2.2,1.5-3.1,2.6v27.1H422.7z"/>
	<path class="st1" d="M507.9,166.9v18.4h-9.7v-52.2h17c3.5,0,6.5,0.4,9.1,1.2c2.5,0.8,4.7,2,6.3,3.4c1.7,1.5,2.9,3.2,3.7,5.3
		c0.8,2,1.2,4.3,1.2,6.7c0,2.5-0.4,4.8-1.3,6.9c-0.8,2.1-2.1,3.9-3.8,5.4c-1.7,1.5-3.8,2.7-6.3,3.5c-2.5,0.8-5.5,1.3-8.9,1.3H507.9z
		 M507.9,159.3h7.3c1.8,0,3.3-0.2,4.7-0.7c1.3-0.4,2.4-1.1,3.3-1.9c0.9-0.8,1.5-1.8,1.9-3c0.4-1.2,0.6-2.5,0.6-4
		c0-1.4-0.2-2.7-0.6-3.8c-0.4-1.1-1.1-2.1-1.9-2.9c-0.9-0.8-2-1.4-3.3-1.8c-1.3-0.4-2.9-0.6-4.7-0.6h-7.3V159.3z"/>
	<path class="st1" d="M556.7,147.7c2.3,0,4.5,0.4,6.4,1.1c2,0.7,3.6,1.8,5.1,3.3c1.4,1.4,2.5,3.2,3.3,5.3c0.8,2.1,1.2,4.5,1.2,7.1
		c0,0.7,0,1.2-0.1,1.7c-0.1,0.4-0.2,0.8-0.3,1c-0.2,0.3-0.4,0.4-0.6,0.5c-0.3,0.1-0.6,0.2-1,0.2h-22.9c0.3,3.8,1.3,6.6,3.1,8.4
		c1.8,1.8,4.1,2.7,7.1,2.7c1.4,0,2.7-0.2,3.7-0.5c1-0.3,2-0.7,2.7-1.1c0.8-0.4,1.5-0.8,2.1-1.1c0.6-0.3,1.2-0.5,1.7-0.5
		c0.4,0,0.7,0.1,0.9,0.2c0.3,0.1,0.5,0.3,0.7,0.6l2.6,3.2c-1,1.2-2.1,2.1-3.3,2.9c-1.2,0.8-2.5,1.4-3.8,1.9c-1.3,0.5-2.7,0.8-4.1,1
		c-1.4,0.2-2.7,0.3-4,0.3c-2.6,0-5-0.4-7.2-1.3c-2.2-0.9-4.1-2.1-5.8-3.8c-1.6-1.7-2.9-3.7-3.9-6.2c-0.9-2.5-1.4-5.3-1.4-8.6
		c0-2.5,0.4-4.9,1.2-7.1c0.8-2.2,2-4.2,3.5-5.8c1.5-1.6,3.4-3,5.6-3.9C551.5,148.2,554,147.7,556.7,147.7z M556.9,154.1
		c-2.6,0-4.6,0.7-6.1,2.2c-1.5,1.5-2.4,3.5-2.8,6.2h16.7c0-1.2-0.2-2.2-0.5-3.3c-0.3-1-0.8-1.9-1.4-2.7c-0.6-0.8-1.5-1.4-2.5-1.8
		C559.4,154.3,558.2,154.1,556.9,154.1z"/>
	<path class="st1" d="M592.2,185.9c-3.2,0-5.7-0.9-7.4-2.7c-1.7-1.8-2.6-4.3-2.6-7.5v-20.7h-3.8c-0.5,0-0.9-0.2-1.2-0.5
		c-0.3-0.3-0.5-0.8-0.5-1.4v-3.5l6-1l1.9-10.1c0.1-0.5,0.3-0.9,0.7-1.1c0.3-0.3,0.8-0.4,1.3-0.4h4.6v11.7h9.7v6.4h-9.7V175
		c0,1.2,0.3,2.1,0.9,2.7s1.3,1,2.3,1c0.6,0,1-0.1,1.4-0.2c0.4-0.1,0.7-0.3,1-0.4c0.3-0.1,0.5-0.3,0.7-0.4c0.2-0.1,0.4-0.2,0.6-0.2
		c0.3,0,0.5,0.1,0.6,0.2c0.2,0.1,0.3,0.3,0.5,0.6l2.7,4.3c-1.3,1.1-2.8,1.9-4.5,2.5C595.7,185.6,594,185.9,592.2,185.9z"/>
	<path class="st1" d="M623.2,147.7c2.3,0,4.5,0.4,6.4,1.1c2,0.7,3.6,1.8,5.1,3.3c1.4,1.4,2.5,3.2,3.3,5.3c0.8,2.1,1.2,4.5,1.2,7.1
		c0,0.7,0,1.2-0.1,1.7c-0.1,0.4-0.2,0.8-0.3,1c-0.2,0.3-0.4,0.4-0.6,0.5c-0.3,0.1-0.6,0.2-1,0.2h-22.9c0.3,3.8,1.3,6.6,3.1,8.4
		c1.8,1.8,4.1,2.7,7.1,2.7c1.4,0,2.7-0.2,3.7-0.5c1-0.3,2-0.7,2.7-1.1c0.8-0.4,1.5-0.8,2.1-1.1c0.6-0.3,1.2-0.5,1.7-0.5
		c0.4,0,0.7,0.1,0.9,0.2c0.3,0.1,0.5,0.3,0.7,0.6l2.6,3.2c-1,1.2-2.1,2.1-3.3,2.9c-1.2,0.8-2.5,1.4-3.8,1.9c-1.3,0.5-2.7,0.8-4.1,1
		c-1.4,0.2-2.7,0.3-4,0.3c-2.6,0-5-0.4-7.2-1.3c-2.2-0.9-4.1-2.1-5.8-3.8c-1.6-1.7-2.9-3.7-3.9-6.2c-0.9-2.5-1.4-5.3-1.4-8.6
		c0-2.5,0.4-4.9,1.2-7.1c0.8-2.2,2-4.2,3.5-5.8c1.5-1.6,3.4-3,5.6-3.9C618,148.2,620.5,147.7,623.2,147.7z M623.4,154.1
		c-2.6,0-4.6,0.7-6.1,2.2c-1.5,1.5-2.4,3.5-2.8,6.2h16.7c0-1.2-0.2-2.2-0.5-3.3c-0.3-1-0.8-1.9-1.4-2.7c-0.6-0.8-1.5-1.4-2.5-1.8
		C625.9,154.3,624.7,154.1,623.4,154.1z"/>
	<path class="st1" d="M646.5,185.3v-37h5.2c0.9,0,1.6,0.2,1.9,0.5c0.4,0.3,0.6,0.9,0.7,1.7l0.5,4.5c1.3-2.3,2.9-4.1,4.7-5.4
		c1.8-1.3,3.8-2,6-2c1.8,0,3.3,0.4,4.5,1.3l-1.2,6.7c-0.1,0.4-0.2,0.7-0.5,0.9c-0.2,0.2-0.6,0.3-1,0.3c-0.4,0-0.9-0.1-1.5-0.3
		c-0.6-0.2-1.5-0.3-2.5-0.3c-1.9,0-3.4,0.5-4.8,1.5c-1.3,1-2.4,2.5-3.4,4.5v23.1H646.5z"/>
	<path class="st1" d="M678.7,180.4c0-0.7,0.1-1.5,0.4-2.1c0.3-0.7,0.7-1.3,1.2-1.7c0.5-0.5,1.1-0.9,1.8-1.2c0.7-0.3,1.4-0.4,2.2-0.4
		c0.7,0,1.5,0.1,2.1,0.4c0.7,0.3,1.3,0.7,1.7,1.2c0.5,0.5,0.9,1.1,1.2,1.7c0.3,0.7,0.4,1.4,0.4,2.1c0,0.8-0.1,1.5-0.4,2.1
		c-0.3,0.7-0.7,1.2-1.2,1.7c-0.5,0.5-1.1,0.9-1.7,1.1s-1.4,0.4-2.1,0.4c-0.8,0-1.5-0.1-2.2-0.4c-0.7-0.3-1.3-0.7-1.8-1.1
		c-0.5-0.5-0.9-1.1-1.2-1.7C678.9,181.9,678.7,181.1,678.7,180.4z M688.5,133.1v20.6c0,2.2-0.1,4.3-0.3,6.4
		c-0.2,2.1-0.5,4.3-0.9,6.7h-6c-0.4-2.4-0.7-4.6-0.9-6.7c-0.2-2.1-0.3-4.3-0.3-6.4v-20.6H688.5z"/>
</g>
</svg>
