<?xml version="1.0" encoding="utf-8"?>
<!-- Generator: Adobe Illustrator 19.1.0, SVG Export Plug-In . SVG Version: 6.00 Build 0)  -->
<svg version="1.1" id="Layer_1" xmlns="http://www.w3.org/2000/svg" xmlns:xlink="http://www.w3.org/1999/xlink" x="0px" y="0px"
	 viewBox="90 196 905 507" style="enable-background:new 90 196 905 507;" xml:space="preserve">
<style type="text/css">
	.st0{fill:#90A99C;}
	.st1{fill:#FFFFFF;}
	.st2{fill:#D1DBBE;}
	.st3{fill:#282828;}
	.st4{fill:#374140;}
	.st5{fill:#2A2C2B;}
	.st6{fill:#AEAFAE;}
	.st7{fill:#494949;}
	.st8{fill:#333333;}
	.st9{opacity:0.5;fill:#494949;enable-background:new    ;}
	.st10{fill:#BD8D46;}
	.st11{fill:#0F0F0F;}
	.st12{fill:#FEFFFD;}
	.st13{fill:#DDDDDD;}
	.st14{fill:#B9121B;}
	.st15{fill:#E74C3C;}
	.st16{fill:#CC4335;}
	.st17{fill:#45BF55;}
	.st18{fill:#167F39;}
	.st19{fill:#35478C;}
	.st20{fill:#FFD34E;}
</style>
<g id="background">
	<rect x="54.8" y="99.6" class="st0" width="975.5" height="753.8"/>
</g>
<g id="desk">
	<rect x="320.3" y="535.5" class="st1" width="470.5" height="22.4"/>
	<rect x="345.8" y="557.8" class="st1" width="21.7" height="153.6"/>
	<rect x="367.4" y="557.7" class="st2" width="87.3" height="125"/>
	<rect x="742" y="557.8" class="st1" width="21.7" height="153.6"/>
	<rect x="654.6" y="557.8" class="st2" width="87.3" height="125"/>
	<rect x="454.7" y="560.8" class="st1" width="199.9" height="31.5"/>
	<circle class="st3" cx="554.7" cy="576.6" r="5.2"/>
	<rect x="454.7" y="557.8" class="st2" width="199.9" height="3"/>
	<g>
		<path class="st3" d="M434.7,578.7h-47.4c-1,0-1.7-0.8-1.7-1.7l0,0c0-1,0.8-1.7,1.7-1.7h47.4c1,0,1.7,0.8,1.7,1.7l0,0
			C436.6,577.9,435.8,578.7,434.7,578.7z"/>
		<path class="st3" d="M434.7,607.6h-47.4c-1,0-1.7-0.8-1.7-1.7l0,0c0-1,0.8-1.7,1.7-1.7h47.4c1,0,1.7,0.8,1.7,1.7l0,0
			C436.6,606.8,435.8,607.6,434.7,607.6z"/>
		<path class="st3" d="M434.7,636.6h-47.4c-1,0-1.7-0.8-1.7-1.7l0,0c0-1,0.8-1.7,1.7-1.7h47.4c1,0,1.7,0.8,1.7,1.7l0,0
			C436.6,635.7,435.8,636.6,434.7,636.6z"/>
		<path class="st3" d="M434.7,665.6h-47.4c-1,0-1.7-0.8-1.7-1.7l0,0c0-1,0.8-1.7,1.7-1.7h47.4c1,0,1.7,0.8,1.7,1.7l0,0
			C436.6,664.7,435.8,665.6,434.7,665.6z"/>
	</g>
	<g>
		<path class="st3" d="M722,578.7h-47.4c-1,0-1.7-0.8-1.7-1.7l0,0c0-1,0.8-1.7,1.7-1.7H722c1,0,1.7,0.8,1.7,1.7l0,0
			C723.7,577.9,723,578.7,722,578.7z"/>
		<path class="st3" d="M722,607.6h-47.4c-1,0-1.7-0.8-1.7-1.7l0,0c0-1,0.8-1.7,1.7-1.7H722c1,0,1.7,0.8,1.7,1.7l0,0
			C723.7,606.8,723,607.6,722,607.6z"/>
		<path class="st3" d="M722,636.6h-47.4c-1,0-1.7-0.8-1.7-1.7l0,0c0-1,0.8-1.7,1.7-1.7H722c1,0,1.7,0.8,1.7,1.7l0,0
			C723.7,635.7,723,636.6,722,636.6z"/>
		<path class="st3" d="M722,665.6h-47.4c-1,0-1.7-0.8-1.7-1.7l0,0c0-1,0.8-1.7,1.7-1.7H722c1,0,1.7,0.8,1.7,1.7l0,0
			C723.7,664.7,723,665.6,722,665.6z"/>
	</g>
</g>
<g id="lamp">
	
		<rect x="412.8" y="450.3" transform="matrix(-0.8166 -0.5772 0.5772 -0.8166 479.9997 1099.4587)" class="st4" width="3.8" height="46.4"/>
	<rect x="400.4" y="488.8" class="st4" width="3.8" height="46.4"/>
	<circle class="st5" cx="402.2" cy="490.6" r="5.2"/>
	<circle class="st1" cx="445.7" cy="463.6" r="7.1"/>
	<rect x="385.8" y="527.6" class="st5" width="32.8" height="8.3"/>
	<path class="st5" d="M456.3,450c-7.3-5.6-16.3-3.9-16.3-3.9l-10.3-7.4c-1.3-1-3.1-0.7-4.1,0.7c0,0-8.2,11.3-8.2,11.6
		c-0.8,1.3-0.5,3,0.8,3.9l10.3,7.4c0,0,1.3,9.1,8.9,14.2c0.3,0.5,1.3,0.3,1.8-0.3c0,0,17.4-24.3,17.5-24.4l0,0
		C456.9,451.2,456.9,450.2,456.3,450z"/>
</g>
<g>
	<polygon class="st1" points="578.2,536 532.2,536 541.5,514.9 568.8,514.9 	"/>
	<polygon class="st6" points="536.6,525.9 573.7,525.9 570.1,517.7 540.2,517.7 	"/>
	<path class="st5" d="M621.6,522.3H489.5c-3.2,0-5.8-2.6-5.8-5.8v-86.7c0-3.2,2.6-5.8,5.8-5.8h132.2c3.2,0,5.8,2.6,5.8,5.8v86.6
		C627.5,519.7,624.9,522.3,621.6,522.3z"/>
	<rect x="490.9" y="429.7" class="st4" width="129.4" height="80.5"/>
	<path class="st1" d="M483.6,515.1v1.3c0,3.2,2.6,5.8,5.8,5.8h132.2c3.2,0,5.8-2.6,5.8-5.8v-1.3H483.6z"/>
	<circle class="st5" cx="555.1" cy="518.7" r="1.4"/>
</g>
<circle class="st5" cx="649.3" cy="525.6" r="1.9"/>
<path class="st1" d="M660.4,522.2c-7.7,0-18.2,5.5-18.2,9.6c0,4.2,3.8,3.8,3.8,3.8h11.8h11.3c0,0,3.8,0.5,3.8-3.8
	C672.9,527.6,668.1,522.2,660.4,522.2z"/>
<g>
	<rect x="703.6" y="473.2" class="st7" width="5.2" height="56.7"/>
	<rect x="707.3" y="473.2" class="st8" width="1.7" height="56.7"/>
	<polygon class="st9" points="691.9,491.5 700,535.5 722.2,535.5 730.4,491.5 	"/>
	<polygon class="st10" points="696.4,504.9 701.8,533.9 720.5,533.9 725.9,504.9 	"/>
	<g>
		<g>
			<g>
				<circle class="st11" cx="703" cy="528.1" r="1.4"/>
				<circle class="st11" cx="706.2" cy="528.1" r="1.4"/>
				<circle class="st11" cx="709.5" cy="528.1" r="1.4"/>
				<circle class="st11" cx="712.8" cy="528.1" r="1.4"/>
				<circle class="st11" cx="716" cy="528.1" r="1.4"/>
				<circle class="st11" cx="719.3" cy="528.1" r="1.4"/>
			</g>
		</g>
		<circle class="st11" cx="704.7" cy="531.2" r="1.4"/>
		<circle class="st11" cx="707.9" cy="531.2" r="1.4"/>
		<circle class="st11" cx="711.1" cy="531.2" r="1.4"/>
		<circle class="st11" cx="714.5" cy="531.2" r="1.4"/>
		<circle class="st11" cx="717.7" cy="531.2" r="1.4"/>
	</g>
	<polygon class="st12" points="730.9,489.3 716.4,489.3 705.9,489.3 691.5,489.3 690.1,493.3 696.8,493.3 725.6,493.3 732.2,493.3 	
		"/>
</g>
<rect x="420.9" y="342.8" class="st12" width="161.8" height="12.7"/>
<rect x="622.8" y="380.6" class="st12" width="161.8" height="12.7"/>
<g>
	<path class="st5" d="M454.8,319.2h-1.5c-1,0-1.8-0.8-1.8-1.8l0,0c0-1,0.8-1.8,1.8-1.8h1.5c1,0,1.8,0.8,1.8,1.8l0,0
		C456.8,318.5,455.8,319.2,454.8,319.2z"/>
	<path class="st13" d="M487.5,342.8h-37.8c-1.4,0-2.6-1.2-2.6-2.6v-19.7c0-1.4,1.2-2.6,2.6-2.6h37.8c1.4,0,2.6,1.2,2.6,2.6v19.7
		C490.1,341.6,489,342.8,487.5,342.8z"/>
	<rect x="447.1" y="324.2" class="st5" width="43" height="12.1"/>
	<circle class="st1" cx="468.6" cy="330.3" r="9.7"/>
	<circle class="st11" cx="468.6" cy="330.3" r="7.7"/>
	<circle class="st1" cx="465.4" cy="327" r="1.4"/>
	<circle class="st14" cx="454.1" cy="321.3" r="1"/>
	<circle class="st1" cx="466.8" cy="327.9" r="0.9"/>
	<path class="st5" d="M485.4,322.7h-4c-0.8,0-1.4-0.6-1.4-1.4l0,0c0-0.8,0.6-1.4,1.4-1.4h4c0.8,0,1.4,0.6,1.4,1.4l0,0
		C486.9,322,486.3,322.7,485.4,322.7z"/>
</g>
<g>
	<path class="st15" d="M763.4,380.6H651.2c-3,0-5.4-2.4-5.4-5.4v-12c0-3,2.4-5.4,5.4-5.4h112.3c3,0,5.4,2.4,5.4,5.4v12
		C768.9,378.3,766.4,380.6,763.4,380.6z"/>
	<path class="st16" d="M645.7,369.2v6c0,3,2.4,5.4,5.4,5.4h112.3c3,0,5.4-2.4,5.4-5.4v-6H645.7z"/>
	<rect x="711.2" y="361.5" class="st1" width="47.8" height="15.4"/>
	<rect x="670.5" y="357.8" class="st1" width="4.8" height="22.9"/>
	<rect x="661.3" y="357.8" class="st1" width="4.8" height="22.9"/>
</g>
<g>
	<path class="st17" d="M749.5,357.8H665c-2.3,0-4-1.8-4-4v-9.2c0-2.3,1.8-4,4-4h84.4c2.3,0,4,1.8,4,4v9.2
		C753.7,356,751.7,357.8,749.5,357.8z"/>
	<path class="st18" d="M661.1,349.2v4.5c0,2.3,1.8,4,4,4h84.3c2.3,0,4-1.8,4-4v-4.5H661.1z"/>
	<rect x="684.5" y="343.4" class="st1" width="45.7" height="11.5"/>
	<g>
		<rect x="738.5" y="340.6" class="st1" width="3.6" height="17.1"/>
		<rect x="672.5" y="340.6" class="st1" width="3.6" height="17.1"/>
	</g>
</g>
<g>
	<circle class="st12" cx="334" cy="315.5" r="39.7"/>
	<circle class="st2" cx="334" cy="315.5" r="33.4"/>
	<polygon class="st5" points="346.1,307.5 344.6,306.1 335,315.3 335,285.1 333,285.1 333,317.7 334.5,318.7 	"/>
</g>
<g>
	<path class="st5" d="M548.8,342.6h-21.9c-1.8,0-3.4-1.5-3.4-3.4v-21.9c0-1.8,1.5-3.4,3.4-3.4h21.9c1.8,0,3.4,1.5,3.4,3.4v21.9
		C552.2,341.2,550.8,342.6,548.8,342.6z"/>
	<g>
		<path class="st15" d="M531.7,323.4H526c-0.5,0-1-0.4-1-1v-5.8c0-0.5,0.4-1,1-1h5.8c0.5,0,1,0.4,1,1v5.8
			C532.8,323,532.3,323.4,531.7,323.4z"/>
		<path class="st19" d="M541.1,323.4h-6c-0.4,0-0.9-0.3-0.9-0.9v-6c0-0.4,0.3-0.9,0.9-0.9h6c0.4,0,0.9,0.3,0.9,0.9v6
			C541.9,323,541.6,323.4,541.1,323.4z"/>
		<path class="st20" d="M549.8,323.4H544c-0.5,0-1-0.4-1-1v-5.8c0-0.5,0.4-1,1-1h5.8c0.5,0,1,0.4,1,1v5.8
			C550.8,323,550.3,323.4,549.8,323.4z"/>
		<path class="st19" d="M531.9,332.3H526c-0.4,0-0.9-0.3-0.9-0.9v-6c0-0.4,0.3-0.9,0.9-0.9h6c0.4,0,0.9,0.3,0.9,0.9v6
			C532.8,331.9,532.3,332.3,531.9,332.3z"/>
		<path class="st18" d="M541.1,332.3h-6c-0.4,0-0.9-0.3-0.9-0.9v-6c0-0.4,0.3-0.9,0.9-0.9h6c0.4,0,0.9,0.3,0.9,0.9v6
			C541.9,331.9,541.6,332.3,541.1,332.3z"/>
		<path class="st18" d="M549.9,332.3h-6c-0.4,0-0.9-0.3-0.9-0.9v-6c0-0.4,0.3-0.9,0.9-0.9h6c0.4,0,0.9,0.3,0.9,0.9v6
			C550.8,331.9,550.4,332.3,549.9,332.3z"/>
		<path class="st19" d="M531.7,341H526c-0.5,0-1-0.4-1-1v-5.8c0-0.5,0.4-1,1-1h5.8c0.5,0,1,0.4,1,1v5.8
			C532.8,340.6,532.3,341,531.7,341z"/>
		<path class="st15" d="M541.1,341h-6c-0.4,0-0.9-0.3-0.9-0.9v-6c0-0.4,0.3-0.9,0.9-0.9h6c0.4,0,0.9,0.3,0.9,0.9v6
			C541.9,340.6,541.6,341,541.1,341z"/>
		<path class="st20" d="M549.8,341H544c-0.5,0-1-0.4-1-1v-5.8c0-0.5,0.4-1,1-1h5.8c0.5,0,1,0.4,1,1v5.8
			C550.8,340.6,550.3,341,549.8,341z"/>
	</g>
</g>
<g>
	<path class="st1" d="M464.3,266.5h-4.8v-11.1h-11.9v11.1h-4.8v-25.4h4.8V252h11.9v-10.9h4.8L464.3,266.5L464.3,266.5z"/>
	<path class="st1" d="M474.4,243.2c0,0.4-0.1,0.7-0.2,1.1s-0.3,0.6-0.6,0.9c-0.2,0.2-0.5,0.4-0.9,0.6c-0.3,0.1-0.7,0.2-1.1,0.2
		s-0.7,0-1.1-0.2c-0.3-0.1-0.6-0.3-0.9-0.6c-0.2-0.2-0.4-0.5-0.6-0.9s-0.2-0.7-0.2-1.1c0-0.4,0-0.7,0.2-1.1c0.1-0.3,0.3-0.6,0.6-0.9
		c0.2-0.2,0.5-0.4,0.9-0.6c0.3-0.1,0.7-0.2,1.1-0.2s0.7,0.1,1.1,0.2c0.3,0.1,0.6,0.3,0.9,0.6c0.2,0.2,0.4,0.5,0.6,0.9
		C474.3,242.4,474.4,242.8,474.4,243.2z M473.8,248.5v18h-4.3v-18H473.8z"/>
	<path class="st1" d="M477.7,263.8c0-0.3,0-0.6,0.2-0.9c0.1-0.3,0.3-0.5,0.5-0.8c0.2-0.2,0.5-0.4,0.8-0.5c0.3-0.1,0.7-0.2,1-0.2
		c0.4,0,0.8,0.1,1.2,0.2c0.3,0.1,0.6,0.4,0.8,0.6c0.2,0.3,0.4,0.6,0.5,0.9s0.1,0.7,0.1,1.1c0,0.6-0.1,1.2-0.2,1.8
		c-0.1,0.6-0.4,1.2-0.7,1.8c-0.3,0.6-0.7,1.2-1.2,1.8c-0.5,0.6-1,1.1-1.7,1.6l-0.8-0.7c-0.2-0.2-0.3-0.4-0.3-0.6
		c0-0.1,0-0.2,0.1-0.3c0-0.1,0.1-0.2,0.2-0.3c0.1-0.1,0.3-0.3,0.5-0.5c0.2-0.2,0.4-0.4,0.6-0.7c0.2-0.2,0.3-0.5,0.5-0.9
		c0.2-0.3,0.3-0.6,0.3-1c-0.3,0-0.7,0-1-0.2c-0.3-0.1-0.6-0.3-0.8-0.5c-0.2-0.2-0.4-0.5-0.5-0.8
		C477.8,264.5,477.7,264.2,477.7,263.8z"/>
	<path class="st1" d="M498.9,266.5h-4.7v-25.4h4.7V266.5z"/>
	<path class="st1" d="M507.5,239.6c0.4,0.6,0.7,1.3,0.9,1.9s0.3,1.3,0.3,1.9c0,1.2-0.3,2.3-0.9,3.4s-1.5,2-2.6,3l-1.4-0.8
		c-0.1,0-0.2-0.1-0.2-0.2s0-0.2,0-0.3c0-0.2,0.1-0.4,0.2-0.6s0.3-0.4,0.5-0.6c0.1-0.2,0.3-0.5,0.5-0.8s0.2-0.6,0.3-0.9
		c0.1-0.3,0.1-0.7,0.1-1.1s0-0.8-0.2-1.3s-0.3-0.9-0.6-1.4c-0.1-0.1-0.1-0.3-0.1-0.5c0-0.4,0.2-0.6,0.6-0.8L507.5,239.6z"/>
	<path class="st1" d="M512.3,266.5v-18h2.6c0.6,0,0.9,0.2,1.1,0.8l0.3,1.3c0.3-0.3,0.6-0.7,1-1c0.3-0.3,0.7-0.5,1.1-0.8
		c0.4-0.2,0.8-0.4,1.3-0.5c0.4-0.1,0.9-0.2,1.5-0.2c1.1,0,2.1,0.3,2.8,0.9c0.7,0.6,1.3,1.4,1.7,2.4c0.3-0.6,0.6-1.1,1.1-1.6
		c0.4-0.4,0.9-0.8,1.4-1c0.5-0.3,1-0.5,1.6-0.6c0.6-0.1,1.1-0.2,1.7-0.2c1,0,1.9,0.1,2.6,0.4c0.8,0.3,1.4,0.7,1.9,1.3
		c0.5,0.6,0.9,1.3,1.2,2.1c0.3,0.8,0.4,1.8,0.4,2.9v11.5h-4.3V255c0-1.2-0.2-2-0.8-2.6c-0.5-0.6-1.2-0.9-2.2-0.9
		c-0.4,0-0.9,0.1-1.2,0.2c-0.4,0.1-0.7,0.4-1,0.7c-0.3,0.3-0.5,0.6-0.7,1.1s-0.2,0.9-0.2,1.5v11.5h-4.3V255c0-1.2-0.2-2.1-0.7-2.6
		c-0.5-0.5-1.2-0.8-2.1-0.8c-0.6,0-1.2,0.1-1.8,0.5c-0.5,0.3-1.1,0.7-1.5,1.3v13.2H512.3z"/>
	<path class="st1" d="M553.7,257.5v9H549v-25.4h8.3c1.7,0,3.2,0.2,4.4,0.6c1.2,0.4,2.3,1,3.1,1.7c0.8,0.7,1.4,1.6,1.8,2.6
		c0.4,1,0.6,2.1,0.6,3.3c0,1.2-0.2,2.3-0.6,3.4c-0.4,1-1,1.9-1.8,2.6c-0.8,0.7-1.8,1.3-3.1,1.7c-1.2,0.4-2.7,0.6-4.3,0.6
		L553.7,257.5L553.7,257.5z M553.7,253.8h3.6c0.9,0,1.6-0.1,2.3-0.3c0.6-0.2,1.2-0.5,1.6-0.9c0.4-0.4,0.7-0.9,0.9-1.5
		c0.2-0.6,0.3-1.2,0.3-1.9c0-0.7-0.1-1.3-0.3-1.8c-0.2-0.5-0.5-1-0.9-1.4c-0.4-0.4-1-0.7-1.6-0.9c-0.6-0.2-1.4-0.3-2.3-0.3h-3.6
		V253.8L553.7,253.8z"/>
	<path class="st1" d="M577.5,248.2c1.1,0,2.2,0.2,3.1,0.5c1,0.3,1.8,0.9,2.5,1.6c0.7,0.7,1.2,1.6,1.6,2.6c0.4,1,0.6,2.2,0.6,3.5
		c0,0.3,0,0.6,0,0.8c0,0.2-0.1,0.4-0.1,0.5c-0.1,0.1-0.2,0.2-0.3,0.2c-0.1,0-0.3,0.1-0.5,0.1h-11.1c0.1,1.8,0.6,3.2,1.5,4.1
		c0.9,0.9,2,1.3,3.5,1.3c0.7,0,1.3-0.1,1.8-0.2s1-0.3,1.3-0.5c0.4-0.2,0.7-0.4,1-0.5s0.6-0.2,0.8-0.2c0.2,0,0.3,0,0.4,0.1
		c0.1,0,0.2,0.1,0.3,0.3l1.3,1.6c-0.5,0.6-1,1-1.6,1.4c-0.6,0.4-1.2,0.7-1.8,0.9c-0.6,0.2-1.3,0.4-2,0.5c-0.7,0.1-1.3,0.1-1.9,0.1
		c-1.3,0-2.4-0.2-3.5-0.6c-1.1-0.4-2-1-2.8-1.8c-0.8-0.8-1.4-1.8-1.9-3c-0.4-1.2-0.7-2.6-0.7-4.2c0-1.2,0.2-2.4,0.6-3.5
		c0.4-1.1,1-2,1.7-2.8c0.7-0.8,1.7-1.5,2.7-1.9C574.9,248.4,576.2,248.2,577.5,248.2z M577.6,251.3c-1.3,0-2.2,0.3-3,1.1
		c-0.7,0.7-1.2,1.7-1.4,3h8.1c0-0.6-0.1-1.1-0.2-1.6c-0.1-0.5-0.4-0.9-0.7-1.3c-0.3-0.4-0.7-0.7-1.2-0.9
		C578.8,251.4,578.2,251.3,577.6,251.3z"/>
	<path class="st1" d="M594.7,266.8c-1.6,0-2.8-0.4-3.6-1.3c-0.8-0.9-1.3-2.1-1.3-3.7v-10.1H588c-0.2,0-0.4-0.1-0.6-0.2
		c-0.1-0.1-0.2-0.4-0.2-0.7v-1.7l2.9-0.5l0.9-4.9c0-0.2,0.1-0.4,0.3-0.5c0.1-0.1,0.4-0.2,0.6-0.2h2.2v5.7h4.7v3.1h-4.7v9.7
		c0,0.6,0.1,1,0.4,1.3c0.3,0.3,0.6,0.5,1.1,0.5c0.3,0,0.5,0,0.7-0.1s0.3-0.1,0.5-0.2c0.1,0,0.2-0.1,0.3-0.2c0.1,0,0.2-0.1,0.3-0.1
		c0.1,0,0.2,0,0.3,0.1c0.1,0,0.1,0.1,0.2,0.3l1.3,2.1c-0.6,0.5-1.4,0.9-2.2,1.2C596.4,266.6,595.6,266.8,594.7,266.8z"/>
	<path class="st1" d="M609.8,248.2c1.1,0,2.2,0.2,3.1,0.5c1,0.3,1.8,0.9,2.5,1.6c0.7,0.7,1.2,1.6,1.6,2.6c0.4,1,0.6,2.2,0.6,3.5
		c0,0.3,0,0.6,0,0.8c0,0.2-0.1,0.4-0.1,0.5c-0.1,0.1-0.2,0.2-0.3,0.2c-0.1,0-0.3,0.1-0.5,0.1h-11.1c0.1,1.8,0.6,3.2,1.5,4.1
		s2,1.3,3.5,1.3c0.7,0,1.3-0.1,1.8-0.2c0.5-0.1,1-0.3,1.3-0.5c0.4-0.2,0.7-0.4,1-0.5s0.6-0.2,0.8-0.2c0.2,0,0.3,0,0.4,0.1
		c0.1,0,0.2,0.1,0.3,0.3l1.3,1.6c-0.5,0.6-1,1-1.6,1.4c-0.6,0.4-1.2,0.7-1.8,0.9c-0.6,0.2-1.3,0.4-2,0.5c-0.7,0.1-1.3,0.1-1.9,0.1
		c-1.3,0-2.4-0.2-3.5-0.6c-1.1-0.4-2-1-2.8-1.8c-0.8-0.8-1.4-1.8-1.9-3c-0.4-1.2-0.7-2.6-0.7-4.2c0-1.2,0.2-2.4,0.6-3.5
		c0.4-1.1,1-2,1.7-2.8c0.7-0.8,1.7-1.5,2.7-1.9C607.3,248.4,608.5,248.2,609.8,248.2z M609.9,251.3c-1.3,0-2.2,0.3-3,1.1
		c-0.7,0.7-1.2,1.7-1.4,3h8.1c0-0.6-0.1-1.1-0.2-1.6c-0.1-0.5-0.4-0.9-0.7-1.3s-0.7-0.7-1.2-0.9
		C611.1,251.4,610.6,251.3,609.9,251.3z"/>
	<path class="st1" d="M621.2,266.5v-18h2.5c0.4,0,0.8,0.1,0.9,0.2c0.2,0.1,0.3,0.4,0.3,0.8l0.2,2.2c0.6-1.1,1.4-2,2.3-2.6
		c0.9-0.6,1.8-1,2.9-1c0.9,0,1.6,0.2,2.2,0.6L632,252c0,0.2-0.1,0.3-0.2,0.4c-0.1,0.1-0.3,0.1-0.5,0.1s-0.4,0-0.7-0.1
		s-0.7-0.1-1.2-0.1c-0.9,0-1.7,0.2-2.3,0.7c-0.6,0.5-1.2,1.2-1.7,2.2v11.2H621.2z"/>
	<path class="st1" d="M636.8,264.1c0-0.3,0-0.7,0.2-1c0.1-0.3,0.3-0.6,0.6-0.8c0.2-0.2,0.5-0.4,0.9-0.6c0.3-0.1,0.7-0.2,1.1-0.2
		c0.3,0,0.7,0,1,0.2c0.3,0.1,0.6,0.3,0.8,0.6c0.2,0.2,0.4,0.5,0.6,0.8c0.1,0.3,0.2,0.7,0.2,1c0,0.4,0,0.7-0.2,1
		c-0.1,0.3-0.3,0.6-0.6,0.8s-0.5,0.4-0.8,0.5c-0.3,0.1-0.7,0.2-1,0.2c-0.4,0-0.7,0-1.1-0.2s-0.6-0.3-0.9-0.5
		c-0.2-0.2-0.4-0.5-0.6-0.8C636.9,264.8,636.8,264.4,636.8,264.1z M641.6,241.1v10c0,1.1,0,2.1-0.1,3.1c-0.1,1-0.2,2.1-0.4,3.3h-2.9
		c-0.2-1.2-0.3-2.2-0.4-3.3c-0.1-1-0.1-2.1-0.1-3.1v-10H641.6z"/>
</g>
</svg>
