<?xml version="1.0" encoding="utf-8"?>
<!-- Generator: Adobe Illustrator 19.1.0, SVG Export Plug-In . SVG Version: 6.00 Build 0)  -->
<svg version="1.1" id="Layer_1" xmlns="http://www.w3.org/2000/svg" xmlns:xlink="http://www.w3.org/1999/xlink" x="0px" y="0px"
	 viewBox="0 201.5 612 390.5" style="enable-background:new 0 201.5 612 390.5;" xml:space="preserve">
<style type="text/css">
	.st0{fill:#F58132;}
	.st1{enable-background:new    ;}
	.st2{fill:#FDEBF1;}
	.st3{fill:none;}
	.st4{clip-path:url(#SVGID_2_);}
	.st5{fill:#356732;stroke:#366833;stroke-width:3;stroke-miterlimit:10;}
	.st6{clip-path:url(#SVGID_4_);fill:#359A46;stroke:#366833;stroke-width:3;stroke-miterlimit:10;}
	.st7{fill:none;stroke:#366833;stroke-width:3;stroke-miterlimit:10;}
	.st8{fill:#353535;}
	.st9{fill:#FFFFFF;}
</style>
<g>
	<g id="background">
		<rect y="201.5" class="st0" width="612" height="390.5"/>
		<g class="st1">
			<path class="st2" d="M68.6,271.9c-5.5,5.4-12.3,8.1-20.4,8.1s-14.9-2.7-20.4-8.1s-8.3-12.1-8.3-20.1s2.8-14.7,8.3-20.1
				c5.5-5.4,12.3-8.1,20.4-8.1s14.9,2.7,20.4,8.1c5.5,5.4,8.3,12.1,8.3,20.1C76.9,259.7,74.2,266.5,68.6,271.9z M64.5,251.8
				c0-4.9-1.6-9-4.7-12.5c-3.1-3.4-7-5.2-11.5-5.2c-4.6,0-8.4,1.7-11.5,5.2c-3.1,3.4-4.7,7.6-4.7,12.5c0,4.9,1.6,9,4.7,12.4
				c3.1,3.4,7,5.1,11.5,5.1c4.6,0,8.4-1.7,11.5-5.1C62.9,260.8,64.5,256.6,64.5,251.8z"/>
			<path class="st2" d="M121.2,224.7h12.2v54.7h-12.2v-21.5H99.5v21.5H87.3v-54.7h12.2v22.8h21.7V224.7z"/>
			<path class="st2" d="M180.3,235.7c-1.2,1-1.8,2.2-1.8,3.8s0.7,2.9,2.2,3.8c1.4,0.9,4.7,2,9.9,3.3s9.2,3.2,12.1,5.7
				c2.9,2.6,4.3,6.3,4.3,11.2s-1.8,8.9-5.5,11.9S193,280,187,280c-8.7,0-16.4-3.2-23.4-9.6l7.3-8.9c5.9,5.2,11.3,7.7,16.3,7.7
				c2.2,0,4-0.5,5.3-1.4c1.3-1,1.9-2.3,1.9-3.9s-0.7-2.9-2-3.9c-1.4-1-4-1.9-8.1-2.9c-6.4-1.5-11-3.5-14-5.9
				c-2.9-2.4-4.4-6.2-4.4-11.4s1.9-9.2,5.6-12c3.7-2.8,8.4-4.2,14-4.2c3.6,0,7.3,0.6,10.9,1.9c3.6,1.3,6.8,3,9.5,5.3l-6.2,8.9
				c-4.7-3.6-9.6-5.4-14.7-5.4C183,234.2,181.4,234.7,180.3,235.7z"/>
			<path class="st2" d="M251.3,224.7h12.2v54.7h-12.2v-21.5h-21.7v21.5h-12.2v-54.7h12.2v22.8h21.7V224.7z"/>
			<path class="st2" d="M277,224.7h12.2v54.7H277V224.7z"/>
			<path class="st2" d="M325.7,235.3v44.1h-12.2v-44.1H298v-10.6h43.2v10.6L325.7,235.3L325.7,235.3z"/>
		</g>
		<g class="st1">
			<path class="st2" d="M39.7,350l9.7-31.4h12.7l9.6,31.4l10.9-31.4h13.2l-19.1,54.7h-9.1l-12-38l-11.9,38h-9.1l-19.1-54.7h13.2
				L39.7,350z"/>
			<path class="st2" d="M138.4,373.2l-5.1-11.8h-22.9l-5.1,11.8h-13l23.6-54.7h11.8l23.6,54.7H138.4z M121.9,334.8l-6.9,15.9h13.7
				L121.9,334.8z"/>
			<path class="st2" d="M199.5,325.7c5.2,4.8,7.8,11.4,7.8,19.9s-2.5,15.2-7.6,20.2s-12.8,7.4-23.3,7.4h-18.7v-54.7H177
				C186.8,318.5,194.3,320.9,199.5,325.7z M190.5,358.2c3-2.8,4.5-6.9,4.5-12.3s-1.5-9.5-4.5-12.4s-7.6-4.3-13.8-4.3h-6.8v33.2h7.7
				C183.2,362.4,187.5,361,190.5,358.2z"/>
			<path class="st2" d="M259.6,325.7c5.2,4.8,7.8,11.4,7.8,19.9s-2.5,15.2-7.6,20.2s-12.8,7.4-23.3,7.4h-18.7v-54.7h19.3
				C246.9,318.5,254.4,320.9,259.6,325.7z M250.6,358.2c3-2.8,4.5-6.9,4.5-12.3s-1.5-9.5-4.5-12.4s-7.6-4.3-13.8-4.3H230v33.2h7.7
				C243.4,362.4,247.6,361,250.6,358.2z"/>
			<path class="st2" d="M292.4,359.1c2,2.5,4.8,3.8,8.2,3.8c3.4,0,6.2-1.3,8.2-3.8s3-6,3-10.4v-30.2H324v30.6c0,7.9-2.2,14-6.6,18.3
				c-4.4,4.2-10,6.4-16.8,6.4s-12.4-2.1-16.9-6.4c-4.4-4.3-6.6-10.3-6.6-18.2v-30.6h12.2v30.2C289.4,353.1,290.4,356.6,292.4,359.1z
				"/>
			<path class="st2" d="M374.3,323.4c3.8,3.3,5.7,8.3,5.7,15c0,6.8-2,11.7-5.9,14.8c-3.9,3.1-9.9,4.7-18,4.7h-7.3v15.2h-12.2v-54.7
				H356C364.4,318.5,370.5,320.2,374.3,323.4z M365.4,344.9c1.5-1.6,2.2-4,2.2-7.2s-1-5.4-2.9-6.7c-1.9-1.3-4.9-2-8.9-2h-7v18.4h8.2
				C361.2,347.4,363.9,346.6,365.4,344.9z"/>
		</g>
		<g class="st1">
			<path class="st2" d="M56.6,412.4h12.2v54.7H56.6v-21.5H34.9v21.5H22.7v-54.7h12.2v22.8h21.7C56.6,435.2,56.6,412.4,56.6,412.4z"
				/>
			<path class="st2" d="M121.7,412.4v10.9H94.4v11.3h24.5V445H94.4v11.3h28.1v10.8H82.3v-54.7L121.7,412.4L121.7,412.4z"/>
			<path class="st2" d="M177.7,430.6c0,8.8-3.5,14.4-10.4,17l13.8,19.5h-15L154,449.7h-8.4v17.4h-12.2v-54.7h20.7
				c8.5,0,14.6,1.4,18.2,4.3C175.9,419.6,177.7,424.2,177.7,430.6z M163,437.1c1.5-1.4,2.3-3.5,2.3-6.5c0-2.9-0.8-5-2.3-6.1
				s-4.3-1.6-8.2-1.6h-9.1v16.2h8.9C158.7,439.1,161.5,438.4,163,437.1z"/>
			<path class="st2" d="M229.6,412.4v10.9h-27.2v11.3h24.5V445h-24.5v11.3h28.1v10.8h-40.3v-54.7L229.6,412.4L229.6,412.4z"/>
			<path class="st2" d="M287.1,456.3c6,0,10.9-2.4,14.7-7.1l7.8,8.1c-6.2,7-13.5,10.5-21.9,10.5s-15.4-2.7-20.8-8s-8.2-12-8.2-20.1
				s2.8-14.9,8.3-20.3c5.6-5.4,12.3-8.1,20.4-8.1c9,0,16.5,3.4,22.5,10.2l-7.6,8.6c-3.9-4.8-8.7-7.2-14.4-7.2
				c-4.6,0-8.5,1.5-11.8,4.5s-4.9,7-4.9,12.1s1.5,9.2,4.6,12.2C279,454.8,282.7,456.3,287.1,456.3z"/>
			<path class="st2" d="M364.1,459.6c-5.5,5.4-12.3,8.1-20.4,8.1s-14.9-2.7-20.4-8.1s-8.3-12.1-8.3-20.1s2.8-14.7,8.3-20.1
				s12.3-8.1,20.4-8.1s14.9,2.7,20.4,8.1s8.3,12.1,8.3,20.1C372.3,447.4,369.6,454.2,364.1,459.6z M359.9,439.5
				c0-4.9-1.6-9-4.7-12.5c-3.1-3.4-7-5.2-11.5-5.2s-8.4,1.7-11.5,5.2c-3.1,3.4-4.7,7.6-4.7,12.5s1.6,9,4.7,12.4s7,5.1,11.5,5.1
				s8.4-1.7,11.5-5.1C358.4,448.5,359.9,444.3,359.9,439.5z"/>
			<path class="st2" d="M431.6,432.7l-14.8,29.9h-7.3l-14.7-29.9v34.4h-12.2v-54.7h16.5l14.1,30l14.2-30h16.4v54.7h-12.2V432.7z"/>
			<path class="st2" d="M496.7,412.4v10.9h-27.2v11.3H494V445h-24.5v11.3h28.1v10.8h-40.3v-54.7L496.7,412.4L496.7,412.4z"/>
		</g>
		<g class="st1">
			<path class="st2" d="M64.4,513.4c5.2,4.8,7.8,11.4,7.8,19.9s-2.5,15.2-7.6,20.2s-12.8,7.4-23.3,7.4H22.7v-54.7H42
				C51.7,506.2,59.2,508.6,64.4,513.4z M55.5,545.9c3-2.8,4.5-6.9,4.5-12.3c0-5.4-1.5-9.5-4.5-12.4s-7.6-4.3-13.8-4.3h-6.8v33.2h7.7
				C48.2,550.1,52.5,548.7,55.5,545.9z"/>
			<path class="st2" d="M120.2,560.9l-5.1-11.8H92.2l-5.1,11.8h-13l23.6-54.7h11.8l23.6,54.7H120.2z M103.7,522.5l-6.9,15.9h13.7
				L103.7,522.5z"/>
			<path class="st2" d="M158.6,516.8v44.1h-12.2v-44.1H131v-10.6h43.2v10.6H158.6z"/>
			<path class="st2" d="M227.6,560.9h-23.9v-54.7H225c3.7,0,6.9,0.4,9.6,1.3c2.7,0.9,4.7,2.1,6.1,3.6c2.4,2.8,3.7,6,3.7,9.5
				c0,4.3-1.4,7.5-4.1,9.5c-0.9,0.7-1.6,1.2-2,1.4s-1,0.5-2,0.9c3.4,0.7,6.1,2.3,8.1,4.6s3,5.2,3,8.6c0,3.8-1.3,7.2-3.9,10.1
				C240.4,559.2,235.1,560.9,227.6,560.9z M215.9,528.4h5.8c3.4,0,5.9-0.4,7.5-1.1c1.6-0.7,2.5-2.3,2.5-4.7s-0.8-4-2.3-4.8
				s-4.1-1.2-7.7-1.2h-5.9L215.9,528.4L215.9,528.4z M215.9,550.6h8.4c3.5,0,6.1-0.4,7.9-1.3c1.7-0.9,2.6-2.6,2.6-5.1
				s-0.9-4.2-2.8-5c-1.9-0.8-4.8-1.2-8.9-1.2h-7.2V550.6z"/>
			<path class="st2" d="M303.5,553.4c-5.5,5.4-12.3,8.1-20.4,8.1s-14.9-2.7-20.4-8.1c-5.5-5.4-8.3-12.1-8.3-20.1s2.8-14.7,8.3-20.1
				c5.5-5.4,12.3-8.1,20.4-8.1s14.9,2.7,20.4,8.1c5.5,5.4,8.3,12.1,8.3,20.1C311.8,541.2,309.1,548,303.5,553.4z M299.4,533.3
				c0-4.9-1.6-9-4.7-12.5c-3.1-3.4-7-5.2-11.5-5.2c-4.6,0-8.4,1.7-11.5,5.2c-3.1,3.4-4.7,7.6-4.7,12.5s1.6,9,4.7,12.4
				s7,5.1,11.5,5.1c4.6,0,8.4-1.7,11.5-5.1C297.8,542.3,299.4,538.1,299.4,533.3z"/>
			<path class="st2" d="M322.1,506.2h12.2v54.7h-12.2V506.2z"/>
		</g>
		<rect y="201.5" class="st3" width="612" height="390.5"/>
	</g>
	<g>
		<g>
			<g>
				<defs>
					<rect id="SVGID_1_" x="196" y="326" width="412" height="266"/>
				</defs>
				<clipPath id="SVGID_2_">
					<use xlink:href="#SVGID_1_"  style="overflow:visible;"/>
				</clipPath>
				<g class="st4">
					<path class="st5" d="M389.7,379.8c-1.3,1.5-1.9,2.9-1.6,4.4c0.5,2.6,1.4,5.3,2.8,8.3c0,0,22.6-9.8,102.7,36.5
						C461.2,406.3,411.2,374.9,389.7,379.8z"/>
					<g>
						<g id="boi">
							<g>
								<g>
									<g>
										<defs>
											<rect id="SVGID_3_" y="238.3" width="612" height="390.5"/>
										</defs>
										<clipPath id="SVGID_4_">
											<use xlink:href="#SVGID_3_"  style="overflow:visible;"/>
										</clipPath>
										<path class="st6" d="M613.2,743.5c-8,62.4-2.2,38.7-19.9,109.4c-4,15.9-28.5,66.3-31.8,82.9
											c-3.3,16.6-21.2,77.6-21.2,77.6s-8,15.3,6.6,19.9s25.9,9.3,28.5,17.2c2.6,8-55.7-4.7-55.7-9.9
											c0-5.3,14.6-108.8,22.5-120.7c8-11.9,22.9-178.1,39.8-182.4l-9.8-28.4c-6.9-15-15-31.8-16.7-39.3c0,0-31.2-0.7-55.7-9.3
											c-25.2,13.3-65.7,37.1-77.6,38.5c-9.9,14.9-0.7,17.9,41.8,77.6c22.5,34.5,27.9,39.8,29.8,57.7
											c-17.9,14.6-52.4,0.7-59.7-2.6c-7.3-3.3,8.7-16.3,33.8-9.3c25.2,7-31.2-43.8-38.5-48.4c-7.3-4.7-40.5-25.9-47.1-50.4
											c0-28.5,19.9-36.5,23.2-49.1c3.3-12.6,28.5-56.4,37.1-69.6c3.3-27.2-13.3,0,0-92.9c-14.6,8-28.5,23.9-65.7,27.9
											c-24.5,11.3,9.3,8-75.6,19.9c-5.3,11.9-17.9,23.2-25.9,22.5c-4.6-6.6,1.6-6.9-22.3-2.4c-5-1.7-7-3.7,5.5-7.4
											c-13.7-0.8-17.4,1.5-15.2-4c-8.7,0.7-15.9,1.7-8.7-5c-7.5-4,5-6.5,30.8-5.7c25.1-13.9,67.9-41.8,88.8-40.3
											c19.9-8.7,40-17.9,62.2-21.9c13.4-21.6,17.2-16.7,15.4-42c-22.6-32.2-37.1-49.1-41.2-61.1c0,0,22.6-9.8,102.7,36.5
											c-32.3-22.6-82.1-54.1-103.7-49.2c4.8-9.3,37.8-15.7,52.8-18.9l0,0c0.5-0.1,0.9-0.2,1.3-0.2c4.3-0.9,7-1.4,7.1-1.4
											c18.9-4,24.7-7.3,34.7-5c11.3,2.6,8-2,25.2,22.5c17.2,24.5,19.9,25.2,21.2,32.5s-3.5,7.2,5.3,27.2
											c9.9,22.5,19.2,43.1,30.5,69.6c11.3,26.5,3.4,26.2,31.8,21.2c11.3-2-22.5,20.6-22.5,20.6s-7.5,43,4.6,52.4
											c8.6,6.6,26.5,39.1,31.2,57C617.8,675.2,621.2,681,613.2,743.5z"/>
									</g>
								</g>
							</g>
							<path class="st7" d="M577.4,547.8c0,0-5.3-0.7-12.9,6.3c-7.6,7-21.2,20.9-29.8,22.9c-8-5.3,9.9-12.6,14.6-24.2
								c0.3-11.9,10.3-5-39.1-61.3"/>
							<g id="eye">
								<ellipse class="st8" cx="486.7" cy="378.5" rx="10.9" ry="12.1"/>
								
									<ellipse transform="matrix(0.9842 -0.1772 0.1772 0.9842 -59.3647 92.1371)" class="st9" cx="486.2" cy="378.4" rx="3" ry="5"/>
							</g>
						</g>
					</g>
				</g>
			</g>
		</g>
	</g>
</g>
</svg>
