<?xml version="1.0" encoding="utf-8"?>
<!-- Generator: Adobe Illustrator 19.1.0, SVG Export Plug-In . SVG Version: 6.00 Build 0)  -->
<svg version="1.1" id="Layer_1" xmlns="http://www.w3.org/2000/svg" xmlns:xlink="http://www.w3.org/1999/xlink" x="0px" y="0px"
	 viewBox="0 201.5 612 390.5" style="enable-background:new 0 201.5 612 390.5;" xml:space="preserve">
<style type="text/css">
	.st0{fill:#00A651;stroke:#366833;stroke-miterlimit:10;}
	.st1{fill:none;}
	.st2{enable-background:new    ;}
	.st3{fill:#FDEBF1;}
	.st4{fill:#356732;stroke:#366833;stroke-width:3;stroke-miterlimit:10;}
	.st5{clip-path:url(#SVGID_2_);fill:#359A46;stroke:#366833;stroke-width:3;stroke-miterlimit:10;}
	.st6{fill:none;stroke:#366833;stroke-width:3;stroke-miterlimit:10;}
	.st7{fill:#353535;}
	.st8{fill:#FFFFFF;}
	.st9{fill:#F05252;}
</style>
<g id="background">
	<rect y="201.8" class="st0" width="612" height="390.5"/>
	<rect y="201.8" class="st1" width="612" height="464"/>
	<g class="st2">
		<path class="st3" d="M71.6,245.3l-14.8,29.9h-7.3l-14.6-29.9v34.4H22.7v-54.7h16.5l14.1,30l14.2-30h16.4v54.7H71.6V245.3z"/>
		<path class="st3" d="M136.7,224.9v10.9h-27.2v11.3H134v10.4h-24.5v11.3h28.1v10.8H97.3v-54.7L136.7,224.9L136.7,224.9z"/>
		<path class="st3" d="M192.7,243.1c0,8.8-3.5,14.4-10.4,17l13.8,19.5h-15L169,262.3h-8.4v17.4h-12.2v-54.7h20.7
			c8.5,0,14.6,1.4,18.2,4.3C190.9,232.1,192.7,236.8,192.7,243.1z M178,249.6c1.5-1.4,2.3-3.5,2.3-6.5c0-2.9-0.8-5-2.3-6.1
			s-4.3-1.6-8.2-1.6h-9.1v16.2h8.9C173.7,251.6,176.5,250.9,178,249.6z"/>
		<path class="st3" d="M249.6,243.1c0,8.8-3.5,14.4-10.4,17l13.8,19.5h-15l-12.1-17.4h-8.4v17.4h-12.2v-54.7H226
			c8.5,0,14.6,1.4,18.2,4.3C247.8,232.1,249.6,236.8,249.6,243.1z M234.9,249.6c1.5-1.4,2.3-3.5,2.3-6.5c0-2.9-0.8-5-2.3-6.1
			s-4.3-1.6-8.2-1.6h-9.1v16.2h8.9C230.5,251.6,233.4,250.9,234.9,249.6z"/>
		<path class="st3" d="M284.2,279.6H272V258l-18.9-33.1h13.2l11.8,20.3l11.8-20.3h13.2L284.2,258V279.6z"/>
	</g>
	<g class="st2">
		<path class="st3" d="M47.8,362.6c6,0,10.9-2.4,14.7-7.1l7.8,8.1c-6.2,7-13.5,10.5-21.9,10.5s-15.4-2.7-20.8-8s-8.2-12-8.2-20.1
			s2.8-14.9,8.3-20.3c5.6-5.4,12.3-8.1,20.4-8.1c9,0,16.5,3.4,22.5,10.2l-7.6,8.6c-3.9-4.8-8.7-7.2-14.4-7.2
			c-4.6,0-8.5,1.5-11.8,4.5s-4.9,7-4.9,12.1s1.5,9.2,4.6,12.2C39.7,361.1,43.4,362.6,47.8,362.6z"/>
		<path class="st3" d="M113.8,318.8H126v54.7h-12.2V352H92.1v21.5H79.9v-54.7h12.2v22.8h21.7V318.8z"/>
		<path class="st3" d="M183.8,337c0,8.8-3.5,14.4-10.4,17l13.8,19.5h-15l-12.1-17.4h-8.4v17.4h-12.2v-54.7h20.7
			c8.5,0,14.6,1.4,18.2,4.3C182,326,183.8,330.5,183.8,337z M169.1,343.5c1.5-1.4,2.3-3.5,2.3-6.5c0-2.9-0.8-5-2.3-6.1
			s-4.3-1.6-8.2-1.6h-9.1v16.2h8.9C164.8,345.5,167.6,344.8,169.1,343.5z"/>
		<path class="st3" d="M196.3,318.8h12.2v54.7h-12.2V318.8z"/>
		<path class="st3" d="M234.8,329.8c-1.2,1-1.8,2.2-1.8,3.8c0,1.6,0.7,2.9,2.2,3.8c1.4,0.9,4.7,2,9.9,3.3s9.2,3.2,12.1,5.7
			c2.9,2.6,4.3,6.3,4.3,11.2c0,4.9-1.8,8.9-5.5,11.9c-3.7,3-8.5,4.6-14.5,4.6c-8.7,0-16.4-3.2-23.4-9.6l7.3-8.9
			c5.9,5.2,11.3,7.7,16.3,7.7c2.2,0,4-0.5,5.3-1.4c1.3-1,1.9-2.3,1.9-3.9s-0.7-2.9-2-3.9c-1.4-1-4-1.9-8.1-2.9
			c-6.4-1.5-11-3.5-14-5.9c-2.9-2.4-4.4-6.2-4.4-11.4c0-5.2,1.9-9.2,5.6-12c3.7-2.8,8.4-4.2,14-4.2c3.6,0,7.3,0.6,10.9,1.9
			c3.6,1.3,6.8,3,9.5,5.3l-6.2,8.9c-4.7-3.6-9.6-5.4-14.7-5.4C237.5,328.3,235.9,328.8,234.8,329.8z"/>
		<path class="st3" d="M294.5,329.4v44.1h-12.2v-44.1h-15.5v-10.6H310v10.6H294.5z"/>
		<path class="st3" d="M367.9,339l-14.8,29.9h-7.3L331.1,339v34.4h-12.2v-54.7h16.5l14.1,30l14.2-30h16.4v54.7h-12.2V339z"/>
		<path class="st3" d="M432.5,373.5l-5.1-11.8h-22.9l-5.1,11.8h-13l23.6-54.7h11.8l23.6,54.7H432.5z M416,335l-6.9,15.9h13.7
			L416,335z"/>
		<path class="st3" d="M464.2,329.8c-1.2,1-1.8,2.2-1.8,3.8c0,1.6,0.7,2.9,2.2,3.8c1.4,0.9,4.7,2,9.9,3.3c5.2,1.3,9.2,3.2,12.1,5.7
			c2.9,2.6,4.3,6.3,4.3,11.2c0,4.9-1.8,8.9-5.5,11.9s-8.5,4.6-14.5,4.6c-8.7,0-16.4-3.2-23.4-9.6l7.3-8.9c5.9,5.2,11.3,7.7,16.3,7.7
			c2.2,0,4-0.5,5.3-1.4c1.3-1,1.9-2.3,1.9-3.9s-0.7-2.9-2-3.9c-1.4-1-4-1.9-8.1-2.9c-6.4-1.5-11-3.5-14-5.9
			c-2.9-2.4-4.4-6.2-4.4-11.4c0-5.2,1.9-9.2,5.6-12s8.4-4.2,14-4.2c3.6,0,7.3,0.6,10.9,1.9s6.8,3,9.5,5.3l-6.2,8.9
			c-4.7-3.6-9.6-5.4-14.7-5.4C467,328.3,465.4,328.8,464.2,329.8z"/>
	</g>
	<g class="st2">
		<path class="st3" d="M60.2,412.6v10.7H34.9v11.9H59V446H34.9v21.4H22.7v-54.7H60.2z"/>
		<path class="st3" d="M114.9,430.9c0,8.8-3.5,14.4-10.4,17l13.8,19.5h-15L91.2,450h-8.4v17.4H70.5v-54.7h20.7
			c8.5,0,14.6,1.4,18.2,4.3C113,419.9,114.9,424.5,114.9,430.9z M100.2,437.4c1.5-1.4,2.3-3.5,2.3-6.5c0-2.9-0.8-5-2.3-6.1
			s-4.3-1.6-8.2-1.6h-9.1v16.2h8.9C95.8,439.4,98.6,438.6,100.2,437.4z"/>
		<path class="st3" d="M172.8,459.9c-5.5,5.4-12.3,8.1-20.4,8.1c-8.1,0-14.9-2.7-20.4-8.1s-8.3-12.1-8.3-20.1s2.8-14.7,8.3-20.1
			s12.3-8.1,20.4-8.1c8.1,0,14.9,2.7,20.4,8.1s8.3,12.1,8.3,20.1C181.1,447.6,178.3,454.5,172.8,459.9z M168.7,439.8
			c0-4.9-1.6-9-4.7-12.5c-3.1-3.4-7-5.2-11.5-5.2c-4.6,0-8.4,1.7-11.5,5.2c-3.1,3.4-4.7,7.6-4.7,12.5s1.6,9,4.7,12.4
			c3.1,3.4,7,5.1,11.5,5.1c4.6,0,8.4-1.7,11.5-5.1S168.7,444.5,168.7,439.8z"/>
		<path class="st3" d="M240.4,433l-14.8,29.9h-7.3L203.6,433v34.4h-12.2v-54.7h16.5l14.1,30l14.2-30h16.4v54.7h-12.2V433z"/>
		<path class="st3" d="M332.6,459.9c-5.5,5.4-12.3,8.1-20.4,8.1s-14.9-2.7-20.4-8.1s-8.3-12.1-8.3-20.1s2.8-14.7,8.3-20.1
			s12.3-8.1,20.4-8.1s14.9,2.7,20.4,8.1s8.3,12.1,8.3,20.1C340.9,447.6,338.2,454.5,332.6,459.9z M328.5,439.8c0-4.9-1.6-9-4.7-12.5
			c-3.1-3.4-7-5.2-11.5-5.2s-8.4,1.7-11.5,5.2c-3.1,3.4-4.7,7.6-4.7,12.5s1.6,9,4.7,12.4s7,5.1,11.5,5.1s8.4-1.7,11.5-5.1
			S328.5,444.5,328.5,439.8z"/>
		<path class="st3" d="M350.1,424.1c-1.7-1.1-2.6-2.7-2.6-4.8c0-2.1,0.6-3.7,1.8-4.9s2.8-1.8,4.6-1.8c1.8,0,3.4,0.6,4.6,1.7
			s1.8,2.6,1.8,4.5c0,1.8-0.6,3.6-1.7,5.4l-5.7,8.3h-6.4L350.1,424.1z"/>
		<path class="st3" d="M403.4,423.6c-1.2,1-1.8,2.2-1.8,3.8c0,1.6,0.7,2.9,2.2,3.8c1.4,0.9,4.7,2,9.9,3.3c5.2,1.3,9.2,3.2,12.1,5.7
			c2.9,2.6,4.3,6.3,4.3,11.2c0,4.9-1.8,8.9-5.5,11.9s-8.5,4.6-14.5,4.6c-8.7,0-16.4-3.2-23.4-9.6l7.3-8.9c5.9,5.2,11.3,7.7,16.3,7.7
			c2.2,0,4-0.5,5.3-1.4c1.3-1,1.9-2.3,1.9-3.9s-0.7-2.9-2-3.9c-1.4-1-4-1.9-8.1-2.9c-6.4-1.5-11-3.5-14-5.9
			c-2.9-2.4-4.4-6.2-4.4-11.4c0-5.2,1.9-9.2,5.6-12s8.4-4.2,14-4.2c3.6,0,7.3,0.6,10.9,1.9s6.8,3,9.5,5.3l-6.2,8.9
			c-4.7-3.6-9.6-5.4-14.7-5.4C406.2,422.1,404.6,422.6,403.4,423.6z"/>
		<path class="st3" d="M474.5,412.6h12.2v54.7h-12.2v-21.5h-21.7v21.5h-12.2v-54.7h12.2v22.8h21.7V412.6z"/>
		<path class="st3" d="M500.1,412.6h12.2v54.7h-12.2L500.1,412.6L500.1,412.6z"/>
		<path class="st3" d="M548.9,423.3v44.1h-12.2v-44.1h-15.5v-10.6h43.2v10.6H548.9z"/>
		<path class="st3" d="M573.7,466.5c-1.8-1.3-2.7-3-2.7-5.1s0.7-3.8,2.1-5.1s3.1-2,5.1-2s3.7,0.7,5.1,2c1.4,1.3,2.2,2.8,2.2,4.6
			c0,1.7-0.8,3.8-2.3,6.3l-4.7,8.1h-7.7L573.7,466.5z"/>
	</g>
	<g class="st2">
		<path class="st3" d="M64.4,513.7c5.2,4.8,7.8,11.4,7.8,19.9s-2.5,15.2-7.6,20.2s-12.8,7.4-23.3,7.4H22.7v-54.7H42
			C51.7,506.5,59.2,508.9,64.4,513.7z M55.5,546.2c3-2.8,4.5-6.9,4.5-12.3c0-5.4-1.5-9.5-4.5-12.4s-7.6-4.3-13.8-4.3h-6.8v33.2h7.7
			C48.2,550.3,52.5,549,55.5,546.2z"/>
		<path class="st3" d="M120.2,561.2l-5.1-11.8H92.2l-5.1,11.8h-13l23.6-54.7h11.8l23.6,54.7H120.2z M103.7,522.8l-6.9,15.9h13.7
			L103.7,522.8z"/>
		<path class="st3" d="M158.6,517v44.1h-12.2V517H131v-10.6h43.2V517H158.6z"/>
		<path class="st3" d="M227.6,561.2h-23.9v-54.7H225c3.7,0,6.9,0.4,9.6,1.3c2.7,0.9,4.7,2.1,6.1,3.6c2.4,2.8,3.7,6,3.7,9.5
			c0,4.3-1.4,7.5-4.1,9.5c-0.9,0.7-1.6,1.2-2,1.4s-1,0.5-2,0.9c3.4,0.7,6.1,2.3,8.1,4.6s3,5.2,3,8.6c0,3.8-1.3,7.2-3.9,10.1
			C240.4,559.5,235.1,561.2,227.6,561.2z M215.9,528.7h5.8c3.4,0,5.9-0.4,7.5-1.1c1.6-0.7,2.5-2.3,2.5-4.7s-0.8-4-2.3-4.8
			s-4.1-1.2-7.7-1.2h-5.9L215.9,528.7L215.9,528.7z M215.9,550.8h8.4c3.5,0,6.1-0.4,7.9-1.3c1.7-0.9,2.6-2.6,2.6-5.1s-0.9-4.2-2.8-5
			c-1.9-0.8-4.8-1.2-8.9-1.2h-7.2V550.8z"/>
		<path class="st3" d="M303.5,553.7c-5.5,5.4-12.3,8.1-20.4,8.1s-14.9-2.7-20.4-8.1c-5.5-5.4-8.3-12.1-8.3-20.1s2.8-14.7,8.3-20.1
			c5.5-5.4,12.3-8.1,20.4-8.1s14.9,2.7,20.4,8.1c5.5,5.4,8.3,12.1,8.3,20.1C311.8,541.5,309.1,548.3,303.5,553.7z M299.4,533.5
			c0-4.9-1.6-9-4.7-12.5c-3.1-3.4-7-5.2-11.5-5.2c-4.6,0-8.4,1.7-11.5,5.2c-3.1,3.4-4.7,7.6-4.7,12.5s1.6,9,4.7,12.4s7,5.1,11.5,5.1
			c4.6,0,8.4-1.7,11.5-5.1C297.8,542.5,299.4,538.3,299.4,533.5z"/>
		<path class="st3" d="M322.1,506.5h12.2v54.7h-12.2V506.5z"/>
	</g>
</g>
<g>
	<g>
		<path class="st4" d="M390.4,357.9c-1.2,1.4-1.8,2.7-1.5,4.2c0.4,2.4,1.3,5,2.6,7.8c0,0,21.2-9.2,96.5,34.3
			C457.7,382.9,410.6,353.3,390.4,357.9z"/>
		<g id="boi">
			<g>
				<g>
					<g>
						<defs>
							<rect id="SVGID_1_" x="24.2" y="224.9" width="575.1" height="367"/>
						</defs>
						<clipPath id="SVGID_2_">
							<use xlink:href="#SVGID_1_"  style="overflow:visible;"/>
						</clipPath>
						<path class="st5" d="M600.5,699.7c-7.5,58.6-2.1,36.4-18.7,102.8c-3.7,15-26.8,62.3-29.9,77.9S532,953.3,532,953.3
							s-7.5,14.4,6.2,18.7s24.3,8.7,26.8,16.2c2.4,7.5-52.3-4.4-52.3-9.3c0-5,13.7-102.2,21.1-113.5c7.5-11.2,21.5-167.3,37.4-171.4
							l-9.3-26.7c-6.5-14.1-14.1-29.9-15.7-36.9c0,0-29.4-0.7-52.3-8.7c-23.6,12.5-61.8,34.9-72.9,36.2c-9.3,14-0.7,16.8,39.3,72.9
							c21.1,32.4,26.2,37.4,28,54.2c-16.8,13.7-49.3,0.7-56.1-2.4c-6.8-3.1,8.1-15.3,31.8-8.7c23.6,6.6-29.4-41.1-36.2-45.5
							c-6.8-4.4-38-24.3-44.3-47.4c0-26.8,18.7-34.3,21.8-46.2s26.8-53,34.9-65.4c3.1-25.6-12.5,0,0-87.3
							c-13.7,7.5-26.8,22.4-61.8,26.2c-23,10.7,8.7,7.5-71,18.7c-5,11.2-16.8,21.8-24.3,21.1c-4.3-6.2,1.5-6.5-21-2.3
							c-4.7-1.6-6.6-3.5,5.2-6.9c-12.9-0.8-16.4,1.4-14.3-3.7c-8.1,0.7-15,1.6-8.1-4.7c-7-3.7,4.7-6.1,28.9-5.4
							c23.6-13.1,63.8-39.3,83.4-37.9c18.7-8.1,37.6-16.8,58.5-20.6c12.6-20.3,16.2-15.7,14.5-39.5c-21.2-30.2-34.9-46.1-38.7-57.4
							c0,0,21.2-9.2,96.5,34.3c-30.3-21.2-77.2-50.8-97.4-46.3c4.5-8.7,35.6-14.7,49.6-17.8l0,0c0.4-0.1,0.9-0.2,1.2-0.2
							c4.1-0.9,6.6-1.3,6.7-1.3c17.8-3.7,23.2-6.8,32.6-4.7c10.7,2.4,7.5-1.9,23.6,21.1c16.1,23,18.7,23.6,19.9,30.6
							c1.2,6.8-3.3,6.8,5,25.6c9.3,21.1,18,40.5,28.7,65.4c10.7,24.9,3.2,24.6,29.9,19.9c10.7-1.9-21.1,19.3-21.1,19.3
							s-7,40.5,4.3,49.3c8.1,6.2,24.9,36.7,29.4,53.5C604.8,635.5,608,641.1,600.5,699.7z"/>
					</g>
				</g>
			</g>
			<path class="st6" d="M566.9,515.8c0,0-5-0.7-12.1,5.9s-19.9,19.7-28,21.5c-7.5-5,9.3-11.9,13.7-22.8c0.3-11.2,9.7-4.7-36.7-57.6"
				/>
			<g id="eye">
				<ellipse class="st7" cx="481.7" cy="356.7" rx="10.2" ry="11.3"/>
				
					<ellipse transform="matrix(0.1772 0.9842 -0.9842 0.1772 747.0668 -180.0692)" class="st8" cx="481.2" cy="356.8" rx="4.7" ry="2.9"/>
			</g>
		</g>
	</g>
	<g id="hat">
		<path class="st9" d="M444.1,318.8c0,0,29.8-41.6,65-64.2l7.4,3.8c0,0,12.4,38.8-1.6,80.4C460.1,317.6,444.1,318.8,444.1,318.8z"/>
		<path class="st8" d="M489.4,320c-43.7-12.1-57.8-4.4-61.2,3.6c-3.4,7.9,7.1,17.6,13.6,16.3c0,0,4.7-1.4,10.2-3.1
			c24.6-3.6,55.1,20.5,55.1,20.5C536.8,355.5,533,332,489.4,320z"/>
		<circle class="st8" cx="513.7" cy="253.1" r="10"/>
	</g>
</g>
</svg>
