<?xml version="1.0" encoding="utf-8"?>
<!-- Generator: Adobe Illustrator 19.1.0, SVG Export Plug-In . SVG Version: 6.00 Build 0)  -->
<svg version="1.1" id="Layer_1" xmlns="http://www.w3.org/2000/svg" xmlns:xlink="http://www.w3.org/1999/xlink" x="0px" y="0px"
	 viewBox="-49 141 512 512" style="enable-background:new -49 141 512 512;" xml:space="preserve">
<style type="text/css">
	.st0{fill:#F15D52;}
	.st1{fill:#45BF55;}
	.st2{fill:#2F2F2F;}
	.st3{fill:#333333;}
	.st4{fill:#563D3C;}
	.st5{fill:none;}
	.st6{fill:#167F39;}
	.st7{fill:#442C2C;}
	.st8{fill:#F8991D;}
	.st9{fill:#F6EC3A;}
	.st10{fill:#FEE600;}
	.st11{fill:#FFCE06;}
	.st12{fill:#D2B48C;}
	.st13{fill:#3D3D3D;}
	.st14{fill:#ABABAB;}
	.st15{fill:#F26D6D;}
</style>
<g>
	<path class="st0" d="M224.2,568.3c0-0.9-0.2-1.5-0.2-1.5S224.1,567.3,224.2,568.3z"/>
	<path class="st0" d="M224.2,568.3c0,0.1,0,0.2,0,0.3l0,0C224.2,568.5,224.2,568.3,224.2,568.3z"/>
	<circle class="st1" cx="207.4" cy="397.4" r="192.7"/>
	<path class="st2" d="M207.4,397.3"/>
	<path class="st3" d="M95.6,496.3c-1.2,2-1.9,3.7-2,4.9C93.7,499.3,94.4,497.6,95.6,496.3z"/>
	<path d="M279.2,347.3"/>
	<path class="st4" d="M243,346.3L243,346.3L243,346.3z"/>
	<path class="st5" d="M94.8,504.8l192.1-184.4l-7.5-7.1c0,0-4.5-22.8,21-20.4c7.6,0.7,12.6,0.2,15.8-0.7l5.9-5.7c0-0.1,0-0.2,0-0.3
		c-0.1-1-0.2-1.5-0.2-1.5s0.2,0.6,0.2,1.5c0,0.1,0,0.2,0,0.2l0.2-0.2l70.8,61.7c-21.6-82.8-96.9-144-186.5-144
		c-106.4,0-192.7,86.3-192.7,192.7c0,100.4,76.8,182.8,174.8,191.8L94.8,504.8z"/>
	<path class="st6" d="M322.2,286.5c0.9,7.4,2.2,35.6-30.7,38.3l-4.6-4.4L94.8,504.8l94.1,83.7c5.9,0.5,11.8,0.8,17.8,0.8
		c106.4,0,192.7-86.3,192.7-192.7c0-16.8-2.2-33.1-6.2-48.7l-70.8-61.6L322.2,286.5z"/>
	<path class="st0" d="M322.2,286.5c-0.1,1.8-1.2,4.3-5.9,5.7c-3.3,0.9-8.2,1.4-15.9,0.7c-25.5-2.4-21,20.4-21,20.4l7.5,7.1l4.6,4.4
		C324.5,322.1,323.1,294,322.2,286.5z"/>
	<g>
		<path class="st4" d="M95.5,494.6c-1.3,1.9-2.1,3.5-2.3,4.6c0,0.2,0,0.3-0.1,0.5c0,0.1,0,0.1,0,0.2c-0.2,1.9,0.4,3.7,1.7,4.9
			c1.4,1.2,3.2,1.8,5.2,1.6c0.1,0,0.1,0,0.2,0c0.2,0,0.4-0.1,0.6-0.1c0,0,0,0,0.1,0c1.1-0.3,2.7-1,4.6-2.2c9.6-6,28.8-22.9,51-43.6
			c3.9-11.3,87.3-115,87.4-115C204.3,382.5,111.6,470.3,95.5,494.6z"/>
		<path class="st7" d="M157,460c-0.4,0.4-0.8,0.8-1.3,1.2c3.8-11.1,83.4-110.1,87.2-114.8l0.1-0.2c10.9-10.2,17.8-16.5,17.8-16.5
			l14.5,13.8C275.2,343.5,208.5,411.8,157,460z"/>
	</g>
	<path class="st8" d="M276.4,346.1c-13.5-5.9-18.7-17.7-18.7-17.7l19.7-16.9l16.4,15.5L276.4,346.1z"/>
	<path class="st9" d="M278.8,343.8c-12.9-6.3-18.7-17.7-18.7-17.7l17.4-14.7l16.3,15.5L278.8,343.8z"/>
	
		<rect x="69.4" y="401.3" transform="matrix(-0.7071 -0.7071 0.7071 -0.7071 53.4306 834.561)" class="st10" width="260.4" height="9.8"/>
	
		<rect x="81.6" y="388.8" transform="matrix(-0.7071 -0.7071 0.7071 -0.7071 83.2161 821.8233)" class="st10" width="260.4" height="9.8"/>
	
		<rect x="88.2" y="400.6" transform="matrix(-0.7071 -0.7071 0.7071 -0.7071 73.4592 840.8681)" class="st11" width="245.3" height="9.2"/>
	<polygon class="st12" points="307.2,482.1 287.8,501.6 315.5,510 	"/>
	<polygon class="st13" points="307.4,507.5 308,505.3 310.2,504.6 310.9,502.5 313.1,501.8 315.5,510 	"/>
	
		<rect x="110.2" y="298.9" transform="matrix(-0.7071 -0.7071 0.7071 -0.7071 -19.0039 617.451)" class="st14" width="16.4" height="27.5"/>
	<path class="st15" d="M103.6,288.8l-9.3,9.3c-2.8,2.8-2.8,7.4,0,10.2l8.4,8.4l19.4-19.4l-8.4-8.4
		C110.9,285.8,106.4,285.8,103.6,288.8z"/>
</g>
</svg>
