<?xml version="1.0" encoding="utf-8"?>
<!-- Generator: Adobe Illustrator 19.1.0, SVG Export Plug-In . SVG Version: 6.00 Build 0)  -->
<svg version="1.1" id="Layer_1" xmlns="http://www.w3.org/2000/svg" xmlns:xlink="http://www.w3.org/1999/xlink" x="0px" y="0px"
	 viewBox="0 0 236 227" style="enable-background:new 0 0 236 227;" xml:space="preserve">
<style type="text/css">
	.st0{fill:#2F2F2F;}
	.st1{fill:#333333;}
	.st2{fill:#563D3C;}
	.st3{fill:#442C2C;}
	.st4{fill:#F8991D;}
	.st5{fill:#F15D52;}
	.st6{fill:#F6EC3A;}
	.st7{fill:#FEE600;}
	.st8{fill:#FFCE06;}
	.st9{fill:#D2B48C;}
	.st10{fill:#3D3D3D;}
	.st11{fill:#ABABAB;}
	.st12{fill:#F26D6D;}
</style>
<path class="st0" d="M277.3,175.9"/>
<g>
	<path class="st1" d="M4.8,212c-1.2,2-1.9,3.7-2,4.9C2.9,215.1,3.6,213.4,4.8,212z"/>
	<path d="M188.4,63"/>
	<path class="st2" d="M152.2,62L152.2,62L152.2,62z"/>
	<g>
		<path class="st2" d="M4.7,210.4c-1.3,1.9-2.1,3.5-2.3,4.6c0,0.2,0,0.3-0.1,0.5c0,0.1,0,0.1,0,0.2c-0.2,1.9,0.4,3.7,1.7,4.9
			c1.4,1.2,3.2,1.8,5.2,1.6c0.1,0,0.1,0,0.2,0c0.2,0,0.4-0.1,0.6-0.1c0,0,0,0,0.1,0c1.1-0.3,2.7-1,4.6-2.2c9.6-6,28.8-22.9,51-43.6
			c3.9-11.3,87.3-115,87.4-115C113.5,98.2,20.8,186,4.7,210.4z"/>
		<path class="st3" d="M66.2,175.8c-0.4,0.4-0.8,0.8-1.3,1.2c3.8-11.1,83.4-110.1,87.2-114.8l0.1-0.2C163.1,51.8,170,45.5,170,45.5
			l14.5,13.8C184.4,59.3,117.7,127.5,66.2,175.8z"/>
	</g>
	<path class="st4" d="M185.6,61.9c-13.5-5.9-18.7-17.7-18.7-17.7l19.7-16.9L203,42.8L185.6,61.9z"/>
	<path class="st5" d="M200.7,40.6l-12.1-11.5c0,0-4.5-22.8,21-20.4c25.6,2.3,21.5-8.2,21.5-8.2S238.6,37.5,200.7,40.6z"/>
	<path class="st6" d="M188,59.6c-12.9-6.3-18.7-17.7-18.7-17.7l17.4-14.7l16.3,15.5L188,59.6z"/>
</g>
<g>
	<g>
		
			<rect x="-9.1" y="121.8" transform="matrix(0.7071 0.7071 -0.7071 0.7071 122.6562 -43.2384)" class="st7" width="245.3" height="9.2"/>
		
			<rect x="3.9" y="108.8" transform="matrix(0.7071 0.7071 -0.7071 0.7071 117.2422 -56.2365)" class="st7" width="245.3" height="9.2"/>
		
			<rect x="-2.7" y="115.4" transform="matrix(0.7071 0.7071 -0.7071 0.7071 119.9638 -49.7021)" class="st8" width="245.3" height="9.2"/>
	</g>
	<polygon class="st9" points="216.4,196.9 197,216.4 224.7,224.7 	"/>
	<polygon class="st10" points="216.6,222.2 217.2,220.1 219.4,219.4 220.1,217.3 222.3,216.6 224.7,224.7 	"/>
	
		<rect x="19.3" y="13.6" transform="matrix(0.7071 0.7071 -0.7071 0.7071 27.3842 -11.4085)" class="st11" width="16.4" height="27.5"/>
	<path class="st12" d="M12.8,3.5l-9.3,9.3c-2.8,2.8-2.8,7.4,0,10.2l8.4,8.4L31.3,12l-8.4-8.4C20.1,0.6,15.6,0.6,12.8,3.5z"/>
</g>
</svg>
