<?xml version="1.0" encoding="utf-8"?>
<!-- Generator: Adobe Illustrator 19.1.0, SVG Export Plug-In . SVG Version: 6.00 Build 0)  -->
<svg version="1.1" id="Layer_1" xmlns="http://www.w3.org/2000/svg" xmlns:xlink="http://www.w3.org/1999/xlink" x="0px" y="0px"
	 viewBox="90 91 792 612" style="enable-background:new 90 91 792 612;" xml:space="preserve">
<style type="text/css">
	.st0{fill:#1E1E20;}
	.st1{enable-background:new    ;}
	.st2{fill:#C44631;}
	.st3{fill:none;stroke:#C0C0C0;stroke-miterlimit:10;}
	.st4{fill:#FFFFFF;}
	.st5{fill:#EDEDED;}
	.st6{fill:#898989;}
	.st7{clip-path:url(#SVGID_2_);}
	.st8{fill:#C0C0C0;}
	.st9{fill:#FDE500;}
	.st10{fill:#FFCE0A;}
	.st11{fill:#D2B48C;}
	.st12{fill:#374140;}
	.st13{fill:#ACACAC;}
	.st14{fill:#F26E6D;}
	.st15{fill:#0B0B0B;}
	.st16{fill:#303030;}
	.st17{fill:none;stroke:#919191;stroke-miterlimit:10;}
	.st18{opacity:0.42;fill:url(#SVGID_3_);enable-background:new    ;}
	.st19{fill:#684943;}
	.st20{fill:#4C2B26;}
</style>
<g>
	<g id="background">
		<rect x="90" y="91" class="st0" width="792" height="612"/>
	</g>
	<g id="title">
		<g class="st1">
			<path class="st2" d="M450.3,302l3.7-36.8L435.7,302h-10.4l4.9-49.4c-3.5,1.3-6.4,3.3-8.7,6c-2.2,2.7-3.6,6.1-4.1,10.1
				c-0.1,0.9-0.2,1.7-0.1,2.2c0,0.6,0.1,1,0.2,1.4c0.1,0.3,0.2,0.6,0.2,0.8s0.1,0.4,0.1,0.5c-1.2,0-2.3-0.1-3.3-0.4
				c-0.9-0.2-1.7-0.6-2.3-1.2c-0.6-0.5-1-1.3-1.2-2.2c-0.2-0.9-0.3-2-0.1-3.3c0.2-1.6,0.7-3.2,1.6-4.7c0.9-1.6,2-3,3.4-4.4
				s3-2.7,4.7-3.8c1.8-1.2,3.7-2.2,5.6-3.1c2-0.9,4-1.5,6.1-2s4.2-0.7,6.2-0.7c0.5,0,1,0,1.5,0s0.9,0.1,1.4,0.1l-4.8,44.5l20.7-44.3
				h9.2l-4.8,44.3l20.6-44.3h5.1L460.7,302H450.3z"/>
			<path class="st2" d="M519.8,274.5c-1.6,1.5-3.6,2.7-5.9,3.8c-2.4,1-4.9,1.8-7.6,2.2c-0.7,3.3-1.7,6.4-3,9c-1.3,2.7-2.9,5-4.6,6.9
				c-1.8,1.9-3.7,3.3-5.8,4.3c-2.1,1-4.3,1.5-6.5,1.5c-1.7,0-3.2-0.2-4.6-0.6s-2.5-1.1-3.4-2s-1.6-2.1-2-3.5s-0.5-3.2-0.2-5.3
				c0.2-1.4,0.5-3,1-4.8s1.2-3.7,2.1-5.6s1.9-3.8,3.2-5.6c1.2-1.8,2.7-3.5,4.3-4.9c1.6-1.4,3.5-2.6,5.5-3.5s4.3-1.3,6.8-1.3
				c6.2,0,8.8,3.8,7.9,11.5v0.1c0.1,0,0.2,0.1,0.3,0.1c0.1,0,0.3,0,0.4,0c0.8,0,1.8-0.1,2.8-0.4c1-0.2,2-0.6,3.1-1
				c1-0.4,2.1-0.9,3.1-1.4s1.9-1.1,2.8-1.6L519.8,274.5z M500.2,280.7c-0.7-0.2-1.2-0.6-1.4-1.1c-0.2-0.6-0.3-1.2-0.2-1.9
				c0.1-1,0.4-1.8,0.9-2.5c0.5-0.6,1.1-1.1,1.8-1.4c0-0.8,0-1.4,0-2s-0.2-1-0.3-1.3c-0.2-0.3-0.4-0.6-0.7-0.7
				c-0.3-0.1-0.7-0.2-1.2-0.2c-0.9,0-1.7,0.3-2.6,1s-1.8,1.6-2.6,2.7c-0.9,1.1-1.7,2.4-2.4,3.8c-0.8,1.4-1.5,2.9-2.1,4.4
				s-1.1,3-1.5,4.5s-0.7,2.8-0.8,4c-0.1,1.2-0.2,2.2-0.2,2.9c0,0.8,0.2,1.3,0.4,1.8c0.2,0.4,0.6,0.7,1,0.9c0.5,0.2,1,0.2,1.7,0.2
				c0.9,0,1.8-0.4,2.8-1.2c1-0.8,1.9-1.8,2.8-3.2c0.9-1.3,1.8-2.9,2.6-4.8C499,284.8,499.7,282.9,500.2,280.7z"/>
			<path class="st2" d="M504.8,302l12.1-36.2h10.4l-1.5,4.5c0.7-0.6,1.4-1.1,2.1-1.7c0.7-0.5,1.5-1,2.2-1.4c0.8-0.4,1.6-0.7,2.4-1
				c0.8-0.3,1.6-0.4,2.5-0.4c0.8,0,1.5,0.2,2.1,0.5s1.1,0.7,1.4,1.2c0.4,0.5,0.6,1.1,0.7,1.7c0.1,0.7,0.2,1.3,0.1,2
				c-0.1,0.6-0.3,1.3-0.5,1.9c-0.3,0.6-0.7,1.2-1.2,1.7s-1.1,0.9-1.8,1.2c-0.7,0.3-1.5,0.5-2.4,0.5c-0.7,0-1.2-0.1-1.5-0.4
				c-0.3-0.2-0.6-0.5-0.7-0.9c-0.1-0.4-0.2-0.7-0.3-1.1c0-0.4-0.1-0.8-0.1-1.1c-0.1-0.4-0.1-0.6-0.3-0.9c-0.1-0.2-0.4-0.4-0.7-0.4
				c-1.1,0-2.1,0.3-2.9,0.8c-0.8,0.5-1.7,1.2-2.7,2L515,302L504.8,302L504.8,302z"/>
			<path class="st2" d="M565.1,290.4c-0.2,0.4-0.3,0.8-0.4,1.2c-0.1,0.4-0.2,0.8-0.2,1.2c-0.1,0.7,0,1.4,0.3,1.9s1,0.8,2.2,0.8
				c0.4,0,0.8,0,1,0c0.3,0,0.5-0.1,0.7-0.1s0.3-0.1,0.5-0.2c0.1-0.1,0.3-0.1,0.4-0.2c-0.3,1.3-0.7,2.4-1.3,3.3s-1.4,1.7-2.1,2.3
				c-0.8,0.6-1.5,1.1-2.3,1.4s-1.4,0.4-1.9,0.4c-3,0-5.2-0.7-6.6-2.1c-1.4-1.4-1.9-3.5-1.5-6.1c0.1-1.1,0.4-2.4,0.9-3.8l0.9-2.8
				c0.2-0.5,0.3-0.9,0.4-1.4c0.1-0.4,0.2-0.9,0.2-1.3c0.1-1.1,0-1.9-0.3-2.5s-0.9-1-1.9-1c-0.8,0-1.7,0.2-2.6,0.7
				c-0.9,0.5-1.9,1.1-3,2l-6,17.9H532l16.5-49.2l10.9-1.4l-8.5,25.5l15.3-11h7.2L557.7,276c0.8-0.2,1.6-0.3,2.4-0.3
				c1.3,0,2.5,0.2,3.4,0.7c0.9,0.4,1.7,1.1,2.3,1.8c0.6,0.8,0.9,1.7,1.1,2.7c0.2,1,0.2,2.1,0.1,3.3c-0.1,0.4-0.1,0.9-0.2,1.4
				c-0.1,0.5-0.2,0.9-0.4,1.4L565.1,290.4z"/>
			<path class="st2" d="M625.7,289c-0.9,2-1.9,3.6-2.8,5.1c-1,1.4-2,2.6-2.9,3.6c-1,1-2,1.8-2.9,2.4c-1,0.6-1.9,1.1-2.8,1.4
				c-0.9,0.3-1.7,0.6-2.5,0.7s-1.5,0.2-2.1,0.2c-2.1,0-3.7-0.6-4.7-1.7c-1.1-1.1-1.6-2.9-1.6-5.1c-1.1,1.5-2.2,2.7-3.2,3.6
				c-1.1,0.9-2.1,1.6-3,2.1c-1,0.5-1.9,0.8-2.8,1c-0.9,0.2-1.7,0.2-2.5,0.2c-1.1,0-2.1-0.2-3-0.5s-1.7-0.8-2.3-1.6
				c-0.6-0.7-1-1.6-1.3-2.7s-0.3-2.4-0.1-3.9c0.1-0.7,0.2-1.4,0.4-2.2c0.2-0.8,0.4-1.6,0.7-2.6l7.8-23.2h10.4l-8.2,24.6
				c-0.2,0.8-0.4,1.4-0.5,2c-0.1,0.8,0,1.5,0.2,2.1s0.8,0.9,1.6,0.9c0.7,0,1.4-0.2,2-0.5s1.2-0.8,1.8-1.3c0.6-0.6,1.1-1.2,1.5-2
				c0.5-0.8,0.9-1.6,1.3-2.6l7.8-23.2h10.4l-8.2,24.6c-0.2,0.4-0.3,0.8-0.4,1.2c-0.1,0.4-0.2,0.8-0.2,1.1c-0.1,1,0,1.7,0.5,2.1
				s1.2,0.6,2.2,0.6c0.7,0,1.4-0.2,2-0.5s1.2-0.8,1.8-1.3c0.6-0.6,1.1-1.2,1.6-2s0.9-1.6,1.3-2.6L625.7,289L625.7,289z"/>
			<path class="st2" d="M662.2,289c-1.4,3-2.8,5.3-4.1,7.1c-1.4,1.8-2.7,3.1-4,4s-2.5,1.5-3.7,1.8s-2.2,0.4-3.2,0.4
				c-1.6,0-2.9-0.2-3.9-0.7s-1.8-1.1-2.4-1.8s-0.9-1.6-1.1-2.6c-0.2-1-0.2-2-0.1-3c0.2-1.2,0.5-2.7,1-4.3c0.5-1.6,1.1-3.3,1.7-5
				s1.2-3.4,1.7-5s0.9-3,1-4.1c0.3-2.5-0.4-3.7-2.2-3.7c-0.7,0-1.3,0.2-1.9,0.5c-0.6,0.4-1.2,0.8-1.7,1.4s-1.1,1.3-1.5,2.1
				c-0.5,0.8-0.9,1.7-1.3,2.6l-7.8,23.2h-10.4l12.1-36.2h10.4l-1.2,3.7c0.9-0.9,1.7-1.6,2.6-2.1c0.8-0.5,1.6-0.9,2.4-1.2
				c0.8-0.3,1.5-0.5,2.1-0.6c0.7-0.1,1.3-0.1,1.8-0.1c1.2,0,2.2,0.2,3.2,0.5s1.7,0.8,2.4,1.4c0.6,0.7,1.1,1.5,1.4,2.5
				c0.3,1,0.3,2.3,0.1,3.7c-0.1,1-0.3,2-0.6,3.1s-0.7,2.3-1.1,3.4c-0.4,1.2-0.8,2.3-1.3,3.5c-0.4,1.2-0.8,2.3-1.2,3.3
				c-0.4,1.1-0.7,2-1,2.9s-0.5,1.7-0.6,2.4c-0.1,0.9,0,1.6,0.3,2.2s1.1,0.8,2.2,0.8c0.8,0,1.5-0.2,2.1-0.5s1.2-0.7,1.8-1.3
				c0.5-0.6,1.1-1.2,1.5-2c0.5-0.8,1-1.7,1.5-2.6h3V289z"/>
			<path class="st2" d="M681.6,289c-0.9,2-1.9,3.6-2.9,5.1c-1,1.4-2,2.6-3.1,3.6c-1,1-2.1,1.8-3.1,2.4s-2,1.1-2.9,1.4
				s-1.8,0.6-2.6,0.7s-1.6,0.2-2.2,0.2c-1.1,0-2.1-0.2-3-0.5s-1.7-0.8-2.3-1.6c-0.6-0.7-1-1.6-1.3-2.7s-0.3-2.4-0.1-3.9
				c0.1-0.7,0.2-1.4,0.4-2.2c0.2-0.8,0.4-1.6,0.7-2.6l6.8-20.3h-2.4l1-2.9h2.4l3.4-10l10.9-1.4l-3.9,11.4h4.3l-0.9,2.9h-4.3
				l-7.3,21.7c-0.2,0.4-0.3,0.8-0.4,1.2c-0.1,0.4-0.1,0.8-0.2,1.1c-0.1,1,0,1.7,0.4,2.1s1.1,0.6,2.2,0.6c0.7,0,1.4-0.2,2.1-0.5
				c0.7-0.3,1.4-0.8,2-1.3c0.6-0.6,1.2-1.2,1.8-2c0.5-0.8,1-1.6,1.4-2.6L681.6,289L681.6,289z"/>
			<path class="st2" d="M700.9,289c-0.9,2-1.9,3.6-2.9,5.1c-1,1.4-2,2.6-3.1,3.6c-1,1-2.1,1.8-3.1,2.4s-2,1.1-2.9,1.4
				s-1.8,0.6-2.6,0.7s-1.6,0.2-2.2,0.2c-1.1,0-2.1-0.2-3-0.5s-1.7-0.8-2.3-1.6c-0.6-0.7-1-1.6-1.3-2.7s-0.3-2.4-0.1-3.9
				c0.1-0.7,0.2-1.4,0.4-2.2c0.2-0.8,0.4-1.6,0.7-2.6l7.8-23.2h10.4l-8.2,24.6c-0.2,0.4-0.3,0.8-0.4,1.2c-0.1,0.4-0.1,0.8-0.2,1.1
				c-0.1,1,0,1.7,0.4,2.1s1.1,0.6,2.2,0.6c0.7,0,1.4-0.2,2.1-0.5c0.7-0.3,1.4-0.8,2-1.3s1.2-1.2,1.8-2c0.5-0.8,1-1.6,1.4-2.6
				L700.9,289L700.9,289z M700.4,256.2c-0.1,0.8-0.3,1.5-0.7,2.2s-0.9,1.3-1.5,1.8s-1.3,0.9-2,1.2c-0.7,0.3-1.5,0.4-2.3,0.4
				s-1.5-0.1-2.2-0.4s-1.2-0.7-1.7-1.2s-0.8-1.1-1-1.8c-0.2-0.7-0.3-1.4-0.2-2.2c0.1-0.8,0.3-1.5,0.7-2.2s0.9-1.3,1.4-1.8
				s1.2-0.9,2-1.3c0.7-0.3,1.5-0.5,2.3-0.5s1.5,0.2,2.2,0.5s1.2,0.7,1.7,1.3s0.8,1.1,1,1.8C700.5,254.7,700.5,255.4,700.4,256.2z"/>
			<path class="st2" d="M709.9,252.7l10.9-1.4l-13.1,39.1c-0.2,0.4-0.3,0.8-0.4,1.1c-0.1,0.3-0.2,0.7-0.2,1c-0.1,0.8,0,1.5,0.4,2.1
				s1.1,0.8,2.2,0.8c0.7,0,1.2,0,1.5-0.1s0.6-0.2,0.9-0.3c-0.3,1.3-0.7,2.4-1.3,3.4s-1.3,1.7-2.1,2.4c-0.8,0.6-1.7,1.1-2.6,1.4
				c-1,0.3-1.9,0.5-2.8,0.5c-1.1,0-2.1-0.2-3-0.5s-1.7-0.9-2.3-1.6s-1-1.6-1.3-2.7s-0.3-2.4-0.1-4c0.1-0.6,0.2-1.3,0.4-2.1
				c0.2-0.8,0.4-1.6,0.7-2.6L709.9,252.7z"/>
			<path class="st2" d="M750.8,289c-0.9,2-1.9,3.6-2.9,5.1c-1,1.4-2,2.6-3.1,3.6c-1,1-2.1,1.8-3.1,2.4s-2,1.1-2.9,1.4
				s-1.8,0.6-2.6,0.7s-1.6,0.2-2.2,0.2c-1.1,0-2.1-0.2-3-0.5s-1.7-0.8-2.3-1.6c-0.6-0.7-1-1.6-1.3-2.7s-0.3-2.4-0.1-3.9
				c0.1-0.7,0.2-1.4,0.4-2.2c0.2-0.8,0.4-1.6,0.7-2.6l7.8-23.2h10.4l-8.2,24.6c-0.2,0.4-0.3,0.8-0.4,1.2c-0.1,0.4-0.1,0.8-0.2,1.1
				c-0.1,1,0,1.7,0.4,2.1s1.1,0.6,2.2,0.6c0.7,0,1.4-0.2,2.1-0.5c0.7-0.3,1.4-0.8,2-1.3s1.2-1.2,1.8-2c0.5-0.8,1-1.6,1.4-2.6
				L750.8,289L750.8,289z M750.4,256.2c-0.1,0.8-0.3,1.5-0.7,2.2s-0.9,1.3-1.5,1.8s-1.3,0.9-2,1.2c-0.7,0.3-1.5,0.4-2.3,0.4
				s-1.5-0.1-2.2-0.4s-1.2-0.7-1.7-1.2s-0.8-1.1-1-1.8c-0.2-0.7-0.3-1.4-0.2-2.2c0.1-0.8,0.3-1.5,0.7-2.2s0.9-1.3,1.4-1.8
				s1.2-0.9,2-1.3c0.7-0.3,1.5-0.5,2.3-0.5s1.5,0.2,2.2,0.5s1.2,0.7,1.7,1.3s0.8,1.1,1,1.8C750.4,254.7,750.5,255.4,750.4,256.2z"/>
			<path class="st2" d="M788.8,289c-0.9,2-1.9,3.6-2.8,5.1c-1,1.4-2,2.6-2.9,3.5c-1,1-1.9,1.7-2.9,2.3c-1,0.6-1.9,1-2.8,1.3
				c-0.9,0.3-1.7,0.5-2.5,0.6s-1.5,0.1-2.1,0.1c-2,0-3.5-0.5-4.6-1.6c-1.1-1-1.7-2.6-1.7-4.6c-0.6,0.8-1.4,1.6-2.2,2.4
				s-1.7,1.5-2.6,2.1c-1,0.6-2,1.1-3.1,1.5s-2.3,0.6-3.6,0.6c-1.2,0-2.4-0.2-3.5-0.6s-2-1.1-2.8-2s-1.4-2.1-1.7-3.6
				c-0.4-1.5-0.4-3.3-0.1-5.4c0.2-1.6,0.6-3.4,1.1-5.3s1.3-3.8,2.2-5.7c0.9-1.9,2-3.7,3.2-5.4c1.2-1.7,2.6-3.3,4.2-4.6
				c1.5-1.3,3.2-2.4,5.1-3.2c1.8-0.8,3.8-1.2,5.9-1.2c2,0,3.5,0.4,4.3,1.1s1.2,1.6,1.1,2.6v0.3l5.6-16.6l10.9-1.4l-13.1,39.1
				c-0.2,0.4-0.3,0.8-0.4,1.2c-0.1,0.4-0.2,0.8-0.2,1.1c-0.1,1,0,1.7,0.5,2.1c0.4,0.4,1.2,0.6,2.2,0.6c0.7,0,1.4-0.2,2-0.5
				s1.2-0.8,1.8-1.3c0.6-0.6,1.1-1.2,1.5-2c0.5-0.8,0.9-1.6,1.3-2.6H788.8z M767.1,289l5.6-16.6c0-0.2-0.1-0.5-0.1-0.7
				c-0.1-0.3-0.2-0.6-0.4-0.8c-0.2-0.3-0.4-0.5-0.8-0.7c-0.3-0.2-0.8-0.3-1.4-0.3c-1,0-2,0.3-3,1s-1.9,1.5-2.8,2.6
				c-0.9,1.1-1.7,2.3-2.5,3.7c-0.8,1.4-1.4,2.8-2,4.3s-1.1,2.9-1.5,4.3s-0.6,2.7-0.8,3.8c-0.2,1.4-0.2,2.5,0,3.2s0.4,1.3,0.7,1.7
				s0.7,0.6,1.1,0.7c0.4,0.1,0.8,0.1,1.1,0.1c0.5,0,1.1-0.1,1.7-0.4c0.6-0.2,1.3-0.6,1.9-1.1s1.2-1.1,1.7-1.9c0.6-0.8,1-1.6,1.4-2.6
				L767.1,289z"/>
			<path class="st2" d="M828.2,274.5c-1.6,1.5-3.6,2.7-5.9,3.8c-2.4,1-4.9,1.8-7.6,2.2c-0.7,3.3-1.7,6.4-3,9c-1.3,2.7-2.9,5-4.6,6.9
				c-1.8,1.9-3.7,3.3-5.8,4.3s-4.3,1.5-6.5,1.5c-1.7,0-3.2-0.2-4.6-0.6c-1.4-0.4-2.5-1.1-3.4-2s-1.6-2.1-2-3.5s-0.5-3.2-0.2-5.3
				c0.2-1.4,0.5-3,1-4.8s1.2-3.7,2.1-5.6c0.9-1.9,1.9-3.8,3.2-5.6c1.2-1.8,2.7-3.5,4.3-4.9s3.5-2.6,5.5-3.5s4.3-1.3,6.8-1.3
				c6.2,0,8.8,3.8,7.9,11.5v0.1c0.1,0,0.2,0.1,0.3,0.1s0.3,0,0.4,0c0.8,0,1.8-0.1,2.8-0.4c1-0.2,2-0.6,3.1-1c1-0.4,2.1-0.9,3.1-1.4
				s1.9-1.1,2.8-1.6L828.2,274.5z M808.6,280.7c-0.7-0.2-1.2-0.6-1.4-1.1c-0.2-0.6-0.3-1.2-0.2-1.9c0.1-1,0.4-1.8,0.9-2.5
				c0.5-0.6,1.1-1.1,1.8-1.4c0-0.8,0-1.4,0-2s-0.2-1-0.3-1.3c-0.2-0.3-0.4-0.6-0.7-0.7s-0.7-0.2-1.2-0.2c-0.9,0-1.7,0.3-2.6,1
				c-0.9,0.7-1.8,1.6-2.6,2.7c-0.9,1.1-1.7,2.4-2.4,3.8c-0.8,1.4-1.5,2.9-2.1,4.4s-1.1,3-1.5,4.5s-0.7,2.8-0.8,4s-0.2,2.2-0.2,2.9
				c0,0.8,0.2,1.3,0.4,1.8c0.2,0.4,0.6,0.7,1,0.9c0.5,0.2,1,0.2,1.7,0.2c0.9,0,1.8-0.4,2.8-1.2c1-0.8,1.9-1.8,2.8-3.2
				c0.9-1.3,1.8-2.9,2.6-4.8C807.4,284.8,808.1,282.9,808.6,280.7z"/>
			<path class="st2" d="M839.9,289c-0.9,2-1.9,3.6-2.9,5.1c-1,1.4-2,2.6-3.1,3.6c-1,1-2.1,1.8-3.1,2.4s-2,1.1-2.9,1.4
				s-1.8,0.6-2.6,0.7s-1.6,0.2-2.2,0.2c-1.1,0-2.1-0.2-3-0.5s-1.7-0.8-2.3-1.6c-0.6-0.7-1-1.6-1.3-2.7s-0.3-2.4-0.1-3.9
				c0.1-0.7,0.2-1.4,0.4-2.2c0.2-0.8,0.4-1.6,0.7-2.6l12.2-36.2l10.9-1.4l-13.1,39.1c-0.2,0.4-0.3,0.8-0.4,1.2
				c-0.1,0.4-0.1,0.8-0.2,1.1c-0.1,1,0,1.7,0.4,2.1s1.1,0.6,2.2,0.6c0.7,0,1.4-0.2,2.1-0.5c0.7-0.3,1.4-0.8,2-1.3
				c0.6-0.6,1.2-1.2,1.8-2c0.5-0.8,1-1.6,1.4-2.6L839.9,289L839.9,289z"/>
			<path class="st2" d="M861.1,263.6c-0.2,3.1-0.4,5.8-0.6,8.1c-0.2,2.3-0.3,4.3-0.4,6c-0.1,1.7-0.2,3.1-0.2,4.3
				c-0.1,1.2-0.1,2.2-0.1,3.1s-0.1,1.7-0.1,2.5c-0.1,0.7-0.1,1.5-0.2,2.3c-0.2,1.6-0.6,3-1.2,4.2c-0.6,1.2-1.3,2.3-2.2,3.2
				c-0.9,0.9-1.8,1.7-2.9,2.3s-2.1,1.2-3.3,1.6c-1.1,0.4-2.2,0.7-3.4,0.9c-1.1,0.2-2.2,0.3-3.2,0.3c-1.8,0-3.4-0.3-4.6-0.8
				c-1.3-0.6-2.3-1.3-3-2.2c-0.8-0.9-1.3-1.9-1.6-3s-0.3-2.2-0.2-3.3c0.1-0.8,0.3-1.6,0.6-2.3c0.3-0.7,0.7-1.4,1.1-1.9
				c0.4-0.6,0.9-1.1,1.4-1.5s1-0.7,1.5-1c2.5-3.6,4.6-7.2,6.4-10.8c1.8-3.5,3.5-7.1,5.1-10.7L861.1,263.6z M838,291.7
				c-0.2,1.7,0,3,0.5,3.8c0.6,0.8,1.7,1.3,3.3,1.3c0.8,0,1.6-0.1,2.4-0.3c0.8-0.2,1.5-0.6,2.2-1.1s1.2-1.2,1.7-2.1s0.8-1.9,0.9-3.2
				c0.1-0.6,0.1-1.2,0.2-1.8c0-0.6,0.1-1.2,0.1-1.8c0-0.6,0.1-1.4,0.1-2.2c0-0.8,0-1.7,0.1-2.8c0-1.1,0.1-2.3,0.1-3.7s0.1-3,0.2-4.9
				c-1,2.4-2.2,4.6-3.4,6.9c-1.3,2.2-2.6,4.5-4.1,6.8c0.4,0.3,0.8,0.6,1.1,1s0.4,0.9,0.3,1.5c-0.1,0.4-0.2,0.9-0.4,1.3
				s-0.5,0.8-0.8,1.1c-0.3,0.3-0.7,0.6-1.1,0.8c-0.4,0.2-0.9,0.3-1.4,0.3c-0.4,0-0.8-0.1-1.1-0.2C838.4,292.3,838.2,292.1,838,291.7
				z"/>
		</g>
		<g class="st1">
			<path class="st2" d="M409.3,339.7l10.9-1.4l-5.5,16.3c0.8-0.4,1.5-0.8,2.1-1.1c0.6-0.3,1.2-0.5,1.6-0.6c0.5-0.1,0.9-0.2,1.3-0.3
				c0.4,0,0.8-0.1,1.1-0.1c1.3,0,2.4,0.2,3.4,0.6s1.8,1.1,2.4,2.1s1.1,2.3,1.3,3.8c0.2,1.6,0.2,3.5-0.1,5.8c-0.2,1.4-0.5,3-1,4.7
				c-0.5,1.8-1.1,3.5-2,5.4s-1.9,3.6-3.1,5.3c-1.2,1.7-2.6,3.3-4.3,4.6c-1.6,1.3-3.5,2.4-5.6,3.2c-2.1,0.8-4.4,1.2-7,1.2
				c-3.3,0-5.8-0.8-7.3-2.4s-2.1-3.9-1.7-6.8c0.1-0.7,0.2-1.4,0.4-2.1c0.2-0.7,0.4-1.4,0.6-2.1L409.3,339.7z M407,377.3
				c-0.2,0.6-0.4,1.2-0.4,1.7c-0.3,2.2,0.9,3.4,3.4,3.4c0.8,0,1.6-0.3,2.4-0.8s1.6-1.2,2.3-2.1c0.7-0.9,1.4-1.9,2.1-3.1
				s1.3-2.4,1.8-3.7s1-2.6,1.3-4c0.4-1.4,0.6-2.7,0.8-4c0.1-0.9,0.1-1.7,0.1-2.6c-0.1-0.8-0.2-1.6-0.4-2.2c-0.2-0.7-0.6-1.2-1-1.6
				s-1-0.6-1.6-0.6c-0.3,0-0.6,0-1,0.1c-0.4,0-0.8,0.1-1.3,0.2c-0.4,0.1-0.8,0.2-1.2,0.4c-0.4,0.2-0.7,0.4-0.9,0.6L407,377.3z"/>
			<path class="st2" d="M459.5,375.9c-1.2,1.7-2.6,3.3-4.1,4.9s-3.2,3-4.9,4.3c-1.8,1.2-3.7,2.3-5.8,3c-2.1,0.8-4.3,1.1-6.7,1.1
				c-1.7,0-3.2-0.2-4.6-0.7c-1.3-0.4-2.4-1.1-3.3-2s-1.5-2.1-1.8-3.5c-0.4-1.4-0.4-3.2-0.1-5.2c0.2-1.4,0.5-3,1-4.8s1.2-3.7,2-5.6
				s1.9-3.8,3.1-5.6s2.7-3.5,4.3-4.9c1.6-1.4,3.4-2.6,5.5-3.5c2-0.9,4.3-1.3,6.8-1.3c1.6,0,2.9,0.2,3.9,0.6s1.7,0.9,2.2,1.5
				s0.8,1.4,1,2.2c0.1,0.8,0.1,1.7,0,2.6c-0.3,2.1-1,4-2.1,5.8s-2.6,3.4-4.3,4.7c-1.7,1.3-3.6,2.4-5.7,3.2c-2.1,0.8-4.2,1.3-6.4,1.4
				c-0.1,0.5-0.2,1.1-0.3,1.5c-0.1,0.5-0.2,0.9-0.2,1.4c-0.2,1.2-0.2,2.2,0,3c0.1,0.8,0.4,1.4,0.8,1.9c0.4,0.4,0.9,0.8,1.5,0.9
				c0.6,0.2,1.4,0.3,2.2,0.3c1.4,0,2.8-0.2,4-0.6s2.4-0.9,3.5-1.6s2.1-1.4,3.2-2.3c1-0.9,2-1.8,3.1-2.9h2.2V375.9z M440.4,370.8
				c1.4-0.1,2.7-0.5,4.1-1.2s2.6-1.6,3.7-2.7s2-2.3,2.8-3.7c0.7-1.4,1.2-2.9,1.4-4.4c0.1-0.9,0.1-1.6-0.1-2.2
				c-0.2-0.5-0.6-0.8-1.3-0.8c-0.9,0-1.9,0.4-2.9,1.3s-2,2-2.9,3.4c-1,1.4-1.8,3-2.7,4.8C441.6,367.2,440.9,369,440.4,370.8z"/>
			<path class="st2" d="M487.2,375.9c-1.2,1.7-2.6,3.3-4.1,4.9s-3.2,3-4.9,4.3c-1.8,1.2-3.7,2.3-5.8,3c-2.1,0.8-4.3,1.1-6.7,1.1
				c-1.7,0-3.2-0.2-4.6-0.7c-1.3-0.4-2.4-1.1-3.3-2s-1.5-2.1-1.8-3.5c-0.4-1.4-0.4-3.2-0.1-5.2c0.2-1.4,0.5-3,1-4.8s1.2-3.7,2-5.6
				c0.9-1.9,1.9-3.8,3.1-5.6c1.2-1.8,2.7-3.5,4.3-4.9c1.6-1.4,3.4-2.6,5.5-3.5c2-0.9,4.2-1.3,6.7-1.3c1.6,0,2.9,0.2,3.9,0.6
				s1.8,0.9,2.3,1.5s0.9,1.3,1,2.1s0.2,1.6,0.1,2.4c-0.1,0.9-0.3,1.7-0.6,2.3c-0.3,0.6-0.6,1.2-1,1.6s-0.9,0.8-1.4,1s-1,0.3-1.5,0.3
				c-0.8,0-1.6-0.3-2.4-0.8c0.8-1.6,1.2-3,1.4-4.3c0.1-0.9,0-1.6-0.2-2.2s-0.7-0.8-1.4-0.8c-0.8,0-1.5,0.3-2.4,1
				c-0.8,0.7-1.7,1.6-2.5,2.7s-1.6,2.4-2.4,3.9s-1.5,3-2.1,4.6s-1.2,3.1-1.6,4.7s-0.7,3-0.9,4.4c-0.2,1.2-0.2,2.2,0,3
				c0.1,0.8,0.4,1.4,0.8,1.9c0.4,0.4,0.9,0.8,1.5,0.9c0.6,0.2,1.4,0.3,2.2,0.3c1.4,0,2.8-0.2,4-0.6s2.4-0.9,3.5-1.6s2.1-1.4,3.2-2.3
				c1-0.9,2-1.8,3.1-2.9h2.1V375.9z"/>
			<path class="st2" d="M527.2,361.4c-1.6,1.5-3.6,2.7-5.9,3.8c-2.4,1-4.9,1.8-7.6,2.2c-0.7,3.3-1.7,6.4-3,9c-1.3,2.7-2.9,5-4.6,6.9
				c-1.8,1.9-3.7,3.3-5.8,4.3c-2.1,1-4.3,1.5-6.5,1.5c-1.7,0-3.2-0.2-4.6-0.6s-2.5-1.1-3.4-2s-1.6-2.1-2-3.5s-0.5-3.2-0.2-5.3
				c0.2-1.4,0.5-3,1-4.8s1.2-3.7,2.1-5.6s1.9-3.8,3.2-5.6c1.2-1.8,2.7-3.5,4.3-4.9s3.5-2.6,5.5-3.5s4.3-1.3,6.8-1.3
				c6.2,0,8.8,3.9,7.9,11.5v0.1c0.1,0,0.2,0.1,0.3,0.1s0.3,0,0.4,0c0.8,0,1.8-0.1,2.8-0.4c1-0.2,2-0.6,3.1-1c1-0.4,2.1-0.9,3.1-1.4
				s1.9-1.1,2.8-1.6L527.2,361.4z M507.6,367.6c-0.7-0.2-1.2-0.6-1.4-1.1c-0.2-0.6-0.3-1.2-0.2-1.9c0.1-1,0.4-1.8,0.9-2.5
				c0.5-0.6,1.1-1.1,1.8-1.4c0-0.8,0-1.4,0-2c-0.1-0.5-0.2-1-0.3-1.3c-0.2-0.3-0.4-0.6-0.7-0.7c-0.3-0.1-0.7-0.2-1.2-0.2
				c-0.9,0-1.7,0.3-2.6,1s-1.8,1.6-2.6,2.7c-0.9,1.1-1.7,2.4-2.4,3.8c-0.8,1.4-1.5,2.9-2.1,4.4s-1.1,3-1.5,4.5s-0.7,2.8-0.8,4
				c-0.1,1.2-0.2,2.2-0.2,2.9c0,0.8,0.2,1.3,0.4,1.8c0.2,0.4,0.6,0.7,1,0.9c0.5,0.2,1,0.2,1.7,0.2c0.9,0,1.8-0.4,2.8-1.2
				c1-0.8,1.9-1.8,2.8-3.2c0.9-1.3,1.8-2.9,2.6-4.8C506.4,371.7,507.1,369.7,507.6,367.6z"/>
			<path class="st2" d="M573.9,375.9c-1.4,3-2.8,5.3-4.1,7.1c-1.4,1.8-2.7,3.1-4,4s-2.5,1.5-3.7,1.8s-2.2,0.4-3.2,0.4
				c-1.6,0-2.9-0.2-3.9-0.7s-1.8-1.1-2.4-1.8c-0.6-0.8-0.9-1.6-1.1-2.6c-0.2-1-0.2-2-0.1-3c0.2-1.2,0.5-2.7,1-4.3
				c0.5-1.6,1.1-3.3,1.7-5c0.6-1.7,1.2-3.4,1.7-5s0.9-3,1-4.1c0.3-2.5-0.4-3.7-2.2-3.7c-0.7,0-1.3,0.2-1.9,0.5
				c-0.6,0.4-1.2,0.8-1.7,1.4s-1.1,1.3-1.5,2.1c-0.5,0.8-0.9,1.7-1.3,2.6l-7.8,23.2H530l8.4-25c0.2-0.6,0.4-1.2,0.4-1.8
				c0.1-0.4,0.1-0.8,0-1.2c0-0.4-0.1-0.7-0.2-1c-0.1-0.3-0.3-0.5-0.6-0.7c-0.2-0.2-0.6-0.3-1-0.3c-0.7,0-1.4,0.2-2,0.5
				c-0.6,0.4-1.2,0.8-1.8,1.4s-1.1,1.3-1.6,2.2c-0.5,0.8-0.9,1.7-1.3,2.6l-7.8,23.2h-10.4l12.1-36.2h10.4l-1.2,3.7
				c0.9-0.9,1.7-1.6,2.6-2.1c0.8-0.5,1.7-0.9,2.4-1.2c0.8-0.3,1.5-0.5,2.3-0.6c0.7-0.1,1.4-0.2,2-0.2c0.9,0,1.8,0.1,2.6,0.3
				c0.8,0.2,1.5,0.6,2.1,1.1s1,1.1,1.4,1.9c0.3,0.8,0.5,1.7,0.6,2.9c1-1.3,2.1-2.4,3.1-3.2c1-0.8,2-1.4,2.9-1.9
				c0.9-0.4,1.8-0.7,2.6-0.8c0.8-0.1,1.6-0.2,2.2-0.2c1.2,0,2.2,0.2,3.1,0.5c0.9,0.3,1.7,0.8,2.4,1.4c0.6,0.7,1.1,1.5,1.4,2.5
				s0.3,2.3,0.1,3.7c-0.1,1-0.3,2-0.6,3.1s-0.7,2.3-1.1,3.4c-0.4,1.2-0.8,2.3-1.3,3.5c-0.4,1.2-0.9,2.3-1.2,3.3
				c-0.4,1.1-0.7,2-1,2.9s-0.5,1.7-0.6,2.4c-0.1,0.9,0,1.6,0.3,2.2s1.1,0.8,2.2,0.8c0.8,0,1.5-0.2,2.1-0.5s1.2-0.7,1.8-1.3
				s1.1-1.2,1.5-2c0.5-0.8,1-1.7,1.5-2.6h3.1V375.9z"/>
			<path class="st2" d="M593.3,378.6c-0.6,2.1-1.4,3.8-2.4,5.2c-1,1.4-2.1,2.5-3.3,3.3s-2.5,1.4-3.9,1.7s-2.8,0.5-4.3,0.5
				c-1.7,0-3.2-0.2-4.5-0.7c-1.3-0.4-2.4-1.1-3.3-2c-0.9-0.9-1.5-2.1-1.8-3.5s-0.4-3.2-0.2-5.2c0.2-1.4,0.5-3,1-4.8s1.2-3.7,2-5.6
				s1.9-3.8,3.1-5.6c1.2-1.8,2.7-3.5,4.3-4.9s3.4-2.6,5.5-3.5c2-0.9,4.3-1.3,6.8-1.3c1.6,0,2.9,0.2,3.9,0.6s1.7,0.9,2.2,1.5
				s0.8,1.4,1,2.2c0.1,0.8,0.1,1.7,0,2.6c-0.3,2.1-1,4-2.1,5.8s-2.6,3.4-4.3,4.7c-1.7,1.3-3.6,2.4-5.7,3.2c-2.1,0.8-4.2,1.3-6.4,1.4
				c-0.1,0.4-0.2,0.8-0.3,1.1c-0.1,0.4-0.1,0.7-0.2,1c-0.1,1.2-0.1,2.1,0,2.9s0.4,1.4,0.7,1.9s0.8,0.8,1.3,1s1.1,0.3,1.7,0.3
				c0.7,0,1.5-0.1,2.2-0.3c0.8-0.2,1.6-0.5,2.4-0.8c0.8-0.4,1.6-0.8,2.3-1.2C592,379.6,592.7,379.1,593.3,378.6z M581.9,370.8
				c1.4,0,2.8-0.4,4.1-1.1c1.4-0.7,2.6-1.6,3.7-2.7c1.1-1.1,2-2.3,2.8-3.8c0.8-1.4,1.2-2.9,1.4-4.4c0.1-0.9,0.1-1.6-0.1-2.2
				s-0.6-0.8-1.3-0.8c-0.9,0-1.9,0.5-2.9,1.4s-2,2.1-2.9,3.5s-1.8,3-2.7,4.8C583.2,367.3,582.5,369,581.9,370.8z"/>
			<path class="st2" d="M608.7,388.9l12.1-36.2h10.4l-1.5,4.5c0.7-0.6,1.4-1.1,2.1-1.7c0.7-0.5,1.5-1,2.2-1.4c0.8-0.4,1.6-0.7,2.4-1
				c0.8-0.3,1.6-0.4,2.5-0.4c0.8,0,1.5,0.2,2.1,0.5s1.1,0.7,1.4,1.2c0.4,0.5,0.6,1.1,0.7,1.7c0.1,0.7,0.2,1.3,0.1,2
				c-0.1,0.6-0.3,1.3-0.6,1.9s-0.7,1.2-1.2,1.7s-1.1,0.9-1.8,1.2s-1.5,0.5-2.4,0.5c-0.7,0-1.2-0.1-1.5-0.4c-0.3-0.2-0.6-0.5-0.7-0.9
				c-0.1-0.4-0.2-0.7-0.3-1.1c0-0.4-0.1-0.8-0.1-1.1s-0.1-0.6-0.3-0.9c-0.1-0.2-0.4-0.4-0.7-0.4c-1.1,0-2.1,0.3-2.9,0.8
				c-0.8,0.5-1.7,1.2-2.7,2l-9.2,27.5L608.7,388.9L608.7,388.9z"/>
			<path class="st2" d="M662.6,375.9c-0.9,2-1.9,3.6-2.9,5.1c-1,1.4-2,2.6-3.1,3.6c-1,1-2.1,1.8-3.1,2.4s-2,1.1-2.9,1.4
				s-1.8,0.6-2.6,0.7s-1.6,0.2-2.2,0.2c-1.1,0-2.1-0.2-3-0.5s-1.7-0.8-2.3-1.6c-0.6-0.7-1-1.6-1.3-2.7s-0.3-2.4-0.1-3.9
				c0.1-0.7,0.2-1.4,0.4-2.2c0.2-0.8,0.4-1.6,0.7-2.6l7.8-23.2h10.4l-8.2,24.6c-0.2,0.4-0.3,0.8-0.4,1.2c-0.1,0.4-0.1,0.8-0.2,1.1
				c-0.1,1,0,1.7,0.4,2.1s1.1,0.6,2.2,0.6c0.7,0,1.4-0.2,2.1-0.5c0.7-0.3,1.4-0.8,2-1.3c0.6-0.6,1.2-1.2,1.8-2
				c0.5-0.8,1-1.6,1.4-2.6L662.6,375.9L662.6,375.9z M662.2,343.1c-0.1,0.8-0.3,1.5-0.7,2.2s-0.9,1.3-1.5,1.8s-1.3,0.9-2,1.2
				c-0.7,0.3-1.5,0.4-2.3,0.4s-1.5-0.1-2.2-0.4s-1.2-0.7-1.7-1.2s-0.8-1.1-1-1.8c-0.2-0.7-0.3-1.4-0.2-2.2c0.1-0.8,0.3-1.5,0.7-2.2
				s0.9-1.3,1.4-1.8c0.6-0.5,1.2-0.9,2-1.3c0.7-0.3,1.5-0.5,2.3-0.5s1.5,0.2,2.2,0.5s1.2,0.7,1.7,1.3c0.5,0.5,0.8,1.1,1,1.8
				C662.2,341.5,662.3,342.3,662.2,343.1z"/>
			<path class="st2" d="M667.3,352.7h10.4l-8.2,24.6c-0.2,0.5-0.3,1-0.5,1.5c-0.1,0.4-0.2,0.8-0.2,1.1c-0.1,0.7,0,1.3,0.4,1.7
				c0.3,0.4,0.9,0.7,1.8,0.7c1.2,0,2.4-0.4,3.5-1.2c1.2-0.8,2.3-1.9,3.4-3.3c1.1-1.4,2.1-2.9,3.1-4.6s1.8-3.5,2.6-5.3
				c0.7-1.8,1.4-3.5,1.9-5.2s0.8-3.2,1-4.5c-0.1,0.1-0.2,0.2-0.4,0.3c-0.2,0.1-0.4,0.2-0.7,0.2c-0.2,0.1-0.5,0.1-0.7,0.1
				s-0.4,0-0.6,0c-0.4,0-0.8-0.1-1.1-0.3c-0.3-0.2-0.5-0.5-0.7-0.9s-0.3-0.7-0.3-1.2c-0.1-0.4-0.1-0.9,0-1.3
				c0.1-1.1,0.6-2.1,1.4-2.8c0.8-0.7,2-1.1,3.5-1.1c0.9,0,1.6,0.2,2.1,0.5c0.5,0.4,0.9,0.8,1.2,1.4s0.5,1.3,0.5,2
				c0.1,0.8,0,1.5-0.1,2.3c-0.2,1.9-0.7,4.1-1.3,6.4s-1.4,4.7-2.4,7c-1,2.4-2.2,4.6-3.6,6.8c-1.4,2.2-2.9,4.2-4.7,5.9
				c-1.7,1.7-3.7,3.1-5.8,4.1s-4.4,1.6-6.8,1.6c-2.7,0-4.8-0.7-6.2-2.1s-2-3.5-1.6-6.4c0-0.4,0.1-0.9,0.3-1.5c0.1-0.6,0.3-1.3,0.5-2
				L667.3,352.7z"/>
			<path class="st2" d="M730.6,375.9c-0.9,2-1.9,3.6-2.8,5.1c-1,1.4-2,2.6-2.9,3.6c-1,1-2,1.8-2.9,2.4c-1,0.6-1.9,1.1-2.8,1.4
				c-0.9,0.3-1.7,0.6-2.5,0.7s-1.5,0.2-2.1,0.2c-2,0-3.6-0.6-4.7-1.7c-1.1-1.1-1.6-2.8-1.6-5c-0.7,0.8-1.4,1.6-2.2,2.4
				s-1.7,1.5-2.6,2.1c-0.9,0.6-2,1.1-3.1,1.5s-2.3,0.6-3.6,0.6c-1.2,0-2.4-0.2-3.5-0.6s-2-1.1-2.8-2s-1.4-2.1-1.7-3.6
				c-0.4-1.5-0.4-3.3-0.1-5.4c0.2-1.6,0.6-3.4,1.1-5.3s1.3-3.8,2.2-5.7c0.9-1.9,2-3.7,3.2-5.4c1.2-1.7,2.6-3.3,4.2-4.6
				c1.5-1.3,3.2-2.4,5.1-3.2c1.8-0.8,3.8-1.2,5.9-1.2c2,0,3.5,0.4,4.3,1.1s1.2,1.6,1.1,2.6l-0.1,0.5l1.3-3.9h10.4l-8.2,24.6
				c-0.2,0.4-0.3,0.8-0.4,1.2s-0.2,0.8-0.2,1.1c-0.3,2.1,0.6,3.1,2.6,3.1c0.7,0,1.4-0.2,2-0.5c0.6-0.4,1.3-0.9,1.8-1.5
				c0.6-0.6,1.1-1.3,1.6-2.2c0.5-0.8,0.9-1.7,1.3-2.6h2.7V375.9z M714.4,359.6c0-0.2,0-0.5,0-0.8c-0.1-0.3-0.2-0.6-0.4-0.9
				s-0.5-0.5-0.8-0.7c-0.4-0.2-0.8-0.3-1.4-0.3c-1,0-2,0.3-3,1s-1.9,1.5-2.8,2.6c-0.9,1.1-1.7,2.3-2.5,3.7c-0.8,1.4-1.4,2.8-2,4.3
				s-1.1,2.9-1.5,4.3s-0.6,2.7-0.8,3.8c-0.2,1.4-0.2,2.5,0,3.2c0.2,0.8,0.4,1.3,0.7,1.7c0.3,0.4,0.7,0.6,1.1,0.7
				c0.4,0.1,0.8,0.1,1.1,0.1c0.5,0,1.1-0.1,1.8-0.4s1.3-0.7,1.9-1.2c0.6-0.5,1.2-1.2,1.8-2s1-1.7,1.4-2.8L714.4,359.6z"/>
			<path class="st2" d="M749.9,375.9c-0.9,2-1.9,3.6-2.9,5.1c-1,1.4-2,2.6-3.1,3.6c-1,1-2.1,1.8-3.1,2.4s-2,1.1-2.9,1.4
				s-1.8,0.6-2.6,0.7s-1.6,0.2-2.2,0.2c-1.1,0-2.1-0.2-3-0.5s-1.7-0.8-2.3-1.6c-0.6-0.7-1-1.6-1.3-2.7s-0.3-2.4-0.1-3.9
				c0.1-0.7,0.2-1.4,0.4-2.2c0.2-0.8,0.4-1.6,0.7-2.6l12.2-36.2l10.9-1.4l-13.1,39.1c-0.2,0.4-0.3,0.8-0.4,1.2
				c-0.1,0.4-0.1,0.8-0.2,1.1c-0.1,1,0,1.7,0.4,2.1s1.1,0.6,2.2,0.6c0.7,0,1.4-0.2,2.1-0.5c0.7-0.3,1.4-0.8,2-1.3
				c0.6-0.6,1.2-1.2,1.8-2c0.5-0.8,1-1.6,1.4-2.6L749.9,375.9L749.9,375.9z"/>
			<path class="st2" d="M771.1,350.5c-0.2,3.1-0.4,5.8-0.6,8.1c-0.2,2.3-0.3,4.3-0.4,6c-0.1,1.7-0.2,3.1-0.2,4.3
				c-0.1,1.2-0.1,2.2-0.1,3.1s-0.1,1.7-0.1,2.5c-0.1,0.7-0.1,1.5-0.2,2.3c-0.2,1.6-0.6,3-1.2,4.2c-0.6,1.2-1.3,2.3-2.2,3.2
				c-0.9,0.9-1.8,1.7-2.9,2.3s-2.1,1.2-3.3,1.6c-1.1,0.4-2.2,0.7-3.4,0.9c-1.1,0.2-2.2,0.3-3.2,0.3c-1.8,0-3.4-0.3-4.6-0.8
				c-1.3-0.6-2.3-1.3-3-2.2c-0.8-0.9-1.3-1.9-1.6-3s-0.3-2.2-0.2-3.3c0.1-0.8,0.3-1.6,0.6-2.3c0.3-0.7,0.7-1.4,1.1-1.9
				c0.4-0.6,0.9-1.1,1.4-1.5s1-0.7,1.5-1c2.5-3.6,4.6-7.2,6.4-10.8c1.8-3.5,3.5-7.1,5.1-10.7L771.1,350.5z M748.1,378.5
				c-0.2,1.7,0,3,0.5,3.8c0.6,0.8,1.7,1.3,3.3,1.3c0.8,0,1.6-0.1,2.4-0.3c0.8-0.2,1.5-0.6,2.2-1.1s1.2-1.2,1.7-2.1
				c0.5-0.8,0.8-1.9,0.9-3.2c0.1-0.6,0.1-1.2,0.2-1.8c0-0.6,0.1-1.2,0.1-1.8c0-0.6,0.1-1.4,0.1-2.2c0-0.8,0-1.7,0.1-2.8
				c0-1.1,0.1-2.3,0.1-3.7c0.1-1.4,0.1-3,0.2-4.9c-1,2.4-2.2,4.6-3.4,6.9c-1.3,2.2-2.6,4.5-4.1,6.8c0.4,0.3,0.8,0.6,1.1,1
				s0.4,0.9,0.3,1.5c-0.1,0.4-0.2,0.9-0.4,1.3s-0.5,0.8-0.8,1.1c-0.3,0.3-0.7,0.6-1.1,0.8c-0.4,0.2-0.9,0.3-1.4,0.3
				c-0.4,0-0.8-0.1-1.1-0.2C748.5,379.2,748.2,378.9,748.1,378.5z"/>
		</g>
	</g>
	<path class="st3" d="M413.8,239.8c27.4,16,79.5,62.5,54,97.3c-25.5,34.7-6.2,70.1,0.8,81.5s36,18.5,36,18.5"/>
	
		<rect x="416.1" y="236.7" transform="matrix(0.5405 -0.8414 0.8414 0.5405 -11.9139 463.9399)" class="st4" width="5.3" height="12.4"/>
	
		<rect x="401.7" y="225.8" transform="matrix(0.5405 -0.8414 0.8414 0.5405 -10.8539 449.6977)" class="st5" width="9.2" height="17.9"/>
	<path class="st3" d="M455.1,369.9c1.9,21.9,63.7,3.5,73.1,26.8"/>
	<path class="st6" d="M456.5,370.2l-3.1,0.6c0.4,1.4-1.1,3.1-0.7,5l0.7-0.1l5.3-1l0.7-0.1C459,372.6,456.7,371.6,456.5,370.2z"/>
	<g id="macbook">
		<g>
			<g>
				<g>
					<g>
						<defs>
							<rect id="SVGID_1_" x="90" y="91" width="792" height="612"/>
						</defs>
						<clipPath id="SVGID_2_">
							<use xlink:href="#SVGID_1_"  style="overflow:visible;"/>
						</clipPath>
						<g class="st7">
							<path class="st8" d="M251.5,431.5L-88.7,229.8c-11.6-6.9-15.4-21.8-8.5-33.4L31.5-20.8c6.9-11.6,21.8-15.4,33.4-8.5
								l340.2,201.7c11.6,6.9,15.4,21.8,8.5,33.4L284.9,423C278.1,434.5,263.1,438.4,251.5,431.5z"/>
							<g>
								<path class="st4" d="M157.3,177.3c-4.2-2.4-19.4-5.9-28.6,11.2c-9.2,17.1-7,37-1,40.6c6.1,3.6,8.1,0.8,12.1,3.2
									s6.9,8.1,11.1,10.5c4.1,2.4,16.6-1.8,25.2-9.6c-2.9-4.7-5-12.1-1.4-18.1s6.7-8.7,15.6-9.8c0.1-5.3-5.1-12.5-8.4-14.4
									c-5.6-3.3-12.3-2.9-14.4-4.1C164.3,185.1,162,180,157.3,177.3z"/>
								<path class="st4" d="M169,182.7c0,0,4.6,4.4,13.6,0.8c7.9-3.1,9.1-8.6,9.1-8.6s-7.3-3.3-14.4-0.3
									C171.6,177,169,182.7,169,182.7z"/>
							</g>
						</g>
					</g>
				</g>
			</g>
		</g>
	</g>
	<g id="pencil">
		<g>
			
				<rect x="682.6" y="63.6" transform="matrix(-0.258 0.9661 -0.9661 -0.258 1044.6362 -444.9279)" class="st9" width="21.2" height="230.2"/>
			
				<rect x="689.7" y="63.6" transform="matrix(-0.258 0.9661 -0.9661 -0.258 1044.7046 -444.9755)" class="st10" width="7.1" height="230.2"/>
			<polyline class="st11" points="801.6,218.7 807.1,198.2 824.8,213.9 			"/>
			<polygon class="st12" points="819.5,209.8 817.9,210.8 818.8,212.4 817.2,213.3 818.1,214.9 817.1,215.5 824.8,213.9 
				818.9,208.8 			"/>
			
				<rect x="565.8" y="142" transform="matrix(-0.258 0.9661 -0.9661 -0.258 867.7477 -371.1936)" class="st13" width="21.2" height="11.3"/>
			<path class="st14" d="M574.1,136l-7.5-2c-1.9-0.5-3.8,0.6-4.3,2.5l-3.7,13.7c-0.5,1.9,0.6,3.8,2.5,4.3l7.5,2L574.1,136z"/>
		</g>
	</g>
	<g id="iphone">
		<g>
			<path class="st15" d="M193.4,655l-29.3-70c-5.8-13.8,0.7-29.6,14.5-35.3L332,485.5c13.8-5.8,29.6,0.7,35.3,14.5l29.3,70
				c5.8,13.8-0.7,29.6-14.5,35.3l-153.4,64.2C215,675.2,199.2,668.7,193.4,655z"/>
			
				<rect x="230.8" y="494.8" transform="matrix(-0.386 -0.9225 0.9225 -0.386 -138.9037 1060.1815)" class="st16" width="105.1" height="163.1"/>
			<g>
				<path class="st16" d="M373.8,557.4l-9.9-23.7c-0.6-1.4,0.1-3,1.4-3.5l0,0c1.4-0.6,3,0.1,3.5,1.4l9.9,23.7c0.6,1.4-0.1,3-1.4,3.5
					l0,0C375.9,559.5,374.4,558.8,373.8,557.4z"/>
				<path class="st16" d="M360.2,525L360.2,525c-0.6-1.4,0.1-3,1.4-3.5l0,0c1.4-0.6,3,0.1,3.5,1.4l0,0c0.6,1.4-0.1,3-1.4,3.5l0,0
					C362.4,527,360.8,526.4,360.2,525z"/>
			</g>
			<circle class="st16" cx="193.5" cy="613.8" r="10"/>
			<path class="st17" d="M190.9,617.2l-1.7-4c-0.4-1,0.1-2.1,1-2.5l3.4-1.4c1-0.4,2.1,0.1,2.5,1l1.7,4c0.4,1-0.1,2.1-1,2.5l-3.4,1.4
				C192.4,618.7,191.3,618.2,190.9,617.2z"/>
			
				<linearGradient id="SVGID_3_" gradientUnits="userSpaceOnUse" x1="732.1282" y1="-370.1986" x2="732.1282" y2="-193.7849" gradientTransform="matrix(0.3897 0.9209 0.9209 -0.3897 287.9498 -184.6972)">
				<stop  offset="0" style="stop-color:#000000;stop-opacity:0"/>
				<stop  offset="0.6615" style="stop-color:#FFFFFF;stop-opacity:0.5"/>
			</linearGradient>
			<path class="st18" d="M382.2,605.2c13.8-5.8,20.2-21.6,14.5-35.3l-14.4-34.4l-0.2,0.1l0.1,0.2l-0.9,0.5l0.1,0.2l-0.9,0.5l0.1,0.2
				l-0.9,0.5l0.1,0.2l-0.9,0.5l0.1,0.2l-0.9,0.5l0.1,0.2l-0.9,0.5l0.1,0.2l-0.9,0.5l0.1,0.2l-0.9,0.5l0.1,0.2l-0.9,0.5l0.1,0.2
				l-0.9,0.5l0.1,0.2l-0.9,0.5l0.1,0.2l-0.9,0.5l0.1,0.2l-0.9,0.5l0.1,0.2l-0.9,0.5l0.1,0.2l-0.9,0.5l0.1,0.2l-0.9,0.5l0.1,0.2
				l-0.9,0.5l0.1,0.2l-0.9,0.5l0.1,0.2l-0.9,0.5l0.1,0.2l-0.9,0.5l0.1,0.2l-0.9,0.5l0.1,0.2l-0.9,0.5l0.1,0.2l-0.9,0.5l0.1,0.2
				l-0.9,0.5l0.1,0.2l-0.9,0.5l0.1,0.2l-0.9,0.5l0.1,0.2l-0.9,0.5l0.1,0.2l-0.9,0.5l0.1,0.2l-0.9,0.5l0.1,0.2l-0.9,0.5l0.1,0.2
				l0.8,0.2l0.1,0.2l-0.9,0.5l0.1,0.2l-0.9,0.5l0.1,0.2l-0.9,0.5l0.1,0.2l-0.9,0.5l0.1,0.2l-0.9,0.5l0.1,0.2l-0.9,0.5l0.1,0.2
				l-0.9,0.5l0.1,0.2l-0.9,0.5l0.1,0.2l-0.9,0.5l0.1,0.2L351,564l0.1,0.2l-0.9,0.5l0.1,0.2l-0.9,0.5l0.1,0.2l-0.9,0.5l0.1,0.2
				l-0.9,0.5l0.1,0.2l-0.9,0.5l0.1,0.2l-0.9,0.5l0.1,0.2l-0.9,0.5l0.1,0.2l-0.9,0.5l0.1,0.2l-0.9,0.5l0.1,0.2L343,571l0.1,0.2
				l-0.9,0.5l0.1,0.2l-0.9,0.5l0.1,0.2l-0.9,0.5l0.1,0.2l-0.9,0.5l0.1,0.2l-0.9,0.5l0.1,0.2l-0.9,0.5l0.1,0.2l-0.9,0.5l0.1,0.2
				l-0.9,0.5l0.1,0.2l-0.9,0.5l0.1,0.2L335,578l0.1,0.2l-0.9,0.5l0.1,0.2l-0.9,0.5l0.1,0.2l-0.9,0.5l0.1,0.2l-0.9,0.5l0.1,0.2
				l-0.9,0.5l0.1,0.2l-0.9,0.5l0.1,0.2l-0.9,0.5l0.1,0.2l-0.9,0.5l0.1,0.2l-0.9,0.5l0.1,0.2L327,585l0.1,0.2l-0.9,0.5l0.1,0.2
				l-0.9,0.5l0.1,0.2l-0.9,0.5l0.1,0.2l-0.9,0.5l0.1,0.2l-0.9,0.5l0.1,0.2l-0.9,0.5l0.1,0.2l-0.9,0.5l0.1,0.2l-0.9,0.5l0.1,0.2
				l-0.9,0.5l0.1,0.2L319,592l0.1,0.2l-0.9,0.5l0.1,0.2l-0.9,0.5l0.1,0.2l-0.9,0.5l0.1,0.2l-0.9,0.5l0.1,0.2l-0.9,0.5l0.1,0.2
				l-0.9,0.5l0.1,0.2l-0.9,0.5l0.1,0.2l-0.9,0.5l0.1,0.2l-0.9,0.5l0.1,0.2L311,599l0.1,0.2l-0.9,0.5l0.1,0.2l-0.9,0.5l0.1,0.2
				l-0.9,0.5l0.1,0.2l-0.9,0.5l0.1,0.2l-0.9,0.5l0.1,0.2l-0.9,0.5l0.1,0.2l-0.9,0.5l0.1,0.2l-0.9,0.5l0.1,0.2l-0.9,0.5l0.1,0.2
				L303,606l0.1,0.2l-0.9,0.5l0.1,0.2l-0.9,0.5l0.1,0.2l-0.9,0.5l0.1,0.2l-0.9,0.5l0.1,0.2l-0.9,0.5l0.1,0.2l-0.9,0.5l0.1,0.2
				l-0.9,0.5l0.1,0.2l-0.9,0.5l0.1,0.2l-0.9,0.5l0.1,0.2L295,613l0.1,0.2l-0.9,0.5l0.1,0.2l-0.9,0.5l0.1,0.2l-0.9,0.5l0.1,0.2
				l-0.9,0.5l0.1,0.2l-0.9,0.5l0.1,0.2l-0.9,0.5l0.1,0.2l-0.9,0.5l0.1,0.2l-0.9,0.5l0.1,0.2l-0.9,0.5l0.1,0.2L287,620l0.1,0.2
				l-0.9,0.5l0.1,0.2l-0.9,0.5l0.1,0.2l-0.9,0.5l0.1,0.2l-0.9,0.5l0.1,0.2l-0.9,0.5l0.1,0.2l-0.9,0.5l0.1,0.2l-0.9,0.5l0.1,0.2
				l-0.9,0.5l0.1,0.2l-0.9,0.5l0.1,0.2L279,627l0.1,0.2l-0.9,0.5l0.1,0.2l-0.9,0.5l0.1,0.2l-0.9,0.5l0.1,0.2l-0.9,0.5l0.1,0.2
				l-0.9,0.5l0.1,0.2l4.9-0.7l0.1,0.2l-0.9,0.5l0.1,0.2l-0.9,0.5l0.1,0.2l-0.9,0.5l0.1,0.2l-0.9,0.5l0.1,0.2l-0.9,0.5l0.1,0.2
				l-0.9,0.5l0.1,0.2l-0.9,0.5l0.1,0.2l-0.9,0.5l0.1,0.2l-0.9,0.5l0.1,0.2L272,637l0.1,0.2l-0.9,0.5l0.1,0.2l-0.9,0.5l0.1,0.2
				l-0.9,0.5l0.1,0.2l-0.9,0.5l0.1,0.2l-0.9,0.5l0.1,0.2l-0.9,0.5l0.1,0.2l-0.9,0.5l0.1,0.2l-0.9,0.5l0.1,0.2l-0.9,0.5l0.1,0.2
				L264,644l0.1,0.2l-0.9,0.5l0.1,0.2l-0.9,0.5l0.1,0.2l-0.9,0.5l0.1,0.2l-0.9,0.5l0.1,0.2l-0.9,0.5l0.1,0.2l-0.9,0.5l0.1,0.2
				l-0.9,0.5l0.1,0.2l-0.9,0.5l0.1,0.2l-0.9,0.5l0.1,0.2L256,651l0.1,0.2l-0.9,0.5l0.1,0.2l-0.9,0.5l0.1,0.2l-0.9,0.5l0.1,0.2
				l-0.9,0.5l0.1,0.2l-0.9,0.5l0.1,0.2l-0.9,0.5l0.1,0.2l-0.9,0.5l0.1,0.2l-0.9,0.5l0.1,0.2l-0.9,0.5l0.1,0.2L248,658l0.1,0.2
				l-0.9,0.5l0.1,0.2l-0.9,0.5l0.1,0.2l-0.9,0.5l0.1,0.2l-0.9,0.5l0.1,0.2l-0.9,0.5l0.1,0.2l-0.9,0.5l0.1,0.2l-0.9,0.5l0.1,0.2
				l-0.5,0.3L382.2,605.2z"/>
		</g>
	</g>
	<g id="coffee">
		<g>
			<circle class="st8" cx="678.3" cy="557.5" r="120"/>
			<circle class="st19" cx="680.5" cy="558" r="95.3"/>
			<path class="st20" d="M677.1,630.1c-51.3-11.8-83.2-63-71.4-114.2c2.5-11,6.9-21.1,12.7-30.1c-14.9,12.8-25.9,30.2-30.7,50.8
				c-11.8,51.3,20.1,102.4,71.4,114.2c40.2,9.3,80.4-8.4,101.6-41.3C738.5,628.6,707.8,637.2,677.1,630.1z"/>
			<path class="st8" d="M768.1,509.4l62.1-49.1c5.2-4.1,6.1-11.6,2-16.8l-4-5.1c-4.1-5.2-11.6-6.1-16.8-2l-62.1,49.1L768.1,509.4z"
				/>
		</g>
	</g>
	
		<rect x="527.9" y="395" transform="matrix(-0.934 0.3572 -0.3572 -0.934 1165.7341 582.2847)" class="st6" width="2.4" height="7.6"/>
	<path class="st4" d="M539,408.9C539.1,408.9,539.1,408.9,539,408.9C539.1,408.9,539.1,408.9,539,408.9
		C539.1,408.9,539.1,408.9,539,408.9C539.1,408.9,539.1,408.9,539,408.9C539.1,408.9,539.1,408.9,539,408.9
		C539.1,408.9,539.1,408.9,539,408.9C539.1,408.9,539.1,408.9,539,408.9C539.1,408.9,539.1,408.9,539,408.9
		C539.1,408.9,539.1,408.9,539,408.9C539.1,408.9,539.1,408.9,539,408.9L539,408.9L539,408.9L539,408.9L539,408.9L539,408.9
		L539,408.9L539,408.9L539,408.9L539,408.9L539,408.9L539,408.9L539,408.9L539,408.9L539,408.9L539,408.9L539,408.9L539,408.9
		L539,408.9L539,408.9L539,408.9L539,408.9L539,408.9L539,408.9L539,408.9L539,408.9L539,408.9L539,408.9L539,408.9L539,408.9
		L539,408.9L539,408.9L539,408.9L539,408.9L539,408.9L539,408.9L539,408.9L539,408.9L539,408.9L539,408.9L539,408.9L539,408.9
		L539,408.9L539,408.9L539,408.9L539,408.9L539,408.9L539,408.9L539,408.9L539,408.9L539,408.9L539,408.9L539,408.9L539,408.9
		L539,408.9L539,408.9L539,408.9L539,408.9L539,408.9L539,408.9L539,408.9L539,408.9L539,408.9L539,408.9L539,408.9L539,408.9
		L539,408.9L539,408.9L539,408.9L539,408.9L539,408.9L539,408.9L539,408.9L539,408.9L539,408.9L539,408.9L539,408.9L539,408.9
		L539,408.9L539,408.9L539,408.9L539,408.9L539,408.9L539,408.9L539,408.9L539,408.9L539,408.9L539,408.9L539,408.9L539,408.9
		L539,408.9L539,408.9L539,408.9L539,408.9L539,408.9L539,408.9L539,408.9L539,408.9L539,408.9L539,408.9L539,408.9L539,408.9
		L539,408.9L539,408.9L539,408.9L539,408.9L539,408.9L539,408.9L539,408.9L539,408.9L539,408.9L539,408.9L539,408.9L539,408.9
		L539,408.9L539,408.9L539,408.9L539,408.9L539,408.9L539,408.9L539,408.9L539,408.9L539,408.9L539,408.9L539,408.9L539,408.9
		L539,408.9L539,408.9L539,408.9L539,408.9L539,408.9L539,408.9L539,408.9L539,408.9L539,408.9L539,408.9L539,408.9L539,408.9
		L539,408.9L539,408.9L539,408.9L539,408.9L539,408.9L539,408.9L539,408.9L539,408.9L539,408.9L539,408.9L539,408.9L539,408.9
		L539,408.9L539,408.9L539,408.9L539,408.9L539,408.9L539,408.9L539,408.9L539,408.9L539,408.9L539,408.9L539,408.9L539,408.9
		L539,408.9L539,408.9L539,408.9L539,408.9L539,408.9L539,408.9L539,408.9L539,408.9L539,408.9L539,408.9L539,408.9L539,408.9
		L539,408.9L539,408.9L539,408.9L539,408.9L539,408.9L539,408.9L539,408.9L539,408.9L539,408.9L539,408.9L539,408.9L539,408.9
		L539,408.9L539,408.9L539,408.9L539,408.9L539,408.9L539,408.9L539,408.9L539,408.9L539,408.9L539,408.9L539,408.9L539,408.9
		L539,408.9L539,408.9L539,408.9L539,408.9L539,408.9L539,408.9L539,408.9L539,408.9L539,408.9L539,408.9L539,408.9L539,408.9
		L539,408.9L539,408.9L539,408.9L539,408.9L539,408.9L539,408.9L539,408.9L539,408.9L539,408.9L539,408.9L539,408.9L539,408.9
		L539,408.9L539,408.9L539,408.9L539,408.9L539,408.9L539,408.9L539,408.9L539,408.9L539,408.9L539,408.9L539,408.9L539,408.9
		L539,408.9L539,408.9L539,408.9L539,408.9L539,408.9L539,408.9L539,408.9L539,408.9L539,408.9L539,408.9L539,408.9L539,408.9
		L539,408.9L539,408.9L539,408.9L539,408.9L539,408.9L539,408.9L539,408.9L539,408.9L539,408.9L539,408.9L539,408.9L539,408.9
		L539,408.9L539,408.9L539,408.9L539,408.9L539,408.9L539,408.9L539,408.9L539,408.9L539,408.9L539,408.9L539,408.9L539,408.9
		L539,408.9L539,408.9L539,408.9L539,408.9L539,408.9L539,408.9L539,408.9L539,408.9L539,408.9L539,408.9L539,408.9L539,408.9
		L539,408.9L539,408.9L539,408.9L539,408.9L539,408.9L539,408.9L539,408.9L539,408.9L539,408.9L539,408.9L539,408.9L539,408.9
		L539,408.9L539,408.9L539,408.9L539,408.9L539,408.9L539,408.9L539,408.9L539,408.9L539,408.9L539,408.9L539,408.9L539,408.9
		L539,408.9L539,408.9L539,408.9L539,408.9L539,408.9L539,408.9L539,408.9L539,408.9L539,408.9L539,408.9L539,408.9L539,408.9
		L539,408.9L539,408.9L539,408.9L539,408.9L539,408.9L539,408.9L539,408.9L539,408.9L539,408.9L539,408.9L539,408.9L539,408.9
		L539,408.9L539,408.9L539,408.9L539,408.9L539,408.9L539,408.9L539,408.9L539,408.9L539,408.9L539,408.9L539,408.9L539,408.9
		L539,408.9L539,408.9L539,408.9L539,408.9L539,408.9L539,408.9L539,408.9L539,408.9L539,408.9L539,408.9L539,408.9L539,408.9
		L539,408.9L539,408.9L539,408.9L539,408.9L539,408.9L539,408.9L539,408.9L539,408.9L539,408.9L539,408.9L539,408.9L539,408.9
		L539,408.9L539,408.9L539,408.9L539,408.9L539,408.9L539,408.9L539,408.9L539,408.9L539,408.9L539,408.9L539,408.9L539,408.9
		L539,408.9L539,408.9L539,408.9L539,408.9L539,408.9L539,408.9L539,408.9L539,408.9L539,408.9L539,408.9L539,408.9L539,408.9
		L539,408.9L539,408.9L539,408.9L539,408.9L539,408.9L539,408.9L539,408.9L539,408.9L539,408.9L539,408.9L539,408.9L539,408.9
		L539,408.9L539,408.9L539,408.9L539,408.9L539,408.9L539,408.9L539,408.9L539,408.9L539,408.9L539,408.9L539,408.9L539,408.9
		L539,408.9L539,408.9L539,408.9L539,408.9L539,408.9L539,408.9L539,408.9L539,408.9L539,408.9L539,408.9L539,408.9L539,408.9
		L539,408.9L539,408.9L539,408.9L539,408.9L539,408.9L539,408.9L539,408.9L539,408.9L539,408.9L539,408.9L539,408.9L539,408.9
		L539,408.9L539,408.9L539,408.9L539,408.9L539,408.9L539,408.9L539,408.9L539,408.9L539,408.9L539,408.9L539,408.9L539,408.9
		L539,408.9L539,408.9L539,408.9L539,408.9L539,408.9L539,408.9L539,408.9L539,408.9L539,408.9L539,408.9L539,408.9L539,408.9
		L539,408.9L539,408.9L539,408.9L539,408.9L539,408.9L539,408.9L539,408.9L539,408.9L539,408.9L539,408.9L539,408.9L539,408.9
		L539,408.9L539,408.9L539,408.9L539,408.9L539,408.9L539,408.9L539,408.9L539,408.9L539,408.9L539,408.9L539,408.9L539,408.9
		L539,408.9L539,408.9L539,408.9L539,408.9L539,408.9L539,408.9L539,408.9c1.2-0.7,0.8-4.2-0.9-7.7c-1.6-3.6-3.8-5.9-4.9-5.2l0,0
		l0,0l0,0l0,0l0,0l0,0l0,0l0,0l0,0l0,0l0,0l0,0l0,0l0,0l0,0l0,0l0,0l0,0l0,0l0,0l0,0l0,0l0,0l0,0l0,0l0,0l0,0l0,0l0,0l0,0l0,0l0,0
		l0,0l0,0l0,0l0,0l0,0l0,0l0,0l0,0l0,0l0,0l0,0l0,0l0,0l0,0l0,0l0,0l0,0l0,0l0,0l0,0l0,0l0,0l0,0l0,0l0,0l0,0l0,0l0,0l0,0l0,0l0,0
		l0,0l0,0l0,0l0,0l0,0l0,0l0,0l0,0l0,0l0,0l0,0l0,0l0,0l0,0l0,0l0,0l0,0l0,0l0,0l0,0l0,0l0,0l0,0l0,0l0,0l0,0l0,0l0,0l0,0l0,0l0,0
		l0,0l0,0l0,0l0,0l0,0l0,0l0,0l0,0l0,0l0,0l0,0l0,0l0,0l0,0l0,0l0,0l0,0l0,0l0,0l0,0l0,0l0,0l0,0l0,0l0,0l0,0l0,0l0,0l0,0l0,0l0,0
		l0,0l0,0l0,0l0,0l0,0l0,0l0,0l0,0l0,0l0,0l0,0l0,0l0,0l0,0l0,0l0,0l0,0l0,0l0,0l0,0l0,0l0,0l0,0l0,0l0,0l0,0l0,0l0,0l0,0l0,0l0,0
		l0,0l0,0l0,0l0,0l0,0l0,0l0,0l0,0l0,0l0,0l0,0l0,0l0,0l0,0l0,0l0,0l0,0l0,0l0,0l0,0l0,0l0,0l0,0l0,0l0,0l0,0l0,0l0,0l0,0l0,0l0,0
		l0,0l0,0l0,0l0,0l0,0l0,0l0,0l0,0l0,0l0,0l0,0l0,0l0,0l0,0l0,0l0,0l0,0l0,0l0,0l0,0l0,0l0,0l0,0l0,0l0,0l0,0l0,0l0,0l0,0l0,0l0,0
		l0,0l0,0l0,0l0,0l0,0l0,0l0,0l0,0l0,0l0,0l0,0l0,0l0,0l0,0l0,0l0,0l0,0l0,0l0,0l0,0l0,0l0,0l0,0l0,0l0,0l0,0l0,0l0,0l0,0l0,0l0,0
		l0,0l0,0l0,0l0,0l0,0l0,0l0,0l0,0l0,0l0,0l0,0l0,0l0,0l0,0l0,0l0,0l0,0l0,0l0,0l0,0l0,0l0,0l0,0l0,0l0,0l0,0l0,0l0,0l0,0l0,0l0,0
		l0,0l0,0l0,0l0,0l0,0l0,0l0,0l0,0l0,0l0,0l0,0l0,0l0,0l0,0l0,0l0,0l0,0l0,0l0,0l0,0l0,0l0,0l0,0l0,0l0,0l0,0l0,0l0,0l0,0l0,0l0,0
		l0,0l0,0l0,0l0,0l0,0l0,0l0,0l0,0l0,0l0,0l0,0l0,0l0,0l0,0l0,0l0,0l0,0l0,0l0,0l0,0l0,0l0,0l0,0l0,0l0,0l0,0l0,0l0,0l0,0l0,0l0,0
		l0,0l0,0l0,0l0,0l0,0l0,0l0,0l0,0l0,0l0,0l0,0l0,0l0,0l0,0l0,0l0,0l0,0l0,0l0,0l0,0l0,0l0,0l0,0l0,0l0,0l0,0l0,0l0,0l0,0l0,0l0,0
		l0,0l0,0l0,0l0,0l0,0l0,0l0,0l0,0l0,0l0,0l0,0l0,0l0,0l0,0l0,0l0,0l0,0l0,0l0,0l0,0l0,0l0,0l0,0l0,0l0,0l0,0l0,0l0,0l0,0l0,0l0,0
		l0,0l0,0l0,0l0,0l0,0l0,0l0,0l0,0l0,0l0,0l0,0l0,0l0,0l0,0l0,0l0,0l0,0l0,0l0,0l0,0l0,0l0,0l0,0l0,0l0,0l0,0l0,0l0,0l0,0l0,0l0,0
		l0,0l0,0l0,0l0,0l0,0l0,0l0,0l0,0l0,0l0,0l0,0l0,0l0,0l0,0l0,0l0,0l0,0l0,0l0,0l0,0l0,0l0,0l0,0l0,0l0,0l0,0l0,0l0,0l0,0l0,0l0,0
		l0,0l0,0l0,0l0,0l0,0l0,0l0,0l0,0l0,0l0,0l0,0l0,0l0,0l0,0l0,0l0,0l0,0l0,0l0,0l0,0l0,0l0,0l0,0l0,0l0,0l0,0l0,0l0,0l0,0l0,0l0,0
		l0,0l0,0l0,0l0,0l0,0c-3,1.8-5.5,5.9-3.9,9.4C531,408.9,536.1,410.6,539,408.9z"/>
	<path class="st6" d="M532.9,396.1L532.9,396.1c-0.4,0.2-0.6,0.3-0.9,0.5l5,13c0.4-0.1,0.7-0.2,1-0.3L532.9,396.1z"/>
	
		<rect x="506.7" y="434.2" transform="matrix(-0.3151 0.9491 -0.9491 -0.3151 1083.6722 93.9712)" class="st6" width="2.4" height="7.6"/>
	<path class="st4" d="M521.9,436.8C521.9,436.7,521.9,436.7,521.9,436.8C521.9,436.7,521.9,436.7,521.9,436.8
		C521.9,436.7,521.9,436.7,521.9,436.8C521.9,436.7,521.9,436.7,521.9,436.8C521.9,436.7,521.9,436.7,521.9,436.8
		C521.9,436.7,521.9,436.7,521.9,436.8C521.9,436.7,521.9,436.7,521.9,436.8C521.9,436.7,521.9,436.7,521.9,436.8
		C521.9,436.7,521.9,436.7,521.9,436.8C521.9,436.7,521.9,436.7,521.9,436.8L521.9,436.8L521.9,436.8L521.9,436.8L521.9,436.8
		L521.9,436.8L521.9,436.8L521.9,436.8L521.9,436.8L521.9,436.8L521.9,436.8L521.9,436.8L521.9,436.8L521.9,436.8L521.9,436.8
		L521.9,436.8L521.9,436.8L521.9,436.8L521.9,436.8L521.9,436.8L521.9,436.8L521.9,436.8L521.9,436.8L521.9,436.8L521.9,436.8
		L521.9,436.8L521.9,436.8L521.9,436.8L521.9,436.8L521.9,436.8L521.9,436.8L521.9,436.8L521.9,436.8L521.9,436.8L521.9,436.8
		L521.9,436.8L521.9,436.8L521.9,436.8L521.9,436.8L521.9,436.8L521.9,436.8L521.9,436.8L521.9,436.8L521.9,436.8L521.9,436.8
		L521.9,436.8L521.9,436.8L521.9,436.8L521.9,436.8L521.9,436.8L521.9,436.8L521.9,436.8L521.9,436.8L521.9,436.8L521.9,436.8
		L521.9,436.8L521.9,436.8L521.9,436.8L521.9,436.8L521.9,436.8L521.9,436.8L521.9,436.8L521.9,436.8L521.9,436.8L521.9,436.8
		L521.9,436.8L521.9,436.8L521.9,436.8L521.9,436.8L521.9,436.8L521.9,436.8L521.9,436.8L521.9,436.8L521.9,436.8L521.9,436.8
		L521.9,436.8L521.9,436.8L521.9,436.8L521.9,436.8L521.9,436.8L521.9,436.8L521.9,436.8L521.9,436.8L521.9,436.8L521.9,436.8
		L521.9,436.8L521.9,436.8L521.9,436.8L521.9,436.8L521.9,436.8L521.9,436.8L521.9,436.8L521.9,436.8L521.9,436.8L521.9,436.8
		L521.9,436.8L521.9,436.8L521.9,436.8L521.9,436.8L521.9,436.8L521.9,436.8L521.9,436.8L521.9,436.8L521.9,436.8L521.9,436.8
		L521.9,436.8L521.9,436.8L521.9,436.8L521.9,436.8L521.9,436.8L521.9,436.8L521.9,436.8L521.9,436.8L521.9,436.8L521.9,436.8
		L521.9,436.8L521.9,436.8L521.9,436.8L521.9,436.8L521.9,436.8L521.9,436.8L521.9,436.8L521.9,436.8L521.9,436.8L521.9,436.8
		L521.9,436.8L521.9,436.8L521.9,436.8L521.9,436.8L521.9,436.8L521.9,436.8L521.9,436.8L521.9,436.8L521.9,436.8L521.9,436.8
		L521.9,436.8L521.9,436.8L521.9,436.8L521.9,436.8L521.9,436.8L521.9,436.8L521.9,436.8L521.9,436.8L521.9,436.8L521.9,436.8
		L521.9,436.8L521.9,436.8L521.9,436.8L521.9,436.8L521.9,436.8L521.9,436.8L521.9,436.8L521.9,436.8L521.9,436.8L521.9,436.8
		L521.9,436.8L521.9,436.8L521.9,436.8L521.9,436.8L521.9,436.8L521.9,436.8L521.9,436.8L521.9,436.8L521.9,436.8L521.9,436.8
		L521.9,436.8L521.9,436.8L521.9,436.8L521.9,436.8L521.9,436.8L521.9,436.8L521.9,436.8L521.9,436.8L521.9,436.8L521.9,436.8
		L521.9,436.8L521.9,436.8L521.9,436.8L521.9,436.8L521.9,436.8L521.9,436.8L521.9,436.8L521.9,436.8L521.9,436.8L521.9,436.8
		L521.9,436.8L521.9,436.8L521.9,436.8L521.9,436.8L521.9,436.8L521.9,436.8L521.9,436.8L521.9,436.8L521.9,436.8L521.9,436.8
		L521.9,436.8L521.9,436.8L521.9,436.8L521.9,436.8L521.9,436.8L521.9,436.8L521.9,436.8L521.9,436.8L521.9,436.8L521.9,436.8
		L521.9,436.8L521.9,436.8L521.9,436.8L521.9,436.8L521.9,436.8L521.9,436.8L521.9,436.8L521.9,436.8L521.9,436.8L521.9,436.8
		L521.9,436.8L521.9,436.8L521.9,436.8L521.9,436.8L521.9,436.8L521.9,436.8L521.9,436.8L521.9,436.8L521.9,436.8L521.9,436.8
		L521.9,436.8L521.9,436.8L521.9,436.8L521.9,436.8L521.9,436.8L521.9,436.8L521.9,436.8L521.9,436.8L521.9,436.8L521.9,436.8
		L521.9,436.8L521.9,436.8L521.9,436.8L521.9,436.8L521.9,436.8L521.9,436.8L521.9,436.8L521.9,436.8L521.9,436.8L521.9,436.8
		L521.9,436.8L521.9,436.8L521.9,436.8L521.9,436.8L521.9,436.8L521.9,436.8L521.9,436.8L521.9,436.8L521.9,436.8L521.9,436.8
		L521.9,436.8L521.9,436.8L521.9,436.8L521.9,436.8L521.9,436.8L521.9,436.8L521.9,436.8L521.9,436.8L521.9,436.8L521.9,436.8
		L521.9,436.8L521.9,436.8L521.9,436.8L521.9,436.8L521.9,436.8L521.9,436.8L521.9,436.8L521.9,436.8L521.9,436.8L521.9,436.8
		L521.9,436.8L521.9,436.8L521.9,436.8L521.9,436.8L521.9,436.8L521.9,436.8L521.9,436.8L521.9,436.8L521.9,436.8L521.9,436.8
		L521.9,436.8L521.9,436.8L521.9,436.8L521.9,436.8L521.9,436.8L521.9,436.8L521.9,436.8L521.9,436.8L521.9,436.8L521.9,436.8
		L521.9,436.8L521.9,436.8L521.9,436.8L521.9,436.8L521.9,436.8L521.9,436.8L521.9,436.8L521.9,436.8L521.9,436.8L521.9,436.8
		L521.9,436.8L521.9,436.8L521.9,436.8L521.9,436.8L521.9,436.8L521.9,436.8L521.9,436.8L521.9,436.8L521.9,436.8L521.9,436.8
		L521.9,436.8L521.9,436.8L521.9,436.8L521.9,436.8L521.9,436.8L521.9,436.8L521.9,436.8L521.9,436.8L521.9,436.8L521.9,436.8
		L521.9,436.8L521.9,436.8L521.9,436.8L521.9,436.8L521.9,436.8L521.9,436.8L521.9,436.8L521.9,436.8L521.9,436.8L521.9,436.8
		L521.9,436.8L521.9,436.8L521.9,436.8L521.9,436.8L521.9,436.8L521.9,436.8L521.9,436.8L521.9,436.8L521.9,436.8L521.9,436.8
		L521.9,436.8L521.9,436.8L521.9,436.8L521.9,436.8L521.9,436.8L521.9,436.8L521.9,436.8L521.9,436.8L521.9,436.8L521.9,436.8
		L521.9,436.8L521.9,436.8L521.9,436.8L521.9,436.8L521.9,436.8L521.9,436.8L521.9,436.8L521.9,436.8L521.9,436.8L521.9,436.8
		L521.9,436.8L521.9,436.8L521.9,436.8L521.9,436.8L521.9,436.8L521.9,436.8L521.9,436.8L521.9,436.8L521.9,436.8L521.9,436.8
		L521.9,436.8L521.9,436.8L521.9,436.8L521.9,436.8L521.9,436.8L521.9,436.8L521.9,436.8L521.9,436.8L521.9,436.8L521.9,436.8
		L521.9,436.8L521.9,436.8L521.9,436.8L521.9,436.8L521.9,436.8L521.9,436.8L521.9,436.8L521.9,436.8L521.9,436.8L521.9,436.8
		L521.9,436.8L521.9,436.8L521.9,436.8L521.9,436.8L521.9,436.8L521.9,436.8L521.9,436.8L521.9,436.8L521.9,436.8L521.9,436.8
		L521.9,436.8L521.9,436.8L521.9,436.8L521.9,436.8L521.9,436.8L521.9,436.8L521.9,436.8L521.9,436.8L521.9,436.8L521.9,436.8
		L521.9,436.8L521.9,436.8L521.9,436.8L521.9,436.8L521.9,436.8L521.9,436.8L521.9,436.8L521.9,436.8L521.9,436.8L521.9,436.8
		L521.9,436.8L521.9,436.8L521.9,436.8L521.9,436.8L521.9,436.8L521.9,436.8L521.9,436.8L521.9,436.8L521.9,436.8L521.9,436.8
		L521.9,436.8L521.9,436.8L521.9,436.8L521.9,436.8L521.9,436.8L521.9,436.8L521.9,436.8L521.9,436.8L521.9,436.8L521.9,436.8
		L521.9,436.8L521.9,436.8L521.9,436.8L521.9,436.8L521.9,436.8L521.9,436.8L521.9,436.8L521.9,436.8L521.9,436.8L521.9,436.8
		L521.9,436.8L521.9,436.8L521.9,436.8L521.9,436.8L521.9,436.8L521.9,436.8L521.9,436.8L521.9,436.8L521.9,436.8L521.9,436.8
		L521.9,436.8L521.9,436.8L521.9,436.8L521.9,436.8L521.9,436.8L521.9,436.8L521.9,436.8L521.9,436.8L521.9,436.8L521.9,436.8
		L521.9,436.8L521.9,436.8L521.9,436.8L521.9,436.8L521.9,436.8L521.9,436.8L521.9,436.8L521.9,436.8L521.9,436.8L521.9,436.8
		L521.9,436.8L521.9,436.8L521.9,436.8L521.9,436.8L521.9,436.8L521.9,436.8L521.9,436.8L521.9,436.8c0.2-1.3-2.8-3.2-6.6-4.2
		s-6.9-0.8-7.1,0.4l0,0l0,0l0,0l0,0l0,0l0,0l0,0l0,0l0,0l0,0l0,0l0,0l0,0l0,0l0,0l0,0l0,0l0,0l0,0l0,0l0,0l0,0l0,0l0,0l0,0l0,0l0,0
		l0,0l0,0l0,0l0,0l0,0l0,0l0,0l0,0l0,0l0,0l0,0l0,0l0,0l0,0l0,0l0,0l0,0l0,0l0,0l0,0l0,0l0,0l0,0l0,0l0,0l0,0l0,0l0,0l0,0l0,0l0,0
		l0,0l0,0l0,0l0,0l0,0l0,0l0,0l0,0l0,0l0,0l0,0l0,0l0,0l0,0l0,0l0,0l0,0l0,0l0,0l0,0l0,0l0,0l0,0l0,0l0,0l0,0l0,0l0,0l0,0l0,0l0,0
		l0,0l0,0l0,0l0,0l0,0l0,0l0,0l0,0l0,0l0,0l0,0l0,0l0,0l0,0l0,0l0,0l0,0l0,0l0,0l0,0l0,0l0,0l0,0l0,0l0,0l0,0l0,0l0,0l0,0l0,0l0,0
		l0,0l0,0l0,0l0,0l0,0l0,0l0,0l0,0l0,0l0,0l0,0l0,0l0,0l0,0l0,0l0,0l0,0l0,0l0,0l0,0l0,0l0,0l0,0l0,0l0,0l0,0l0,0l0,0l0,0l0,0l0,0
		l0,0l0,0l0,0l0,0l0,0l0,0l0,0l0,0l0,0l0,0l0,0l0,0l0,0l0,0l0,0l0,0l0,0l0,0l0,0l0,0l0,0l0,0l0,0l0,0l0,0l0,0l0,0l0,0l0,0l0,0l0,0
		l0,0l0,0l0,0l0,0l0,0l0,0l0,0l0,0l0,0l0,0l0,0l0,0l0,0l0,0l0,0l0,0l0,0l0,0l0,0l0,0l0,0l0,0l0,0l0,0l0,0l0,0l0,0l0,0l0,0l0,0l0,0
		l0,0l0,0l0,0l0,0l0,0l0,0l0,0l0,0l0,0l0,0l0,0l0,0l0,0l0,0l0,0l0,0l0,0l0,0l0,0l0,0l0,0l0,0l0,0l0,0l0,0l0,0l0,0l0,0l0,0l0,0l0,0
		l0,0l0,0l0,0l0,0l0,0l0,0l0,0l0,0l0,0l0,0l0,0l0,0l0,0l0,0l0,0l0,0l0,0l0,0l0,0l0,0l0,0l0,0l0,0l0,0l0,0l0,0l0,0l0,0l0,0l0,0l0,0
		l0,0l0,0l0,0l0,0l0,0l0,0l0,0l0,0l0,0l0,0l0,0l0,0l0,0l0,0l0,0l0,0l0,0l0,0l0,0l0,0l0,0l0,0l0,0l0,0l0,0l0,0l0,0l0,0l0,0l0,0l0,0
		l0,0l0,0l0,0l0,0l0,0l0,0l0,0l0,0l0,0l0,0l0,0l0,0l0,0l0,0l0,0l0,0l0,0l0,0l0,0l0,0l0,0l0,0l0,0l0,0l0,0l0,0l0,0l0,0l0,0l0,0l0,0
		l0,0l0,0l0,0l0,0l0,0l0,0l0,0l0,0l0,0l0,0l0,0l0,0l0,0l0,0l0,0l0,0l0,0l0,0l0,0l0,0l0,0l0,0l0,0l0,0l0,0l0,0l0,0l0,0l0,0l0,0l0,0
		l0,0l0,0l0,0l0,0l0,0l0,0l0,0l0,0l0,0l0,0l0,0l0,0l0,0l0,0l0,0l0,0l0,0l0,0l0,0l0,0l0,0l0,0l0,0l0,0l0,0l0,0l0,0l0,0l0,0l0,0l0,0
		l0,0l0,0l0,0l0,0l0,0l0,0l0,0l0,0l0,0l0,0l0,0l0,0l0,0l0,0l0,0l0,0l0,0l0,0l0,0l0,0l0,0l0,0l0,0l0,0l0,0l0,0l0,0l0,0l0,0l0,0l0,0
		l0,0l0,0l0,0l0,0l0,0l0,0l0,0l0,0l0,0l0,0l0,0l0,0l0,0l0,0l0,0l0,0l0,0l0,0l0,0l0,0l0,0l0,0l0,0l0,0l0,0l0,0l0,0l0,0l0,0l0,0l0,0
		l0,0l0,0l0,0l0,0l0,0l0,0l0,0l0,0l0,0l0,0l0,0l0,0l0,0l0,0l0,0l0,0l0,0l0,0l0,0l0,0l0,0l0,0l0,0l0,0l0,0l0,0l0,0l0,0l0,0l0,0l0,0
		l0,0l0,0l0,0l0,0l0,0l0,0l0,0l0,0l0,0l0,0c-0.5,3.4,1.1,8,4.8,9C516.9,443,521.4,440.1,521.9,436.8z"/>
	<path class="st6" d="M508.1,433.3v0.1c0,0.3-0.1,0.6-0.1,0.9l13.2,4.4c0.2-0.3,0.3-0.6,0.4-1L508.1,433.3z"/>
</g>
</svg>
