<?xml version="1.0" encoding="utf-8"?>
<!-- Generator: Adobe Illustrator 19.1.0, SVG Export Plug-In . SVG Version: 6.00 Build 0)  -->
<svg version="1.1" xmlns="http://www.w3.org/2000/svg" xmlns:xlink="http://www.w3.org/1999/xlink" x="0px" y="0px"
	 viewBox="0 0 792 612" style="enable-background:new 0 0 792 612;" xml:space="preserve">
<style type="text/css">
	.st0{clip-path:url(#SVGID_2_);fill:#1E1E20;}
	.st1{clip-path:url(#SVGID_2_);}
	.st2{fill:none;}
	.st3{fill:#FFFFFF;}
	.st4{fill:#374140;stroke:#2A2C2B;stroke-width:4;stroke-miterlimit:10;}
	.st5{fill:#FBF4A0;stroke:#2A2C2B;stroke-width:4;stroke-miterlimit:10;}
	.st6{clip-path:url(#SVGID_2_);fill:#374140;stroke:#2A2C2B;stroke-width:4;stroke-miterlimit:10;}
	.st7{fill:#EFEFEF;}
	.st8{fill:#999999;}
	.st9{clip-path:url(#SVGID_2_);fill:none;}
</style>
<g id="background">
</g>
<g id="buildings">
</g>
<g id="moon">
</g>
<g id="mask">
	<g>
		<defs>
			<circle id="SVGID_1_" cx="396" cy="306" r="231.1"/>
		</defs>
		<clipPath id="SVGID_2_">
			<use xlink:href="#SVGID_1_"  style="overflow:visible;"/>
		</clipPath>
		<rect x="68.3" y="52.8" class="st0" width="655.3" height="506.4"/>
		<g class="st1">
			<g>
				<g>
					<rect x="757.2" y="360.8" class="st2" width="2.5" height="2.5"/>
					<circle class="st3" cx="758.4" cy="362" r="1.3"/>
				</g>
				<g>
					<rect x="752.2" y="162.3" class="st2" width="2.5" height="2.5"/>
					<circle class="st3" cx="753.5" cy="163.6" r="1.3"/>
				</g>
				<g>
					<rect x="748.2" y="94" class="st2" width="2.5" height="2.5"/>
					<circle class="st3" cx="749.5" cy="95.2" r="1.3"/>
				</g>
				<g>
					<rect x="743.4" y="215.4" class="st2" width="2.5" height="2.5"/>
					<circle class="st3" cx="744.7" cy="216.7" r="1.3"/>
				</g>
				<g>
					<rect x="739.1" y="351.1" class="st2" width="2.5" height="2.5"/>
					<circle class="st3" cx="740.4" cy="352.4" r="1.3"/>
				</g>
				<g>
					<rect x="734.8" y="368.5" class="st2" width="2.5" height="2.5"/>
					<circle class="st3" cx="736.1" cy="369.8" r="1.3"/>
				</g>
				<g>
					<rect x="729.9" y="362.9" class="st2" width="2.5" height="2.5"/>
					<circle class="st3" cx="731.2" cy="364.2" r="1.3"/>
				</g>
				<g>
					<rect x="726.1" y="264.6" class="st2" width="2.5" height="2.5"/>
					<circle class="st3" cx="727.4" cy="265.8" r="1.3"/>
				</g>
				<g>
					<rect x="721.8" y="222.6" class="st2" width="2.5" height="2.5"/>
					<circle class="st3" cx="723.1" cy="223.8" r="1.3"/>
				</g>
				<g>
					<rect x="717.8" y="302.8" class="st2" width="2.5" height="2.5"/>
					<circle class="st3" cx="719.1" cy="304" r="1.3"/>
				</g>
				<g>
					<rect x="713.4" y="134.4" class="st2" width="2.5" height="2.5"/>
					<circle class="st3" cx="714.7" cy="135.7" r="1.3"/>
				</g>
				<g>
					<rect x="709.3" y="120.5" class="st2" width="2.5" height="2.5"/>
					<circle class="st3" cx="710.6" cy="121.7" r="1.3"/>
				</g>
				<g>
					<rect x="704.7" y="359.1" class="st2" width="2.5" height="2.5"/>
					<circle class="st3" cx="705.9" cy="360.4" r="1.3"/>
				</g>
				<g>
					<rect x="700.9" y="238.1" class="st2" width="2.5" height="2.5"/>
					<circle class="st3" cx="702.1" cy="239.4" r="1.3"/>
				</g>
				<g>
					<rect x="696.7" y="296.8" class="st2" width="2.5" height="2.5"/>
					<circle class="st3" cx="697.9" cy="298" r="1.3"/>
				</g>
				<g>
					<rect x="692.6" y="335.6" class="st2" width="2.5" height="2.5"/>
					<circle class="st3" cx="693.9" cy="336.8" r="1.3"/>
				</g>
				<g>
					<rect x="688.2" y="183.9" class="st2" width="2.5" height="2.5"/>
					<circle class="st3" cx="689.4" cy="185.2" r="1.3"/>
				</g>
				<g>
					<rect x="683.2" y="379.7" class="st2" width="2.5" height="2.5"/>
					<circle class="st3" cx="684.5" cy="380.9" r="1.3"/>
				</g>
				<g>
					<rect x="679.4" y="223.3" class="st2" width="2.5" height="2.5"/>
					<circle class="st3" cx="680.6" cy="224.6" r="1.3"/>
				</g>
				<g>
					<rect x="675.6" y="215.2" class="st2" width="2.5" height="2.5"/>
					<circle class="st3" cx="676.8" cy="216.4" r="1.3"/>
				</g>
				<g>
					<rect x="671.3" y="213.5" class="st2" width="2.5" height="2.5"/>
					<circle class="st3" cx="672.6" cy="214.7" r="1.3"/>
				</g>
				<g>
					<rect x="667.5" y="336.1" class="st2" width="2.5" height="2.5"/>
					<circle class="st3" cx="668.8" cy="337.3" r="1.3"/>
				</g>
				<g>
					<rect x="662.6" y="343.5" class="st2" width="2.5" height="2.5"/>
					<circle class="st3" cx="663.8" cy="344.8" r="1.3"/>
				</g>
				<g>
					<rect x="658" y="398.5" class="st2" width="2.5" height="2.5"/>
					<circle class="st3" cx="659.3" cy="399.8" r="1.3"/>
				</g>
				<g>
					<rect x="653.6" y="225" class="st2" width="2.5" height="2.5"/>
					<circle class="st3" cx="654.9" cy="226.3" r="1.3"/>
				</g>
				<g>
					<rect x="649.8" y="371.4" class="st2" width="2.5" height="2.5"/>
					<circle class="st3" cx="651.1" cy="372.6" r="1.3"/>
				</g>
				<g>
					<rect x="645.1" y="357.4" class="st2" width="2.5" height="2.5"/>
					<circle class="st3" cx="646.4" cy="358.6" r="1.3"/>
				</g>
				<g>
					<rect x="641.2" y="368.5" class="st2" width="2.5" height="2.5"/>
					<circle class="st3" cx="642.4" cy="369.7" r="1.3"/>
				</g>
				<g>
					<rect x="636.2" y="84.5" class="st2" width="2.5" height="2.5"/>
					<circle class="st3" cx="637.4" cy="85.8" r="1.3"/>
				</g>
				<g>
					<rect x="631.7" y="424.9" class="st2" width="2.5" height="2.5"/>
					<circle class="st3" cx="633" cy="426.2" r="1.3"/>
				</g>
				<g>
					<rect x="626.8" y="307.3" class="st2" width="2.5" height="2.5"/>
					<circle class="st3" cx="628.1" cy="308.6" r="1.3"/>
				</g>
				<g>
					<rect x="622.8" y="274.7" class="st2" width="2.5" height="2.5"/>
					<circle class="st3" cx="624" cy="276" r="1.3"/>
				</g>
				<g>
					<rect x="618.8" y="172.3" class="st2" width="2.5" height="2.5"/>
					<circle class="st3" cx="620.1" cy="173.6" r="1.3"/>
				</g>
				<g>
					<rect x="614.1" y="121.2" class="st2" width="2.5" height="2.5"/>
					<circle class="st3" cx="615.3" cy="122.4" r="1.3"/>
				</g>
				<g>
					<rect x="609.3" y="117.3" class="st2" width="2.5" height="2.5"/>
					<circle class="st3" cx="610.6" cy="118.6" r="1.3"/>
				</g>
				<g>
					<rect x="605" y="105.6" class="st2" width="2.5" height="2.5"/>
					<circle class="st3" cx="606.3" cy="106.9" r="1.3"/>
				</g>
				<g>
					<rect x="601" y="80.3" class="st2" width="2.5" height="2.5"/>
					<circle class="st3" cx="602.2" cy="81.5" r="1.3"/>
				</g>
				<g>
					<rect x="597.1" y="82.9" class="st2" width="2.5" height="2.5"/>
					<circle class="st3" cx="598.3" cy="84.2" r="1.3"/>
				</g>
				<g>
					<rect x="592.2" y="290.3" class="st2" width="2.5" height="2.5"/>
					<circle class="st3" cx="593.4" cy="291.5" r="1.3"/>
				</g>
				<g>
					<rect x="587.7" y="338" class="st2" width="2.5" height="2.5"/>
					<circle class="st3" cx="588.9" cy="339.3" r="1.3"/>
				</g>
				<g>
					<rect x="582.7" y="86" class="st2" width="2.5" height="2.5"/>
					<circle class="st3" cx="584" cy="87.2" r="1.3"/>
				</g>
				<g>
					<rect x="578.9" y="213.3" class="st2" width="2.5" height="2.5"/>
					<circle class="st3" cx="580.2" cy="214.5" r="1.3"/>
				</g>
				<g>
					<rect x="574.1" y="350.7" class="st2" width="2.5" height="2.5"/>
					<circle class="st3" cx="575.3" cy="352" r="1.3"/>
				</g>
				<g>
					<rect x="569.2" y="405.9" class="st2" width="2.5" height="2.5"/>
					<circle class="st3" cx="570.4" cy="407.1" r="1.3"/>
				</g>
				<g>
					<rect x="565" y="386.8" class="st2" width="2.5" height="2.5"/>
					<circle class="st3" cx="566.2" cy="388.1" r="1.3"/>
				</g>
				<g>
					<rect x="560.7" y="221.1" class="st2" width="2.5" height="2.5"/>
					<circle class="st3" cx="561.9" cy="222.4" r="1.3"/>
				</g>
				<g>
					<rect x="556.8" y="128.5" class="st2" width="2.5" height="2.5"/>
					<circle class="st3" cx="558" cy="129.7" r="1.3"/>
				</g>
				<g>
					<rect x="552.8" y="141.8" class="st2" width="2.5" height="2.5"/>
					<circle class="st3" cx="554.1" cy="143.1" r="1.3"/>
				</g>
				<g>
					<rect x="548" y="311.4" class="st2" width="2.5" height="2.5"/>
					<circle class="st3" cx="549.2" cy="312.7" r="1.3"/>
				</g>
				<g>
					<rect x="543.6" y="235.9" class="st2" width="2.5" height="2.5"/>
					<circle class="st3" cx="544.8" cy="237.1" r="1.3"/>
				</g>
				<g>
					<rect x="539.5" y="397" class="st2" width="2.5" height="2.5"/>
					<circle class="st3" cx="540.8" cy="398.2" r="1.3"/>
				</g>
				<g>
					<rect x="535.7" y="403" class="st2" width="2.5" height="2.5"/>
					<circle class="st3" cx="537" cy="404.2" r="1.3"/>
				</g>
				<g>
					<rect x="531.3" y="208.2" class="st2" width="2.5" height="2.5"/>
					<circle class="st3" cx="532.6" cy="209.5" r="1.3"/>
				</g>
				<g>
					<rect x="526.5" y="259.1" class="st2" width="2.5" height="2.5"/>
					<circle class="st3" cx="527.8" cy="260.4" r="1.3"/>
				</g>
				<g>
					<rect x="521.7" y="251.6" class="st2" width="2.5" height="2.5"/>
					<circle class="st3" cx="523" cy="252.9" r="1.3"/>
				</g>
				<g>
					<rect x="517.4" y="395.2" class="st2" width="2.5" height="2.5"/>
					<circle class="st3" cx="518.7" cy="396.5" r="1.3"/>
				</g>
				<g>
					<rect x="512.9" y="240.8" class="st2" width="2.5" height="2.5"/>
					<circle class="st3" cx="514.2" cy="242.1" r="1.3"/>
				</g>
				<g>
					<rect x="508.4" y="335.7" class="st2" width="2.5" height="2.5"/>
					<circle class="st3" cx="509.7" cy="336.9" r="1.3"/>
				</g>
				<g>
					<rect x="504.4" y="112" class="st2" width="2.5" height="2.5"/>
					<circle class="st3" cx="505.7" cy="113.3" r="1.3"/>
				</g>
				<g>
					<rect x="499.8" y="160.4" class="st2" width="2.5" height="2.5"/>
					<circle class="st3" cx="501.1" cy="161.6" r="1.3"/>
				</g>
				<g>
					<rect x="495.5" y="107" class="st2" width="2.5" height="2.5"/>
					<circle class="st3" cx="496.7" cy="108.3" r="1.3"/>
				</g>
				<g>
					<rect x="491.3" y="356.5" class="st2" width="2.5" height="2.5"/>
					<circle class="st3" cx="492.6" cy="357.7" r="1.3"/>
				</g>
				<g>
					<rect x="486.5" y="277.7" class="st2" width="2.5" height="2.5"/>
					<circle class="st3" cx="487.8" cy="278.9" r="1.3"/>
				</g>
				<g>
					<rect x="482" y="301.9" class="st2" width="2.5" height="2.5"/>
					<circle class="st3" cx="483.2" cy="303.1" r="1.3"/>
				</g>
				<g>
					<rect x="477.4" y="215.9" class="st2" width="2.5" height="2.5"/>
					<circle class="st3" cx="478.7" cy="217.1" r="1.3"/>
				</g>
				<g>
					<rect x="473.2" y="96.1" class="st2" width="2.5" height="2.5"/>
					<circle class="st3" cx="474.5" cy="97.3" r="1.3"/>
				</g>
				<g>
					<rect x="468.8" y="95.3" class="st2" width="2.5" height="2.5"/>
					<circle class="st3" cx="470.1" cy="96.5" r="1.3"/>
				</g>
				<g>
					<rect x="464.7" y="271.8" class="st2" width="2.5" height="2.5"/>
					<circle class="st3" cx="466" cy="273" r="1.3"/>
				</g>
				<g>
					<rect x="460.5" y="168.2" class="st2" width="2.5" height="2.5"/>
					<circle class="st3" cx="461.7" cy="169.4" r="1.3"/>
				</g>
				<g>
					<rect x="456.3" y="284" class="st2" width="2.5" height="2.5"/>
					<circle class="st3" cx="457.6" cy="285.2" r="1.3"/>
				</g>
				<g>
					<rect x="451.4" y="372.9" class="st2" width="2.5" height="2.5"/>
					<circle class="st3" cx="452.6" cy="374.1" r="1.3"/>
				</g>
				<g>
					<rect x="446.8" y="379.9" class="st2" width="2.5" height="2.5"/>
					<circle class="st3" cx="448.1" cy="381.2" r="1.3"/>
				</g>
				<g>
					<rect x="442.4" y="118.8" class="st2" width="2.5" height="2.5"/>
					<circle class="st3" cx="443.7" cy="120" r="1.3"/>
				</g>
				<g>
					<rect x="437.8" y="348.7" class="st2" width="2.5" height="2.5"/>
					<circle class="st3" cx="439" cy="349.9" r="1.3"/>
				</g>
				<g>
					<rect x="432.9" y="96" class="st2" width="2.5" height="2.5"/>
					<circle class="st3" cx="434.2" cy="97.2" r="1.3"/>
				</g>
				<g>
					<rect x="428.4" y="234.3" class="st2" width="2.5" height="2.5"/>
					<circle class="st3" cx="429.6" cy="235.5" r="1.3"/>
				</g>
				<g>
					<rect x="424.4" y="119.8" class="st2" width="2.5" height="2.5"/>
					<circle class="st3" cx="425.6" cy="121" r="1.3"/>
				</g>
				<g>
					<rect x="419.7" y="317.5" class="st2" width="2.5" height="2.5"/>
					<circle class="st3" cx="420.9" cy="318.7" r="1.3"/>
				</g>
				<g>
					<rect x="414.9" y="86.5" class="st2" width="2.5" height="2.5"/>
					<circle class="st3" cx="416.2" cy="87.7" r="1.3"/>
				</g>
				<g>
					<rect x="411.1" y="359.8" class="st2" width="2.5" height="2.5"/>
					<circle class="st3" cx="412.3" cy="361" r="1.3"/>
				</g>
				<g>
					<rect x="406.3" y="186.7" class="st2" width="2.5" height="2.5"/>
					<circle class="st3" cx="407.5" cy="187.9" r="1.3"/>
				</g>
				<g>
					<rect x="401.7" y="392.1" class="st2" width="2.5" height="2.5"/>
					<circle class="st3" cx="402.9" cy="393.3" r="1.3"/>
				</g>
				<g>
					<rect x="397" y="178.4" class="st2" width="2.5" height="2.5"/>
					<circle class="st3" cx="398.3" cy="179.6" r="1.3"/>
				</g>
				<g>
					<rect x="392.1" y="251.3" class="st2" width="2.5" height="2.5"/>
					<circle class="st3" cx="393.3" cy="252.6" r="1.3"/>
				</g>
				<g>
					<rect x="388.3" y="363" class="st2" width="2.5" height="2.5"/>
					<circle class="st3" cx="389.5" cy="364.2" r="1.3"/>
				</g>
				<g>
					<rect x="383.9" y="239.6" class="st2" width="2.5" height="2.5"/>
					<circle class="st3" cx="385.2" cy="240.8" r="1.3"/>
				</g>
				<g>
					<rect x="379.1" y="389.9" class="st2" width="2.5" height="2.5"/>
					<circle class="st3" cx="380.4" cy="391.2" r="1.3"/>
				</g>
				<g>
					<rect x="374.8" y="92.6" class="st2" width="2.5" height="2.5"/>
					<circle class="st3" cx="376.1" cy="93.9" r="1.3"/>
				</g>
				<g>
					<rect x="370.3" y="407.2" class="st2" width="2.5" height="2.5"/>
					<circle class="st3" cx="371.5" cy="408.4" r="1.3"/>
				</g>
				<g>
					<rect x="365.7" y="286.6" class="st2" width="2.5" height="2.5"/>
					<circle class="st3" cx="366.9" cy="287.8" r="1.3"/>
				</g>
				<g>
					<rect x="361.2" y="416.1" class="st2" width="2.5" height="2.5"/>
					<circle class="st3" cx="362.4" cy="417.3" r="1.3"/>
				</g>
				<g>
					<rect x="356.4" y="124.6" class="st2" width="2.5" height="2.5"/>
					<circle class="st3" cx="357.7" cy="125.9" r="1.3"/>
				</g>
				<g>
					<rect x="352.4" y="368.6" class="st2" width="2.5" height="2.5"/>
					<circle class="st3" cx="353.7" cy="369.8" r="1.3"/>
				</g>
				<g>
					<rect x="347.8" y="419.9" class="st2" width="2.5" height="2.5"/>
					<circle class="st3" cx="349" cy="421.2" r="1.3"/>
				</g>
				<g>
					<rect x="343" y="244.5" class="st2" width="2.5" height="2.5"/>
					<circle class="st3" cx="344.3" cy="245.7" r="1.3"/>
				</g>
				<g>
					<rect x="339.2" y="272.8" class="st2" width="2.5" height="2.5"/>
					<circle class="st3" cx="340.4" cy="274" r="1.3"/>
				</g>
				<g>
					<rect x="334.4" y="132.5" class="st2" width="2.5" height="2.5"/>
					<circle class="st3" cx="335.7" cy="133.7" r="1.3"/>
				</g>
				<g>
					<rect x="329.5" y="338.8" class="st2" width="2.5" height="2.5"/>
					<circle class="st3" cx="330.8" cy="340.1" r="1.3"/>
				</g>
				<g>
					<rect x="325.5" y="377.9" class="st2" width="2.5" height="2.5"/>
					<circle class="st3" cx="326.8" cy="379.2" r="1.3"/>
				</g>
				<g>
					<rect x="321.2" y="358.2" class="st2" width="2.5" height="2.5"/>
					<circle class="st3" cx="322.5" cy="359.4" r="1.3"/>
				</g>
				<g>
					<rect x="317.1" y="297.9" class="st2" width="2.5" height="2.5"/>
					<circle class="st3" cx="318.4" cy="299.2" r="1.3"/>
				</g>
				<g>
					<rect x="312.2" y="279.4" class="st2" width="2.5" height="2.5"/>
					<circle class="st3" cx="313.4" cy="280.6" r="1.3"/>
				</g>
				<g>
					<rect x="307.7" y="314.4" class="st2" width="2.5" height="2.5"/>
					<circle class="st3" cx="308.9" cy="315.6" r="1.3"/>
				</g>
				<g>
					<rect x="302.8" y="219.3" class="st2" width="2.5" height="2.5"/>
					<circle class="st3" cx="304.1" cy="220.5" r="1.3"/>
				</g>
				<g>
					<rect x="298" y="350.9" class="st2" width="2.5" height="2.5"/>
					<circle class="st3" cx="299.2" cy="352.1" r="1.3"/>
				</g>
				<g>
					<rect x="294.1" y="154.7" class="st2" width="2.5" height="2.5"/>
					<circle class="st3" cx="295.3" cy="156" r="1.3"/>
				</g>
				<g>
					<rect x="289.9" y="236.5" class="st2" width="2.5" height="2.5"/>
					<circle class="st3" cx="291.2" cy="237.7" r="1.3"/>
				</g>
				<g>
					<rect x="285.9" y="272.2" class="st2" width="2.5" height="2.5"/>
					<circle class="st3" cx="287.1" cy="273.5" r="1.3"/>
				</g>
				<g>
					<rect x="281" y="373.9" class="st2" width="2.5" height="2.5"/>
					<circle class="st3" cx="282.3" cy="375.1" r="1.3"/>
				</g>
				<g>
					<rect x="276.2" y="272.5" class="st2" width="2.5" height="2.5"/>
					<circle class="st3" cx="277.4" cy="273.7" r="1.3"/>
				</g>
				<g>
					<rect x="272.2" y="165.6" class="st2" width="2.5" height="2.5"/>
					<circle class="st3" cx="273.4" cy="166.9" r="1.3"/>
				</g>
				<g>
					<rect x="267.4" y="340.8" class="st2" width="2.5" height="2.5"/>
					<circle class="st3" cx="268.6" cy="342" r="1.3"/>
				</g>
				<g>
					<rect x="263.2" y="235.7" class="st2" width="2.5" height="2.5"/>
					<circle class="st3" cx="264.4" cy="237" r="1.3"/>
				</g>
				<g>
					<rect x="258.2" y="229.6" class="st2" width="2.5" height="2.5"/>
					<circle class="st3" cx="259.4" cy="230.9" r="1.3"/>
				</g>
				<g>
					<rect x="253.3" y="355" class="st2" width="2.5" height="2.5"/>
					<circle class="st3" cx="254.5" cy="356.2" r="1.3"/>
				</g>
				<g>
					<rect x="248.4" y="369.3" class="st2" width="2.5" height="2.5"/>
					<circle class="st3" cx="249.7" cy="370.5" r="1.3"/>
				</g>
				<g>
					<rect x="244.1" y="173.6" class="st2" width="2.5" height="2.5"/>
					<circle class="st3" cx="245.3" cy="174.9" r="1.3"/>
				</g>
				<g>
					<rect x="240.2" y="422.3" class="st2" width="2.5" height="2.5"/>
					<circle class="st3" cx="241.5" cy="423.6" r="1.3"/>
				</g>
				<g>
					<rect x="235.3" y="164" class="st2" width="2.5" height="2.5"/>
					<circle class="st3" cx="236.5" cy="165.2" r="1.3"/>
				</g>
				<g>
					<rect x="231.5" y="256.1" class="st2" width="2.5" height="2.5"/>
					<circle class="st3" cx="232.7" cy="257.4" r="1.3"/>
				</g>
				<g>
					<rect x="227.6" y="121.9" class="st2" width="2.5" height="2.5"/>
					<circle class="st3" cx="228.8" cy="123.1" r="1.3"/>
				</g>
				<g>
					<rect x="223.8" y="366.8" class="st2" width="2.5" height="2.5"/>
					<circle class="st3" cx="225.1" cy="368.1" r="1.3"/>
				</g>
				<g>
					<rect x="219.6" y="217.4" class="st2" width="2.5" height="2.5"/>
					<circle class="st3" cx="220.9" cy="218.7" r="1.3"/>
				</g>
				<g>
					<rect x="215.1" y="309.8" class="st2" width="2.5" height="2.5"/>
					<circle class="st3" cx="216.3" cy="311" r="1.3"/>
				</g>
				<g>
					<rect x="210.7" y="373.5" class="st2" width="2.5" height="2.5"/>
					<circle class="st3" cx="212" cy="374.7" r="1.3"/>
				</g>
				<g>
					<rect x="206.6" y="154.8" class="st2" width="2.5" height="2.5"/>
					<circle class="st3" cx="207.9" cy="156" r="1.3"/>
				</g>
				<g>
					<rect x="202.5" y="236.2" class="st2" width="2.5" height="2.5"/>
					<circle class="st3" cx="203.7" cy="237.4" r="1.3"/>
				</g>
				<g>
					<rect x="198.7" y="98.8" class="st2" width="2.5" height="2.5"/>
					<circle class="st3" cx="199.9" cy="100.1" r="1.3"/>
				</g>
				<g>
					<rect x="194.8" y="422.1" class="st2" width="2.5" height="2.5"/>
					<circle class="st3" cx="196" cy="423.3" r="1.3"/>
				</g>
				<g>
					<rect x="190.6" y="343.8" class="st2" width="2.5" height="2.5"/>
					<circle class="st3" cx="191.9" cy="345.1" r="1.3"/>
				</g>
				<g>
					<rect x="186.4" y="405.6" class="st2" width="2.5" height="2.5"/>
					<circle class="st3" cx="187.7" cy="406.8" r="1.3"/>
				</g>
				<g>
					<rect x="182.2" y="211.5" class="st2" width="2.5" height="2.5"/>
					<circle class="st3" cx="183.5" cy="212.7" r="1.3"/>
				</g>
				<g>
					<rect x="177.3" y="422" class="st2" width="2.5" height="2.5"/>
					<circle class="st3" cx="178.6" cy="423.3" r="1.3"/>
				</g>
				<g>
					<rect x="173.2" y="188.5" class="st2" width="2.5" height="2.5"/>
					<circle class="st3" cx="174.5" cy="189.7" r="1.3"/>
				</g>
				<g>
					<rect x="168.9" y="350" class="st2" width="2.5" height="2.5"/>
					<circle class="st3" cx="170.2" cy="351.3" r="1.3"/>
				</g>
				<g>
					<rect x="165" y="79.8" class="st2" width="2.5" height="2.5"/>
					<circle class="st3" cx="166.3" cy="81" r="1.3"/>
				</g>
				<g>
					<rect x="160.5" y="178.9" class="st2" width="2.5" height="2.5"/>
					<circle class="st3" cx="161.8" cy="180.2" r="1.3"/>
				</g>
				<g>
					<rect x="156" y="361.5" class="st2" width="2.5" height="2.5"/>
					<circle class="st3" cx="157.3" cy="362.7" r="1.3"/>
				</g>
				<g>
					<rect x="152" y="83.3" class="st2" width="2.5" height="2.5"/>
					<circle class="st3" cx="153.2" cy="84.5" r="1.3"/>
				</g>
				<g>
					<rect x="147.7" y="112.9" class="st2" width="2.5" height="2.5"/>
					<circle class="st3" cx="149" cy="114.1" r="1.3"/>
				</g>
				<g>
					<rect x="143.3" y="280.2" class="st2" width="2.5" height="2.5"/>
					<circle class="st3" cx="144.5" cy="281.5" r="1.3"/>
				</g>
				<g>
					<rect x="138.7" y="310.3" class="st2" width="2.5" height="2.5"/>
					<circle class="st3" cx="140" cy="311.5" r="1.3"/>
				</g>
				<g>
					<rect x="134.7" y="190.5" class="st2" width="2.5" height="2.5"/>
					<circle class="st3" cx="135.9" cy="191.7" r="1.3"/>
				</g>
				<g>
					<rect x="130.6" y="363.7" class="st2" width="2.5" height="2.5"/>
					<circle class="st3" cx="131.9" cy="364.9" r="1.3"/>
				</g>
				<g>
					<rect x="125.9" y="381.8" class="st2" width="2.5" height="2.5"/>
					<circle class="st3" cx="127.1" cy="383" r="1.3"/>
				</g>
				<g>
					<rect x="121.1" y="342.1" class="st2" width="2.5" height="2.5"/>
					<circle class="st3" cx="122.4" cy="343.4" r="1.3"/>
				</g>
				<g>
					<rect x="117.4" y="264.4" class="st2" width="2.5" height="2.5"/>
					<circle class="st3" cx="118.6" cy="265.6" r="1.3"/>
				</g>
			</g>
		</g>
		<g class="st1">
			<polygon class="st4" points="273.8,368.8 93.4,368.8 93.4,291.7 183.6,257 273.8,291.7 			"/>
			<polygon class="st4" points="333.8,326.4 333.8,347.6 320,347.6 320,626.3 47.3,626.3 47.3,347.6 33.5,347.6 33.5,326.4 			"/>
			<g>
				<g>
					<path class="st5" d="M104.7,364.6v27.6H82.1v-27.6c0-6.3,5.1-11.3,11.3-11.3S104.7,358.3,104.7,364.6z"/>
					<path class="st5" d="M164.9,364.6v27.6h-22.6v-27.6c0-6.3,5.1-11.3,11.3-11.3C159.8,353.2,164.9,358.3,164.9,364.6z"/>
					<path class="st5" d="M225,364.6v27.6h-22.6v-27.6c0-6.3,5.1-11.3,11.3-11.3C219.9,353.2,225,358.3,225,364.6z"/>
					<path class="st5" d="M285.2,364.6v27.6h-22.6v-27.6c0-6.3,5.1-11.3,11.3-11.3S285.2,358.3,285.2,364.6z"/>
				</g>
				<g>
					<path class="st5" d="M104.7,430v27.6H82.1V430c0-6.3,5.1-11.3,11.3-11.3S104.7,423.8,104.7,430z"/>
					<path class="st5" d="M164.9,430v27.6h-22.6V430c0-6.3,5.1-11.3,11.3-11.3C159.8,418.7,164.9,423.8,164.9,430z"/>
					<path class="st5" d="M225,430v27.6h-22.6V430c0-6.3,5.1-11.3,11.3-11.3C219.9,418.7,225,423.8,225,430z"/>
					<path class="st5" d="M285.2,430v27.6h-22.6V430c0-6.3,5.1-11.3,11.3-11.3S285.2,423.8,285.2,430z"/>
				</g>
				<g>
					<path class="st5" d="M104.7,495.4V523H82.1v-27.6c0-6.3,5.1-11.3,11.3-11.3S104.7,489.2,104.7,495.4z"/>
					<path class="st5" d="M164.9,495.4V523h-22.6v-27.6c0-6.3,5.1-11.3,11.3-11.3C159.8,484.1,164.9,489.2,164.9,495.4z"/>
					<path class="st5" d="M225,495.4V523h-22.6v-27.6c0-6.3,5.1-11.3,11.3-11.3C219.9,484.1,225,489.2,225,495.4z"/>
					<path class="st5" d="M285.2,495.4V523h-22.6v-27.6c0-6.3,5.1-11.3,11.3-11.3S285.2,489.2,285.2,495.4z"/>
				</g>
				<g>
					<path class="st5" d="M104.7,560.9v27.6H82.1v-27.6c0-6.3,5.1-11.3,11.3-11.3S104.7,554.6,104.7,560.9z"/>
					<path class="st5" d="M164.9,560.9v27.6h-22.6v-27.6c0-6.3,5.1-11.3,11.3-11.3C159.8,549.6,164.9,554.6,164.9,560.9z"/>
					<path class="st5" d="M225,560.9v27.6h-22.6v-27.6c0-6.3,5.1-11.3,11.3-11.3C219.9,549.6,225,554.6,225,560.9z"/>
					<path class="st5" d="M285.2,560.9v27.6h-22.6v-27.6c0-6.3,5.1-11.3,11.3-11.3S285.2,554.6,285.2,560.9z"/>
				</g>
			</g>
		</g>
		<polygon class="st6" points="443.4,294.3 476.7,294.3 476.7,216 443.4,216.8 		"/>
		<g class="st1">
			<circle class="st7" cx="571.4" cy="207.5" r="55.7"/>
			<path class="st8" d="M591.9,247.2c-30.8,0-55.7-24.9-55.7-55.7c0-13.3,4.7-25.6,12.5-35.2c-19.7,8.6-33.5,28.2-33.5,51.1
				c0,30.8,24.9,55.7,55.7,55.7c17.4,0,33-8,43.2-20.5C607.3,245.5,599.8,247.2,591.9,247.2z"/>
		</g>
		<rect x="428" y="267.4" class="st6" width="217" height="347.2"/>
		<rect x="407.7" y="237.9" class="st6" width="257.7" height="40.6"/>
		<g class="st1">
			<rect x="586.4" y="311.5" class="st5" width="20.5" height="20.5"/>
			<rect x="586.4" y="332.1" class="st5" width="20.5" height="20.5"/>
			<rect x="565.9" y="311.5" class="st5" width="20.5" height="20.5"/>
			<rect x="565.9" y="332.1" class="st5" width="20.5" height="20.5"/>
		</g>
		<g class="st1">
			<rect x="488.1" y="311.5" class="st5" width="20.5" height="20.5"/>
			<rect x="488.1" y="332.1" class="st5" width="20.5" height="20.5"/>
			<rect x="467.5" y="311.5" class="st5" width="20.5" height="20.5"/>
			<rect x="467.5" y="332.1" class="st5" width="20.5" height="20.5"/>
		</g>
		<g class="st1">
			<rect x="586.8" y="383.7" class="st5" width="20.5" height="20.5"/>
			<rect x="586.8" y="404.3" class="st5" width="20.5" height="20.5"/>
			<rect x="566.3" y="383.7" class="st5" width="20.5" height="20.5"/>
			<rect x="566.3" y="404.3" class="st5" width="20.5" height="20.5"/>
		</g>
		<g class="st1">
			<rect x="488.5" y="383.7" class="st5" width="20.5" height="20.5"/>
			<rect x="488.5" y="404.3" class="st5" width="20.5" height="20.5"/>
			<rect x="467.9" y="383.7" class="st5" width="20.5" height="20.5"/>
			<rect x="467.9" y="404.3" class="st5" width="20.5" height="20.5"/>
		</g>
		<g class="st1">
			<rect x="586.8" y="457.2" class="st5" width="20.5" height="20.5"/>
			<rect x="586.8" y="477.7" class="st5" width="20.5" height="20.5"/>
			<rect x="566.3" y="457.2" class="st5" width="20.5" height="20.5"/>
			<rect x="566.3" y="477.7" class="st5" width="20.5" height="20.5"/>
		</g>
		<g class="st1">
			<rect x="488.5" y="457.2" class="st5" width="20.5" height="20.5"/>
			<rect x="488.5" y="477.7" class="st5" width="20.5" height="20.5"/>
			<rect x="467.9" y="457.2" class="st5" width="20.5" height="20.5"/>
			<rect x="467.9" y="477.7" class="st5" width="20.5" height="20.5"/>
		</g>
		<g class="st1">
			<polygon class="st4" points="540.9,676.8 696,676.8 696,313 540.9,220.8 			"/>
			<rect x="523.2" y="333.8" class="st4" width="190.5" height="20.2"/>
			<rect x="655.4" y="374.7" class="st5" width="20.2" height="20.2"/>
			<rect x="607.7" y="374.7" class="st5" width="20.2" height="20.2"/>
			<rect x="561.4" y="374.7" class="st5" width="20.2" height="20.2"/>
			<rect x="654.5" y="413.5" class="st5" width="20.2" height="20.2"/>
			<rect x="606.9" y="413.5" class="st5" width="20.2" height="20.2"/>
			<rect x="560.5" y="413.5" class="st5" width="20.2" height="20.2"/>
			<rect x="653.9" y="452.2" class="st5" width="20.2" height="20.2"/>
			<rect x="606.3" y="452.2" class="st5" width="20.2" height="20.2"/>
			<rect x="559.9" y="452.2" class="st5" width="20.2" height="20.2"/>
			<rect x="653.3" y="491.4" class="st5" width="20.2" height="20.2"/>
			<rect x="605.6" y="491.4" class="st5" width="20.2" height="20.2"/>
			<rect x="559.3" y="491.4" class="st5" width="20.2" height="20.2"/>
			<rect x="653.3" y="530.2" class="st5" width="20.2" height="20.2"/>
			<rect x="605.6" y="530.2" class="st5" width="20.2" height="20.2"/>
			<rect x="559.3" y="530.2" class="st5" width="20.2" height="20.2"/>
			<rect x="652.6" y="569.4" class="st5" width="20.2" height="20.2"/>
			<rect x="605" y="569.4" class="st5" width="20.2" height="20.2"/>
			<rect x="558.6" y="569.4" class="st5" width="20.2" height="20.2"/>
			<rect x="652" y="609" class="st5" width="20.2" height="20.2"/>
			<rect x="604.4" y="609" class="st5" width="20.2" height="20.2"/>
			<rect x="558" y="609" class="st5" width="20.2" height="20.2"/>
		</g>
		<g class="st1">
			<polygon class="st4" points="434,630.7 281.7,630.7 281.7,273.6 434,273.4 			"/>
			<rect x="264.3" y="294" class="st4" width="187" height="19.9"/>
			<rect x="301.8" y="334.1" class="st5" width="19.9" height="19.9"/>
			<rect x="348.5" y="334.1" class="st5" width="19.9" height="19.9"/>
			<rect x="394" y="334.1" class="st5" width="19.9" height="19.9"/>
			<rect x="302.6" y="372.2" class="st5" width="19.9" height="19.9"/>
			<rect x="349.4" y="372.2" class="st5" width="19.9" height="19.9"/>
			<rect x="394.9" y="372.2" class="st5" width="19.9" height="19.9"/>
			<rect x="303.2" y="410.3" class="st5" width="19.9" height="19.9"/>
			<rect x="350" y="410.3" class="st5" width="19.9" height="19.9"/>
			<rect x="395.5" y="410.3" class="st5" width="19.9" height="19.9"/>
			<rect x="303.8" y="448.7" class="st5" width="19.9" height="19.9"/>
			<rect x="350.6" y="448.7" class="st5" width="19.9" height="19.9"/>
			<rect x="396.1" y="448.7" class="st5" width="19.9" height="19.9"/>
			<rect x="303.8" y="486.8" class="st5" width="19.9" height="19.9"/>
			<rect x="350.6" y="486.8" class="st5" width="19.9" height="19.9"/>
			<rect x="396.1" y="486.8" class="st5" width="19.9" height="19.9"/>
			<rect x="304.5" y="525.3" class="st5" width="19.9" height="19.9"/>
			<rect x="351.2" y="525.3" class="st5" width="19.9" height="19.9"/>
			<rect x="396.7" y="525.3" class="st5" width="19.9" height="19.9"/>
			<rect x="305.1" y="564.2" class="st5" width="19.9" height="19.9"/>
			<rect x="351.8" y="564.2" class="st5" width="19.9" height="19.9"/>
			<rect x="397.3" y="564.2" class="st5" width="19.9" height="19.9"/>
		</g>
		<polygon class="st6" points="572.4,445.3 405.6,445.3 405.6,374.1 489,342 572.4,374.1 		"/>
		<polygon class="st6" points="640.2,399.4 640.2,419 627.4,419 627.4,676.6 375.4,676.6 375.4,419 362.6,419 362.6,399.4 		"/>
		<g class="st1">
			<g>
				<path class="st5" d="M420.2,432.4v25.5h-20.9v-25.5c0-5.8,4.7-10.5,10.5-10.5C415.5,421.9,420.2,426.6,420.2,432.4z"/>
				<path class="st5" d="M475.8,432.4v25.5h-20.9v-25.5c0-5.8,4.7-10.5,10.5-10.5C471.1,421.9,475.8,426.6,475.8,432.4z"/>
				<path class="st5" d="M531.4,432.4v25.5h-20.9v-25.5c0-5.8,4.7-10.5,10.5-10.5C526.7,421.9,531.4,426.6,531.4,432.4z"/>
				<path class="st5" d="M586.9,432.4v25.5H566v-25.5c0-5.8,4.7-10.5,10.5-10.5C582.3,421.9,586.9,426.6,586.9,432.4z"/>
			</g>
			<g>
				<path class="st5" d="M420.2,492.9v25.5h-20.9v-25.5c0-5.8,4.7-10.5,10.5-10.5C415.5,482.4,420.2,487.1,420.2,492.9z"/>
				<path class="st5" d="M475.8,492.9v25.5h-20.9v-25.5c0-5.8,4.7-10.5,10.5-10.5C471.1,482.4,475.8,487.1,475.8,492.9z"/>
				<path class="st5" d="M531.4,492.9v25.5h-20.9v-25.5c0-5.8,4.7-10.5,10.5-10.5C526.7,482.4,531.4,487.1,531.4,492.9z"/>
				<path class="st5" d="M586.9,492.9v25.5H566v-25.5c0-5.8,4.7-10.5,10.5-10.5C582.3,482.4,586.9,487.1,586.9,492.9z"/>
			</g>
			<g>
				<path class="st5" d="M420.2,553.4v25.5h-20.9v-25.5c0-5.8,4.7-10.5,10.5-10.5C415.5,542.9,420.2,547.6,420.2,553.4z"/>
				<path class="st5" d="M475.8,553.4v25.5h-20.9v-25.5c0-5.8,4.7-10.5,10.5-10.5C471.1,542.9,475.8,547.6,475.8,553.4z"/>
				<path class="st5" d="M531.4,553.4v25.5h-20.9v-25.5c0-5.8,4.7-10.5,10.5-10.5C526.7,542.9,531.4,547.6,531.4,553.4z"/>
				<path class="st5" d="M586.9,553.4v25.5H566v-25.5c0-5.8,4.7-10.5,10.5-10.5C582.3,542.9,586.9,547.6,586.9,553.4z"/>
			</g>
			<g>
				<path class="st5" d="M420.2,613.9v25.5h-20.9v-25.5c0-5.8,4.7-10.5,10.5-10.5C415.5,603.4,420.2,608.1,420.2,613.9z"/>
				<path class="st5" d="M475.8,613.9v25.5h-20.9v-25.5c0-5.8,4.7-10.5,10.5-10.5C471.1,603.4,475.8,608.1,475.8,613.9z"/>
				<path class="st5" d="M531.4,613.9v25.5h-20.9v-25.5c0-5.8,4.7-10.5,10.5-10.5C526.7,603.4,531.4,608.1,531.4,613.9z"/>
				<path class="st5" d="M586.9,613.9v25.5H566v-25.5c0-5.8,4.7-10.5,10.5-10.5C582.3,603.4,586.9,608.1,586.9,613.9z"/>
			</g>
		</g>
		<g class="st1">
			<rect x="152.3" y="422.8" class="st4" width="160.7" height="257.1"/>
			<rect x="137.3" y="400.9" class="st4" width="190.8" height="30.1"/>
			<g>
				<rect x="180.5" y="455.4" class="st5" width="15.2" height="15.2"/>
				<rect x="180.5" y="470.6" class="st5" width="15.2" height="15.2"/>
				<rect x="195.7" y="455.4" class="st5" width="15.2" height="15.2"/>
				<rect x="195.7" y="470.6" class="st5" width="15.2" height="15.2"/>
			</g>
			<g>
				<rect x="253.4" y="455.4" class="st5" width="15.2" height="15.2"/>
				<rect x="253.4" y="470.6" class="st5" width="15.2" height="15.2"/>
				<rect x="268.6" y="455.4" class="st5" width="15.2" height="15.2"/>
				<rect x="268.6" y="470.6" class="st5" width="15.2" height="15.2"/>
			</g>
			<g>
				<rect x="180.2" y="508.9" class="st5" width="15.2" height="15.2"/>
				<rect x="180.2" y="524.1" class="st5" width="15.2" height="15.2"/>
				<rect x="195.4" y="508.9" class="st5" width="15.2" height="15.2"/>
				<rect x="195.4" y="524.1" class="st5" width="15.2" height="15.2"/>
			</g>
			<g>
				<rect x="253.1" y="508.9" class="st5" width="15.2" height="15.2"/>
				<rect x="253.1" y="524.1" class="st5" width="15.2" height="15.2"/>
				<rect x="268.3" y="508.9" class="st5" width="15.2" height="15.2"/>
				<rect x="268.3" y="524.1" class="st5" width="15.2" height="15.2"/>
			</g>
			<g>
				<rect x="180.2" y="563.3" class="st5" width="15.2" height="15.2"/>
				<rect x="180.2" y="578.5" class="st5" width="15.2" height="15.2"/>
				<rect x="195.4" y="563.3" class="st5" width="15.2" height="15.2"/>
				<rect x="195.4" y="578.5" class="st5" width="15.2" height="15.2"/>
			</g>
			<g>
				<rect x="253.1" y="563.3" class="st5" width="15.2" height="15.2"/>
				<rect x="253.1" y="578.5" class="st5" width="15.2" height="15.2"/>
				<rect x="268.3" y="563.3" class="st5" width="15.2" height="15.2"/>
				<rect x="268.3" y="578.5" class="st5" width="15.2" height="15.2"/>
			</g>
		</g>
		<rect x="68.3" y="52.8" class="st9" width="655.3" height="506.4"/>
	</g>
</g>
</svg>
