<?xml version="1.0" encoding="utf-8"?>
<!-- Generator: Adobe Illustrator 19.1.0, SVG Export Plug-In . SVG Version: 6.00 Build 0)  -->
<svg version="1.1" xmlns="http://www.w3.org/2000/svg" xmlns:xlink="http://www.w3.org/1999/xlink" x="0px" y="0px"
	 viewBox="-49 141 512 512" style="enable-background:new -49 141 512 512;" xml:space="preserve">
<style type="text/css">
	.st0{fill:#BC8D45;stroke:#A57637;stroke-width:4;stroke-miterlimit:10;}
	.st1{clip-path:url(#SVGID_2_);}
	.st2{fill:none;stroke:#A57636;stroke-width:4;stroke-miterlimit:10;}
	.st3{clip-path:url(#SVGID_4_);}
	.st4{fill:#FBBFAA;stroke:#F38398;stroke-width:4;stroke-miterlimit:10;}
	.st5{fill:#353535;}
	.st6{fill:#FDFDFE;}
	.st7{fill:none;stroke:#F38398;stroke-width:2;stroke-miterlimit:10;}
	.st8{fill:#C9D787;stroke:#7D8A2E;stroke-width:4;stroke-miterlimit:10;}
	.st9{fill:#BC8D45;stroke:#A57636;stroke-width:4;stroke-miterlimit:10;}
	.st10{fill:none;stroke:#7D8A2E;stroke-width:2;stroke-miterlimit:10;}
</style>
<g id="icecream_x5F_cone">
	<g>
		<g id="cone">
			<path class="st0" d="M191.5,406.9h107c7.5,0,12.7,7.3,10.2,14.4c-12.2,35.7-45,125.5-63.8,125.5s-51.5-89.8-63.8-125.5
				C178.9,414.2,184.2,406.9,191.5,406.9z"/>
			<g>
				<g>
					<g>
						<g>
							<g>
								<g>
									<defs>
										<path id="SVGID_1_" d="M191.5,407.7h107c7.5,0,12.7,7.3,10.2,14.4c-12.2,35.8-45,125.5-63.8,125.5s-51.5-89.8-63.8-125.5
											C178.9,415.1,184.2,407.7,191.5,407.7z"/>
									</defs>
									<clipPath id="SVGID_2_">
										<use xlink:href="#SVGID_1_"  style="overflow:visible;"/>
									</clipPath>
									<g class="st1">
										<path class="st2" d="M227.4,328.8c0,0,53.1,107,164,156.1"/>
										<path class="st2" d="M211.8,341.9c0,0,53.1,107,164,156.1"/>
										<path class="st2" d="M196.2,354.9c0,0,53.1,107,164,156.1"/>
										<path class="st2" d="M180.6,367.9c0,0,53.1,107,164,156.1"/>
										<path class="st2" d="M164.9,380.9c0,0,53.1,107,164,156.1"/>
										<path class="st2" d="M149.3,393.9c0,0,53.1,107,164,156.1"/>
										<path class="st2" d="M133.7,406.9c0,0,53.1,107,164,156.1"/>
									</g>
								</g>
							</g>
						</g>
					</g>
				</g>
				<g>
					<g>
						<g>
							<g>
								<g>
									<defs>
										<path id="SVGID_3_" d="M191.5,407.7h107c7.5,0,12.7,7.3,10.2,14.4c-12.2,35.8-45,125.5-63.8,125.5s-51.5-89.8-63.8-125.5
											C178.9,415.1,184.2,407.7,191.5,407.7z"/>
									</defs>
									<clipPath id="SVGID_4_">
										<use xlink:href="#SVGID_3_"  style="overflow:visible;"/>
									</clipPath>
									<g class="st3">
										<path class="st2" d="M271.8,318.8c0,0-53.1,107-164,156.1"/>
										<path class="st2" d="M287.4,331.8c0,0-53.1,107-164,156.1"/>
										<path class="st2" d="M303,344.8c0,0-53.1,107-164,156.1"/>
										<path class="st2" d="M318.6,357.7c0,0-53.1,107-164,156.1"/>
										<path class="st2" d="M334.2,370.8c0,0-53.1,107-164,156.1"/>
										<path class="st2" d="M349.9,383.8c0,0-53.1,107-164,156.1"/>
										<path class="st2" d="M365.5,396.8c0,0-53.1,107-164,156.1"/>
									</g>
								</g>
							</g>
						</g>
					</g>
				</g>
			</g>
		</g>
		<g id="icecream">
			<path class="st4" d="M316.2,380.8C316.2,380.8,316.1,380.8,316.2,380.8c7.2-11.7,11.4-25.4,11.4-40.1c0-43.4-36.6-78.5-81.8-78.5
				S164,297.3,164,340.6c0,14.7,4.2,28.4,11.5,40.1h-0.1c-10.2,0-18.5,8.2-18.5,18.5s8.2,18.5,18.5,18.5c6.1,0,11.5-3,14.9-7.6
				c3.4,4.5,8.8,7.6,14.9,7.6c5.4,0,10.1-2.3,13.5-5.9c3.4,3.6,8.2,5.9,13.5,5.9c5.4,0,10.2-2.3,13.6-6c3.4,3.7,8.2,6,13.6,6
				c6.3,0,12-3.3,15.3-8.1c3.3,5,9,8.1,15.3,8.1c5.1,0,9.6-2,13-5.3c3.4,3.3,7.9,5.3,13,5.3c10.2,0,18.5-8.2,18.5-18.5
				C334.5,389,326.4,380.8,316.2,380.8z"/>
		</g>
		<g>
			<path class="st5" d="M202.7,332.4c-2.4,0-4.4-2-4.4-4.4s2-4.4,4.4-4.4c0.4,0,0.8,0.1,1.3,0.2c-1.9-1.9-4.4-3-7.3-3
				c-5.7,0-10.2,4.6-10.2,10.2s4.6,10.2,10.2,10.2c5.7,0,10.2-4.6,10.2-10.2c0-0.5,0-0.9-0.1-1.4
				C206.3,331.3,204.6,332.4,202.7,332.4z"/>
			<path class="st6" d="M198.2,328c0,2.4,2,4.4,4.4,4.4c1.9,0,3.6-1.2,4.2-2.8c-0.3-2.3-1.4-4.3-3-5.9c-0.4-0.1-0.8-0.2-1.3-0.2
				C200.2,323.4,198.2,325.4,198.2,328z"/>
		</g>
		<g>
			<path class="st5" d="M297.9,332.4c-2.4,0-4.4-2-4.4-4.4s2-4.4,4.4-4.4c0.4,0,0.8,0.1,1.3,0.2c-1.9-1.9-4.4-3-7.3-3
				c-5.7,0-10.2,4.6-10.2,10.2c0,5.7,4.6,10.2,10.2,10.2c5.7,0,10.2-4.6,10.2-10.2c0-0.5,0-0.9-0.1-1.4
				C301.4,331.3,299.8,332.4,297.9,332.4z"/>
			<path class="st6" d="M293.4,328c0,2.4,2,4.4,4.4,4.4c1.9,0,3.6-1.2,4.2-2.8c-0.3-2.3-1.4-4.3-3-5.9c-0.4-0.1-0.8-0.2-1.3-0.2
				C295.4,323.4,293.4,325.4,293.4,328z"/>
		</g>
		<path class="st7" d="M252.8,352.7c0,0-3,5.1-9.1,5.1s-9.1-5.1-9.1-5.1"/>
	</g>
</g>
<g id="cupcake">
	<path class="st8" d="M156.9,367.7c-91.1,0-86.5,84.9-77.5,99.6c8.7,14.2,72.4,11.7,77.5,11.5c5.2,0.2,68.9,2.7,77.5-11.5
		C243.5,452.6,248,367.7,156.9,367.7z"/>
	<g>
		<path class="st9" d="M224.8,474.6l-13.7-12.4l-13.7,12.4l-13.7-12.4l-13.7,12.4l-13.7-12.4l-13.7,12.4l-13.7-12.4l-13.7,12.4
			l-13.7-12.4l-13.7,12.4l-12.4-11.2c-0.9,1.2-1.3,2.8-1,4.4l16.3,75.5c0.5,2.5,2.8,4.3,5.3,4.3h120.1c2.6,0,4.8-1.8,5.3-4.3
			l16.3-75.5c0.4-1.6-0.1-3.2-1-4.4L224.8,474.6z"/>
		<path class="st2" d="M106.1,547.5"/>
		<path class="st2" d="M126.3,547.5"/>
		<path class="st2" d="M146.4,547.5"/>
		<path class="st2" d="M166.6,547.5"/>
		<path class="st2" d="M186.7,547.5"/>
		<path class="st2" d="M206.9,547.5"/>
		<line class="st2" x1="88.2" y1="474.6" x2="106.1" y2="547.5"/>
		<line class="st2" x1="115.5" y1="474.6" x2="126.3" y2="547.5"/>
		<line class="st2" x1="142.8" y1="474.6" x2="146.4" y2="547.5"/>
		<line class="st2" x1="170.2" y1="474.6" x2="166.6" y2="547.5"/>
		<line class="st2" x1="197.5" y1="474.6" x2="186.7" y2="547.5"/>
		<line class="st2" x1="224.8" y1="474.6" x2="206.9" y2="547.5"/>
	</g>
	<g>
		<path class="st5" d="M121.2,416.8c-2,0-3.7-1.7-3.7-3.7c0-2,1.7-3.7,3.7-3.7c0.3,0,0.7,0.1,1,0.2c-1.6-1.6-3.7-2.4-6-2.4
			c-4.7,0-8.5,3.8-8.5,8.5s3.8,8.5,8.5,8.5c4.7,0,8.5-3.8,8.5-8.5c0-0.4,0-0.8-0.1-1.1C124.1,415.9,122.7,416.8,121.2,416.8z"/>
		<path class="st6" d="M117.4,413.2c0,2,1.7,3.7,3.7,3.7c1.6,0,3-1,3.5-2.4c-0.3-1.9-1.1-3.6-2.4-4.9c-0.3-0.1-0.7-0.2-1-0.2
			C119.1,409.4,117.4,411.1,117.4,413.2z"/>
	</g>
	<g>
		<path class="st5" d="M200.1,416.8c-2,0-3.7-1.7-3.7-3.7c0-2,1.7-3.7,3.7-3.7c0.3,0,0.7,0.1,1,0.2c-1.6-1.6-3.7-2.4-6-2.4
			c-4.7,0-8.5,3.8-8.5,8.5c0,4.7,3.8,8.5,8.5,8.5c4.7,0,8.5-3.8,8.5-8.5c0-0.4,0-0.8-0.1-1.1C202.9,415.9,201.6,416.8,200.1,416.8z"
			/>
		<path class="st6" d="M196.3,413.2c0,2,1.7,3.7,3.7,3.7c1.6,0,3-1,3.5-2.4c-0.3-1.9-1.1-3.6-2.4-4.9c-0.3-0.1-0.7-0.2-1-0.2
			C198,409.4,196.3,411.1,196.3,413.2z"/>
	</g>
	<path class="st10" d="M162.6,433.6c0,0-2.4,4.2-7.5,4.2c-5.1,0-7.5-4.2-7.5-4.2"/>
</g>
</svg>
