<?xml version="1.0" encoding="utf-8"?>
<!-- Generator: Adobe Illustrator 19.1.0, SVG Export Plug-In . SVG Version: 6.00 Build 0)  -->
<svg version="1.1" xmlns="http://www.w3.org/2000/svg" xmlns:xlink="http://www.w3.org/1999/xlink" x="0px" y="0px"
	 viewBox="0 0 612 585" style="enable-background:new 0 0 612 585;" xml:space="preserve">
<style type="text/css">
	.st0{fill:#374140;stroke:#000000;stroke-miterlimit:10;}
	.st1{fill:#DC3727;}
	.st2{clip-path:url(#SVGID_2_);}
	.st3{fill:#2A2C2B;}
	.st4{fill:#C6C6C5;}
	.st5{fill:#1E1E20;}
</style>
<g id="background">
	<rect class="st0" width="612" height="585"/>
</g>
<g id="sun">
	<circle class="st1" cx="306" cy="279.9" r="192.2"/>
</g>
<g id="mountains">
	<g>
		<defs>
			<rect id="SVGID_1_" x="97" y="88.7" width="414.7" height="291.3"/>
		</defs>
		<clipPath id="SVGID_2_">
			<use xlink:href="#SVGID_1_"  style="overflow:visible;"/>
		</clipPath>
		<g class="st2">
			<polygon class="st3" points="111.1,384.4 332.3,384.4 244.3,233.9 221.7,195.3 			"/>
			<polyline class="st4" points="244.3,233.9 230.7,242 221.7,237.9 209.9,242 197.7,236.4 221.7,195.3 			"/>
		</g>
		<g class="st2">
			<polygon class="st3" points="426,390.4 179.1,390.4 277.4,207.8 302.5,161 			"/>
			<polyline class="st4" points="277.4,207.8 292.6,217.6 302.5,212.7 315.7,217.6 329.3,210.8 302.5,161 			"/>
		</g>
		<g class="st2">
			<polygon class="st3" points="275.7,420.5 522.6,420.5 424.3,230.9 399.2,182.3 			"/>
			<polyline class="st4" points="424.3,230.9 409.1,241.1 399.2,236 386,241.1 372.4,234 399.2,182.3 			"/>
		</g>
	</g>
</g>
<g id="mask">
</g>
<g id="island">
	<polygon class="st5" points="92.7,378.9 519.3,378.9 485.1,433.8 423.6,454.1 378.5,488.6 310.1,473.3 259.5,495.2 200.7,451.4 
		146,437 	"/>
</g>
</svg>
