<?xml version="1.0" encoding="utf-8"?>
<!-- Generator: Adobe Illustrator 19.1.0, SVG Export Plug-In . SVG Version: 6.00 Build 0)  -->
<svg version="1.1" id="Layer_1" xmlns="http://www.w3.org/2000/svg" xmlns:xlink="http://www.w3.org/1999/xlink" x="0px" y="0px"
	 viewBox="0 0 612 792" style="enable-background:new 0 0 612 792;" xml:space="preserve">
<style type="text/css">
	.st0{fill:#FFFFFF;}
	.st1{fill:#527ABD;}
	.st2{fill:#F15B4C;}
</style>
<circle class="st0" cx="306" cy="396" r="140.6"/>
<g>
	<g>
		<path class="st1" d="M294.8,333.9c5.5,4.8,9.9,11,13,18.4c3.1,7.5,4.5,14.8,4,22.1c-0.5,7.3-2.3,13.7-5.5,19.2
			c-6.4,11.4-14.8,19.2-25,23.5l-21.5,9.1l8.2,19.5c1.1,2.6,1.9,4.7,2.2,6c0.4,1.4,0.5,3.1,0.3,5.3c-0.3,3.8-4.1,7.2-11.5,10.3
			c-8,3.4-13.6,3.2-16.8-0.4c-1.5-1.7-3.1-4.5-4.8-8.5l-40.2-95.6c-1.1-2.6-1.9-4.7-2.2-6c-0.4-1.4-0.5-3.1-0.3-5.3
			c0.3-3.8,4.1-7.2,11.5-10.3l36.9-15.5c10.1-4.3,21.5-4.7,34.1-1.4C283.3,325.9,289.2,329.1,294.8,333.9z M277.3,378.6
			c2.3-3.9,2.3-8.4,0.2-13.5c-2.1-5.1-5.4-8.2-9.8-9.4c-4.4-1.2-8.4-1-12,0.5l-21.5,9.1l12.8,30.5l21.7-9.1
			C272.2,385.2,275,382.5,277.3,378.6z"/>
	</g>
	<g>
		<path class="st2" d="M356.5,432.2l49.6,10.9c4,0.9,6.8,2,8.5,3.3c1.6,1.3,2.5,3,2.7,5.1c0.2,2.1-0.1,4.7-0.8,8
			c-0.7,3.2-1.6,5.7-2.6,7.6c-1,1.8-2.4,2.9-4,3.3c-2.6,0.7-5.9,0.6-9.9-0.3l-65.7-14.5c-8.5-1.9-13-5.3-13.4-10.2
			c-0.3-2.1,0-5.3,1-9.5l22.4-101.4c0.6-2.8,1.2-4.9,1.7-6.2c0.5-1.4,1.4-2.8,2.8-4.5c2.4-2.9,7.5-3.5,15.3-1.8
			c8.5,1.9,13.1,5.2,13.7,10.1c0.2,2.2-0.2,5.4-1.2,9.7L356.5,432.2z"/>
	</g>
</g>
</svg>
