<?xml version="1.0" encoding="utf-8"?>
<!-- Generator: Adobe Illustrator 19.1.0, SVG Export Plug-In . SVG Version: 6.00 Build 0)  -->
<svg version="1.1" id="Layer_1" xmlns="http://www.w3.org/2000/svg" xmlns:xlink="http://www.w3.org/1999/xlink" x="0px" y="0px"
	 viewBox="0 0 286 285" style="enable-background:new 0 0 286 285;" xml:space="preserve">
<style type="text/css">
	.st0{fill:#B0AFB0;}
	.st1{fill:#727373;}
	.st2{fill:#919191;}
</style>
<g>
	<path class="st0" d="M69.3,242.1L222.6,88.8c14.9,4.6,31.4,1.4,42.8-10c12.8-12.8,15.3-32.2,7.8-48.4L265,54l-29.4,10.2l-19.2-19.3
		l10.2-29.4l23.6-8.2c-16.3-7.5-35.6-5-48.4,7.8c-11.4,11.4-14.6,27.9-10,42.8L38.4,211.3c-9.5-1.1-19.2,1.8-26.3,8.9
		c-12.6,12.6-12.1,33.7,1.2,47s34.4,13.9,47,1.3C67.4,261.3,70.4,251.6,69.3,242.1z M32,261l-12.5-12.5l4-16.5l16.5-4l12.5,12.5
		l-4,16.5L32,261z"/>
	
		<rect x="38.1" y="142.4" transform="matrix(-0.7071 0.7071 -0.7071 -0.7071 331.091 163.2637)" class="st1" width="187.3" height="15.6"/>
	
		<rect x="27.2" y="132" transform="matrix(-0.7071 0.7071 -0.7071 -0.7071 304.9469 152.6026)" class="st2" width="187.3" height="15"/>
	
		<rect x="48.2" y="153.8" transform="matrix(-0.7071 0.7071 -0.7071 -0.7071 355.4742 173.3815)" class="st2" width="187.3" height="13"/>
</g>
</svg>
