<?xml version="1.0" encoding="utf-8"?>
<!-- Generator: Adobe Illustrator 19.1.0, SVG Export Plug-In . SVG Version: 6.00 Build 0)  -->
<svg version="1.1" id="Layer_1" xmlns="http://www.w3.org/2000/svg" xmlns:xlink="http://www.w3.org/1999/xlink" x="0px" y="0px"
	 viewBox="-49 141 512 512" style="enable-background:new -49 141 512 512;" xml:space="preserve">
<style type="text/css">
	.st0{fill:none;}
	.st1{fill:#4E7AC7;}
	.st2{fill:#35478C;}
	.st3{fill:#B0AFB0;}
	.st4{fill:#8E8E8E;}
</style>
<polygon class="st0" points="-282.7,911.2 -286.7,927.7 -274.2,940.2 -257.7,936.2 -253.7,919.7 -266.2,907.2 "/>
<polygon class="st0" points="138.8,967.5 155.3,963.5 159.3,947 153.2,940.8 132.6,961.3 "/>
<polygon class="st0" points="146.8,934.5 130.3,938.5 126.3,955 132.4,961 152.5,940.2 "/>
<g>
	<circle class="st1" cx="206.6" cy="396.9" r="243"/>
	<path class="st0" d="M97.8,534.2l0.6-0.6c-6.7-1.3-13.2-4.5-18.5-9.8c-13.3-13.3-13.8-34.4-1.2-47c7.1-7.1,16.8-10,26.3-8.9
		l153.4-153.3c-4.6-14.9-1.4-31.4,10-42.8c12.8-12.8,32.1-15.3,48.4-7.8l-23.6,8.2l-10.2,29.4l19.2,19.3l6.8-2.4l30.8-31.4
		L450,387.9C445.3,258,338.5,154.1,207.4,154.1c-134.2,0-243,108.8-243,243s108.8,243,243,243c0.6,0,1.2,0,1.8,0L97.8,534.2z"/>
	<path class="st2" d="M332,335.4c-11.4,11.4-27.9,14.6-42.8,10L135.9,498.7c1.1,9.5-1.9,19.2-9,26.4c-7.6,7.6-18.3,10.4-28.5,8.5
		l-0.6,0.6L209.1,640c133.4-1,241.2-109.4,241.2-243c0-3.1-0.1-6.1-0.2-9.2L339.7,287C347.2,303.2,344.7,322.6,332,335.4z"/>
	<path class="st3" d="M339.7,287l-8.2,23.6l-22.6,7.8l-6.8,2.4l-19.2-19.3l10.2-29.4l23.6-8.2c-16.3-7.5-35.6-5-48.4,7.8
		c-11.4,11.4-14.6,27.9-10,42.8L104.9,467.9c-9.5-1.1-19.2,1.8-26.3,8.9c-12.6,12.6-12.1,33.7,1.2,47c5.3,5.3,11.8,8.5,18.5,9.8
		c10.2,1.9,20.9-0.9,28.5-8.5c7.1-7.2,10.1-16.9,9-26.4L289,345.4c14.9,4.6,31.4,1.4,42.8-10C344.7,322.6,347.2,303.2,339.7,287z
		 M86.1,505.1l4-16.5l16.5-4l12.5,12.5l-4,16.5l-16.5,4L86.1,505.1z"/>
	<path class="st4" d="M340,287l-8.2,23.6l-22.6,7.8l-6.8,2.4l-9-9.1l-180,179.2l6.2,6.2l-4,16.5l-16.5,4l-6.2-6.2l-12.5,12.4
		c5.3,5.3,11.8,8.5,18.5,9.8c10.2,1.9,20.9-0.9,28.5-8.5c7.1-7.2,10.1-16.9,9-26.4l153.2-153.3c14.9,4.6,31.4,1.4,42.8-10
		C345,322.6,347.5,303.2,340,287z"/>
</g>
</svg>
