<?xml version="1.0" encoding="utf-8"?>
<!-- Generator: Adobe Illustrator 19.1.0, SVG Export Plug-In . SVG Version: 6.00 Build 0)  -->
<svg version="1.1" id="Layer_1" xmlns="http://www.w3.org/2000/svg" xmlns:xlink="http://www.w3.org/1999/xlink" x="0px" y="0px"
	 viewBox="-49 141 512 512" style="enable-background:new -49 141 512 512;" xml:space="preserve">
<style type="text/css">
	.st0{fill:#374140;}
	.st1{clip-path:url(#SVGID_2_);fill:#2A2C2B;}
	.st2{fill:#DDDDDD;}
	.st3{fill:#AAAAAA;}
	.st4{fill:#EF4951;}
	.st5{fill:#67BD56;}
	.st6{fill:#525DAA;}
	.st7{opacity:0.7;fill:none;stroke:#000000;stroke-width:3;stroke-linejoin:round;stroke-miterlimit:10;enable-background:new    ;}
</style>
<circle class="st0" cx="207" cy="397" r="237.5"/>
<g>
	<g>
		<g>
			<g>
				<defs>
					<circle id="SVGID_1_" cx="207" cy="397" r="237.5"/>
				</defs>
				<clipPath id="SVGID_2_">
					<use xlink:href="#SVGID_1_"  style="overflow:visible;"/>
				</clipPath>
				<polyline class="st1" points="349.8,312.3 66.6,481.5 297.7,700.3 549.3,501.2 				"/>
			</g>
		</g>
	</g>
</g>
<g>
	<path class="st2" d="M57.2,465c0,11.6,9.4,21,21,21h257.6c11.6,0,21-9.4,21-21V337.1H57.3L57.2,465L57.2,465z"/>
	<path class="st3" d="M335.8,308H78.2c-11.6,0-21,9.4-21,21v8.1h299.5V329C356.8,317.4,347.3,308,335.8,308z"/>
	<circle class="st4" cx="335.8" cy="322.5" r="6.8"/>
	<circle class="st5" cx="313.5" cy="322.5" r="6.8"/>
	<circle class="st6" cx="291.3" cy="322.5" r="6.8"/>
	<polyline class="st7" points="324.3,371.4 309.4,362.9 294.6,371.4 279.8,362.9 265,371.4 250.2,362.9 235.3,371.4 220.5,362.9 
		205.7,371.4 190.9,362.9 176.1,371.4 161.2,362.9 146.4,371.4 131.6,362.9 116.8,371.4 102,362.9 87.1,371.4 	"/>
	<polyline class="st7" points="324.3,410.8 309.4,402.2 294.6,410.8 279.8,402.2 265,410.8 250.2,402.2 235.3,410.8 220.5,402.2 
		205.7,410.8 190.9,402.2 176.1,410.8 161.2,402.2 146.4,410.8 131.6,402.2 116.8,410.8 102,402.2 87.1,410.8 	"/>
	<polyline class="st7" points="324.3,450.2 309.4,441.7 294.6,450.2 279.8,441.7 265,450.2 250.2,441.7 235.3,450.2 220.5,441.7 
		205.7,450.2 190.9,441.7 176.1,450.2 161.2,441.7 146.4,450.2 131.6,441.7 116.8,450.2 102,441.7 87.1,450.2 	"/>
</g>
</svg>
