<?xml version="1.0" encoding="utf-8"?>
<!-- Generator: Adobe Illustrator 19.1.0, SVG Export Plug-In . SVG Version: 6.00 Build 0)  -->
<svg version="1.1" id="Layer_1" xmlns="http://www.w3.org/2000/svg" xmlns:xlink="http://www.w3.org/1999/xlink" x="0px" y="0px"
	 viewBox="0 0 350 208" style="enable-background:new 0 0 350 208;" xml:space="preserve">
<style type="text/css">
	.st0{fill:#DDDDDD;}
	.st1{fill:#AAAAAA;}
	.st2{fill:#EF4951;}
	.st3{fill:#67BD56;}
	.st4{fill:#525DAA;}
	.st5{opacity:0.7;fill:none;stroke:#000000;stroke-width:4;stroke-linejoin:round;stroke-miterlimit:10;enable-background:new    ;}
</style>
<g>
	<path class="st0" d="M0,183.5C0,197,11,208,24.5,208h301c13.5,0,24.5-11,24.5-24.5V34H0V183.5z"/>
	<path class="st1" d="M325.5,0h-301C11,0,0,11,0,24.5V34h350v-9.5C350,11,339,0,325.5,0z"/>
	<circle class="st2" cx="325.5" cy="17" r="8"/>
	<circle class="st3" cx="299.5" cy="17" r="8"/>
	<circle class="st4" cx="273.5" cy="17" r="8"/>
	<polyline class="st5" points="312.1,74.1 294.7,64.1 277.4,74.1 260.1,64.1 242.8,74.1 225.5,64.1 208.1,74.1 190.8,64.1 
		173.5,74.1 156.2,64.1 138.9,74.1 121.5,64.1 104.2,74.1 86.9,64.1 69.6,74.1 52.3,64.1 34.9,74.1 	"/>
	<polyline class="st5" points="312.1,120.1 294.7,110.1 277.4,120.1 260.1,110.1 242.8,120.1 225.5,110.1 208.1,120.1 190.8,110.1 
		173.5,120.1 156.2,110.1 138.9,120.1 121.5,110.1 104.2,120.1 86.9,110.1 69.6,120.1 52.3,110.1 34.9,120.1 	"/>
	<polyline class="st5" points="312.1,166.2 294.7,156.2 277.4,166.2 260.1,156.2 242.8,166.2 225.5,156.2 208.1,166.2 190.8,156.2 
		173.5,166.2 156.2,156.2 138.9,166.2 121.5,156.2 104.2,166.2 86.9,156.2 69.6,166.2 52.3,156.2 34.9,166.2 	"/>
</g>
</svg>
