<?xml version="1.0" encoding="utf-8"?>
<!-- Generator: Adobe Illustrator 19.1.0, SVG Export Plug-In . SVG Version: 6.00 Build 0)  -->
<svg version="1.1" id="Layer_1" xmlns="http://www.w3.org/2000/svg" xmlns:xlink="http://www.w3.org/1999/xlink" x="0px" y="0px"
	 viewBox="0 0 792 612" style="enable-background:new 0 0 792 612;" xml:space="preserve">
<style type="text/css">
	.st0{fill:#90A99C;stroke:#000000;stroke-miterlimit:10;}
	.st1{fill:#FFFFFF;}
	.st2{fill:#D1DBBE;}
	.st3{fill:#282828;}
	.st4{fill:#374140;}
	.st5{fill:#2A2C2B;}
	.st6{fill:#AEAFAE;}
	.st7{fill:#494949;}
	.st8{fill:#333333;}
	.st9{opacity:0.5;fill:#494949;}
	.st10{fill:#BD8D46;}
	.st11{fill:#0F0F0F;}
	.st12{fill:#FEFFFD;}
	.st13{fill:#DDDDDD;}
	.st14{fill:#B9121B;}
	.st15{fill:#E74C3C;}
	.st16{fill:#CC4335;}
	.st17{fill:#45BF55;}
	.st18{fill:#167F39;}
	.st19{fill:#35478C;}
	.st20{fill:#FFD34E;}
</style>
<g id="background">
	<rect x="1.3" y="-0.3" class="st0" width="792" height="612"/>
</g>
<g id="desk">
	<rect x="82" y="377.3" class="st1" width="628.1" height="29.8"/>
	<rect x="116" y="407" class="st1" width="28.9" height="205"/>
	<rect x="144.9" y="406.9" class="st2" width="116.5" height="166.9"/>
	<rect x="644.9" y="407" class="st1" width="28.9" height="205"/>
	<rect x="528.4" y="407" class="st2" width="116.5" height="166.9"/>
	<rect x="261.4" y="411" class="st1" width="266.9" height="42.1"/>
	<circle class="st3" cx="394.9" cy="432.1" r="6.9"/>
	<rect x="261.4" y="407" class="st2" width="266.9" height="4"/>
	<g>
		<path class="st3" d="M234.8,434.9h-63.3c-1.3,0-2.3-1-2.3-2.3l0,0c0-1.3,1-2.3,2.3-2.3h63.3c1.3,0,2.3,1,2.3,2.3l0,0
			C237.2,433.8,236.1,434.9,234.8,434.9z"/>
		<path class="st3" d="M234.8,473.5h-63.3c-1.3,0-2.3-1-2.3-2.3l0,0c0-1.3,1-2.3,2.3-2.3h63.3c1.3,0,2.3,1,2.3,2.3l0,0
			C237.2,472.5,236.1,473.5,234.8,473.5z"/>
		<path class="st3" d="M234.8,512.2h-63.3c-1.3,0-2.3-1-2.3-2.3l0,0c0-1.3,1-2.3,2.3-2.3h63.3c1.3,0,2.3,1,2.3,2.3l0,0
			C237.2,511.1,236.1,512.2,234.8,512.2z"/>
		<path class="st3" d="M234.8,550.9h-63.3c-1.3,0-2.3-1-2.3-2.3l0,0c0-1.3,1-2.3,2.3-2.3h63.3c1.3,0,2.3,1,2.3,2.3l0,0
			C237.2,549.8,236.1,550.9,234.8,550.9z"/>
	</g>
	<g>
		<path class="st3" d="M618.3,434.9H555c-1.3,0-2.3-1-2.3-2.3l0,0c0-1.3,1-2.3,2.3-2.3h63.3c1.3,0,2.3,1,2.3,2.3l0,0
			C620.6,433.8,619.6,434.9,618.3,434.9z"/>
		<path class="st3" d="M618.3,473.5H555c-1.3,0-2.3-1-2.3-2.3l0,0c0-1.3,1-2.3,2.3-2.3h63.3c1.3,0,2.3,1,2.3,2.3l0,0
			C620.6,472.5,619.6,473.5,618.3,473.5z"/>
		<path class="st3" d="M618.3,512.2H555c-1.3,0-2.3-1-2.3-2.3l0,0c0-1.3,1-2.3,2.3-2.3h63.3c1.3,0,2.3,1,2.3,2.3l0,0
			C620.6,511.1,619.6,512.2,618.3,512.2z"/>
		<path class="st3" d="M618.3,550.9H555c-1.3,0-2.3-1-2.3-2.3l0,0c0-1.3,1-2.3,2.3-2.3h63.3c1.3,0,2.3,1,2.3,2.3l0,0
			C620.6,549.8,619.6,550.9,618.3,550.9z"/>
	</g>
</g>
<g id="lamp">
	
		<rect x="205.5" y="263.4" transform="matrix(-0.8166 -0.5772 0.5772 -0.8166 207.9527 654.8367)" class="st4" width="5" height="61.9"/>
	<rect x="188.9" y="314.9" class="st4" width="5" height="61.9"/>
	<circle class="st5" cx="191.4" cy="317.4" r="7"/>
	<circle class="st1" cx="249.4" cy="281.2" r="9.4"/>
	<rect x="169.5" y="366.6" class="st5" width="43.8" height="11.1"/>
	<path class="st5" d="M263.5,263.2c-9.8-7.5-21.8-5.3-21.8-5.3l-13.7-9.9c-1.8-1.3-4.2-0.9-5.5,0.9c0,0-10.9,15.2-11,15.5
		c-1.1,1.8-0.7,4,1,5.3l13.7,9.9c0,0,1.7,12.1,11.9,19c0.5,0.7,1.7,0.4,2.4-0.5c0,0,23.2-32.4,23.3-32.6l0,0
		C264.4,264.7,264.4,263.4,263.5,263.2z"/>
</g>
<g>
	<polygon class="st1" points="426.2,377.9 364.9,377.9 377.3,349.7 413.8,349.7 	"/>
	<polygon class="st6" points="370.8,364.4 420.3,364.4 415.5,353.5 375.6,353.5 	"/>
	<path class="st5" d="M484.3,359.7H307.8c-4.3,0-7.8-3.5-7.8-7.8V236.2c0-4.3,3.5-7.8,7.8-7.8h176.5c4.3,0,7.8,3.5,7.8,7.8v115.6
		C492.1,356.2,488.6,359.7,484.3,359.7z"/>
	<rect x="309.7" y="236" class="st4" width="172.7" height="107.5"/>
	<path class="st1" d="M300,350v1.8c0,4.3,3.5,7.8,7.8,7.8h176.5c4.3,0,7.8-3.5,7.8-7.8V350H300z"/>
	<circle class="st5" cx="395.5" cy="354.8" r="1.9"/>
</g>
<circle class="st5" cx="521.3" cy="364" r="2.6"/>
<path class="st1" d="M536,359.5c-10.3,0-24.2,7.3-24.2,12.8c0,5.6,5,5,5,5h15.8h15.2c0,0,5,0.7,5-5
	C552.7,366.8,546.3,359.5,536,359.5z"/>
<g>
	<rect x="593.8" y="294" class="st7" width="6.9" height="75.6"/>
	<rect x="598.7" y="294" class="st8" width="2.3" height="75.6"/>
	<polygon class="st9" points="578.1,318.5 589,377.2 618.6,377.2 629.5,318.5 	"/>
	<polygon class="st10" points="584.1,336.4 591.3,375.1 616.3,375.1 623.5,336.4 	"/>
	<g>
		<g>
			<g>
				<circle class="st11" cx="592.9" cy="367.3" r="1.9"/>
				<circle class="st11" cx="597.3" cy="367.3" r="1.9"/>
				<circle class="st11" cx="601.6" cy="367.3" r="1.9"/>
				<circle class="st11" cx="606" cy="367.3" r="1.9"/>
				<circle class="st11" cx="610.3" cy="367.3" r="1.9"/>
				<circle class="st11" cx="614.7" cy="367.3" r="1.9"/>
			</g>
		</g>
		<circle class="st11" cx="595.1" cy="371.5" r="1.9"/>
		<circle class="st11" cx="599.5" cy="371.5" r="1.9"/>
		<circle class="st11" cx="603.8" cy="371.5" r="1.9"/>
		<circle class="st11" cx="608.2" cy="371.5" r="1.9"/>
		<circle class="st11" cx="612.5" cy="371.5" r="1.9"/>
	</g>
	<polygon class="st12" points="630.1,315.6 610.8,315.6 596.8,315.6 577.6,315.6 575.7,320.9 584.6,320.9 623.1,320.9 631.9,320.9 	
		"/>
</g>
<rect x="216.3" y="120" class="st12" width="216" height="17"/>
<rect x="485.8" y="170.5" class="st12" width="216" height="17"/>
<g>
	<path class="st5" d="M261.6,88.6h-2c-1.4,0-2.5-1.1-2.5-2.5v0c0-1.4,1.1-2.5,2.5-2.5h2c1.4,0,2.5,1.1,2.5,2.5v0
		C264.2,87.5,263,88.6,261.6,88.6z"/>
	<path class="st13" d="M305.3,120h-50.5c-1.9,0-3.5-1.6-3.5-3.5V90.1c0-1.9,1.6-3.5,3.5-3.5h50.5c1.9,0,3.5,1.6,3.5,3.5v26.4
		C308.7,118.4,307.2,120,305.3,120z"/>
	<rect x="251.3" y="95.2" class="st5" width="57.4" height="16.2"/>
	<circle class="st1" cx="280" cy="103.3" r="12.9"/>
	<circle class="st11" cx="280" cy="103.3" r="10.2"/>
	<circle class="st1" cx="275.7" cy="98.9" r="1.9"/>
	<circle class="st14" cx="260.6" cy="91.3" r="1.4"/>
	<circle class="st1" cx="277.5" cy="100.1" r="1.2"/>
	<path class="st5" d="M302.5,93.1h-5.4c-1,0-1.9-0.8-1.9-1.9v0c0-1,0.8-1.9,1.9-1.9h5.4c1,0,1.9,0.8,1.9,1.9v0
		C304.4,92.3,303.6,93.1,302.5,93.1z"/>
</g>
<g>
	<path class="st15" d="M673.6,170.5H523.8c-4,0-7.2-3.2-7.2-7.2v-16c0-4,3.2-7.2,7.2-7.2h149.9c4,0,7.2,3.2,7.2,7.2v16
		C680.9,167.3,677.6,170.5,673.6,170.5z"/>
	<path class="st16" d="M516.5,155.2v8c0,4,3.2,7.2,7.2,7.2h149.9c4,0,7.2-3.2,7.2-7.2v-8H516.5z"/>
	<rect x="603.9" y="145" class="st1" width="63.9" height="20.5"/>
	<rect x="549.6" y="140" class="st1" width="6.4" height="30.5"/>
	<rect x="537.2" y="140" class="st1" width="6.4" height="30.5"/>
</g>
<g>
	<path class="st17" d="M655.1,140H542.3c-3,0-5.4-2.4-5.4-5.4v-12.2c0-3,2.4-5.4,5.4-5.4h112.7c3,0,5.4,2.4,5.4,5.4v12.2
		C660.5,137.6,658,140,655.1,140z"/>
	<path class="st18" d="M537,128.5v6c0,3,2.4,5.4,5.4,5.4H655c3,0,5.4-2.4,5.4-5.4v-6H537z"/>
	<rect x="568.2" y="120.8" class="st1" width="61" height="15.4"/>
	<g>
		<rect x="640.3" y="117.1" class="st1" width="4.8" height="22.9"/>
		<rect x="552.3" y="117.1" class="st1" width="4.8" height="22.9"/>
	</g>
</g>
<g>
	<circle class="st12" cx="100.3" cy="83.5" r="53"/>
	<circle class="st2" cx="100.3" cy="83.5" r="44.5"/>
	<polygon class="st5" points="116.4,72.8 114.5,70.9 101.7,83.3 101.7,43 99,43 99,86.4 101,87.9 	"/>
</g>
<g>
	<path class="st5" d="M387.1,119.8h-29.2c-2.5,0-4.5-2-4.5-4.5V86.1c0-2.5,2-4.5,4.5-4.5h29.2c2.5,0,4.5,2,4.5,4.5v29.2
		C391.6,117.8,389.6,119.8,387.1,119.8z"/>
	<g>
		<path class="st15" d="M364.3,94.1h-7.7c-0.7,0-1.3-0.6-1.3-1.3v-7.7c0-0.7,0.6-1.3,1.3-1.3h7.7c0.7,0,1.3,0.6,1.3,1.3v7.7
			C365.7,93.6,365.1,94.1,364.3,94.1z"/>
		<path class="st19" d="M376.7,94.1h-8c-0.6,0-1.2-0.5-1.2-1.2v-8c0-0.6,0.5-1.2,1.2-1.2h8c0.6,0,1.2,0.5,1.2,1.2v8
			C377.9,93.6,377.4,94.1,376.7,94.1z"/>
		<path class="st20" d="M388.4,94.1h-7.7c-0.7,0-1.3-0.6-1.3-1.3v-7.7c0-0.7,0.6-1.3,1.3-1.3h7.7c0.7,0,1.3,0.6,1.3,1.3v7.7
			C389.7,93.6,389.1,94.1,388.4,94.1z"/>
		<path class="st19" d="M364.5,105.9h-8c-0.6,0-1.2-0.5-1.2-1.2v-8c0-0.6,0.5-1.2,1.2-1.2h8c0.6,0,1.2,0.5,1.2,1.2v8
			C365.7,105.4,365.1,105.9,364.5,105.9z"/>
		<path class="st18" d="M376.7,105.9h-8c-0.6,0-1.2-0.5-1.2-1.2v-8c0-0.6,0.5-1.2,1.2-1.2h8c0.6,0,1.2,0.5,1.2,1.2v8
			C377.9,105.4,377.4,105.9,376.7,105.9z"/>
		<path class="st18" d="M388.5,105.9h-8c-0.6,0-1.2-0.5-1.2-1.2v-8c0-0.6,0.5-1.2,1.2-1.2h8c0.6,0,1.2,0.5,1.2,1.2v8
			C389.7,105.4,389.2,105.9,388.5,105.9z"/>
		<path class="st19" d="M364.3,117.6h-7.7c-0.7,0-1.3-0.6-1.3-1.3v-7.7c0-0.7,0.6-1.3,1.3-1.3h7.7c0.7,0,1.3,0.6,1.3,1.3v7.7
			C365.7,117,365.1,117.6,364.3,117.6z"/>
		<path class="st15" d="M376.7,117.6h-8c-0.6,0-1.2-0.5-1.2-1.2v-8c0-0.6,0.5-1.2,1.2-1.2h8c0.6,0,1.2,0.5,1.2,1.2v8
			C377.9,117.1,377.4,117.6,376.7,117.6z"/>
		<path class="st20" d="M388.4,117.6h-7.7c-0.7,0-1.3-0.6-1.3-1.3v-7.7c0-0.7,0.6-1.3,1.3-1.3h7.7c0.7,0,1.3,0.6,1.3,1.3v7.7
			C389.7,117,389.1,117.6,388.4,117.6z"/>
	</g>
</g>
</svg>
